<?xml version="1.0" standalone="no"?>
<!DOCTYPE svg PUBLIC "-//W3C//DTD SVG 1.1//EN" "http://www.w3.org/Graphics/SVG/1.1/DTD/svg11.dtd" >
<svg>
<metadata>
Created by FontForge 20090914 at Sun Jan  4 11:17:29 2015
 By www-data
 
</metadata>
<defs>
<font id="Futuris" horiz-adv-x="498" >
  <font-face 
    font-family="Futuris"
    font-weight="400"
    font-stretch="normal"
    units-per-em="1000"
    panose-1="0 0 0 0 0 0 0 0 0 0"
    ascent="800"
    descent="-200"
    x-height="434"
    cap-height="700"
    bbox="0 -224 1149 851"
    underline-thickness="50"
    underline-position="-55"
    unicode-range="U+0020-U+2219"
  />
<missing-glyph 
d="M74 0v434h60v-386h230v386h60v-434h-147v-126h-56v126h-147v0z" />
    <glyph glyph-name=".notdef" 
d="M74 0v434h60v-386h230v386h60v-434h-147v-126h-56v126h-147v0z" />
    <glyph glyph-name="glyph3" unicode=" " horiz-adv-x="351" 
 />
    <glyph glyph-name="glyph4" unicode="!" horiz-adv-x="232" 
d="M70 35c0 12.667 4.5 23.5 13.5 32.5s19.833 13.5 32.5 13.5s23.5 -4.33301 32.5 -13s13.5 -19.667 13.5 -33c0 -12.667 -4.5 -23.334 -13.5 -32.001s-19.833 -13 -32.5 -13s-23.5 4.33301 -32.5 13s-13.5 19.334 -13.5 32.001v0zM86 140v560h60v-560h-60v0z" />
    <glyph glyph-name="glyph5" unicode="&#x22;" horiz-adv-x="338" 
d="M148 700l-29 -203h-42l-27 203h98v0zM288 700l-29 -203h-42l-27 203h98v0z" />
    <glyph glyph-name="glyph6" unicode="#" horiz-adv-x="796" 
d="M144 515h136l25 145h56l-25 -145h181l25 145h56l-25 -145h135l-12 -68h-135l-33 -194h134l-11 -68h-135l-25 -145h-56l25 145h-181l-25 -145h-56l25 145h-135l11 68h136l33 194h-135l11 68v0zM472 253l33 194h-181l-33 -194h181v0z" />
    <glyph glyph-name="glyph7" unicode="$" horiz-adv-x="521" 
d="M285 -18l0.00195312 -100.99h-54v101c-39.333 3.33301 -76.833 16.5 -112.5 39.5s-65.834 61.5 -90.501 115.5l64 32c2.66699 -7.33301 6.16699 -15.5 10.5 -24.5s9.83301 -18.5 16.5 -28.5c13.333 -18.667 31.333 -35.834 54 -51.501s52 -23.5 88 -23.5
c44.667 0 80.167 14.667 106.5 44s39.5 64.333 39.5 105s-11.833 71.5 -35.5 92.5s-49.834 38.167 -78.501 51.5c-6.66699 4 -13.5 7.5 -20.5 10.5s-13.833 6.16699 -20.5 9.5c-0.666992 0 -1.16699 0.166992 -1.5 0.5s-0.833008 0.5 -1.5 0.5
c-47.333 23.333 -89.166 49.166 -125.499 77.499s-54.5 69.166 -54.5 122.499c0 44 11.667 77.833 35 101.5s48.666 40.167 75.999 49.5c9.33301 2.66699 18.166 5 26.499 7s16.5 3.33301 24.5 4v88h54v-88c9.33301 -0.666992 19 -2 29 -4s20.333 -5 31 -9
c18 -6.66699 35.667 -17.334 53 -32.001s32.666 -34.667 45.999 -60l-55 -32c-7.33301 17.333 -16.166 31.166 -26.499 41.499s-21.166 18.166 -32.499 23.499c-13.333 6.66699 -25.833 10.834 -37.5 12.501s-21.167 2.5 -28.5 2.5c-38 0 -66.167 -7.83301 -84.5 -23.5
s-29.833 -32.834 -34.5 -51.501c-1.33301 -4.66699 -2.33301 -9.33398 -3 -14.001s-1 -9.33398 -1 -14.001c0 -34.667 13 -62 39 -82s54.333 -37.333 85 -52l17.5 -8l16.5 -8c2 -0.666992 3.83301 -1.5 5.5 -2.5s3.5 -1.83301 5.5 -2.5c42 -20 80.667 -44.667 116 -74
s53 -74 53 -134c0 -54.667 -17.667 -102.334 -53 -143.001s-82.333 -63.334 -141 -68.001v-1z" />
    <glyph glyph-name="glyph8" unicode="%" horiz-adv-x="792" 
d="M151 -21l413 742h49l-413 -742h-49v0zM445 161c0 48.667 16.5 87.5 49.5 116.5s69.167 43.833 108.5 44.5h1.5h1.5c43.333 0 81 -15.5 113 -46.5s48 -69.167 48 -114.5c0 -42.667 -15.667 -80.167 -47 -112.5s-69.333 -48.5 -114 -48.5s-82.667 15.667 -114 47
s-47 69.333 -47 114v0zM501 161c0 -30 9.99805 -56.333 29.998 -79s45 -34 75 -34c28.667 0 53.334 10.833 74.001 32.5s31 48.5 31 80.5c0 30.667 -10.167 57.167 -30.5 79.5s-45.166 33.5 -74.499 33.5c-30 0 -55 -11.167 -75 -33.5s-30 -48.833 -30 -79.5v0zM24.998 553
c0 48.667 16.5 87.5 49.5 116.5s69.167 43.833 108.5 44.5h1.5h1.5c43.333 0 81 -15.5 113 -46.5s48 -69.167 48 -114.5c0 -42.667 -15.667 -80.167 -47 -112.5s-69.333 -48.5 -114 -48.5s-82.667 15.667 -114 47s-47 69.333 -47 114v0zM80.998 553
c0 -32 10.333 -58.833 31 -80.5s45.334 -32.5 74.001 -32.5s53.334 10.833 74.001 32.5s31 48.5 31 80.5s-10.333 58.833 -31 80.5s-45.334 32.5 -74.001 32.5s-53.334 -10.833 -74.001 -32.5s-31 -48.5 -31 -80.5v0z" />
    <glyph glyph-name="glyph9" unicode="&#x26;" horiz-adv-x="625" 
d="M544 0l-79.999 100.997c-4 -5.33301 -9.83301 -12.166 -17.5 -20.499l-25.5 -26.5l-12.5 -12c-4.33301 -4 -8.5 -7.66699 -12.5 -11c-8 -6.66699 -16 -12.667 -24 -18s-15.667 -9.66602 -23 -12.999c-14.667 -6.66699 -29.667 -11.167 -45 -13.5s-32.333 -3.5 -51 -3.5
c-62 0 -109.333 15.833 -142 47.5s-53 66.5 -61 104.5c-1.33301 6.66699 -2.33301 13.167 -3 19.5s-1 12.833 -1 19.5c0 52 14.5 94 43.5 126s65.167 62.333 108.5 91c3.33301 2.66699 7 5.16699 11 7.5s8 4.83301 12 7.5l-18 21c-6 6.66699 -11.667 13.667 -17 21
c-13.333 18 -24.5 36.167 -33.5 54.5s-13.5 38.166 -13.5 59.499c0 42 15.5 75.5 46.5 100.5s66.5 37.5 106.5 37.5c47.333 0 82.166 -13.667 104.499 -41s33.5 -59.333 33.5 -96c0 -9.33301 -0.833008 -18.166 -2.5 -26.499s-4.16699 -16.833 -7.5 -25.5
c-8 -17.333 -21.167 -35.166 -39.5 -53.499s-44.5 -39.5 -78.5 -63.5l167 -209l94 111l42 -34l-102 -120l111 -142h-70v0zM430.001 141.997l-177 223l-36 -26c-11.333 -8 -22 -16.333 -32 -25c-23.333 -18.667 -41.666 -38.667 -54.999 -60s-20 -48 -20 -80
c0 -38 14 -71.5 42 -100.5s62.333 -43.5 103 -43.5c12 0 22.833 1 32.5 3s19.167 5 28.5 9c16 8 32.667 19.833 50 35.5s38.666 37.167 63.999 64.5v0zM271.001 432.997c6.66699 4 13.166 8.16797 19.499 12.501l17.5 12.5c19.333 15.333 34.166 31.166 44.499 47.499
s15.5 36.5 15.5 60.5c0 21.333 -7.33301 41 -22 59s-33.667 27 -57 27h-1.5h-1.5c-21.333 -0.666992 -41 -8.5 -59 -23.5s-27 -36.833 -27 -65.5c0 -2.66699 0.166992 -5.5 0.5 -8.5s0.833008 -6.16699 1.5 -9.5c2.66699 -14 7.83398 -28 15.501 -42
s15.834 -26.667 24.501 -38c5.33301 -6.66699 10.5 -12.667 15.5 -18l13.5 -14v0z" />
    <glyph glyph-name="glyph10" unicode="'" horiz-adv-x="198" 
d="M148 700l-29 -203h-42l-27 203h98v0z" />
    <glyph glyph-name="glyph11" unicode="(" horiz-adv-x="218" 
d="M190 -210l-48 -12.998c-9.33301 23.333 -17.833 46.833 -25.5 70.5s-14.5 47.167 -20.5 70.5c-16.667 61.333 -28.667 122 -36 182s-11 114.333 -11 163c0 32.667 1.5 66 4.5 100s7.16699 68.333 12.5 103c8 49.333 18.5 97.833 31.5 145.5s27.833 93.167 44.5 136.5
l48 -13c-30.667 -100.667 -51.167 -191 -61.5 -271s-15.5 -147 -15.5 -201c0 -54.667 5.16699 -121.834 15.5 -201.501s30.833 -169.834 61.5 -270.501v-1z" />
    <glyph glyph-name="glyph12" unicode=")" horiz-adv-x="218" 
d="M28 735l48 13.001c17.333 -43.333 32.333 -88.833 45 -136.5s23 -96.167 31 -145.5c5.33301 -34.667 9.5 -69 12.5 -103s4.5 -67.333 4.5 -100c0 -48.667 -3.66699 -103 -11 -163s-19.333 -120.667 -36 -182c-6 -23.333 -12.833 -46.833 -20.5 -70.5
s-16.167 -46.834 -25.5 -69.501l-48 12c34.667 112.667 56.167 208.167 64.5 286.5s12.5 140.5 12.5 186.5c0 45.333 -4.16699 107.333 -12.5 186s-29.833 174 -64.5 286v0z" />
    <glyph glyph-name="glyph13" unicode="*" horiz-adv-x="407" 
d="M179 735h49v-126l109 63l24 -42l-108 -63l108 -63l-24 -42l-109 63v-126h-49v126l-108 -63l-25 42l109 63l-109 63l25 42l108 -63v126v0z" />
    <glyph glyph-name="glyph14" unicode="+" horiz-adv-x="600" 
d="M50 322v56h222v222h56v-222h222v-56h-222v-222h-56v222h-222v0z" />
    <glyph glyph-name="glyph15" unicode="," horiz-adv-x="253" 
d="M46 -134l91 246l70 -33l-125 -230l-36 17v0z" />
    <glyph glyph-name="glyph16" unicode="-" horiz-adv-x="308" 
d="M42 288h224v-60h-224v60v0z" />
    <glyph glyph-name="glyph17" unicode="." horiz-adv-x="232" 
d="M70 35c0 13.333 4.5 24.333 13.5 33s19.833 13 32.5 13c13.333 0 24.333 -4.5 33 -13.5s13 -19.833 13 -32.5s-4.33301 -23.334 -13 -32.001s-19.667 -13 -33 -13c-12.667 0 -23.5 4.33301 -32.5 13s-13.5 19.334 -13.5 32.001v0z" />
    <glyph glyph-name="glyph18" unicode="/" horiz-adv-x="476" 
d="M21 -210l378 945h56l-378 -945h-56v0z" />
    <glyph glyph-name="glyph19" unicode="0" horiz-adv-x="548" 
d="M274 -20c-11.333 0.666992 -26 2.33398 -44 5.00098s-36.333 9.66699 -55 21c-30.667 18 -58.667 52.667 -84 104s-38 131.333 -38 240c0 105.333 12 183.5 36 234.5s50.333 86.167 79 105.5c22 15.333 42.833 24.166 62.5 26.499s34.167 3.5 43.5 3.5
s23.833 -1.16699 43.5 -3.5s40.5 -11.166 62.5 -26.499c28.667 -19.333 55 -54.5 79 -105.5s36 -129.167 36 -234.5c0 -109.333 -12.667 -189.5 -38 -240.5s-53.333 -85.833 -84 -104.5c-18.667 -10.667 -37 -17.334 -55 -20.001s-32.667 -4 -44 -4v-1zM274 35
c6.66699 0 13.6689 0.500977 21.002 1.50098s14.333 2.83301 21 5.5c28 10.667 53.5 37.667 76.5 81s34.5 119 34.5 227c0 109.333 -11.833 185.666 -35.5 228.999s-49.5 70 -77.5 80c-6.66699 2 -13.334 3.5 -20.001 4.5s-13.334 1.5 -20.001 1.5c-8 0 -18.167 -1 -30.5 -3
s-24.833 -7.66699 -37.5 -17c-21.333 -15.333 -40.833 -44.833 -58.5 -88.5s-26.5 -112.5 -26.5 -206.5s8.83301 -162.833 26.5 -206.5s37.167 -73.167 58.5 -88.5c12.667 -9.33301 25.167 -15 37.5 -17s22.5 -3 30.5 -3v0z" />
    <glyph glyph-name="glyph20" unicode="1" horiz-adv-x="548" 
d="M265 0v644h-119l27 56h160v-700h-68v0z" />
    <glyph glyph-name="glyph21" unicode="2" horiz-adv-x="548" 
d="M487 56l-0.000976562 -56h-437l167 179c60 64 105 114.667 135 152s50.333 72 61 104c3.33301 11.333 5.83301 22.666 7.5 33.999s2.5 23.333 2.5 36c0 49.333 -12.5 88.166 -37.5 116.499s-57.167 42.5 -96.5 42.5c-47.333 0 -83.166 -13.333 -107.499 -40
s-40.5 -56 -48.5 -88c-2.66699 -10.667 -4.5 -21.167 -5.5 -31.5s-1.5 -20.166 -1.5 -29.499h-68c0.666992 64 20 120.833 58 170.5s97.333 74.5 178 74.5c63.333 0 112 -21.167 146 -63.5s51 -93.166 51 -152.499c0 -15.333 -1 -29.833 -3 -43.5
s-5.33301 -27.167 -10 -40.5c-11.333 -32.667 -30.666 -67 -57.999 -103s-65.666 -80 -114.999 -132l-37 -39l-30 -32c-0.666992 -0.666992 -1.33398 -1.5 -2.00098 -2.5s-1.33398 -1.83301 -2.00098 -2.5l-22.5 -24.5l-25.5 -28.5h301v0z" />
    <glyph glyph-name="glyph22" unicode="3" horiz-adv-x="548" 
d="M50 175l67.0039 -0.000976562c0 -6.66699 0.5 -13.334 1.5 -20.001s2.5 -13.667 4.5 -21c7.33301 -24.667 22 -47.167 44 -67.5s54.667 -30.5 98 -30.5c47.333 0 85.5 14.167 114.5 42.5s43.5 64.166 43.5 107.499c0 45.333 -10.833 78.5 -32.5 99.5
s-45.5 35.167 -71.5 42.5c-12.667 4 -25.334 6.5 -38.001 7.5s-24 1.5 -34 1.5h-7.5h-6.5v56h4.5h5.5c1.33301 -0.666992 2.83301 -1 4.5 -1h5.5c6.66699 0 13.667 0.333008 21 1s14.333 1.66699 21 3c28 4.66699 53.5 16.334 76.5 35.001s34.5 50 34.5 94
c0 44.667 -13.333 79 -40 103s-59.667 36 -99 36c-38.667 0 -67.667 -9.66699 -87 -29s-32.666 -40.666 -39.999 -63.999l-5.5 -21c-1.66699 -6.66699 -2.83398 -13.334 -3.50098 -20.001h-63c0.666992 8 1.83398 16.167 3.50098 24.5s3.5 16.833 5.5 25.5
c10.667 34.667 31.167 66.667 61.5 96s75.833 44 136.5 44c55.333 0 101.5 -15.667 138.5 -47s55.5 -77.666 55.5 -138.999c0 -8.66699 -0.333008 -17.667 -1 -27s-2.33398 -19 -5.00098 -29c-5.33301 -21.333 -15.833 -42 -31.5 -62s-40.5 -36.333 -74.5 -49v-2
c7.33301 -2 15.666 -4.66699 24.999 -8s18.666 -7.66602 27.999 -12.999c20.667 -12 39.334 -30 56.001 -54s25 -57.333 25 -100c0 -61.333 -20.833 -111.5 -62.5 -150.5s-96.834 -58.5 -165.501 -58.5c-69.333 0 -120.833 18.167 -154.5 54.5s-52.834 76.833 -57.501 121.5
c0 2.66699 -0.166992 5.5 -0.5 8.5s-0.5 6.16699 -0.5 9.5v0z" />
    <glyph glyph-name="glyph23" unicode="4" horiz-adv-x="548" 
d="M340 0v165h-315l363 555h16v-499h74v-56h-74v-165h-64v0zM340 221v337l-215 -337h215v0z" />
    <glyph glyph-name="glyph24" unicode="5" horiz-adv-x="548" 
d="M454 644l-226.995 -0.000976562l-52 -215l15.5 6c5 2 9.83301 3.66699 14.5 5c10 3.33301 20.167 5.83301 30.5 7.5s20.166 2.5 29.499 2.5c55.333 0 105.166 -18.833 149.499 -56.5s66.5 -94.167 66.5 -169.5c0 -71.333 -20.833 -129.666 -62.5 -174.999
s-97.167 -68 -166.5 -68c-6.66699 0 -13.334 0.166992 -20.001 0.5s-13.334 1.16602 -20.001 2.49902c-31.333 4.66699 -62 16.834 -92 36.501s-56.667 52.167 -80 97.5l52 29c9.33301 -18 19 -33.167 29 -45.5s20 -22.833 30 -31.5c17.333 -14 34.333 -23.167 51 -27.5
s32 -6.5 46 -6.5c57.333 0 99.166 18.833 125.499 56.5s39.5 82.5 39.5 134.5c0 53.333 -14.167 94.5 -42.5 123.5s-67.166 43.5 -116.499 43.5c-12.667 0 -28.334 -1.16699 -47.001 -3.5s-38 -8.83301 -58 -19.5c-6.66699 -4 -13.167 -8.33301 -19.5 -13
s-12.833 -10 -19.5 -16l-18 5l84 353h278v-56v0z" />
    <glyph glyph-name="glyph25" unicode="6" horiz-adv-x="548" 
d="M350 720l54.002 -31.998l-205 -293c12.667 6.66699 25.667 11.5 39 14.5s28.666 4.5 45.999 4.5c62 0 112 -19.667 150 -59s57 -88 57 -146c0 -11.333 -0.833008 -23.333 -2.5 -36s-4.16699 -25.334 -7.5 -38.001c-11.333 -38.667 -33 -74 -65 -106s-79 -48 -141 -48
c-70 0 -123.833 20.333 -161.5 61s-56.5 92.334 -56.5 155.001c0 44.667 7.16699 81.5 21.5 110.5s30.166 56.167 47.499 81.5c0.666992 1.33301 1.5 2.66602 2.5 3.99902s1.83301 2.66602 2.5 3.99902l219 323v0zM274.002 36.002c49.333 0 86.5 16.334 111.5 49.001
s37.5 71.667 37.5 117c0 41.333 -12.333 77.666 -37 108.999s-62 47 -112 47c-41.333 0 -76.5 -13.5 -105.5 -40.5s-43.5 -65.5 -43.5 -115.5c0 -44.667 12.5 -83.5 37.5 -116.5s62.167 -49.5 111.5 -49.5v0z" />
    <glyph glyph-name="glyph26" unicode="7" horiz-adv-x="548" 
d="M100 5l306 639h-342v56h441l-350 -720l-55 25v0z" />
    <glyph glyph-name="glyph27" unicode="8" horiz-adv-x="548" 
d="M348 377v-1.99902c42.667 -10.667 76.667 -32.667 102 -66s38 -71.666 38 -114.999c0 -58.667 -18.667 -108.834 -56 -150.501s-90 -62.5 -158 -62.5c-69.333 0 -122.333 20.667 -159 62s-55 91.666 -55 150.999c0 52 14.5 93 43.5 123s61.167 49.333 96.5 58v2
c-2.66699 0.666992 -5.5 1.5 -8.5 2.5s-5.83301 2.16699 -8.5 3.5c-24.667 10.667 -47.167 28 -67.5 52s-30.5 58.333 -30.5 103c0 53.333 13.667 93.5 41 120.5s57.666 44.833 90.999 53.5c10 2.66699 19.833 4.66699 29.5 6s18.834 2 27.501 2s17.834 -0.666992 27.501 -2
s19.5 -3.33301 29.5 -6c33.333 -8.66699 63.666 -26.5 90.999 -53.5s41 -67.167 41 -120.5c0 -44.667 -10.167 -79 -30.5 -103s-42.833 -41.333 -67.5 -52c-2.66699 -1.33301 -5.5 -2.5 -8.5 -3.5s-5.83301 -1.83301 -8.5 -2.5v0zM274 36.001
c47.333 0 83.833 15.5 109.5 46.5s38.5 67.833 38.5 110.5c0 44.667 -14.167 81 -42.5 109s-63.5 42 -105.5 42c-42.667 0 -78.167 -13.833 -106.5 -41.5s-42.5 -64.167 -42.5 -109.5c0 -42.667 13.167 -79.5 39.5 -110.5s62.833 -46.5 109.5 -46.5v0zM274 400.001
c35.333 0 65.166 12.166 89.499 36.499s36.5 56.166 36.5 95.499v7.5c0 2.33301 -0.333008 4.83301 -1 7.5c-2 29.333 -12.667 56.166 -32 80.499s-50.333 36.5 -93 36.5c-34.667 0 -61 -8.16699 -79 -24.5s-30.333 -34.166 -37 -53.499c-4 -10 -6.66699 -19.667 -8 -29
s-2 -17.666 -2 -24.999c0 -39.333 12.833 -71.166 38.5 -95.499s54.834 -36.5 87.501 -36.5v0z" />
    <glyph glyph-name="glyph28" unicode="9" horiz-adv-x="548" 
d="M198 -20l-54.002 31.9971l205 293c-12.667 -6.66699 -25.667 -11.5 -39 -14.5s-28.666 -4.5 -45.999 -4.5c-62 0 -112 19.667 -150 59s-57 88 -57 146c0 11.333 0.833008 23.333 2.5 36s4.16699 25.334 7.5 38.001c11.333 38.667 33 74.167 65 106.5s79 48.5 141 48.5
c70 0 123.833 -20.333 161.5 -61s56.5 -92.667 56.5 -156c0 -44.667 -7.16699 -81.5 -21.5 -110.5s-30.166 -56.167 -47.499 -81.5c-0.666992 -1.33301 -1.5 -2.66602 -2.5 -3.99902s-1.83301 -2.66602 -2.5 -3.99902l-219 -323v0zM273.998 663.997
c-49.333 0 -86.5 -16.334 -111.5 -49.001s-37.5 -71.667 -37.5 -117c0 -41.333 12.333 -77.666 37 -108.999s62 -47 112 -47c41.333 0 76.5 13.5 105.5 40.5s43.5 65.5 43.5 115.5c0 45.333 -12.5 84.333 -37.5 117s-62.167 49 -111.5 49v0z" />
    <glyph glyph-name="glyph29" unicode=":" horiz-adv-x="232" 
d="M70 35c0 12.667 4.5 23.5 13.5 32.5s19.833 13.5 32.5 13.5s23.5 -4.33301 32.5 -13s13.5 -19.667 13.5 -33c0 -12.667 -4.5 -23.334 -13.5 -32.001s-19.833 -13 -32.5 -13s-23.5 4.33301 -32.5 13s-13.5 19.334 -13.5 32.001v0zM70 399c0 12.667 4.5 23.5 13.5 32.5
s19.833 13.5 32.5 13.5s23.5 -4.33301 32.5 -13s13.5 -19.667 13.5 -33c0 -12.667 -4.5 -23.5 -13.5 -32.5s-19.833 -13.5 -32.5 -13.5s-23.5 4.5 -32.5 13.5s-13.5 19.833 -13.5 32.5v0z" />
    <glyph glyph-name="glyph30" unicode=";" horiz-adv-x="253" 
d="M46 -134l91 246l70 -33l-125 -230l-36 17v0zM108 399c0 13.333 4.5 24.333 13.5 33s19.833 13 32.5 13s23.5 -4.33301 32.5 -13s13.5 -19.667 13.5 -33c0 -12.667 -4.5 -23.5 -13.5 -32.5s-19.833 -13.5 -32.5 -13.5s-23.5 4.5 -32.5 13.5s-13.5 19.833 -13.5 32.5v0z
" />
    <glyph glyph-name="glyph31" unicode="&#x3c;" horiz-adv-x="500" 
d="M118 350l332 -164v-56l-400 200v40l400 200v-56l-332 -164v0z" />
    <glyph glyph-name="glyph32" unicode="=" horiz-adv-x="600" 
d="M50 256v56h500v-56h-500v0zM50 388v56h500v-56h-500v0z" />
    <glyph glyph-name="glyph33" unicode="&#x3e;" horiz-adv-x="500" 
d="M382 350l-332 164v56l400 -200v-40l-400 -200v56l332 164v0z" />
    <glyph glyph-name="glyph34" unicode="?" horiz-adv-x="459" 
d="M182 35c0 13.333 4.5 24.333 13.5 33s19.833 13 32.5 13c13.333 0 24.333 -4.5 33 -13.5s13 -19.833 13 -32.5s-4.33301 -23.334 -13 -32.001s-19.667 -13 -33 -13c-12.667 0 -23.5 4.33301 -32.5 13s-13.5 19.334 -13.5 32.001v0zM108 538l-58.999 0.00195312
c0 8 0.5 16 1.5 24s2.5 16.333 4.5 25c8 33.333 25.833 63.833 53.5 91.5s69.834 41.5 126.501 41.5c50 0 91.667 -14 125 -42s50 -68 50 -120c0 -37.333 -8.33301 -66.833 -25 -88.5s-40 -41.834 -70 -60.501c-7.33301 -4.66699 -15.166 -9.33398 -23.499 -14.001
s-17.166 -9.33398 -26.499 -14.001c-15.333 -8 -29 -15.667 -41 -23s-22.667 -14.333 -32 -21c-14 -10.667 -24.5 -21.5 -31.5 -32.5s-10.5 -24.5 -10.5 -40.5v-4.5c0 -1.66699 0.333008 -3.5 1 -5.5c1.33301 -16 8.66602 -30.667 21.999 -44s34.666 -20 63.999 -20
c28 0 48.833 6 62.5 18s22.5 25 26.5 39c1.33301 5.33301 2.33301 10.333 3 15s1 9 1 13h55c0 -7.33301 -0.5 -15.166 -1.5 -23.499s-2.83301 -16.5 -5.5 -24.5c-7.33301 -23.333 -21.5 -44.666 -42.5 -63.999s-53.5 -29 -97.5 -29h-10
c-3.33301 0 -6.66602 0.333008 -9.99902 1c-32.667 3.33301 -62.834 15 -90.501 35s-41.5 49 -41.5 87c0 35.333 8.16699 63.166 24.5 83.499s38.5 38.833 66.5 55.5c7.33301 4.66699 15.166 9.33398 23.499 14.001l26.5 15l41 23.5c12 7 22.333 14.167 31 21.5
c15.333 12 26.333 24.667 33 38s10 30.666 10 51.999c0 28.667 -5.83301 50.167 -17.5 64.5s-24.5 24.166 -38.5 29.499c-10.667 4.66699 -20.667 7.5 -30 8.5s-16.333 1.5 -21 1.5c-34 0 -59.667 -7.16699 -77 -21.5s-29.666 -29.833 -36.999 -46.5
c-4.66699 -11.333 -7.83398 -22.166 -9.50098 -32.499s-2.83398 -18.833 -3.50098 -25.5v0z" />
    <glyph glyph-name="glyph35" unicode="@" horiz-adv-x="878" 
d="M638 530l-56.001 -259l-2 -11.5c-0.666992 -3.66699 -1 -7.16699 -1 -10.5c0 -12.667 2.83301 -22.5 8.5 -29.5s11.834 -12.167 18.501 -15.5c3.33301 -1.33301 6.66602 -2.33301 9.99902 -3s6.33301 -1 9 -1c5.33301 0 10.833 0.5 16.5 1.5s11.167 2.5 16.5 4.5
c24 8.66699 46 26.834 66 54.501s30 64.167 30 109.5c0 99.333 -32.667 173.166 -98 221.499s-139.333 72.5 -222 72.5c-81.333 0 -153.166 -27.5 -215.499 -82.5s-93.5 -132.167 -93.5 -231.5c0 -104 31.167 -182.5 93.5 -235.5s131.166 -81.5 206.499 -85.5
c3.33301 -0.666992 6.5 -1 9.5 -1h9.5c33.333 0 62.833 4.5 88.5 13.5s48.167 19.833 67.5 32.5l29 -44c-12 -7.33301 -24 -13.833 -36 -19.5s-23.667 -10.167 -35 -13.5c-18 -6 -36.333 -10.167 -55 -12.5s-38.334 -3.5 -59.001 -3.5
c-124.667 0 -219.167 36.333 -283.5 109s-96.5 159.334 -96.5 260.001c0 113.333 36.833 203.333 110.5 270s160.167 100 259.5 100c109.333 0 192.5 -25.333 249.5 -76s95.167 -106.334 114.5 -167.001c5.33301 -18.667 9.33301 -37 12 -55s4 -35.333 4 -52
c0 -58 -13.833 -103.5 -41.5 -136.5s-58.167 -55.833 -91.5 -68.5c-12 -4.66699 -23.833 -8 -35.5 -10s-22.5 -3 -32.5 -3c-23.333 0 -41 4.66699 -53 14s-20.667 19.333 -26 30c-1.33301 3.33301 -2.66602 6.5 -3.99902 9.5s-2.33301 5.83301 -3 8.5
c-14 -16 -31.833 -30.333 -53.5 -43s-49.167 -19 -82.5 -19c-49.333 0 -86.166 15.167 -110.499 45.5s-36.5 66.5 -36.5 108.5c0 7.33301 0.333008 15 1 23s2 15.667 4 23c10 48 33.333 91.833 70 131.5s83 59.5 139 59.5c33.333 0 58 -5.5 74 -16.5
s28.333 -23.833 37 -38.5l9 42h60v0zM401.999 200c34.667 1.33301 62.333 13.499 83 36.499s36 48.167 46 75.5c6 16.667 10.333 32.834 13 48.501s4 28.834 4 39.501c0 25.333 -6.33301 47.5 -19 66.5s-34 28.5 -64 28.5c-45.333 0 -81.833 -18 -109.5 -54
s-43.167 -75.667 -46.5 -119v-7.5v-6.5c0 -34.667 7.83301 -61.334 23.5 -80.001s37.5 -28 65.5 -28h0.5h1.5h1.5h0.5v0z" />
    <glyph glyph-name="glyph36" unicode="A" horiz-adv-x="649" 
d="M11 0l314 720l313 -720h-70l-97 228h-293l-97 -228h-70v0zM202 284h245l-122 287l-123 -287v0z" />
    <glyph glyph-name="glyph37" unicode="B" horiz-adv-x="564" 
d="M88 700l144 0.000976562h2h2c10.667 0 25.334 -0.5 44.001 -1.5s38.334 -4.16699 59.001 -9.5c30 -8 57.5 -23.5 82.5 -46.5s37.5 -59.167 37.5 -108.5c0 -36.667 -9.83301 -68.334 -29.5 -95.001s-44.834 -46 -75.501 -58v-2c4.66699 0 9.5 -0.5 14.5 -1.5
s9.83301 -1.83301 14.5 -2.5c33.333 -8 63.666 -26 90.999 -54s41 -68.333 41 -121c0 -66 -19 -114 -57 -144s-80 -48 -126 -54c-6.66699 -1.33301 -13.667 -2 -21 -2h-21h-4.5h-4.5h-4.5h-4.5h-184v700v0zM156 56.001l116.002 -0.000976562
c63.333 0 107.666 14.333 132.999 43s38.666 60.334 39.999 95.001v3.5v2.5c0 43.333 -14.333 78.333 -43 105s-73 40 -133 40h-113v-289v0zM156.002 401h89c3.33301 0 12 0.666992 26 2s29 5.33301 45 12c18.667 8 35.5 20.833 50.5 38.5s22.5 43.5 22.5 77.5
c0 29.333 -10.167 55.5 -30.5 78.5s-57.833 34.5 -112.5 34.5h-90v-243v0z" />
    <glyph glyph-name="glyph38" unicode="C" horiz-adv-x="700" 
d="M672 140l-0.00195312 -78.001c-5.33301 -4 -13.166 -9.5 -23.499 -16.5s-23.166 -14.167 -38.499 -21.5c-22 -10.667 -49.167 -20.5 -81.5 -29.5s-69.5 -13.5 -111.5 -13.5c-112 0 -200.167 36.833 -264.5 110.5s-96.5 159.834 -96.5 258.501
c0 114 36.5 204.167 109.5 270.5s156.833 99.5 251.5 99.5c36 0 75.5 -5 118.5 -15s88.5 -33 136.5 -69v-79c-32.667 32 -70 57.833 -112 77.5s-89 29.5 -141 29.5c-86 0 -155 -31 -207 -93s-80 -130 -84 -204v-8.5v-8.5c0 -79.333 26.167 -151.5 78.5 -216.5
s122.833 -97.5 211.5 -97.5c48 0 94 9.5 138 28.5s82.667 44.167 116 75.5v0z" />
    <glyph glyph-name="glyph39" unicode="D" horiz-adv-x="700" 
d="M88 0v700.002h174c118.667 0 207.167 -28.5 265.5 -85.5s94.5 -119.833 108.5 -188.5c2.66699 -12.667 4.66699 -25.334 6 -38.001s2 -25.334 2 -38.001c0 -10.667 -0.5 -21.167 -1.5 -31.5s-2.16699 -20.833 -3.5 -31.5c-12 -72 -47.167 -137.833 -105.5 -197.5
s-148.833 -89.5 -271.5 -89.5h-174v0zM156 56.002h99c116.667 0 198.667 30 246 90s71 128 71 204c0 86 -28 156.5 -84 211.5s-133.667 82.5 -233 82.5h-99v-588v0z" />
    <glyph glyph-name="glyph40" unicode="E" horiz-adv-x="519" 
d="M88 0v700h375v-56h-307v-224h296v-56h-296v-308h307v-56h-375v0z" />
    <glyph glyph-name="glyph41" unicode="F" horiz-adv-x="450" 
d="M88 0v700h330v-56h-262v-224h255v-56h-255v-364h-68v0z" />
    <glyph glyph-name="glyph42" unicode="G" horiz-adv-x="815" 
d="M435 340l323.999 0.00195312c0 -18.667 -1.33301 -38.667 -4 -60s-7.33398 -43 -14.001 -65c-16.667 -58.667 -49.167 -112.334 -97.5 -161.001s-122.166 -73 -221.499 -73c-106 0 -193.5 32.667 -262.5 98s-103.5 154.666 -103.5 267.999
c0 116 33.5 207.167 100.5 273.5s149.5 99.5 247.5 99.5c67.333 0 127.333 -14.167 180 -42.5s95.667 -67.833 129 -118.5l-52 -38l-12 16.5c-4 5.66699 -8.66699 11.5 -14 17.5c-22.667 27.333 -53 52.333 -91 75s-85 34 -141 34c-85.333 0 -152.5 -31.333 -201.5 -94
s-73.5 -137 -73.5 -223c0 -88.667 26 -162.667 78 -222s123.333 -89 214 -89c82 0 146.833 25.333 194.5 76s71.834 108 72.501 172h-252v56v0z" />
    <glyph glyph-name="glyph43" unicode="H" horiz-adv-x="715" 
d="M88 0v700h68v-287h403v287h68v-700h-68v357h-403v-357h-68v0z" />
    <glyph glyph-name="glyph44" unicode="I" horiz-adv-x="244" 
d="M88 0v700h68v-700h-68v0z" />
    <glyph glyph-name="glyph45" unicode="J" horiz-adv-x="413" 
d="M88 47l42.999 45.001c1.33301 -2 2.83301 -3.83301 4.5 -5.5s3.16699 -3.5 4.5 -5.5c17.333 -19.333 34.333 -31.666 51 -36.999s31.334 -8 44.001 -8c44 0 71.5 14.167 82.5 42.5s16.5 64.833 16.5 109.5v512h68v-516c0 -8 -0.166992 -16.333 -0.5 -25
s-0.833008 -17.334 -1.5 -26.001c-4 -38 -17 -72.833 -39 -104.5s-65 -47.5 -129 -47.5c-23.333 0 -44.5 3.16699 -63.5 9.5s-37.5 17.166 -55.5 32.499c-4 3.33301 -8.16699 7 -12.5 11s-8.5 8.33301 -12.5 13v0z" />
    <glyph glyph-name="glyph46" unicode="K" horiz-adv-x="571" 
d="M88 0v700h68v-325l313 325h84l-332 -339l339 -361h-91l-313 340v-340h-68v0z" />
    <glyph glyph-name="glyph47" unicode="L" horiz-adv-x="393" 
d="M88 0v700h68v-644h226v-56h-294v0z" />
    <glyph glyph-name="glyph48" unicode="M" horiz-adv-x="858" 
d="M42 0l95 728l292 -624l292 624l95 -728h-63l-67 518l-257 -546l-257 546l-67 -518h-63v0z" />
    <glyph glyph-name="glyph49" unicode="N" horiz-adv-x="775" 
d="M88 0v728l531 -585v557h68v-728l-531 585v-557h-68v0z" />
    <glyph glyph-name="glyph50" unicode="O" horiz-adv-x="868" 
d="M56 350c0 100 34 186.668 102 260.001s160 110 276 110c100.667 0 188.834 -33.167 264.501 -99.5s113.5 -156.5 113.5 -270.5s-37.833 -204 -113.5 -270s-163.834 -99 -264.501 -99c-102 0 -190.5 33.167 -265.5 99.5s-112.5 156.166 -112.5 269.499v0zM128 350.001
c0 -94.667 30.333 -170.667 91 -228s132.334 -86 215.001 -86s154.334 28.667 215.001 86s91 133.333 91 228c0 95.333 -30.333 171.5 -91 228.5s-132.334 85.5 -215.001 85.5s-154.334 -28.667 -215.001 -86s-91 -133.333 -91 -228v0z" />
    <glyph glyph-name="glyph51" unicode="P" horiz-adv-x="538" 
d="M88 0l-0.00195312 700.002h194c12 0 25.333 -0.666992 40 -2s30 -4 46 -8c30.667 -8.66699 59 -25.834 85 -51.501s39 -66.834 39 -123.501s-12.833 -98 -38.5 -124s-54.167 -43.333 -85.5 -52c-15.333 -4 -30.666 -6.66699 -45.999 -8s-28.666 -2 -39.999 -2h-126v-329
h-68v0zM155.998 644.002l0.00195312 -258.999h123c8 0 17.167 0.5 27.5 1.5s21.166 2.83301 32.499 5.5c20.667 6 39.667 18.167 57 36.5s26 47.166 26 86.499s-8.83301 68 -26.5 86s-36.834 30 -57.501 36c-10.667 2.66699 -21.167 4.5 -31.5 5.5s-19.5 1.5 -27.5 1.5h-123
v0z" />
    <glyph glyph-name="glyph52" unicode="Q" horiz-adv-x="868" 
d="M785 -49h-70.001l-73 85c-30 -18.667 -61.167 -32.5 -93.5 -41.5s-70.5 -13.5 -114.5 -13.5c-102 0 -190.5 33.167 -265.5 99.5s-112.5 156.166 -112.5 269.499c0 114 37.5 204.167 112.5 270.5s163.5 99.5 265.5 99.5c100.667 0 188.834 -33.167 264.501 -99.5
s113.5 -156.5 113.5 -270.5c0 -54 -10.5 -106.167 -31.5 -156.5s-53.167 -92.166 -96.5 -125.499l101 -117v0zM518.999 259l123 -143c32 27.333 56.333 61.5 73 102.5s25 84.833 25 131.5c0 95.333 -30.333 171.5 -91 228.5s-132.334 85.5 -215.001 85.5
s-154.334 -28.667 -215.001 -86s-91 -133.333 -91 -228s30.333 -170.667 91 -228s132.334 -86 215.001 -86c39.333 0 72.333 4.83301 99 14.5s49.334 20.5 68.001 32.5l-152 176h70v0z" />
    <glyph glyph-name="glyph53" unicode="R" horiz-adv-x="516" 
d="M88 0v700h187c10.667 0 24 -1 40 -3s32.667 -6.33301 50 -13c27.333 -10 52.333 -28.167 75 -54.5s34 -65.833 34 -118.5c0 -46 -15.833 -87.5 -47.5 -124.5s-89.167 -58.167 -172.5 -63.5l248 -323h-80l-240 322h-26v-322h-68v0zM156 378h70c69.333 0 116.333 13 141 39
s37 57.333 37 94c0 57.333 -16.5 93.833 -49.5 109.5s-70.5 23.5 -112.5 23.5h-86v-266v0z" />
    <glyph glyph-name="glyph54" unicode="S" horiz-adv-x="521" 
d="M443 614l-54.001 -32.001c-0.666992 1.33301 -1.33398 3 -2.00098 5s-1.66699 3.66699 -3 5c-9.33301 18 -23.666 34.5 -42.999 49.5s-45.333 22.5 -78 22.5c-35.333 0 -62 -7.16699 -80 -21.5s-30.333 -29.833 -37 -46.5c-3.33301 -6.66699 -5.5 -13.334 -6.5 -20.001
s-1.5 -13 -1.5 -19c0 -35.333 13.167 -63 39.5 -83s55.5 -37.333 87.5 -52c5.33301 -2.66699 10.666 -5.16699 15.999 -7.5s10.666 -4.83301 15.999 -7.5c2 -0.666992 3.83301 -1.5 5.5 -2.5s3.5 -1.83301 5.5 -2.5c42.667 -20.667 81.834 -45.334 117.501 -74.001
s53.5 -73.334 53.5 -134.001c0 -57.333 -20.167 -107.166 -60.5 -149.499s-95.166 -63.5 -164.499 -63.5c-50 0 -90.5 10.333 -121.5 31s-55.5 43.334 -73.5 68.001c-6.66699 10 -12.667 19.833 -18 29.5s-9.66602 18.834 -12.999 27.501l64 32
c0.666992 -2.66699 1.66699 -5.5 3 -8.5s2.66602 -5.83301 3.99902 -8.5c12 -29.333 31.167 -56 57.5 -80s60.833 -36 103.5 -36c45.333 0 81.166 15.167 107.499 45.5s39.5 66.5 39.5 108.5c0 32 -7.5 57.5 -22.5 76.5s-37.167 37.167 -66.5 54.5
c-9.33301 5.33301 -19.666 10.833 -30.999 16.5s-23.666 11.5 -36.999 17.5c-46.667 22 -88.667 47.667 -126 77s-56 70.333 -56 123c0 9.33301 0.833008 19.333 2.5 30s4.5 21.334 8.5 32.001c10 26 28.833 49.667 56.5 71s69.167 32 124.5 32
c11.333 0 24.5 -0.833008 39.5 -2.5s30.167 -5.5 45.5 -11.5c18.667 -6.66699 36.667 -17.167 54 -31.5s32 -34.5 44 -60.5v0z" />
    <glyph glyph-name="glyph55" unicode="T" horiz-adv-x="464" 
d="M198 0v644h-187v56h442v-56h-187v-644h-68v0z" />
    <glyph glyph-name="glyph56" unicode="U" horiz-adv-x="651" 
d="M77 700h68.0039v-449c0 -72 15.5 -124.167 46.5 -156.5s65.167 -51.166 102.5 -56.499c4 -0.666992 8.16699 -1.16699 12.5 -1.5s8.83301 -0.5 13.5 -0.5h3.5h2.5h1.5h1.5h0.5h1.5c4.66699 0 9.5 0.166992 14.5 0.5s10.167 0.833008 15.5 1.5
c36 6 69.167 25.167 99.5 57.5s45.5 84.166 45.5 155.499v449h68v-439c0 -88 -16.833 -151.833 -50.5 -191.5s-70.834 -65.5 -111.501 -77.5c-15.333 -4 -30.333 -6.83301 -45 -8.5s-28.334 -2.5 -41.001 -2.5s-26.334 0.833008 -41.001 2.5s-29.334 4.5 -44.001 8.5
c-41.333 11.333 -79 37 -113 77s-51 104 -51 192v439v0z" />
    <glyph glyph-name="glyph57" unicode="V" horiz-adv-x="568" 
d="M284 -28l-273 728h74l199 -553l199 553h74l-273 -728v0z" />
    <glyph glyph-name="W" unicode="W" horiz-adv-x="938" 
d="M469 556l-213 -584l-249 728h77l173 -553l212 573l212 -573l173 553h77l-249 -728l-213 584v0z" />
    <glyph glyph-name="glyph59" unicode="X" horiz-adv-x="504" 
d="M252 304l-169 -304h-76l210 357l-194 343h76l153 -286l154 286h76l-195 -343l210 -357h-75l-170 304v0z" />
    <glyph glyph-name="glyph60" unicode="Y" horiz-adv-x="526" 
d="M229 0v322l-222 378h76l180 -316l180 316h76l-222 -378v-322h-68v0z" />
    <glyph glyph-name="glyph61" unicode="Z" horiz-adv-x="553" 
d="M14 0l400 644h-358v56h469l-399 -644h399v-56h-511v0z" />
    <glyph glyph-name="glyph62" unicode="[" horiz-adv-x="320" 
d="M292 -210h-204v945h204v-56h-140v-833h140v-56v0z" />
    <glyph glyph-name="glyph63" unicode="\" horiz-adv-x="476" 
d="M455 -210h-56l-378 945h56l378 -945v0z" />
    <glyph glyph-name="glyph64" unicode="]" horiz-adv-x="320" 
d="M28 735h204v-945h-204v56h140v833h-140v56v0z" />
    <glyph glyph-name="glyph65" unicode="^" horiz-adv-x="480" 
d="M240 666l-132 -166h-68l156 200h88l156 -200h-68l-132 166v0z" />
    <glyph glyph-name="glyph66" unicode="_" horiz-adv-x="500" 
d="M0 -154h500v-56h-500v56v0z" />
    <glyph glyph-name="glyph67" unicode="`" horiz-adv-x="250" 
d="M18 637h98l74 -126h-56l-116 126v0z" />
    <glyph glyph-name="glyph68" unicode="a" horiz-adv-x="562" 
d="M432 357l-0.00195312 77h56v-434h-56v74c-17.333 -31.333 -40.5 -54.333 -69.5 -69s-59.167 -22 -90.5 -22c-58.667 0 -111 19.833 -157 59.5s-69 97.834 -69 174.501c0 65.333 20.5 120.833 61.5 166.5s96.167 68.5 165.5 68.5c10.667 0 21.834 -0.833008 33.501 -2.5
s23.834 -4.83398 36.501 -9.50098c16 -6.66699 31.833 -16.5 47.5 -29.5s29.5 -30.833 41.5 -53.5v0zM271.998 30c44.667 0 82.499 16.5 113.499 49.5s46.5 78.833 46.5 137.5c0 49.333 -14 92.833 -42 130.5s-66.667 56.5 -116 56.5s-89 -18.167 -119 -54.5
s-45 -80.5 -45 -132.5c0 -48.667 14.333 -92 43 -130s68.334 -57 119.001 -57v0z" />
    <glyph glyph-name="glyph69" unicode="b" horiz-adv-x="562" 
d="M74 735l60 0.000976562v-371c10 17.333 21.167 31.5 33.5 42.5s24.833 19.833 37.5 26.5c16.667 8 32.667 13.167 48 15.5s28.333 3.5 39 3.5c68.667 0 123.167 -22.167 163.5 -66.5s60.5 -100.5 60.5 -168.5c0 -76.667 -22.5 -134.834 -67.5 -174.501
s-96.5 -59.5 -154.5 -59.5c-32.667 0 -63.5 7.33301 -92.5 22s-52.833 37.667 -71.5 69v-74h-56v735v0zM294 30.001c51.333 0 90.5 18.498 117.5 55.498s40.5 80.833 40.5 131.5c0 6.66699 -0.333008 13.334 -1 20.001l-2 20c-6.66699 36.667 -22.667 70.334 -48 101.001
s-63.666 46 -114.999 46c-48.667 0 -86.834 -18.833 -114.501 -56.5s-41.5 -81.167 -41.5 -130.5c0 -58.667 16.333 -104.5 49 -137.5s71 -49.5 115 -49.5v0z" />
    <glyph glyph-name="glyph70" unicode="c" horiz-adv-x="457" 
d="M429 84l-0.000976562 -63.001c-2.66699 -1.33301 -5.5 -2.83301 -8.5 -4.5l-9.5 -5.5c-14 -7.33301 -30.667 -13.833 -50 -19.5s-41.333 -8.5 -66 -8.5c-74 0 -134 22.333 -180 67s-69 100.334 -69 167.001c0 68 23 124.167 69 168.5s105.667 66.5 179 66.5
c28.667 0 52.667 -2.83301 72 -8.5s35 -11.834 47 -18.501l9 -5.5l7 -4.5v-59c-28.667 20.667 -53.167 33.834 -73.5 39.501s-39.5 8.5 -57.5 8.5c-50 0 -93.833 -16.167 -131.5 -48.5s-56.5 -78.5 -56.5 -138.5c0 -58.667 18.167 -104.5 54.5 -137.5
s78.833 -49.5 127.5 -49.5c29.333 0 55.333 5.5 78 16.5s42.334 23.5 59.001 37.5v0z" />
    <glyph glyph-name="glyph71" unicode="d" horiz-adv-x="562" 
d="M488 0l-56.002 -0.00195312v74c-17.333 -31.333 -40.5 -54.333 -69.5 -69s-59.167 -22 -90.5 -22c-58.667 0 -111 19.833 -157 59.5s-69 97.834 -69 174.501c0 65.333 20.833 120.833 62.5 166.5s96.834 68.5 165.501 68.5c10.667 0 23.334 -1.16699 38.001 -3.5
s29.667 -7.16602 45 -14.499c12.667 -6.66699 25.167 -15.5 37.5 -26.5s23.5 -25.5 33.5 -43.5v370h60v-734v0zM271.998 29.998c45.333 0 83.332 16.5 113.999 49.5s46 78.833 46 137.5c0 49.333 -14 92.833 -42 130.5s-66.667 56.5 -116 56.5s-89 -18 -119 -54
s-45 -80.333 -45 -133c0 -49.333 14.333 -92.833 43 -130.5s68.334 -56.5 119.001 -56.5v0z" />
    <glyph glyph-name="glyph72" unicode="e" horiz-adv-x="515" 
d="M423 137l46.001 -23.0039c-17.333 -35.333 -42 -66 -74 -92s-74 -39 -126 -39c-70.667 0 -125.5 23.833 -164.5 71.5s-58.5 101.834 -58.5 162.501c0 10.667 0.666992 21.834 2 33.501s3.66602 23.5 6.99902 35.5c11.333 41.333 33.833 79.333 67.5 114s82.5 52 146.5 52
c57.333 0 101.5 -16.167 132.5 -48.5s51.167 -68.166 60.5 -107.499c2.66699 -9.33301 4.5 -18.666 5.5 -27.999s1.5 -18.333 1.5 -27v-29h-359v-1.5v-0.5v-1.5v-1.5c0 -6 0.333008 -12 1 -18s1.33398 -12.333 2.00098 -19c6.66699 -34.667 22.834 -66.667 48.501 -96
s61.5 -44 107.5 -44c11.333 0 24.666 1.33301 39.999 4s31.333 9.66699 48 21c11.333 8 22.666 18.5 33.999 31.5s22 29.833 32 50.5v0zM115.001 259.996l293.999 -0.00195312c-1.33301 36.667 -14.166 69.834 -38.499 99.501s-57.833 44.5 -100.5 44.5
c-42 0 -76.833 -13.667 -104.5 -41s-44.5 -61.666 -50.5 -102.999v0z" />
    <glyph glyph-name="glyph73" unicode="f" horiz-adv-x="260" 
d="M88 0l-0.000976562 386h-70v48h70v194v7.5v7.5c2 25.333 10 48.5 24 69.5s39.333 31.5 76 31.5c9.33301 0 17.666 -0.5 24.999 -1.5s13.333 -2.16699 18 -3.5c4 -0.666992 7.33301 -1.5 10 -2.5s4.33398 -1.5 5.00098 -1.5v-51
c-6.66699 3.33301 -12.834 5.83301 -18.501 7.5s-11.167 2.83398 -16.5 3.50098c-2 0.666992 -3.83301 1 -5.5 1h-5.5c-15.333 0 -26.666 -4.33301 -33.999 -13s-12.333 -18.334 -15 -29.001c-1.33301 -5.33301 -2.16602 -10.333 -2.49902 -15s-0.5 -9 -0.5 -13v-192h98v-48
h-98v-386h-60v0z" />
    <glyph glyph-name="glyph74" unicode="g" horiz-adv-x="562" 
d="M65 -81l66.0029 -0.00488281c8 -32.667 25.667 -56.5 53 -71.5s57 -22.5 89 -22.5c45.333 0 78.666 10.667 99.999 32s36 45 44 71c5.33301 16.667 8.5 32.834 9.5 48.501s1.5 28.167 1.5 37.5v53c-2.66699 -4 -6.66699 -9.66699 -12 -17s-12 -14.666 -20 -21.999
c-12.667 -11.333 -29.167 -21.666 -49.5 -30.999s-45.166 -14 -74.499 -14c-58 0 -110.167 19.833 -156.5 59.5s-69.5 97.834 -69.5 174.501c0 65.333 20.5 120.833 61.5 166.5s96.5 68.5 166.5 68.5c10 0 21 -0.833008 33 -2.5s24 -4.83398 36 -9.50098
c16.667 -6.66699 32.667 -16.5 48 -29.5s29 -30.833 41 -53.5v77h56v-420c0 -7.33301 -1 -22.166 -3 -44.499s-8.33301 -46.166 -19 -71.499c-12 -30 -32.833 -57.667 -62.5 -83s-73.167 -38 -130.5 -38c-64.667 0 -112.334 13.5 -143.001 40.5s-51 56.833 -61 89.5
c-0.666992 2 -1.33398 4.16699 -2.00098 6.5s-1.33398 4.5 -2.00098 6.5v-1zM272.003 29.9951c44.667 0 82.499 16.5 113.499 49.5s46.5 78.833 46.5 137.5c0 49.333 -14 92.833 -42 130.5s-66.667 56.5 -116 56.5s-89 -18 -119 -54s-45 -80.333 -45 -133
c0 -48.667 14.333 -92 43 -130s68.334 -57 119.001 -57v0z" />
    <glyph glyph-name="glyph75" unicode="h" horiz-adv-x="505" 
d="M74 0l0.000976562 735h60v-373l10 17c4 6.66699 9.33301 13.667 16 21c11.333 12.667 26.833 24.5 46.5 35.5s44.167 16.5 73.5 16.5c48 0 85.167 -15 111.5 -45s39.5 -73 39.5 -129v-278h-60v270c0 6 -0.166992 12.167 -0.5 18.5s-0.833008 12.5 -1.5 18.5
c-2.66699 24 -10.334 46.167 -23.001 66.5s-37 30.5 -73 30.5c-42 0 -74.5 -16 -97.5 -48s-36.5 -67.333 -40.5 -106c0 -4 -0.166992 -8 -0.5 -12s-0.5 -8 -0.5 -12v-226h-60v0z" />
    <glyph glyph-name="glyph76" unicode="i" horiz-adv-x="208" 
d="M74 434h60v-434h-60v434v0zM58 581c0 12.667 4.16699 23.5 12.5 32.5s19.5 13.5 33.5 13.5c13.333 0 24.333 -4.33301 33 -13s13 -19.667 13 -33s-4.5 -24.333 -13.5 -33s-19.833 -13 -32.5 -13s-23.5 4.33301 -32.5 13s-13.5 19.667 -13.5 33v0z" />
    <glyph glyph-name="glyph77" unicode="j" horiz-adv-x="208" 
d="M74 434h60v-644h-60v644v0zM58 581c0 12.667 4.16699 23.5 12.5 32.5s19.5 13.5 33.5 13.5c13.333 0 24.333 -4.33301 33 -13s13 -19.667 13 -33s-4.5 -24.333 -13.5 -33s-19.833 -13 -32.5 -13s-23.5 4.33301 -32.5 13s-13.5 19.667 -13.5 33v0z" />
    <glyph glyph-name="glyph78" unicode="k" horiz-adv-x="461" 
d="M74 0v735h60v-477l194 176h82l-213 -187l253 -247h-87l-209 210l-20 -17v-193h-60v0z" />
    <glyph glyph-name="glyph79" unicode="l" horiz-adv-x="208" 
d="M74 0v735h60v-735h-60v0z" />
    <glyph glyph-name="glyph80" unicode="m" horiz-adv-x="760" 
d="M134 359c11.333 20 23.333 36.1729 36 48.5059s25.334 21.833 38.001 28.5c12 6 24.333 10.167 37 12.5s24.667 3.5 36 3.5c35.333 0 62.833 -9.33301 82.5 -28s32.167 -39.667 37.5 -63c9.33301 17.333 19.666 31.666 30.999 42.999s22.666 20.333 33.999 27
c16.667 9.33301 32.834 15.166 48.501 17.499s28.5 3.5 38.5 3.5c6.66699 0 15.5 -0.666992 26.5 -2s22.833 -5 35.5 -11c17.333 -8 33.5 -23.5 48.5 -46.5s22.5 -58.5 22.5 -106.5v-286h-60v286c0 6.66699 -0.333008 14.5 -1 23.5s-2 18.167 -4 27.5
c-4 16.667 -12 32 -24 46s-31 21 -57 21c-5.33301 0 -11 -0.5 -17 -1.5s-11.667 -2.5 -17 -4.5c-24 -8 -46 -25.333 -66 -52s-30 -64.667 -30 -114v-232h-60v283c0 5.33301 -0.166992 10.666 -0.5 15.999s-0.833008 10.666 -1.5 15.999c-2 22 -8.66699 42.333 -20 61
s-32 28 -62 28c-36 0 -65.333 -15 -88 -45s-36.667 -63 -42 -99c-0.666992 -4.66699 -1.16699 -9.33398 -1.5 -14.001s-0.5 -9.33398 -0.5 -14.001v-232h-60v434h60v-75v0z" />
    <glyph glyph-name="glyph81" unicode="n" horiz-adv-x="505" 
d="M74 0l0.000976562 434h60v-72l10 17c4 6.66699 9.33301 13.667 16 21c11.333 12.667 26.833 24.5 46.5 35.5s44.167 16.5 73.5 16.5c48 0 85.167 -15 111.5 -45s39.5 -73 39.5 -129v-278h-60v270c0 6 -0.166992 12.167 -0.5 18.5s-0.833008 12.5 -1.5 18.5
c-2.66699 24 -10.334 46.167 -23.001 66.5s-37 30.5 -73 30.5c-42 0 -74.5 -16 -97.5 -48s-36.5 -67.333 -40.5 -106c0 -4 -0.166992 -8 -0.5 -12s-0.5 -8 -0.5 -12v-226h-60v0z" />
    <glyph glyph-name="glyph82" unicode="o" horiz-adv-x="564" 
d="M282 -18c-62.667 0.666992 -117.667 21.499 -165 62.499s-71 98.5 -71 172.5c0 65.333 21.667 120.833 65 166.5s100.333 68.5 171 68.5c71.333 0 128.5 -22.833 171.5 -68.5s64.5 -101.167 64.5 -166.5s-21.5 -120.666 -64.5 -165.999s-100.167 -68 -171.5 -68v-1z
M282 29.999c54.667 0 97 19.5 127 58.5s45 81.833 45 128.5c0 47.333 -15 90.333 -45 129s-72.333 58 -127 58s-97 -19.333 -127 -58s-45 -81.667 -45 -129s15 -90.333 45 -129s72.333 -58 127 -58v0z" />
    <glyph glyph-name="glyph83" unicode="p" horiz-adv-x="562" 
d="M74 434l56.001 0.000976562v-77c13.333 25.333 33 47.5 59 66.5s60.333 28.5 103 28.5c68.667 0 123.167 -22.167 163.5 -66.5s60.5 -100.5 60.5 -168.5c0 -76.667 -22.5 -134.834 -67.5 -174.501s-96.5 -59.5 -154.5 -59.5c-34 0 -62.167 5.83301 -84.5 17.5
s-40.166 24.5 -53.499 38.5c-4.66699 5.33301 -8.83398 10.333 -12.501 15s-6.83398 9 -9.50098 13v-277h-60v644v0zM294.001 30.001c51.333 0 90.5 18.498 117.5 55.498s40.5 80.833 40.5 131.5c0 6.66699 -0.333008 13.334 -1 20.001l-2 20
c-6.66699 36.667 -22.667 70.334 -48 101.001s-63.666 46 -114.999 46c-48.667 0 -86.834 -18.833 -114.501 -56.5s-41.5 -81.167 -41.5 -130.5c0 -58.667 16.333 -104.5 49 -137.5s71 -49.5 115 -49.5v0z" />
    <glyph glyph-name="glyph84" unicode="q" horiz-adv-x="562" 
d="M488 -210l-60.002 -0.00195312v277c-2.66699 -4 -6.66699 -9.66699 -12 -17s-12 -14.666 -20 -21.999c-12.667 -11.333 -29.167 -21.666 -49.5 -30.999s-45.166 -14 -74.499 -14c-58.667 0 -111 19.833 -157 59.5s-69 97.834 -69 174.501
c0 65.333 20.833 120.833 62.5 166.5s96.834 68.5 165.501 68.5c10 0 21 -0.833008 33 -2.5s24 -4.83398 36 -9.50098c16.667 -6.66699 32.667 -16.5 48 -29.5s29 -30.833 41 -53.5v77h56v-644v0zM271.998 29.998c45.333 0 83.332 16.5 113.999 49.5s46 78.833 46 137.5
c0 49.333 -14 92.833 -42 130.5s-66.667 56.5 -116 56.5s-89 -18 -119 -54s-45 -80.333 -45 -133c0 -49.333 14.333 -92.833 43 -130.5s68.334 -56.5 119.001 -56.5v0z" />
    <glyph glyph-name="glyph85" unicode="r" horiz-adv-x="325" 
d="M74 0l0.00585938 433.998h60v-91c12.667 24 25 43 37 57s24 24.333 36 31c8.66699 4.66699 17.5 8 26.5 10s18.167 3 27.5 3s17.666 -0.666992 24.999 -2s13.666 -3 18.999 -5c2 -0.666992 3.66699 -1.16699 5 -1.5s2.66602 -0.833008 3.99902 -1.5l-18 -56
c-0.666992 0.666992 -1.33398 1.16699 -2.00098 1.5s-1.33398 0.5 -2.00098 0.5c-4.66699 2 -10.167 4 -16.5 6s-13.833 3 -22.5 3h-1.5h-1.5c-26 -1.33301 -50.333 -16.666 -73 -45.999s-36.334 -61.666 -41.001 -96.999c-0.666992 -3.33301 -1.16699 -7 -1.5 -11
s-0.5 -7.66699 -0.5 -11v-224h-60v0z" />
    <glyph glyph-name="glyph86" unicode="s" horiz-adv-x="382" 
d="M32 89l48.999 26.002c7.33301 -21.333 20 -40.833 38 -58.5s41.667 -26.5 71 -26.5c28.667 0 51 7.83301 67 23.5s24 36.5 24 62.5c0 23.333 -7 41 -21 53s-29.667 21 -47 27l-18 6c-6 2 -11.667 3.66699 -17 5c-0.666992 0 -1.5 0.166992 -2.5 0.5
s-2.16699 0.833008 -3.5 1.5c-30 9.33301 -57.5 22.333 -82.5 39s-37.5 44 -37.5 82c0 38.667 13.5 68.667 40.5 90s59.833 32 98.5 32c9.33301 0 19.5 -0.833008 30.5 -2.5s22.5 -5.5 34.5 -11.5c12.667 -6 25 -14.833 37 -26.5s23 -27.834 33 -48.501l-45 -24
c-8 20 -20.5 35.833 -37.5 47.5s-36.167 17.5 -57.5 17.5c-23.333 0 -41.5 -6.66699 -54.5 -20s-19.5 -29.666 -19.5 -48.999c0 -20.667 6 -35.5 18 -44.5s28 -17.167 48 -24.5c3.33301 -0.666992 6.83301 -1.66699 10.5 -3l11.5 -4
c3.33301 -1.33301 6.83301 -2.5 10.5 -3.5s7.16699 -2.16699 10.5 -3.5c30.667 -10 58.667 -24.333 84 -43s38 -49 38 -91c0 -6 -0.5 -12.333 -1.5 -19s-2.5 -13.334 -4.5 -20.001c-7.33301 -24.667 -22.666 -46.834 -45.999 -66.501s-59 -29.5 -107 -29.5
c-9.33301 0 -20.833 1 -34.5 3s-27.834 6.66699 -42.501 14c-14 7.33301 -27.667 18 -41 32s-24.666 33 -33.999 57v0z" />
    <glyph glyph-name="glyph87" unicode="t" horiz-adv-x="250" 
d="M88 0v386h-70v48h70v168h60v-168h84v-48h-84v-386h-60v0z" />
    <glyph glyph-name="glyph88" unicode="u" horiz-adv-x="511" 
d="M74 434l60.001 0.00195312v-263c0 -6 0.333008 -15.333 1 -28s3.66699 -25.667 9 -39c6 -18.667 17.5 -35.667 34.5 -51s42.833 -23 77.5 -23c35.333 0 61.5 8.16699 78.5 24.5s28.5 34.166 34.5 53.499c3.33301 12 5.5 23.667 6.5 35s1.5 20.666 1.5 27.999v263h60v-256
c0 -62 -12.333 -106.667 -37 -134s-51.667 -45 -81 -53c-11.333 -2.66699 -22.333 -4.66699 -33 -6s-20.667 -2 -30 -2s-19.333 0.5 -30 1.5s-21.334 3.16699 -32.001 6.5c-30 7.33301 -57.5 24.833 -82.5 52.5s-37.5 72.5 -37.5 134.5v256v0z" />
    <glyph glyph-name="glyph89" unicode="v" horiz-adv-x="434" 
d="M217 -22l-210 456h67l145 -329l143 329h65l-210 -456v0z" />
    <glyph glyph-name="glyph90" unicode="w" horiz-adv-x="694" 
d="M347 340l-140 -362l-200 456h70l133 -315l137 358l137 -358l133 315h70l-200 -456l-140 362v0z" />
    <glyph glyph-name="glyph91" unicode="x" horiz-adv-x="417" 
d="M11 0l161 223l-154 211h77l116 -169l108 169h70l-144 -210l161 -224h-76l-123 182l-119 -182h-77v0z" />
    <glyph glyph-name="glyph92" unicode="y" horiz-adv-x="453" 
d="M11 434h68l163 -367l139 367h61l-256 -644h-65l90 214l-200 430v0z" />
    <glyph glyph-name="glyph93" unicode="z" horiz-adv-x="425" 
d="M38 434h355l-273 -386h280v-48h-382l277 386h-257v48v0z" />
    <glyph glyph-name="glyph94" unicode="{" horiz-adv-x="331" 
d="M50 219v53.0068c4.66699 0.666992 9.83398 2 15.501 4s11.5 4.66699 17.5 8c15.333 8.66699 29.333 23.5 42 44.5s19 52.5 19 94.5c0 20.667 -0.166992 34.667 -0.5 42s-0.833008 13 -1.5 17s-1.16699 9.33301 -1.5 16s-0.5 19.667 -0.5 39v11.5
c0 3.66699 0.333008 7.5 1 11.5c2 33.333 12.667 64.5 32 93.5s55.333 46.167 108 51.5v-46c-20.667 -2.66699 -36.167 -9.33398 -46.5 -20.001s-17.5 -22.334 -21.5 -35.001c-2.66699 -8.66699 -4.33398 -17.167 -5.00098 -25.5s-1 -15.166 -1 -20.499v-14v-14
c0 -4.66699 0.166992 -9.33398 0.5 -14.001s0.5 -9.33398 0.5 -14.001s0.166992 -9.66699 0.5 -15s0.5 -10.333 0.5 -15c0.666992 -5.33301 1 -10.5 1 -15.5v-15.5c0 -12 -0.5 -25.333 -1.5 -40s-3.83301 -29.667 -8.5 -45c-6.66699 -20.667 -18.167 -40.667 -34.5 -60
s-40.833 -35.333 -73.5 -48v-5c32.667 -12.667 57.167 -28.667 73.5 -48s27.833 -39.333 34.5 -60c4.66699 -15.333 7.5 -30.333 8.5 -45s1.5 -28 1.5 -40v-15c0 -5.33301 -0.333008 -10.333 -1 -15c0 -5.33301 -0.166992 -10.5 -0.5 -15.5s-0.5 -9.83301 -0.5 -14.5
s-0.166992 -9.33398 -0.5 -14.001s-0.5 -9.33398 -0.5 -14.001v-14v-14c0 -5.33301 0.333008 -12.166 1 -20.499s2.33398 -16.833 5.00098 -25.5c4 -12.667 11.167 -24.334 21.5 -35.001s25.833 -17.334 46.5 -20.001v-47c-52.667 6 -88.667 23.5 -108 52.5
s-30 60.167 -32 93.5c-0.666992 4 -1 7.83301 -1 11.5v11.5c0 19.333 0.166992 32.166 0.5 38.499s0.833008 11.5 1.5 15.5s1.16699 9.66699 1.5 17s0.5 21.333 0.5 42c0 42 -6.33301 73.5 -19 94.5s-26.667 35.833 -42 44.5c-6 3.33301 -11.833 6 -17.5 8
s-10.834 3.33301 -15.501 4v0z" />
    <glyph glyph-name="glyph95" unicode="|" horiz-adv-x="156" 
d="M50 -224v1053h56v-1053h-56v0z" />
    <glyph glyph-name="glyph96" unicode="}" horiz-adv-x="331" 
d="M281 272v-53.0059c-4.66699 -0.666992 -9.83398 -2 -15.501 -4s-11.5 -4.66699 -17.5 -8c-15.333 -8.66699 -29.333 -23.5 -42 -44.5s-19 -52.5 -19 -94.5c0 -20.667 0.166992 -34.667 0.5 -42s0.833008 -13 1.5 -17s1.16699 -9.16699 1.5 -15.5s0.5 -19.166 0.5 -38.499
v-11.5c0 -3.66699 -0.333008 -7.5 -1 -11.5c-2 -33.333 -12.667 -64.5 -32 -93.5s-55.333 -46.167 -108 -51.5v45c20.667 3.33301 36.167 10.333 46.5 21s17.5 22.334 21.5 35.001c2.66699 8.66699 4.33398 17.167 5.00098 25.5s1 15.166 1 20.499v14v14
c0 4.66699 -0.166992 9.33398 -0.5 14.001s-0.5 9.33398 -0.5 14.001s-0.166992 9.5 -0.5 14.5s-0.5 10.167 -0.5 15.5c-0.666992 4.66699 -1 9.66699 -1 15v15c0 12 0.5 25.333 1.5 40s3.83301 29.667 8.5 45c6.66699 20.667 18.167 40.667 34.5 60s40.833 35.333 73.5 48
v5c-32.667 12.667 -57.167 28.667 -73.5 48s-27.833 39.333 -34.5 60c-4.66699 15.333 -7.5 30.333 -8.5 45s-1.5 28 -1.5 40v15.5c0 5 0.333008 10.167 1 15.5c0 4.66699 0.166992 9.66699 0.5 15s0.5 10.333 0.5 15s0.166992 9.33398 0.5 14.001s0.5 9.33398 0.5 14.001
v14v14c0 5.33301 -0.333008 12.166 -1 20.499s-2.33398 16.833 -5.00098 25.5c-4 12.667 -11.167 24.334 -21.5 35.001s-25.833 17.334 -46.5 20.001v46c52.667 -5.33301 88.667 -22.5 108 -51.5s30 -60.167 32 -93.5c0.666992 -4 1 -7.83301 1 -11.5v-11.5
c0 -19.333 -0.166992 -32.333 -0.5 -39s-0.833008 -12 -1.5 -16s-1.16699 -9.66699 -1.5 -17s-0.5 -21.333 -0.5 -42c0 -42 6.33301 -73.5 19 -94.5s26.667 -35.833 42 -44.5c6 -3.33301 11.833 -6 17.5 -8s10.834 -3.33301 15.501 -4v0z" />
    <glyph glyph-name="glyph97" unicode="~" horiz-adv-x="600" 
d="M50 312l-0.000976562 56c12 12.667 25.667 23.167 41 31.5s31 13.833 47 16.5c3.33301 0.666992 7 1.16699 11 1.5s7.66699 0.5 11 0.5c21.333 0 44.666 -4.33301 69.999 -13l84 -30l71.5 -26.5c19.667 -7 37.834 -10.5 54.501 -10.5c14.667 0 31 3 49 9
s38.333 19.667 61 41v-56c-12 -12.667 -25.667 -23.167 -41 -31.5s-31 -13.833 -47 -16.5c-3.33301 -0.666992 -7 -1.16699 -11 -1.5s-7.66699 -0.5 -11 -0.5c-21.333 0 -44.666 4.33301 -69.999 13l-84 30l-72 26.5c-20 7 -38 10.5 -54 10.5c-14.667 0 -31 -3 -49 -9
s-38.333 -19.667 -61 -41v0z" />
    <glyph glyph-name="uni007F" 
 />
    <glyph glyph-name="F" horiz-adv-x="689" 
d="M200 0l0.00195312 643.997h-189v56h473v-56h-216v-241c29.333 9.33301 55.333 15.333 78 18s42 4 58 4c68 0 124.833 -18.667 170.5 -56s68.5 -91.333 68.5 -162c0 -68 -20.167 -119.667 -60.5 -155s-101.833 -52.666 -184.5 -51.999v56h39
c7.33301 0 15.666 0.666992 24.999 2s18.666 4 27.999 8c20.667 8 39.667 22.833 57 44.5s26 53.834 26 96.501c0 48.667 -14.5 87.834 -43.5 117.501s-71.167 44.5 -126.5 44.5c-16.667 0 -36 -1.33301 -58 -4s-47.667 -10 -77 -22v-343h-68v0z" />
    <glyph glyph-name="uni0081" horiz-adv-x="407" 
d="M88 0v700h308v-56h-240v-644h-68v0z" />
    <glyph glyph-name="D" horiz-adv-x="571" 
d="M88 0v700h68v-325l313 325h84l-332 -339l339 -361h-91l-313 340v-340h-68v0z" />
    <glyph glyph-name="N" horiz-adv-x="711" 
d="M200 0v644.001h-189v56h474v-56h-217v-245c36.667 2.66699 61.334 4.5 74.001 5.5s22.667 1.5 30 1.5h11h14h12.5h15.5c100 0.666992 161 -17 183 -53s33 -77.667 33 -125v-228h-68v212c0 70 -15.333 110.667 -46 122s-65.334 16.666 -104.001 15.999h-4.5h-4.5h-9.5
h-8.5c-2.66699 0 -5.5 -0.166992 -8.5 -0.5s-5.83301 -0.5 -8.5 -0.5c-14 0 -29 -0.5 -45 -1.5s-38 -2.5 -66 -4.5v-343h-68v0z" />
    <glyph glyph-name="bullet" horiz-adv-x="717" 
d="M88 0v700h68v-644h405v644h68v-700h-239v-170h-63v170h-239v0z" />
    <glyph glyph-name="guilsinglleft" horiz-adv-x="486" 
d="M73 0v570.004h-66v48h66v117h60v-117h224v-48h-224v-208c1.33301 2.66699 2.83301 5.5 4.5 8.5l5.5 9.5c12 18 29 34.5 51 49.5s50.333 22.5 85 22.5c46.667 0 81.167 -13.333 103.5 -40s37.833 -56 46.5 -88c4.66699 -18.667 7.66699 -36.834 9 -54.501s2 -32.5 2 -44.5
c0 -43.333 -5.33301 -82.833 -16 -118.5s-27 -70.5 -49 -104.5c-12.667 -18.667 -27.167 -37.834 -43.5 -57.501s-34.833 -39.834 -55.5 -60.501l-35 32l48.5 63.5c14.333 19 26.833 37.5 37.5 55.5c16.667 28.667 29 58.167 37 88.5s12 66.833 12 109.5
c0 55.333 -9.16699 97.666 -27.5 126.999s-43.833 44 -76.5 44c-6 0 -12 -0.5 -18 -1.5s-12 -2.5 -18 -4.5c-26 -9.33301 -49.667 -28 -71 -56s-32 -66.667 -32 -116v-226h-60v0z" />
    <glyph glyph-name="O" horiz-adv-x="428" 
d="M74 0v434h60v-194l194 194h72l-209 -202l226 -232h-77l-206 217v-217h-60v0z" />
    <glyph glyph-name="tilde" horiz-adv-x="504" 
d="M73 0l0.000976562 570h-66v48h66v117h60v-117h224v-48h-224v-208l10 17c4 6.66699 9.33301 13.667 16 21c11.333 12.667 26.833 24.5 46.5 35.5s44.167 16.5 73.5 16.5c48 0 85.167 -15 111.5 -45s39.5 -73 39.5 -129v-278h-60v270c0 6 -0.166992 12.167 -0.5 18.5
s-0.833008 12.5 -1.5 18.5c-2.66699 24 -10.334 46.167 -23.001 66.5s-37 30.5 -73 30.5c-42 0 -74.5 -16 -97.5 -48s-36.5 -67.333 -40.5 -106c0 -4 -0.166992 -8 -0.5 -12s-0.5 -8 -0.5 -12v-226h-60v0z" />
    <glyph glyph-name="uni00A0" unicode="&#xa0;" 
 />
    <glyph glyph-name="Z" unicode="&#xa1;" horiz-adv-x="561" 
d="M172 0l97 212l-255 488h77l212 -417l189 417h69l-320 -700h-69v0zM157 829l54.0029 21.999c6 -19.333 16.667 -33.666 32 -42.999s31.666 -14.666 48.999 -15.999h4h4c25.333 0 44.666 5.33301 57.999 16s22.666 22.667 27.999 36
c0.666992 0.666992 1.16699 1.66699 1.5 3s0.833008 2.66602 1.5 3.99902l55 -22c-9.33301 -22.667 -21.5 -40.167 -36.5 -52.5s-30.833 -21.166 -47.5 -26.499c-10.667 -4 -21.167 -6.66699 -31.5 -8s-19.833 -2 -28.5 -2s-18.5 0.833008 -29.5 2.5s-22.167 4.5 -33.5 8.5
c-16 5.33301 -31.333 14.166 -46 26.499s-26 29.5 -34 51.5v0z" />
    <glyph glyph-name="cent" unicode="&#xa2;" horiz-adv-x="453" 
d="M11 434h68l163 -367l139 367h61l-256 -644h-65l90 214l-200 430v0zM99 619l53.999 22.002v-1.5c0 -0.333008 0.333008 -0.833008 1 -1.5c4 -18 13.333 -34.5 28 -49.5s34.667 -22.5 60 -22.5c21.333 0 38.166 4.66699 50.499 14s21.5 19.666 27.5 30.999
c2.66699 5.33301 5 10.666 7 15.999s3.33301 10 4 14l55 -22c-9.33301 -30.667 -27.5 -55.167 -54.5 -73.5s-56.833 -27.5 -89.5 -27.5c-33.333 0 -63.166 9 -89.499 27s-44.166 42.667 -53.499 74v0z" />
    <glyph glyph-name="endash" unicode="&#xa3;" horiz-adv-x="413" 
d="M88 47l42.999 45.001c1.33301 -2 2.83301 -3.83301 4.5 -5.5s3.16699 -3.5 4.5 -5.5c17.333 -19.333 34.333 -31.666 51 -36.999s31.334 -8 44.001 -8c44 0 71.5 14.167 82.5 42.5s16.5 64.833 16.5 109.5v512h68v-516c0 -8 -0.166992 -16.333 -0.5 -25
s-0.833008 -17.334 -1.5 -26.001c-4 -38 -17 -72.833 -39 -104.5s-65 -47.5 -129 -47.5c-23.333 0 -44.5 3.16699 -63.5 9.5s-37.5 17.166 -55.5 32.499c-4 3.33301 -8.16699 7 -12.5 11s-8.5 8.33301 -12.5 13v0z" />
    <glyph glyph-name="currency" unicode="&#xa4;" horiz-adv-x="660" 
d="M121 179c-16.667 21.333 -31 46.166 -43 74.499s-18 60.5 -18 96.5s6 68.167 18 96.5s26.333 53.166 43 74.499l-71 71l38 38l71 -71c21.333 17.333 46.166 31.833 74.499 43.5s60.5 17.5 96.5 17.5s68.167 -5.83301 96.5 -17.5s53.166 -26.167 74.499 -43.5l71 71
l38 -38l-71 -71c17.333 -21.333 31.833 -46.166 43.5 -74.499s17.5 -60.5 17.5 -96.5s-5.83301 -68.167 -17.5 -96.5s-26.167 -53.166 -43.5 -74.499l71 -71l-38 -38l-71 71c-21.333 -16.667 -46.166 -31 -74.499 -43s-60.5 -18 -96.5 -18s-68.167 6 -96.5 18
s-53.166 26.333 -74.499 43l-71 -71l-38 38l71 71v0zM116 350c0 -58.667 20.5 -109 61.5 -151s91.833 -63 152.5 -63s111.5 21 152.5 63s61.5 92.333 61.5 151c0 59.333 -20.5 109.833 -61.5 151.5s-91.833 62.5 -152.5 62.5s-111.5 -20.833 -152.5 -62.5
s-61.5 -92.167 -61.5 -151.5v0z" />
    <glyph glyph-name="emdash" unicode="&#xa5;" horiz-adv-x="407" 
d="M88 0v700h245v119h63v-175h-240v-644h-68v0z" />
    <glyph glyph-name="circumflex" unicode="&#xa6;" horiz-adv-x="232" 
d="M70 35c0 12.667 4.5 23.5 13.5 32.5s19.833 13.5 32.5 13.5s23.5 -4.33301 32.5 -13s13.5 -19.667 13.5 -33c0 -12.667 -4.5 -23.334 -13.5 -32.001s-19.833 -13 -32.5 -13s-23.5 4.33301 -32.5 13s-13.5 19.334 -13.5 32.001v0zM70 399c0 12.667 4.5 23.5 13.5 32.5
s19.833 13.5 32.5 13.5s23.5 -4.33301 32.5 -13s13.5 -19.667 13.5 -33c0 -12.667 -4.5 -23.5 -13.5 -32.5s-19.833 -13.5 -32.5 -13.5s-23.5 4.5 -32.5 13.5s-13.5 19.833 -13.5 32.5v0z" />
    <glyph glyph-name="scaron" unicode="&#xa7;" horiz-adv-x="472" 
d="M65 0l62.999 0.00292969v-2v-2c0 -25.333 8.5 -48.333 25.5 -69s45.833 -31 86.5 -31c25.333 0 47.833 7 67.5 21s29.5 35.667 29.5 65c0 32 -8.83301 56 -26.5 72s-37.167 28 -58.5 36l-17.5 6c-5.66699 2 -11.167 3.66699 -16.5 5c-9.33301 2.66699 -20 6 -32 10
s-24 9 -36 15c-25.333 12 -48.5 30.167 -69.5 54.5s-31.5 58.166 -31.5 101.499c0 37.333 10.333 69.666 31 96.999s48 47 82 59c-28.667 11.333 -49.834 27.833 -63.501 49.5s-21.5 44.5 -23.5 68.5v5.5v4.5c0 4 0.166992 8 0.5 12s0.833008 8 1.5 12
c5.33301 32.667 21.5 62.5 48.5 89.5s64.5 40.5 112.5 40.5c52 0 90.833 -15.333 116.5 -46s40.834 -64.667 45.501 -102c0 -4 0.166992 -8 0.5 -12s0.5 -8 0.5 -12v-1.5v-0.5v-1.5v-1.5h-63v18c0 5.33301 -0.666992 12.166 -2 20.499s-4 16.833 -8 25.5
c-6 14 -16 27 -30 39s-33.333 18 -58 18c-27.333 0 -51 -9.16699 -71 -27.5s-30 -42.5 -30 -72.5c0 -24.667 7.16699 -44.834 21.5 -60.501s45.833 -30.167 94.5 -43.5c5.33301 -1.33301 11 -2.83301 17 -4.5s11.667 -3.5 17 -5.5c34 -11.333 64.833 -28.833 92.5 -52.5
s41.5 -60.167 41.5 -109.5c0 -40 -11.333 -73.667 -34 -101s-50 -47.333 -82 -60c27.333 -10 49.833 -27.167 67.5 -51.5s26.5 -54.166 26.5 -89.499c0 -43.333 -14.833 -78.5 -44.5 -105.5s-69.167 -40.5 -118.5 -40.5c-50 0 -87.167 10.167 -111.5 30.5
s-41.166 42.833 -50.499 67.5c-4 11.333 -6.83301 22.5 -8.5 33.5s-2.5 20.5 -2.5 28.5v0zM235.999 161.003c30 0 57.333 10.332 82 30.999s37 51.334 37 92.001s-12.333 71.167 -37 91.5s-52 30.5 -82 30.5c-35.333 0 -64 -12 -86 -36s-33 -52.667 -33 -86
c0 -34 11 -63 33 -87s50.667 -36 86 -36v0z" />
    <glyph glyph-name="H" unicode="&#xa8;" horiz-adv-x="519" 
d="M88 0v700h375v-56h-307v-224h296v-56h-296v-308h307v-56h-375v0zM154 800c0 14.667 4.33203 25.833 12.999 33.5s18.334 11.834 29.001 12.501h1.5h1.5c12 0 22.5 -4.33301 31.5 -13s13.5 -19.667 13.5 -33c0 -12.667 -4.5 -23.5 -13.5 -32.5s-19.5 -13.5 -31.5 -13.5
h-3.5c-1 0 -2.16699 0.333008 -3.5 1c-9.33301 1.33301 -18 5.66602 -26 12.999s-12 18 -12 32v0zM314.999 799.999c0 13.333 4.5 24.333 13.5 33s19.5 13 31.5 13s22.5 -4.33301 31.5 -13s13.5 -19.667 13.5 -33c0 -12.667 -4.5 -23.5 -13.5 -32.5s-19.5 -13.5 -31.5 -13.5
s-22.5 4.5 -31.5 13.5s-13.5 19.833 -13.5 32.5v0z" />
    <glyph glyph-name="I" unicode="&#xa9;" horiz-adv-x="840" 
d="M50 350c0 100 35.833 186.668 107.5 260.001s159.167 110 262.5 110c101.333 0 188.333 -35.833 261 -107.5s109 -159.167 109 -262.5c0 -102.667 -36.333 -189.834 -109 -261.501s-159.667 -107.5 -261 -107.5c-103.333 0 -190.833 36.5 -262.5 109.5
s-107.5 159.5 -107.5 259.5v0zM106 350.001c0 -85.333 30.333 -159 91 -221s135 -93 223 -93c88.667 0 163.167 31.167 223.5 93.5s90.5 135.833 90.5 220.5c0 85.333 -30.167 159 -90.5 221s-134.833 93 -223.5 93c-88 0 -162.333 -31 -223 -93s-91 -135.667 -91 -221v0z
M572 156.001c-20.667 -11.333 -42.334 -20.332 -65.001 -26.999s-47 -10 -73 -10c-70 0 -125.333 23 -166 69s-61 100 -61 162v4v5c2 55.333 22.833 106.166 62.5 152.499s94.5 69.5 164.5 69.5c12 0 23.167 -0.5 33.5 -1.5s20.5 -2.83301 30.5 -5.5
c11.333 -2.66699 23 -6.5 35 -11.5s25 -11.5 39 -19.5v-78c-4.66699 3.33301 -9.5 6.33301 -14.5 9l-15.5 8c-17.333 9.33301 -34.833 16.5 -52.5 21.5s-36.167 7.5 -55.5 7.5c-44.667 0 -79.667 -15.667 -105 -47s-38 -69.333 -38 -114c0 -46 12.667 -84.333 38 -115
s60.333 -46 105 -46c13.333 0 26.333 1 39 3s25.334 5.33301 38.001 10c10 3.33301 20 7.5 30 12.5s20.333 10.833 31 17.5v-76v0z" />
    <glyph glyph-name="J" unicode="&#xaa;" horiz-adv-x="672" 
d="M637 112v-76.001c-39.333 -21.333 -77.5 -35.833 -114.5 -43.5s-72.167 -11.5 -105.5 -11.5c-112.667 0 -201 36.833 -265 110.5s-96 159.834 -96 258.501c0 99.333 30.667 185.833 92 259.5s151.333 110.5 270 110.5c20.667 0 41.167 -1.16699 61.5 -3.5
s40.5 -6.16602 60.5 -11.499c16 -4.66699 32 -10.5 48 -17.5s32.333 -15.5 49 -25.5v-75c-30 24 -62.167 42.333 -96.5 55s-69.166 20 -104.499 22h-8h-8c-75.333 0 -141.833 -25.5 -199.5 -76.5s-87.834 -116.167 -90.501 -195.5h423v-56h-425
c2.66699 -90.667 33.667 -163.334 93 -218.001s125 -82 197 -82c43.333 0 83.833 7.83301 121.5 23.5s70.167 33.167 97.5 52.5v0z" />
    <glyph glyph-name="ampersand" unicode="&#xab;" horiz-adv-x="434" 
d="M42 220l150 211l42 -28l-131 -183l131 -184l-42 -28l-150 212v0zM196 220l150 211l42 -28l-131 -183l131 -184l-42 -28l-150 212v0z" />
    <glyph glyph-name="quotesingle" unicode="&#xac;" horiz-adv-x="630" 
d="M50 378v56h500v-216h-60v160h-440v0z" />
    <glyph glyph-name="daggerdbl" unicode="&#xad;" horiz-adv-x="308" 
d="M42 288h224v-60h-224v60v0z" />
    <glyph glyph-name="dagger" unicode="&#xae;" horiz-adv-x="846" 
d="M53 350c0 103.333 36.667 190.833 110 262.5s160 107.5 260 107.5s186.667 -35.833 260 -107.5s110 -159.167 110 -262.5s-36.667 -190.666 -110 -261.999s-160 -107 -260 -107s-186.667 35.667 -260 107s-110 158.666 -110 261.999v0zM109 350
c0 -84.667 30.667 -158.167 92 -220.5s135.333 -93.5 222 -93.5c85.333 0 159 30.333 221 91s93 135 93 223s-31 162.333 -93 223s-135.667 91 -221 91c-86.667 0 -160.667 -31 -222 -93s-92 -135.667 -92 -221v0zM287 133l0.000976562 434h164
c6 0 14.167 -0.666992 24.5 -2s21.166 -4.33301 32.499 -9c16.667 -6.66699 32 -18 46 -34s21 -40 21 -72c0 -30.667 -8.5 -55.167 -25.5 -73.5s-35.833 -30.5 -56.5 -36.5c-5.33301 -2 -10.5 -3.33301 -15.5 -4s-9.83301 -1 -14.5 -1h-10l137 -202h-82l-132 200h-19v-200
h-70v0zM357.001 511v-122h60c31.333 0 52.333 4.83301 63 14.5s17 20.5 19 32.5c0.666992 2 1 4.33301 1 7v7c0 17.333 -4.5 31.833 -13.5 43.5s-28.833 17.5 -59.5 17.5h-70v0z" />
    <glyph glyph-name="macron" unicode="&#xaf;" horiz-adv-x="244" 
d="M88 0v700h68v-700h-68v0zM15 800c0 12.667 4.5 23.5 13.5 32.5s19.833 13.5 32.5 13.5c13.333 0 24.333 -4.5 33 -13.5s13 -19.833 13 -32.5s-4.33301 -23.5 -13 -32.5s-19.667 -13.5 -33 -13.5c-12.667 0 -23.5 4.5 -32.5 13.5s-13.5 19.833 -13.5 32.5v0zM137 800
c0 12.667 4.5 23.5 13.5 32.5s19.833 13.5 32.5 13.5c13.333 0 24.333 -4.5 33 -13.5s13 -19.833 13 -32.5s-4.33301 -23.5 -13 -32.5s-19.667 -13.5 -33 -13.5c-12.667 0 -23.5 4.5 -32.5 13.5s-13.5 19.833 -13.5 32.5v0z" />
    <glyph glyph-name="degree" unicode="&#xb0;" horiz-adv-x="302" 
d="M39 609c0 31.333 11 57.833 33 79.5s48.333 32.5 79 32.5s57 -10.833 79 -32.5s33 -48.167 33 -79.5s-11 -57.833 -33 -79.5s-48.333 -32.5 -79 -32.5s-57 10.833 -79 32.5s-33 48.167 -33 79.5v0zM88 609c0 -2.66699 0.165039 -5.50098 0.498047 -8.50098
s1.16602 -5.83301 2.49902 -8.5c3.33301 -11.333 10 -21.833 20 -31.5s23.333 -14.5 40 -14.5c18.667 0 33.834 6.33301 45.501 19s17.5 27.334 17.5 44.001c0 18 -6.16699 33 -18.5 45s-27.166 18 -44.499 18s-31.166 -5 -41.499 -15s-16.833 -21.333 -19.5 -34
c-0.666992 -2 -1.16699 -4.16699 -1.5 -6.5s-0.5 -4.83301 -0.5 -7.5v0z" />
    <glyph glyph-name="at" unicode="&#xb1;" horiz-adv-x="600" 
d="M50 60v56h500v-56h-500v0zM50 362v56h222v222h56v-222h222v-56h-222v-192h-56v192h-222v0z" />
    <glyph glyph-name="P" unicode="&#xb2;" horiz-adv-x="244" 
d="M88 0v700h68v-700h-68v0z" />
    <glyph glyph-name="S" unicode="&#xb3;" horiz-adv-x="208" 
d="M74 434h60v-434h-60v434v0zM58 581c0 12.667 4.16699 23.5 12.5 32.5s19.5 13.5 33.5 13.5c13.333 0 24.333 -4.33301 33 -13s13 -19.667 13 -33s-4.5 -24.333 -13.5 -33s-19.833 -13 -32.5 -13s-23.5 4.33301 -32.5 13s-13.5 19.667 -13.5 33v0z" />
    <glyph glyph-name="T" unicode="&#xb4;" horiz-adv-x="327" 
d="M74 0v434h186v112h56v-160h-182v-386h-60v0z" />
    <glyph glyph-name="U" unicode="&#xb5;" horiz-adv-x="506" 
d="M432 434v-434h-60v72c-6.66699 -13.333 -14 -24.666 -22 -33.999s-16 -17 -24 -23c-16 -11.333 -31 -18.166 -45 -20.499s-23.333 -3.5 -28 -3.5s-14 1.16699 -28 3.5s-29 9.16602 -45 20.499c-8 6 -16 13.667 -24 23s-15.333 20.666 -22 33.999v-282h-60v644h60v-218
c0 -52.667 11.5 -95.5 34.5 -128.5s51.167 -49.5 84.5 -49.5s61.5 16.5 84.5 49.5s34.5 75.833 34.5 128.5v218h60v0z" />
    <glyph glyph-name="V" unicode="&#xb6;" horiz-adv-x="450" 
d="M244 -210l-56 0.000976562v618c-42.667 0.666992 -78 15 -106 43s-42 62.333 -42 103c0 41.333 14.5 75.666 43.5 102.999s63.167 41.333 102.5 42l58 1v-910v0zM390 700.001v-910h-56v910h56v0z" />
    <glyph glyph-name="quoteleft" unicode="&#xb8;" horiz-adv-x="515" 
d="M423 137l46.001 -23.0039c-17.333 -35.333 -42 -66 -74 -92s-74 -39 -126 -39c-70.667 0 -125.5 23.833 -164.5 71.5s-58.5 101.834 -58.5 162.501c0 10.667 0.666992 21.834 2 33.501s3.66602 23.5 6.99902 35.5c11.333 41.333 33.833 79.333 67.5 114s82.5 52 146.5 52
c57.333 0 101.5 -16.167 132.5 -48.5s51.167 -68.166 60.5 -107.499c2.66699 -9.33301 4.5 -18.666 5.5 -27.999s1.5 -18.333 1.5 -27v-29h-359v-1.5v-0.5v-1.5v-1.5c0 -6 0.333008 -12 1 -18s1.33398 -12.333 2.00098 -19c6.66699 -34.667 22.834 -66.667 48.501 -96
s61.5 -44 107.5 -44c11.333 0 24.666 1.33301 39.999 4s31.333 9.66699 48 21c11.333 8 22.666 18.5 33.999 31.5s22 29.833 32 50.5v0zM115.001 259.996l293.999 -0.00195312c-1.33301 36.667 -14.166 69.834 -38.499 99.501s-57.833 44.5 -100.5 44.5
c-42 0 -76.833 -13.667 -104.5 -41s-44.5 -61.666 -50.5 -102.999v0zM132 580.994c0 12 3.83008 22.6689 11.4971 32.002s18.834 14 33.501 14c12 0 21.833 -3.5 29.5 -10.5s12.834 -14.833 15.501 -23.5c0.666992 -2 1.16699 -4 1.5 -6s0.5 -4 0.5 -6
c0 -12.667 -4.66699 -23.334 -14 -32.001s-19.333 -13.334 -30 -14.001h-1.5h-1.5c-11.333 0 -21.666 4.16699 -30.999 12.5s-14 19.5 -14 33.5v0zM290.997 580.996c0 12 4.16699 22.667 12.5 32s19.833 14 34.5 14c12 0 22.5 -4.33301 31.5 -13s13.5 -19.667 13.5 -33
c0 -14 -4.5 -25.167 -13.5 -33.5s-19.5 -12.5 -31.5 -12.5c-12.667 0 -23.667 4.33301 -33 13s-14 19.667 -14 33v0z" />
    <glyph glyph-name="one" unicode="&#xb9;" horiz-adv-x="1159" 
d="M88 0v728l531 -585v557h68v-728l-531 585v-557h-68v0zM792 0v48h301v-48h-301v0zM942 105c-52.667 0 -92.167 14.1631 -118.5 42.4961s-43.166 59.5 -50.499 93.5c-2 9.33301 -3.5 18.333 -4.5 27s-1.5 17.334 -1.5 26.001s0.5 17.334 1.5 26.001s2.5 17.667 4.5 27
c7.33301 34 24.166 65.167 50.499 93.5s65.833 42.5 118.5 42.5c57.333 0 100.833 -18.667 130.5 -56s44.5 -81.666 44.5 -132.999s-14.833 -95.666 -44.5 -132.999s-73.167 -56 -130.5 -56v0zM942 152.996c38.667 -0.666992 68 12.8301 88 40.4971s30.333 57.834 31 90.501
v1.5v1.5v4v3v2v2v1v2c0 34 -10.167 65 -30.5 93s-49.833 41.667 -88.5 41c-40 0.666992 -69.667 -13.166 -89 -41.499s-29.333 -59.5 -30 -93.5v-3.5v-2.5v-2.5v-3.5c0.666992 -34 10.667 -65.167 30 -93.5s49 -42.166 89 -41.499v0z" />
    <glyph glyph-name="G" unicode="&#xba;" horiz-adv-x="421" 
d="M344 247l-0.00195312 -47.9971h-234c0.666992 -8 1.83398 -16.333 3.50098 -25s3.83398 -17.334 6.50098 -26.001c9.33301 -29.333 27.166 -56.333 53.499 -81s65.5 -37 117.5 -37c13.333 0 28.5 1.66699 45.5 5s35.833 11.666 56.5 24.999v-56
c-2.66699 -1.33301 -6 -2.66602 -10 -3.99902s-8.66699 -3 -14 -5c-9.33301 -2.66699 -20.666 -5.33398 -33.999 -8.00098s-29.333 -4 -48 -4c-8 0 -16.167 0.333008 -24.5 1s-16.833 1.66699 -25.5 3c-47.333 8.66699 -91 31 -131 67s-60 90.333 -60 163
c0 69.333 21.667 125.833 65 169.5s102.333 65.5 177 65.5c18 0 33.833 -1 47.5 -3s24.834 -4.33301 33.501 -7c5.33301 -1.33301 10 -2.83301 14 -4.5s7.33301 -2.83398 10 -3.50098v-53c-20.667 9.33301 -38.834 15.5 -54.501 18.5s-29.5 4.5 -41.5 4.5
c-58 0 -102.833 -16 -134.5 -48s-48.5 -67.333 -50.5 -106v-1.5v-1.5h232v0z" />
    <glyph glyph-name="bracketleft" unicode="&#xbb;" horiz-adv-x="434" 
d="M238 219l-150 -211l-42 28l131 183l-131 184l42 28l150 -212v0zM392 219l-150 -211l-42 28l131 183l-131 184l42 28l150 -212v0z" />
    <glyph glyph-name="w" unicode="&#xbc;" horiz-adv-x="208" 
d="M74 434h60v-644h-60v644v0zM58 581c0 12.667 4.16699 23.5 12.5 32.5s19.5 13.5 33.5 13.5c13.333 0 24.333 -4.33301 33 -13s13 -19.667 13 -33s-4.5 -24.333 -13.5 -33s-19.833 -13 -32.5 -13s-23.5 4.33301 -32.5 13s-13.5 19.667 -13.5 33v0z" />
    <glyph glyph-name="bracketright" unicode="&#xbd;" horiz-adv-x="521" 
d="M443 614l-54.001 -32.001c-0.666992 1.33301 -1.33398 3 -2.00098 5s-1.66699 3.66699 -3 5c-9.33301 18 -23.666 34.5 -42.999 49.5s-45.333 22.5 -78 22.5c-35.333 0 -62 -7.16699 -80 -21.5s-30.333 -29.833 -37 -46.5c-3.33301 -6.66699 -5.5 -13.334 -6.5 -20.001
s-1.5 -13 -1.5 -19c0 -35.333 13.167 -63 39.5 -83s55.5 -37.333 87.5 -52c5.33301 -2.66699 10.666 -5.16699 15.999 -7.5s10.666 -4.83301 15.999 -7.5c2 -0.666992 3.83301 -1.5 5.5 -2.5s3.5 -1.83301 5.5 -2.5c42.667 -20.667 81.834 -45.334 117.501 -74.001
s53.5 -73.334 53.5 -134.001c0 -57.333 -20.167 -107.166 -60.5 -149.499s-95.166 -63.5 -164.499 -63.5c-50 0 -90.5 10.333 -121.5 31s-55.5 43.334 -73.5 68.001c-6.66699 10 -12.667 19.833 -18 29.5s-9.66602 18.834 -12.999 27.501l64 32
c0.666992 -2.66699 1.66699 -5.5 3 -8.5s2.66602 -5.83301 3.99902 -8.5c12 -29.333 31.167 -56 57.5 -80s60.833 -36 103.5 -36c45.333 0 81.166 15.167 107.499 45.5s39.5 66.5 39.5 108.5c0 32 -7.5 57.5 -22.5 76.5s-37.167 37.167 -66.5 54.5
c-9.33301 5.33301 -19.666 10.833 -30.999 16.5s-23.666 11.5 -36.999 17.5c-46.667 22 -88.667 47.667 -126 77s-56 70.333 -56 123c0 9.33301 0.833008 19.333 2.5 30s4.5 21.334 8.5 32.001c10 26 28.833 49.667 56.5 71s69.167 32 124.5 32
c11.333 0 24.5 -0.833008 39.5 -2.5s30.167 -5.5 45.5 -11.5c18.667 -6.66699 36.667 -17.167 54 -31.5s32 -34.5 44 -60.5v0z" />
    <glyph glyph-name="R" unicode="&#xbe;" horiz-adv-x="382" 
d="M32 89l48.999 26.002c7.33301 -21.333 20 -40.833 38 -58.5s41.667 -26.5 71 -26.5c28.667 0 51 7.83301 67 23.5s24 36.5 24 62.5c0 23.333 -7 41 -21 53s-29.667 21 -47 27l-18 6c-6 2 -11.667 3.66699 -17 5c-0.666992 0 -1.5 0.166992 -2.5 0.5
s-2.16699 0.833008 -3.5 1.5c-30 9.33301 -57.5 22.333 -82.5 39s-37.5 44 -37.5 82c0 38.667 13.5 68.667 40.5 90s59.833 32 98.5 32c9.33301 0 19.5 -0.833008 30.5 -2.5s22.5 -5.5 34.5 -11.5c12.667 -6 25 -14.833 37 -26.5s23 -27.834 33 -48.501l-45 -24
c-8 20 -20.5 35.833 -37.5 47.5s-36.167 17.5 -57.5 17.5c-23.333 0 -41.5 -6.66699 -54.5 -20s-19.5 -29.666 -19.5 -48.999c0 -20.667 6 -35.5 18 -44.5s28 -17.167 48 -24.5c3.33301 -0.666992 6.83301 -1.66699 10.5 -3l11.5 -4
c3.33301 -1.33301 6.83301 -2.5 10.5 -3.5s7.16699 -2.16699 10.5 -3.5c30.667 -10 58.667 -24.333 84 -43s38 -49 38 -91c0 -6 -0.5 -12.333 -1.5 -19s-2.5 -13.334 -4.5 -20.001c-7.33301 -24.667 -22.666 -46.834 -45.999 -66.501s-59 -29.5 -107 -29.5
c-9.33301 0 -20.833 1 -34.5 3s-27.834 6.66699 -42.501 14c-14 7.33301 -27.667 18 -41 32s-24.666 33 -33.999 57v0z" />
    <glyph glyph-name="underscore" unicode="&#xbf;" horiz-adv-x="244" 
d="M92 434h60v-434h-60v434v0zM15 581v2.50098v2.5c1.33301 10 5.83301 19.333 13.5 28s18.5 13 32.5 13c13.333 0 24.333 -4.33301 33 -13s13 -19.667 13 -33s-4.5 -24.333 -13.5 -33s-19.833 -13 -32.5 -13s-23.5 4.16699 -32.5 12.5s-13.5 19.166 -13.5 32.499v0v1v0v0v0
zM137 581.001c0 12.667 4.16699 23.5 12.5 32.5s19.5 13.5 33.5 13.5c13.333 0 24.333 -4.33301 33 -13s13 -19.667 13 -33s-4.5 -24.333 -13.5 -33s-19.833 -13 -32.5 -13s-23.5 4.33301 -32.5 13s-13.5 19.667 -13.5 33v0z" />
    <glyph glyph-name="grave" unicode="&#xc0;" horiz-adv-x="649" 
d="M11 0l314 720l313 -720h-70l-97 228h-293l-97 -228h-70v0zM202 284h245l-122 287l-123 -287v0z" />
    <glyph glyph-name="grave" unicode="&#x410;" horiz-adv-x="649" 
d="M11 0l314 720l313 -720h-70l-97 228h-293l-97 -228h-70v0zM202 284h245l-122 287l-123 -287v0z" />
    <glyph glyph-name="a" unicode="&#xc1;" horiz-adv-x="558" 
d="M88 0l-0.00195312 699.999h352v-56h-284v-231h115c11.333 0 27.333 -0.666992 48 -2s42.334 -5.66602 65.001 -12.999c32 -10.667 61.333 -30.167 88 -58.5s40 -72.166 40 -131.499c0 -62.667 -15.667 -108.334 -47 -137.001s-65.666 -48 -102.999 -58
c-22.667 -6 -44.667 -9.66699 -66 -11s-39.333 -2 -54 -2h-154v0zM155.998 55.999h97c9.33301 0 22 0.5 38 1.5s32.667 4.16699 50 9.5c25.333 8 48.5 22.5 69.5 43.5s31.5 53.5 31.5 97.5c0 42.667 -9.33301 74.167 -28 94.5s-39.334 34.5 -62.001 42.5
c-16.667 6 -32.667 9.5 -48 10.5s-26.666 1.5 -33.999 1.5h-114v-301v0z" />
    <glyph glyph-name="a" unicode="&#x411;" horiz-adv-x="558" 
d="M88 0l-0.00195312 699.999h352v-56h-284v-231h115c11.333 0 27.333 -0.666992 48 -2s42.334 -5.66602 65.001 -12.999c32 -10.667 61.333 -30.167 88 -58.5s40 -72.166 40 -131.499c0 -62.667 -15.667 -108.334 -47 -137.001s-65.666 -48 -102.999 -58
c-22.667 -6 -44.667 -9.66699 -66 -11s-39.333 -2 -54 -2h-154v0zM155.998 55.999h97c9.33301 0 22 0.5 38 1.5s32.667 4.16699 50 9.5c25.333 8 48.5 22.5 69.5 43.5s31.5 53.5 31.5 97.5c0 42.667 -9.33301 74.167 -28 94.5s-39.334 34.5 -62.001 42.5
c-16.667 6 -32.667 9.5 -48 10.5s-26.666 1.5 -33.999 1.5h-114v-301v0z" />
    <glyph glyph-name="b" unicode="&#xc2;" horiz-adv-x="564" 
d="M88 700l144 0.000976562h2h2c10.667 0 25.334 -0.5 44.001 -1.5s38.334 -4.16699 59.001 -9.5c30 -8 57.5 -23.5 82.5 -46.5s37.5 -59.167 37.5 -108.5c0 -36.667 -9.83301 -68.334 -29.5 -95.001s-44.834 -46 -75.501 -58v-2c4.66699 0 9.5 -0.5 14.5 -1.5
s9.83301 -1.83301 14.5 -2.5c33.333 -8 63.666 -26 90.999 -54s41 -68.333 41 -121c0 -66 -19 -114 -57 -144s-80 -48 -126 -54c-6.66699 -1.33301 -13.667 -2 -21 -2h-21h-4.5h-4.5h-4.5h-4.5h-184v700v0zM156 56.001l116.002 -0.000976562
c63.333 0 107.666 14.333 132.999 43s38.666 60.334 39.999 95.001v3.5v2.5c0 43.333 -14.333 78.333 -43 105s-73 40 -133 40h-113v-289v0zM156.002 401h89c3.33301 0 12 0.666992 26 2s29 5.33301 45 12c18.667 8 35.5 20.833 50.5 38.5s22.5 43.5 22.5 77.5
c0 29.333 -10.167 55.5 -30.5 78.5s-57.833 34.5 -112.5 34.5h-90v-243v0z" />
    <glyph glyph-name="b" unicode="&#x412;" horiz-adv-x="564" 
d="M88 700l144 0.000976562h2h2c10.667 0 25.334 -0.5 44.001 -1.5s38.334 -4.16699 59.001 -9.5c30 -8 57.5 -23.5 82.5 -46.5s37.5 -59.167 37.5 -108.5c0 -36.667 -9.83301 -68.334 -29.5 -95.001s-44.834 -46 -75.501 -58v-2c4.66699 0 9.5 -0.5 14.5 -1.5
s9.83301 -1.83301 14.5 -2.5c33.333 -8 63.666 -26 90.999 -54s41 -68.333 41 -121c0 -66 -19 -114 -57 -144s-80 -48 -126 -54c-6.66699 -1.33301 -13.667 -2 -21 -2h-21h-4.5h-4.5h-4.5h-4.5h-184v700v0zM156 56.001l116.002 -0.000976562
c63.333 0 107.666 14.333 132.999 43s38.666 60.334 39.999 95.001v3.5v2.5c0 43.333 -14.333 78.333 -43 105s-73 40 -133 40h-113v-289v0zM156.002 401h89c3.33301 0 12 0.666992 26 2s29 5.33301 45 12c18.667 8 35.5 20.833 50.5 38.5s22.5 43.5 22.5 77.5
c0 29.333 -10.167 55.5 -30.5 78.5s-57.833 34.5 -112.5 34.5h-90v-243v0z" />
    <glyph glyph-name="c" unicode="&#xc3;" horiz-adv-x="407" 
d="M88 0v700h308v-56h-240v-644h-68v0z" />
    <glyph glyph-name="c" unicode="&#x413;" horiz-adv-x="407" 
d="M88 0v700h308v-56h-240v-644h-68v0z" />
    <glyph glyph-name="d" unicode="&#xc4;" horiz-adv-x="638" 
d="M149 700h391v-644h84v-196h-63v140h-487v-140h-63v196h2h2h2h2c41.333 0 73.333 24 96 72s34 116.667 34 206v366v0zM217 644l-0.000976562 -310c0 -66 -4.66699 -121.167 -14 -165.5s-31.666 -81.833 -66.999 -112.5h336v588h-255v0z" />
    <glyph glyph-name="d" unicode="&#x414;" horiz-adv-x="638" 
d="M149 700h391v-644h84v-196h-63v140h-487v-140h-63v196h2h2h2h2c41.333 0 73.333 24 96 72s34 116.667 34 206v366v0zM217 644l-0.000976562 -310c0 -66 -4.66699 -121.167 -14 -165.5s-31.666 -81.833 -66.999 -112.5h336v588h-255v0z" />
    <glyph glyph-name="e" unicode="&#xc5;" horiz-adv-x="519" 
d="M88 0v700h375v-56h-307v-224h296v-56h-296v-308h307v-56h-375v0z" />
    <glyph glyph-name="e" unicode="&#x415;" horiz-adv-x="519" 
d="M88 0v700h375v-56h-307v-224h296v-56h-296v-308h307v-56h-375v0z" />
    <glyph glyph-name="f" unicode="&#xc6;" horiz-adv-x="846" 
d="M389 0v343l-287 -343h-91l313 358l-295 342h84l276 -329v329h68v-329l276 329h84l-295 -342l313 -358h-91l-287 343v-343h-68v0z" />
    <glyph glyph-name="f" unicode="&#x416;" horiz-adv-x="846" 
d="M389 0v343l-287 -343h-91l313 358l-295 342h84l276 -329v329h68v-329l276 329h84l-295 -342l313 -358h-91l-287 343v-343h-68v0z" />
    <glyph glyph-name="g" unicode="&#xc7;" horiz-adv-x="546" 
d="M104 579l-53 35c17.333 26.667 43 51 77 73s80 33 138 33c51.333 0 95.666 -16 132.999 -48s56 -75.333 56 -130c0 -39.333 -10.333 -73.333 -31 -102s-47.334 -47.667 -80.001 -57v-3c39.333 -6.66699 73.5 -26 102.5 -58s43.5 -74.667 43.5 -128
c0 -60.667 -21.333 -111.334 -64 -152.001s-102 -61 -178 -61c-53.333 0 -98.666 13 -135.999 39s-67.666 62 -90.999 108l58 30c15.333 -37.333 38.5 -67 69.5 -89s64.167 -33 99.5 -33c47.333 0 87.833 14.167 121.5 42.5s50.5 68.833 50.5 121.5
c0 49.333 -16.833 87 -50.5 113s-76.167 39 -127.5 39h-71v56h69c5.33301 0 11 0.166992 17 0.5s11.667 0.833008 17 1.5c28 4.66699 53.5 16.167 76.5 34.5s34.5 49.833 34.5 94.5c0 35.333 -10.833 65 -32.5 89s-53.167 36 -94.5 36c-6 0 -12.167 -0.166992 -18.5 -0.5
s-12.833 -1.16602 -19.5 -2.49902c-20.667 -3.33301 -41 -11 -61 -23s-38.333 -31.667 -55 -59v0z" />
    <glyph glyph-name="g" unicode="&#x417;" horiz-adv-x="546" 
d="M104 579l-53 35c17.333 26.667 43 51 77 73s80 33 138 33c51.333 0 95.666 -16 132.999 -48s56 -75.333 56 -130c0 -39.333 -10.333 -73.333 -31 -102s-47.334 -47.667 -80.001 -57v-3c39.333 -6.66699 73.5 -26 102.5 -58s43.5 -74.667 43.5 -128
c0 -60.667 -21.333 -111.334 -64 -152.001s-102 -61 -178 -61c-53.333 0 -98.666 13 -135.999 39s-67.666 62 -90.999 108l58 30c15.333 -37.333 38.5 -67 69.5 -89s64.167 -33 99.5 -33c47.333 0 87.833 14.167 121.5 42.5s50.5 68.833 50.5 121.5
c0 49.333 -16.833 87 -50.5 113s-76.167 39 -127.5 39h-71v56h69c5.33301 0 11 0.166992 17 0.5s11.667 0.833008 17 1.5c28 4.66699 53.5 16.167 76.5 34.5s34.5 49.833 34.5 94.5c0 35.333 -10.833 65 -32.5 89s-53.167 36 -94.5 36c-6 0 -12.167 -0.166992 -18.5 -0.5
s-12.833 -1.16602 -19.5 -2.49902c-20.667 -3.33301 -41 -11 -61 -23s-38.333 -31.667 -55 -59v0z" />
    <glyph glyph-name="h" unicode="&#xc8;" horiz-adv-x="722" 
d="M88 700h68v-554l478 582v-728h-68v554l-478 -582v728v0z" />
    <glyph glyph-name="h" unicode="&#x418;" horiz-adv-x="722" 
d="M88 700h68v-554l478 582v-728h-68v554l-478 -582v728v0z" />
    <glyph glyph-name="i" unicode="&#xc9;" horiz-adv-x="722" 
d="M88 700h68v-554l478 582v-728h-68v554l-478 -582v728v0zM218 829l54.0029 21.999c6 -19.333 16.667 -33.666 32 -42.999s31.666 -14.666 48.999 -15.999h4h4c25.333 0 44.666 5.33301 57.999 16s22.666 22.667 27.999 36c0.666992 0.666992 1.16699 1.66699 1.5 3
s0.833008 2.66602 1.5 3.99902l55 -22c-9.33301 -22.667 -21.5 -40.167 -36.5 -52.5s-30.833 -21.166 -47.5 -26.499c-10.667 -4 -21.167 -6.66699 -31.5 -8s-19.833 -2 -28.5 -2s-18.5 0.833008 -29.5 2.5s-22.167 4.5 -33.5 8.5c-16 5.33301 -31.333 14.166 -46 26.499
s-26 29.5 -34 51.5v0z" />
    <glyph glyph-name="i" unicode="&#x419;" horiz-adv-x="722" 
d="M88 700h68v-554l478 582v-728h-68v554l-478 -582v728v0zM218 829l54.0029 21.999c6 -19.333 16.667 -33.666 32 -42.999s31.666 -14.666 48.999 -15.999h4h4c25.333 0 44.666 5.33301 57.999 16s22.666 22.667 27.999 36c0.666992 0.666992 1.16699 1.66699 1.5 3
s0.833008 2.66602 1.5 3.99902l55 -22c-9.33301 -22.667 -21.5 -40.167 -36.5 -52.5s-30.833 -21.166 -47.5 -26.499c-10.667 -4 -21.167 -6.66699 -31.5 -8s-19.833 -2 -28.5 -2s-18.5 0.833008 -29.5 2.5s-22.167 4.5 -33.5 8.5c-16 5.33301 -31.333 14.166 -46 26.499
s-26 29.5 -34 51.5v0z" />
    <glyph glyph-name="j" unicode="&#xca;" horiz-adv-x="571" 
d="M88 0v700h68v-325l313 325h84l-332 -339l339 -361h-91l-313 340v-340h-68v0z" />
    <glyph glyph-name="j" unicode="&#x41a;" horiz-adv-x="571" 
d="M88 0v700h68v-325l313 325h84l-332 -339l339 -361h-91l-313 340v-340h-68v0z" />
    <glyph glyph-name="k" unicode="&#xcb;" horiz-adv-x="641" 
d="M164 700l389 -0.000976562v-700h-68v644h-253v-377c0 -82.667 -11 -148.667 -33 -198s-67.667 -74 -137 -74c-2.66699 0 -9.16699 0.166992 -19.5 0.5s-22.166 1.83301 -35.499 4.5v56c1.33301 0 2.66602 -0.166992 3.99902 -0.5s3 -0.833008 5 -1.5
c1.33301 0 3 -0.166992 5 -0.5s4 -0.5 6 -0.5c3.33301 -0.666992 6.5 -1.16699 9.5 -1.5s5.83301 -0.5 8.5 -0.5c51.333 0 84 20.333 98 61s21 91.334 21 152.001v436v0z" />
    <glyph glyph-name="k" unicode="&#x41b;" horiz-adv-x="641" 
d="M164 700l389 -0.000976562v-700h-68v644h-253v-377c0 -82.667 -11 -148.667 -33 -198s-67.667 -74 -137 -74c-2.66699 0 -9.16699 0.166992 -19.5 0.5s-22.166 1.83301 -35.499 4.5v56c1.33301 0 2.66602 -0.166992 3.99902 -0.5s3 -0.833008 5 -1.5
c1.33301 0 3 -0.166992 5 -0.5s4 -0.5 6 -0.5c3.33301 -0.666992 6.5 -1.16699 9.5 -1.5s5.83301 -0.5 8.5 -0.5c51.333 0 84 20.333 98 61s21 91.334 21 152.001v436v0z" />
    <glyph glyph-name="l" unicode="&#xcc;" horiz-adv-x="858" 
d="M42 0l95 728l292 -624l292 624l95 -728h-63l-67 518l-257 -546l-257 546l-67 -518h-63v0z" />
    <glyph glyph-name="l" unicode="&#x41c;" horiz-adv-x="858" 
d="M42 0l95 728l292 -624l292 624l95 -728h-63l-67 518l-257 -546l-257 546l-67 -518h-63v0z" />
    <glyph glyph-name="m" unicode="&#xcd;" horiz-adv-x="715" 
d="M88 0v700h68v-287h403v287h68v-700h-68v357h-403v-357h-68v0z" />
    <glyph glyph-name="m" unicode="&#x41d;" horiz-adv-x="715" 
d="M88 0v700h68v-287h403v287h68v-700h-68v357h-403v-357h-68v0z" />
    <glyph glyph-name="n" unicode="&#xce;" horiz-adv-x="868" 
d="M56 350c0 100 34 186.668 102 260.001s160 110 276 110c100.667 0 188.834 -33.167 264.501 -99.5s113.5 -156.5 113.5 -270.5s-37.833 -204 -113.5 -270s-163.834 -99 -264.501 -99c-102 0 -190.5 33.167 -265.5 99.5s-112.5 156.166 -112.5 269.499v0zM128 350.001
c0 -94.667 30.333 -170.667 91 -228s132.334 -86 215.001 -86s154.334 28.667 215.001 86s91 133.333 91 228c0 95.333 -30.333 171.5 -91 228.5s-132.334 85.5 -215.001 85.5s-154.334 -28.667 -215.001 -86s-91 -133.333 -91 -228v0z" />
    <glyph glyph-name="n" unicode="&#x41e;" horiz-adv-x="868" 
d="M56 350c0 100 34 186.668 102 260.001s160 110 276 110c100.667 0 188.834 -33.167 264.501 -99.5s113.5 -156.5 113.5 -270.5s-37.833 -204 -113.5 -270s-163.834 -99 -264.501 -99c-102 0 -190.5 33.167 -265.5 99.5s-112.5 156.166 -112.5 269.499v0zM128 350.001
c0 -94.667 30.333 -170.667 91 -228s132.334 -86 215.001 -86s154.334 28.667 215.001 86s91 133.333 91 228c0 95.333 -30.333 171.5 -91 228.5s-132.334 85.5 -215.001 85.5s-154.334 -28.667 -215.001 -86s-91 -133.333 -91 -228v0z" />
    <glyph glyph-name="o" unicode="&#xcf;" horiz-adv-x="715" 
d="M88 0v700h539v-700h-68v644h-403v-644h-68v0z" />
    <glyph glyph-name="o" unicode="&#x41f;" horiz-adv-x="715" 
d="M88 0v700h539v-700h-68v644h-403v-644h-68v0z" />
    <glyph glyph-name="p" unicode="&#xd0;" horiz-adv-x="538" 
d="M88 0l-0.00195312 700.002h194c12 0 25.333 -0.666992 40 -2s30 -4 46 -8c30.667 -8.66699 59 -25.834 85 -51.501s39 -66.834 39 -123.501s-12.833 -98 -38.5 -124s-54.167 -43.333 -85.5 -52c-15.333 -4 -30.666 -6.66699 -45.999 -8s-28.666 -2 -39.999 -2h-126v-329
h-68v0zM155.998 644.002l0.00195312 -258.999h123c8 0 17.167 0.5 27.5 1.5s21.166 2.83301 32.499 5.5c20.667 6 39.667 18.167 57 36.5s26 47.166 26 86.499s-8.83301 68 -26.5 86s-36.834 30 -57.501 36c-10.667 2.66699 -21.167 4.5 -31.5 5.5s-19.5 1.5 -27.5 1.5h-123
v0z" />
    <glyph glyph-name="p" unicode="&#x420;" horiz-adv-x="538" 
d="M88 0l-0.00195312 700.002h194c12 0 25.333 -0.666992 40 -2s30 -4 46 -8c30.667 -8.66699 59 -25.834 85 -51.501s39 -66.834 39 -123.501s-12.833 -98 -38.5 -124s-54.167 -43.333 -85.5 -52c-15.333 -4 -30.666 -6.66699 -45.999 -8s-28.666 -2 -39.999 -2h-126v-329
h-68v0zM155.998 644.002l0.00195312 -258.999h123c8 0 17.167 0.5 27.5 1.5s21.166 2.83301 32.499 5.5c20.667 6 39.667 18.167 57 36.5s26 47.166 26 86.499s-8.83301 68 -26.5 86s-36.834 30 -57.501 36c-10.667 2.66699 -21.167 4.5 -31.5 5.5s-19.5 1.5 -27.5 1.5h-123
v0z" />
    <glyph glyph-name="q" unicode="&#xd1;" horiz-adv-x="700" 
d="M672 140l-0.00195312 -78.001c-5.33301 -4 -13.166 -9.5 -23.499 -16.5s-23.166 -14.167 -38.499 -21.5c-22 -10.667 -49.167 -20.5 -81.5 -29.5s-69.5 -13.5 -111.5 -13.5c-112 0 -200.167 36.833 -264.5 110.5s-96.5 159.834 -96.5 258.501
c0 114 36.5 204.167 109.5 270.5s156.833 99.5 251.5 99.5c36 0 75.5 -5 118.5 -15s88.5 -33 136.5 -69v-79c-32.667 32 -70 57.833 -112 77.5s-89 29.5 -141 29.5c-86 0 -155 -31 -207 -93s-80 -130 -84 -204v-8.5v-8.5c0 -79.333 26.167 -151.5 78.5 -216.5
s122.833 -97.5 211.5 -97.5c48 0 94 9.5 138 28.5s82.667 44.167 116 75.5v0z" />
    <glyph glyph-name="q" unicode="&#x421;" horiz-adv-x="700" 
d="M672 140l-0.00195312 -78.001c-5.33301 -4 -13.166 -9.5 -23.499 -16.5s-23.166 -14.167 -38.499 -21.5c-22 -10.667 -49.167 -20.5 -81.5 -29.5s-69.5 -13.5 -111.5 -13.5c-112 0 -200.167 36.833 -264.5 110.5s-96.5 159.834 -96.5 258.501
c0 114 36.5 204.167 109.5 270.5s156.833 99.5 251.5 99.5c36 0 75.5 -5 118.5 -15s88.5 -33 136.5 -69v-79c-32.667 32 -70 57.833 -112 77.5s-89 29.5 -141 29.5c-86 0 -155 -31 -207 -93s-80 -130 -84 -204v-8.5v-8.5c0 -79.333 26.167 -151.5 78.5 -216.5
s122.833 -97.5 211.5 -97.5c48 0 94 9.5 138 28.5s82.667 44.167 116 75.5v0z" />
    <glyph glyph-name="Scaron" unicode="&#xd2;" horiz-adv-x="464" 
d="M198 0v644h-187v56h442v-56h-187v-644h-68v0z" />
    <glyph glyph-name="Scaron" unicode="&#x422;" horiz-adv-x="464" 
d="M198 0v644h-187v56h442v-56h-187v-644h-68v0z" />
    <glyph glyph-name="r" unicode="&#xd3;" horiz-adv-x="561" 
d="M172 0l97 212l-255 488h77l212 -417l189 417h69l-320 -700h-69v0z" />
    <glyph glyph-name="r" unicode="&#x423;" horiz-adv-x="561" 
d="M172 0l97 212l-255 488h77l212 -417l189 417h69l-320 -700h-69v0z" />
    <glyph glyph-name="t" unicode="&#xd4;" horiz-adv-x="866" 
d="M399 0v99.001h-30c-114 0 -195.833 28.167 -245.5 84.5s-74.5 119.166 -74.5 188.499c0 80.667 28 146.167 84 196.5s134.667 75.5 236 75.5h30v84h68v-84h29c83.333 0 157.666 -21.833 222.999 -65.5s98 -112.834 98 -207.501c0 -69.333 -24.667 -132.166 -74 -188.499
s-131.666 -84.5 -246.999 -84.5h-29v-98h-68v0zM399 154.001v434c-109.333 -1.33301 -183 -23.5 -221 -66.5s-57 -93.167 -57 -150.5c0 -93.333 26.833 -152.5 80.5 -177.5s119.5 -38.167 197.5 -39.5v0zM467 588.001v-434c77.333 2 143 15.167 197 39.5s81 83.5 81 177.5
c0 57.333 -19 107.5 -57 150.5s-111.667 65.167 -221 66.5v0z" />
    <glyph glyph-name="t" unicode="&#x424;" horiz-adv-x="866" 
d="M399 0v99.001h-30c-114 0 -195.833 28.167 -245.5 84.5s-74.5 119.166 -74.5 188.499c0 80.667 28 146.167 84 196.5s134.667 75.5 236 75.5h30v84h68v-84h29c83.333 0 157.666 -21.833 222.999 -65.5s98 -112.834 98 -207.501c0 -69.333 -24.667 -132.166 -74 -188.499
s-131.666 -84.5 -246.999 -84.5h-29v-98h-68v0zM399 154.001v434c-109.333 -1.33301 -183 -23.5 -221 -66.5s-57 -93.167 -57 -150.5c0 -93.333 26.833 -152.5 80.5 -177.5s119.5 -38.167 197.5 -39.5v0zM467 588.001v-434c77.333 2 143 15.167 197 39.5s81 83.5 81 177.5
c0 57.333 -19 107.5 -57 150.5s-111.667 65.167 -221 66.5v0z" />
    <glyph glyph-name="u" unicode="&#xd5;" horiz-adv-x="504" 
d="M252 304l-169 -304h-76l210 357l-194 343h76l153 -286l154 286h76l-195 -343l210 -357h-75l-170 304v0z" />
    <glyph glyph-name="u" unicode="&#x425;" horiz-adv-x="504" 
d="M252 304l-169 -304h-76l210 357l-194 343h76l153 -286l154 286h76l-195 -343l210 -357h-75l-170 304v0z" />
    <glyph glyph-name="zero" unicode="&#xd6;" horiz-adv-x="715" 
d="M88 0v700h68v-644h396v644h68v-644h84v-196h-63v140h-553v0z" />
    <glyph glyph-name="zero" unicode="&#x426;" horiz-adv-x="715" 
d="M88 0v700h68v-644h396v644h68v-644h84v-196h-63v140h-553v0z" />
    <glyph glyph-name="parenright" unicode="&#xd7;" horiz-adv-x="598" 
d="M442 0v315.001c-4 0 -8.16699 -0.166992 -12.5 -0.5s-8.83301 -0.833008 -13.5 -1.5c-9.33301 -0.666992 -19 -1.16699 -29 -1.5s-20.333 -0.833008 -31 -1.5c-12.667 -0.666992 -25.167 -1.16699 -37.5 -1.5s-23.5 -0.5 -33.5 -0.5c-96.667 0 -156.667 17.167 -180 51.5
s-35 76.833 -35 127.5v213h68v-198c0 -46.667 8.33301 -81.334 25 -104.001s61 -34 133 -34h13.5h13.5c14 0.666992 29.5 1.5 46.5 2.5s41.167 2.5 72.5 4.5v329h68v-700h-68v0z" />
    <glyph glyph-name="parenright" unicode="&#x427;" horiz-adv-x="598" 
d="M442 0v315.001c-4 0 -8.16699 -0.166992 -12.5 -0.5s-8.83301 -0.833008 -13.5 -1.5c-9.33301 -0.666992 -19 -1.16699 -29 -1.5s-20.333 -0.833008 -31 -1.5c-12.667 -0.666992 -25.167 -1.16699 -37.5 -1.5s-23.5 -0.5 -33.5 -0.5c-96.667 0 -156.667 17.167 -180 51.5
s-35 76.833 -35 127.5v213h68v-198c0 -46.667 8.33301 -81.334 25 -104.001s61 -34 133 -34h13.5h13.5c14 0.666992 29.5 1.5 46.5 2.5s41.167 2.5 72.5 4.5v329h68v-700h-68v0z" />
    <glyph glyph-name="x" unicode="&#xd8;" horiz-adv-x="992" 
d="M88 0v700h68v-644h306v644h68v-644h306v644h68v-700h-816v0z" />
    <glyph glyph-name="x" unicode="&#x428;" horiz-adv-x="992" 
d="M88 0v700h68v-644h306v644h68v-644h306v644h68v-700h-816v0z" />
    <glyph glyph-name="y" unicode="&#xd9;" horiz-adv-x="1076" 
d="M88 0v700h68v-644h306v644h68v-644h306v644h68v-644h84v-196h-63v140h-837v0z" />
    <glyph glyph-name="y" unicode="&#x429;" horiz-adv-x="1076" 
d="M88 0v700h68v-644h306v644h68v-644h306v644h68v-644h84v-196h-63v140h-837v0z" />
    <glyph glyph-name="z" unicode="&#xda;" horiz-adv-x="649" 
d="M178 0l-0.000976562 643.999h-167v56h235v-294h116c11.333 0 27.333 -0.666992 48 -2s42.334 -5.66602 65.001 -12.999c32 -10.667 61.333 -29.834 88 -57.501s40 -70.5 40 -128.5c0 -61.333 -15.5 -106.166 -46.5 -134.499s-65.167 -47.5 -102.5 -57.5
c-23.333 -6 -45.833 -9.66699 -67.5 -11s-39.5 -2 -53.5 -2h-155v0zM245.999 55.999l98 0.000976562c8.66699 0 21.167 0.5 37.5 1.5s33.5 4.16699 51.5 9.5c24.667 8 47.5 22.167 68.5 42.5s31.5 52.166 31.5 95.499c0 42 -9.5 73 -28.5 93s-39.833 33.667 -62.5 41
c-16 5.33301 -31.5 8.5 -46.5 9.5s-26.5 1.5 -34.5 1.5h-115v-294v0z" />
    <glyph glyph-name="z" unicode="&#x42a;" horiz-adv-x="649" 
d="M178 0l-0.000976562 643.999h-167v56h235v-294h116c11.333 0 27.333 -0.666992 48 -2s42.334 -5.66602 65.001 -12.999c32 -10.667 61.333 -29.834 88 -57.501s40 -70.5 40 -128.5c0 -61.333 -15.5 -106.166 -46.5 -134.499s-65.167 -47.5 -102.5 -57.5
c-23.333 -6 -45.833 -9.66699 -67.5 -11s-39.5 -2 -53.5 -2h-155v0zM245.999 55.999l98 0.000976562c8.66699 0 21.167 0.5 37.5 1.5s33.5 4.16699 51.5 9.5c24.667 8 47.5 22.167 68.5 42.5s31.5 52.166 31.5 95.499c0 42 -9.5 73 -28.5 93s-39.833 33.667 -62.5 41
c-16 5.33301 -31.5 8.5 -46.5 9.5s-26.5 1.5 -34.5 1.5h-115v-294v0z" />
    <glyph glyph-name="braceleft" unicode="&#xdb;" horiz-adv-x="746" 
d="M88 0l-0.00195312 699.999h68v-294h117c12 0 28 -0.666992 48 -2s41 -5.33301 63 -12c32.667 -10 62.334 -28.833 89.001 -56.5s40 -71.167 40 -130.5c0 -62 -15.667 -107.167 -47 -135.5s-65.666 -47.166 -102.999 -56.499c-22.667 -6 -44.5 -9.66699 -65.5 -11
s-38.833 -2 -53.5 -2h-156v0zM155.998 55.999h99.001c9.33301 0 21.833 0.5 37.5 1.5s31.834 3.83301 48.501 8.5c26 7.33301 49.5 21.333 70.5 42s31.5 53 31.5 97c0 42 -9.33301 73 -28 93s-39.334 33.667 -62.001 41c-16.667 5.33301 -32.334 8.5 -47.001 9.5
s-26 1.5 -34 1.5h-116v-294v0zM589.999 -0.000976562v700h68v-700h-68v0z" />
    <glyph glyph-name="braceleft" unicode="&#x42b;" horiz-adv-x="746" 
d="M88 0l-0.00195312 699.999h68v-294h117c12 0 28 -0.666992 48 -2s41 -5.33301 63 -12c32.667 -10 62.334 -28.833 89.001 -56.5s40 -71.167 40 -130.5c0 -62 -15.667 -107.167 -47 -135.5s-65.666 -47.166 -102.999 -56.499c-22.667 -6 -44.5 -9.66699 -65.5 -11
s-38.833 -2 -53.5 -2h-156v0zM155.998 55.999h99.001c9.33301 0 21.833 0.5 37.5 1.5s31.834 3.83301 48.501 8.5c26 7.33301 49.5 21.333 70.5 42s31.5 53 31.5 97c0 42 -9.33301 73 -28 93s-39.334 33.667 -62.001 41c-16.667 5.33301 -32.334 8.5 -47.001 9.5
s-26 1.5 -34 1.5h-116v-294v0zM589.999 -0.000976562v700h68v-700h-68v0z" />
    <glyph glyph-name="bar" unicode="&#xdc;" horiz-adv-x="559" 
d="M88 0l-0.000976562 699.999h68v-294h116c11.333 0 27.333 -0.666992 48 -2s42.334 -5.66602 65.001 -12.999c32 -10.667 61.333 -29.834 88 -57.501s40 -70.5 40 -128.5c0 -61.333 -15.5 -106.166 -46.5 -134.499s-65.167 -47.5 -102.5 -57.5
c-23.333 -6 -45.833 -9.66699 -67.5 -11s-39.5 -2 -53.5 -2h-155v0zM155.999 55.999l98 0.000976562c8.66699 0 21.167 0.5 37.5 1.5s33.5 4.16699 51.5 9.5c24.667 8 47.5 22.167 68.5 42.5s31.5 52.166 31.5 95.499c0 42 -9.5 73 -28.5 93s-39.833 33.667 -62.5 41
c-16 5.33301 -31.5 8.5 -46.5 9.5s-26.5 1.5 -34.5 1.5h-115v-294v0z" />
    <glyph glyph-name="bar" unicode="&#x42c;" horiz-adv-x="559" 
d="M88 0l-0.000976562 699.999h68v-294h116c11.333 0 27.333 -0.666992 48 -2s42.334 -5.66602 65.001 -12.999c32 -10.667 61.333 -29.834 88 -57.501s40 -70.5 40 -128.5c0 -61.333 -15.5 -106.166 -46.5 -134.499s-65.167 -47.5 -102.5 -57.5
c-23.333 -6 -45.833 -9.66699 -67.5 -11s-39.5 -2 -53.5 -2h-155v0zM155.999 55.999l98 0.000976562c8.66699 0 21.167 0.5 37.5 1.5s33.5 4.16699 51.5 9.5c24.667 8 47.5 22.167 68.5 42.5s31.5 52.166 31.5 95.499c0 42 -9.5 73 -28.5 93s-39.833 33.667 -62.5 41
c-16 5.33301 -31.5 8.5 -46.5 9.5s-26.5 1.5 -34.5 1.5h-115v-294v0z" />
    <glyph glyph-name="braceright" unicode="&#xdd;" horiz-adv-x="679" 
d="M42 36l-0.00195312 76c27.333 -19.333 59.833 -36.833 97.5 -52.5s78.167 -23.5 121.5 -23.5c72 0 137.667 27.333 197 82s90.333 127.334 93 218.001h-425v56h423c-2.66699 79.333 -32.834 144.5 -90.501 195.5s-124.167 76.5 -199.5 76.5h-8h-8
c-35.333 -2 -70.166 -9.33301 -104.499 -22s-66.5 -31 -96.5 -55v75c14.667 9.33301 29.334 17.166 44.001 23.499s29.334 11.833 44.001 16.5c21.333 6.66699 43 11.334 65 14.001s44.333 4 67 4c118 0 207.667 -36.833 269 -110.5s92 -160.167 92 -259.5
c0 -98.667 -31.833 -184.834 -95.5 -258.501s-152.167 -110.5 -265.5 -110.5c-33.333 0 -68.5 3.83301 -105.5 11.5s-75.167 22.167 -114.5 43.5v0z" />
    <glyph glyph-name="braceright" unicode="&#x42d;" horiz-adv-x="679" 
d="M42 36l-0.00195312 76c27.333 -19.333 59.833 -36.833 97.5 -52.5s78.167 -23.5 121.5 -23.5c72 0 137.667 27.333 197 82s90.333 127.334 93 218.001h-425v56h423c-2.66699 79.333 -32.834 144.5 -90.501 195.5s-124.167 76.5 -199.5 76.5h-8h-8
c-35.333 -2 -70.166 -9.33301 -104.499 -22s-66.5 -31 -96.5 -55v75c14.667 9.33301 29.334 17.166 44.001 23.499s29.334 11.833 44.001 16.5c21.333 6.66699 43 11.334 65 14.001s44.333 4 67 4c118 0 207.667 -36.833 269 -110.5s92 -160.167 92 -259.5
c0 -98.667 -31.833 -184.834 -95.5 -258.501s-152.167 -110.5 -265.5 -110.5c-33.333 0 -68.5 3.83301 -105.5 11.5s-75.167 22.167 -114.5 43.5v0z" />
    <glyph glyph-name="asciitilde" unicode="&#xde;" horiz-adv-x="1054" 
d="M156 391h88.001c0.666992 7.33301 1.5 15 2.5 23s2.16699 15.667 3.5 23c15.333 70.667 54.166 135.5 116.499 194.5s146.833 88.5 253.5 88.5c102 0 190.5 -33.333 265.5 -100s112.5 -156.667 112.5 -270s-37.5 -203.166 -112.5 -269.499s-163.5 -99.5 -265.5 -99.5
c-112 0 -201.5 34.167 -268.5 102.5s-103.167 152.166 -108.5 251.499h-87v-335h-68v700h68v-309v0zM315.001 350c0 -96 30.5 -172.333 91.5 -229s132.167 -85 213.5 -85c82.667 0 154.334 28.333 215.001 85s91 133 91 229s-30.333 172.333 -91 229
s-132.334 85 -215.001 85c-81.333 0 -152.5 -28.333 -213.5 -85s-91.5 -133 -91.5 -229v0z" />
    <glyph glyph-name="asciitilde" unicode="&#x42e;" horiz-adv-x="1054" 
d="M156 391h88.001c0.666992 7.33301 1.5 15 2.5 23s2.16699 15.667 3.5 23c15.333 70.667 54.166 135.5 116.499 194.5s146.833 88.5 253.5 88.5c102 0 190.5 -33.333 265.5 -100s112.5 -156.667 112.5 -270s-37.5 -203.166 -112.5 -269.499s-163.5 -99.5 -265.5 -99.5
c-112 0 -201.5 34.167 -268.5 102.5s-103.167 152.166 -108.5 251.499h-87v-335h-68v700h68v-309v0zM315.001 350c0 -96 30.5 -172.333 91.5 -229s132.167 -85 213.5 -85c82.667 0 154.334 28.333 215.001 85s91 133 91 229s-30.333 172.333 -91 229
s-132.334 85 -215.001 85c-81.333 0 -152.5 -28.333 -213.5 -85s-91.5 -133 -91.5 -229v0z" />
    <glyph glyph-name="germandbls" unicode="&#xdf;" horiz-adv-x="550" 
d="M70 0l190.002 311.002c-54.667 -0.666992 -102.334 15.666 -143.001 48.999s-61 79.666 -61 138.999c0 11.333 1.16699 23.833 3.5 37.5s6.16602 27.5 11.499 41.5c12.667 30.667 36.167 58.667 70.5 84s86.5 38 156.5 38h164v-700h-68v308h-62l-185 -308h-77v0z
M394.002 364.002l0.000976562 279.998h-95c-7.33301 0 -18.666 -0.5 -33.999 -1.5s-31.333 -4.16699 -48 -9.5c-22.667 -7.33301 -43.5 -20.666 -62.5 -39.999s-28.5 -49 -28.5 -89c0 -43.333 9.83301 -74.666 29.5 -93.999s41.5 -32 65.5 -38
c13.333 -4 26.166 -6.33301 38.499 -7s23.166 -1 32.499 -1h102v0z" />
    <glyph glyph-name="germandbls" unicode="&#x42f;" horiz-adv-x="550" 
d="M70 0l190.002 311.002c-54.667 -0.666992 -102.334 15.666 -143.001 48.999s-61 79.666 -61 138.999c0 11.333 1.16699 23.833 3.5 37.5s6.16602 27.5 11.499 41.5c12.667 30.667 36.167 58.667 70.5 84s86.5 38 156.5 38h164v-700h-68v308h-62l-185 -308h-77v0z
M394.002 364.002l0.000976562 279.998h-95c-7.33301 0 -18.666 -0.5 -33.999 -1.5s-31.333 -4.16699 -48 -9.5c-22.667 -7.33301 -43.5 -20.666 -62.5 -39.999s-28.5 -49 -28.5 -89c0 -43.333 9.83301 -74.666 29.5 -93.999s41.5 -32 65.5 -38
c13.333 -4 26.166 -6.33301 38.499 -7s23.166 -1 32.499 -1h102v0z" />
    <glyph glyph-name="agrave" unicode="&#xe0;" horiz-adv-x="562" 
d="M432 357l-0.00195312 77h56v-434h-56v74c-17.333 -31.333 -40.5 -54.333 -69.5 -69s-59.167 -22 -90.5 -22c-58.667 0 -111 19.833 -157 59.5s-69 97.834 -69 174.501c0 65.333 20.5 120.833 61.5 166.5s96.167 68.5 165.5 68.5c10.667 0 21.834 -0.833008 33.501 -2.5
s23.834 -4.83398 36.501 -9.50098c16 -6.66699 31.833 -16.5 47.5 -29.5s29.5 -30.833 41.5 -53.5v0zM271.998 30c44.667 0 82.499 16.5 113.499 49.5s46.5 78.833 46.5 137.5c0 49.333 -14 92.833 -42 130.5s-66.667 56.5 -116 56.5s-89 -18.167 -119 -54.5
s-45 -80.5 -45 -132.5c0 -48.667 14.333 -92 43 -130s68.334 -57 119.001 -57v0z" />
    <glyph glyph-name="agrave" unicode="&#x430;" horiz-adv-x="562" 
d="M432 357l-0.00195312 77h56v-434h-56v74c-17.333 -31.333 -40.5 -54.333 -69.5 -69s-59.167 -22 -90.5 -22c-58.667 0 -111 19.833 -157 59.5s-69 97.834 -69 174.501c0 65.333 20.5 120.833 61.5 166.5s96.167 68.5 165.5 68.5c10.667 0 21.834 -0.833008 33.501 -2.5
s23.834 -4.83398 36.501 -9.50098c16 -6.66699 31.833 -16.5 47.5 -29.5s29.5 -30.833 41.5 -53.5v0zM271.998 30c44.667 0 82.499 16.5 113.499 49.5s46.5 78.833 46.5 137.5c0 49.333 -14 92.833 -42 130.5s-66.667 56.5 -116 56.5s-89 -18.167 -119 -54.5
s-45 -80.5 -45 -132.5c0 -48.667 14.333 -92 43 -130s68.334 -57 119.001 -57v0z" />
    <glyph glyph-name="K" unicode="&#xe1;" horiz-adv-x="564" 
d="M104 345l3.00195 -0.00195312c16 33.333 40.333 59.5 73 78.5s69 28.5 109 28.5c62.667 0 115.5 -21.5 158.5 -64.5s64.5 -99.833 64.5 -170.5c0 -75.333 -22.833 -133.166 -68.5 -173.499s-100.167 -60.5 -163.5 -60.5c-85.333 0 -145.666 29.333 -180.999 88
s-53 128.334 -53 209.001c0 120.667 18.333 207.334 55 260.001s77 88.334 121 107.001c18 7.33301 35.833 13 53.5 17s34.167 7.33301 49.5 10c1.33301 0 2.66602 0.166992 3.99902 0.5s2.66602 0.833008 3.99902 1.5c33.333 6 59.333 13 78 21s33 20.667 43 38h64
c-18 -40 -39.833 -66.333 -65.5 -79s-54.834 -22.667 -87.501 -30c-1.33301 0 -2.5 -0.166992 -3.5 -0.5s-1.83301 -0.5 -2.5 -0.5c-74.667 -16.667 -133.5 -41.334 -176.5 -74.001s-69.167 -101.334 -78.5 -206.001v0zM279.002 29.998c50.667 0 88.833 14.5 114.5 43.5
s42.167 60.833 49.5 95.5c2 8 3.33301 16 4 24s1 16 1 24c0 48.667 -14.667 92 -44 130s-71 57 -125 57c-53.333 0 -94.833 -19.333 -124.5 -58s-44.5 -81.667 -44.5 -129c0 -50 15 -93.667 45 -131s71.333 -56 124 -56v0z" />
    <glyph glyph-name="K" unicode="&#x431;" horiz-adv-x="564" 
d="M104 345l3.00195 -0.00195312c16 33.333 40.333 59.5 73 78.5s69 28.5 109 28.5c62.667 0 115.5 -21.5 158.5 -64.5s64.5 -99.833 64.5 -170.5c0 -75.333 -22.833 -133.166 -68.5 -173.499s-100.167 -60.5 -163.5 -60.5c-85.333 0 -145.666 29.333 -180.999 88
s-53 128.334 -53 209.001c0 120.667 18.333 207.334 55 260.001s77 88.334 121 107.001c18 7.33301 35.833 13 53.5 17s34.167 7.33301 49.5 10c1.33301 0 2.66602 0.166992 3.99902 0.5s2.66602 0.833008 3.99902 1.5c33.333 6 59.333 13 78 21s33 20.667 43 38h64
c-18 -40 -39.833 -66.333 -65.5 -79s-54.834 -22.667 -87.501 -30c-1.33301 0 -2.5 -0.166992 -3.5 -0.5s-1.83301 -0.5 -2.5 -0.5c-74.667 -16.667 -133.5 -41.334 -176.5 -74.001s-69.167 -101.334 -78.5 -206.001v0zM279.002 29.998c50.667 0 88.833 14.5 114.5 43.5
s42.167 60.833 49.5 95.5c2 8 3.33301 16 4 24s1 16 1 24c0 48.667 -14.667 92 -44 130s-71 57 -125 57c-53.333 0 -94.833 -19.333 -124.5 -58s-44.5 -81.667 -44.5 -129c0 -50 15 -93.667 45 -131s71.333 -56 124 -56v0z" />
    <glyph glyph-name="quotedbl" unicode="&#xe2;" horiz-adv-x="459" 
d="M74 434l161.999 -0.000976562c5.33301 0 14.166 -0.333008 26.499 -1s25.5 -3.33398 39.5 -8.00098c17.333 -6 33.333 -16.5 48 -31.5s22 -37.5 22 -67.5c0 -5.33301 -0.333008 -10.666 -1 -15.999s-2 -11 -4 -17c-4 -12 -10.333 -23.667 -19 -35s-20.667 -20 -36 -26v-2
c25.333 -2.66699 47.333 -13.834 66 -33.501s28 -44.167 28 -73.5c0 -5.33301 -0.333008 -10.666 -1 -15.999s-1.66699 -10.666 -3 -15.999c-5.33301 -22.667 -19.166 -43.5 -41.499 -62.5s-59.166 -28.5 -110.499 -28.5h-176v434v0zM133.999 47.999h110.998
c4.66699 0 9.83398 0.166992 15.501 0.5s11.167 0.833008 16.5 1.5c16.667 2.66699 31.834 9.16699 45.501 19.5s20.5 27.5 20.5 51.5c0 4 -0.333008 8.33301 -1 13s-1.66699 9.66699 -3 15c-4 12.667 -12.5 24.5 -25.5 35.5s-34.833 16.5 -65.5 16.5h-114v-153v0z
M133.997 248.999l91.999 0.000976562c29.333 0 51.5 5.16699 66.5 15.5s22.5 28.166 22.5 53.499c0 4 -0.166992 8.16699 -0.5 12.5s-1.5 8.5 -3.5 12.5c-3.33301 10.667 -11.166 20.5 -23.499 29.5s-32.833 13.5 -61.5 13.5h-92v-137v0z" />
    <glyph glyph-name="quotedbl" unicode="&#x432;" horiz-adv-x="459" 
d="M74 434l161.999 -0.000976562c5.33301 0 14.166 -0.333008 26.499 -1s25.5 -3.33398 39.5 -8.00098c17.333 -6 33.333 -16.5 48 -31.5s22 -37.5 22 -67.5c0 -5.33301 -0.333008 -10.666 -1 -15.999s-2 -11 -4 -17c-4 -12 -10.333 -23.667 -19 -35s-20.667 -20 -36 -26v-2
c25.333 -2.66699 47.333 -13.834 66 -33.501s28 -44.167 28 -73.5c0 -5.33301 -0.333008 -10.666 -1 -15.999s-1.66699 -10.666 -3 -15.999c-5.33301 -22.667 -19.166 -43.5 -41.499 -62.5s-59.166 -28.5 -110.499 -28.5h-176v434v0zM133.999 47.999h110.998
c4.66699 0 9.83398 0.166992 15.501 0.5s11.167 0.833008 16.5 1.5c16.667 2.66699 31.834 9.16699 45.501 19.5s20.5 27.5 20.5 51.5c0 4 -0.333008 8.33301 -1 13s-1.66699 9.66699 -3 15c-4 12.667 -12.5 24.5 -25.5 35.5s-34.833 16.5 -65.5 16.5h-114v-153v0z
M133.997 248.999l91.999 0.000976562c29.333 0 51.5 5.16699 66.5 15.5s22.5 28.166 22.5 53.499c0 4 -0.166992 8.16699 -0.5 12.5s-1.5 8.5 -3.5 12.5c-3.33301 10.667 -11.166 20.5 -23.499 29.5s-32.833 13.5 -61.5 13.5h-92v-137v0z" />
    <glyph glyph-name="atilde" unicode="&#xe3;" horiz-adv-x="327" 
d="M74 0v434h242v-48h-182v-386h-60v0z" />
    <glyph glyph-name="atilde" unicode="&#x433;" horiz-adv-x="327" 
d="M74 0v434h242v-48h-182v-386h-60v0z" />
    <glyph glyph-name="adieresis" unicode="&#xe4;" horiz-adv-x="478" 
d="M113 434h281v-386h63v-160h-56v112h-331v-112h-56v160c44 2.66699 71.5 21.167 82.5 55.5s16.5 71.833 16.5 112.5v2.5v3.5v212v0zM334 48v337.999h-161v-205c0 -28.667 -4 -54.167 -12 -76.5s-21.667 -41.166 -41 -56.499h214v0z" />
    <glyph glyph-name="adieresis" unicode="&#x434;" horiz-adv-x="478" 
d="M113 434h281v-386h63v-160h-56v112h-331v-112h-56v160c44 2.66699 71.5 21.167 82.5 55.5s16.5 71.833 16.5 112.5v2.5v3.5v212v0zM334 48v337.999h-161v-205c0 -28.667 -4 -54.167 -12 -76.5s-21.667 -41.166 -41 -56.499h214v0z" />
    <glyph glyph-name="yright" unicode="&#xe5;" horiz-adv-x="515" 
d="M423 137l46.001 -23.0039c-17.333 -35.333 -42 -66 -74 -92s-74 -39 -126 -39c-70.667 0 -125.5 23.833 -164.5 71.5s-58.5 101.834 -58.5 162.501c0 10.667 0.666992 21.834 2 33.501s3.66602 23.5 6.99902 35.5c11.333 41.333 33.833 79.333 67.5 114s82.5 52 146.5 52
c57.333 0 101.5 -16.167 132.5 -48.5s51.167 -68.166 60.5 -107.499c2.66699 -9.33301 4.5 -18.666 5.5 -27.999s1.5 -18.333 1.5 -27v-29h-359v-1.5v-0.5v-1.5v-1.5c0 -6 0.333008 -12 1 -18s1.33398 -12.333 2.00098 -19c6.66699 -34.667 22.834 -66.667 48.501 -96
s61.5 -44 107.5 -44c11.333 0 24.666 1.33301 39.999 4s31.333 9.66699 48 21c11.333 8 22.666 18.5 33.999 31.5s22 29.833 32 50.5v0zM115.001 259.996l293.999 -0.00195312c-1.33301 36.667 -14.166 69.834 -38.499 99.501s-57.833 44.5 -100.5 44.5
c-42 0 -76.833 -13.667 -104.5 -41s-44.5 -61.666 -50.5 -102.999v0z" />
    <glyph glyph-name="yright" unicode="&#x435;" horiz-adv-x="515" 
d="M423 137l46.001 -23.0039c-17.333 -35.333 -42 -66 -74 -92s-74 -39 -126 -39c-70.667 0 -125.5 23.833 -164.5 71.5s-58.5 101.834 -58.5 162.501c0 10.667 0.666992 21.834 2 33.501s3.66602 23.5 6.99902 35.5c11.333 41.333 33.833 79.333 67.5 114s82.5 52 146.5 52
c57.333 0 101.5 -16.167 132.5 -48.5s51.167 -68.166 60.5 -107.499c2.66699 -9.33301 4.5 -18.666 5.5 -27.999s1.5 -18.333 1.5 -27v-29h-359v-1.5v-0.5v-1.5v-1.5c0 -6 0.333008 -12 1 -18s1.33398 -12.333 2.00098 -19c6.66699 -34.667 22.834 -66.667 48.501 -96
s61.5 -44 107.5 -44c11.333 0 24.666 1.33301 39.999 4s31.333 9.66699 48 21c11.333 8 22.666 18.5 33.999 31.5s22 29.833 32 50.5v0zM115.001 259.996l293.999 -0.00195312c-1.33301 36.667 -14.166 69.834 -38.499 99.501s-57.833 44.5 -100.5 44.5
c-42 0 -76.833 -13.667 -104.5 -41s-44.5 -61.666 -50.5 -102.999v0z" />
    <glyph glyph-name="guilsinglright" unicode="&#xe6;" horiz-adv-x="628" 
d="M284 0v226l-196 -226h-77l210 232l-196 202h74l185 -197v197h60v-197l185 197h74l-196 -202l210 -232h-77l-196 226v-226h-60v0z" />
    <glyph glyph-name="guilsinglright" unicode="&#x436;" horiz-adv-x="628" 
d="M284 0v226l-196 -226h-77l210 232l-196 202h74l185 -197v197h60v-197l185 197h74l-196 -202l210 -232h-77l-196 226v-226h-60v0z" />
    <glyph glyph-name="florin" unicode="&#xe7;" horiz-adv-x="431" 
d="M92 327l-45.9961 29.998c10.667 18 22.334 33 35.001 45s25.334 21.333 38.001 28c18.667 10 37 16.167 55 18.5s33 3.5 45 3.5c41.333 0 76.166 -11.833 104.499 -35.5s42.5 -55.167 42.5 -94.5c0 -4.66699 -0.333008 -9.66699 -1 -15s-2 -10.666 -4 -15.999
c-4 -12 -11.5 -23.833 -22.5 -35.5s-27.167 -21.5 -48.5 -29.5v-2c2 -0.666992 3.83301 -1.16699 5.5 -1.5s3.16699 -0.833008 4.5 -1.5c19.333 -6 37.166 -17.5 53.499 -34.5s24.5 -40.833 24.5 -71.5c0 -45.333 -17.5 -78.666 -52.5 -99.999s-74.5 -32 -118.5 -32
c-50.667 0 -90.334 10.333 -119.001 31s-49.667 44 -63 70l49 25c10.667 -20.667 23.167 -36.5 37.5 -47.5s28.833 -18.833 43.5 -23.5c9.33301 -3.33301 18.333 -5.5 27 -6.5s17 -1.5 25 -1.5c29.333 0 54.5 7.5 75.5 22.5s31.5 37.167 31.5 66.5
c0 22.667 -5.5 39.5 -16.5 50.5s-23.167 18.5 -36.5 22.5c-9.33301 3.33301 -18.333 5.33301 -27 6s-15.334 1 -20.001 1h-55v48h55c25.333 0 47 5.83301 65 17.5s27 31.5 27 59.5c0 4 -0.5 9.33301 -1.5 16s-3.5 14 -7.5 22c-4.66699 10 -13.334 19.5 -26.001 28.5
s-31 13.5 -55 13.5c-12 0 -25.333 -1.5 -40 -4.5s-29.667 -11.167 -45 -24.5c-6.66699 -5.33301 -13.334 -12 -20.001 -20s-13 -17.333 -19 -28v0z" />
    <glyph glyph-name="florin" unicode="&#x437;" horiz-adv-x="431" 
d="M92 327l-45.9961 29.998c10.667 18 22.334 33 35.001 45s25.334 21.333 38.001 28c18.667 10 37 16.167 55 18.5s33 3.5 45 3.5c41.333 0 76.166 -11.833 104.499 -35.5s42.5 -55.167 42.5 -94.5c0 -4.66699 -0.333008 -9.66699 -1 -15s-2 -10.666 -4 -15.999
c-4 -12 -11.5 -23.833 -22.5 -35.5s-27.167 -21.5 -48.5 -29.5v-2c2 -0.666992 3.83301 -1.16699 5.5 -1.5s3.16699 -0.833008 4.5 -1.5c19.333 -6 37.166 -17.5 53.499 -34.5s24.5 -40.833 24.5 -71.5c0 -45.333 -17.5 -78.666 -52.5 -99.999s-74.5 -32 -118.5 -32
c-50.667 0 -90.334 10.333 -119.001 31s-49.667 44 -63 70l49 25c10.667 -20.667 23.167 -36.5 37.5 -47.5s28.833 -18.833 43.5 -23.5c9.33301 -3.33301 18.333 -5.5 27 -6.5s17 -1.5 25 -1.5c29.333 0 54.5 7.5 75.5 22.5s31.5 37.167 31.5 66.5
c0 22.667 -5.5 39.5 -16.5 50.5s-23.167 18.5 -36.5 22.5c-9.33301 3.33301 -18.333 5.33301 -27 6s-15.334 1 -20.001 1h-55v48h55c25.333 0 47 5.83301 65 17.5s27 31.5 27 59.5c0 4 -0.5 9.33301 -1.5 16s-3.5 14 -7.5 22c-4.66699 10 -13.334 19.5 -26.001 28.5
s-31 13.5 -55 13.5c-12 0 -25.333 -1.5 -40 -4.5s-29.667 -11.167 -45 -24.5c-6.66699 -5.33301 -13.334 -12 -20.001 -20s-13 -17.333 -19 -28v0z" />
    <glyph glyph-name="comma" unicode="&#xe8;" horiz-adv-x="503" 
d="M74 434h60v-315l295 340v-459h-60v312l-295 -340v462v0z" />
    <glyph glyph-name="comma" unicode="&#x438;" horiz-adv-x="503" 
d="M74 434h60v-315l295 340v-459h-60v312l-295 -340v462v0z" />
    <glyph glyph-name="L" unicode="&#xe9;" horiz-adv-x="502" 
d="M74 434h60v-315l294 340v-459h-60v312l-294 -340v462v0zM115 619l53.999 22.002v-1.5c0 -0.333008 0.333008 -0.833008 1 -1.5c4 -18 13.333 -34.5 28 -49.5s34.667 -22.5 60 -22.5c21.333 0 38.166 4.66699 50.499 14s21.5 19.666 27.5 30.999
c2.66699 5.33301 5 10.666 7 15.999s3.33301 10 4 14l55 -22c-9.33301 -30.667 -27.5 -55.167 -54.5 -73.5s-56.833 -27.5 -89.5 -27.5c-33.333 0 -63.166 9 -89.499 27s-44.166 42.667 -53.499 74v0z" />
    <glyph glyph-name="L" unicode="&#x439;" horiz-adv-x="502" 
d="M74 434h60v-315l294 340v-459h-60v312l-294 -340v462v0zM115 619l53.999 22.002v-1.5c0 -0.333008 0.333008 -0.833008 1 -1.5c4 -18 13.333 -34.5 28 -49.5s34.667 -22.5 60 -22.5c21.333 0 38.166 4.66699 50.499 14s21.5 19.666 27.5 30.999
c2.66699 5.33301 5 10.666 7 15.999s3.33301 10 4 14l55 -22c-9.33301 -30.667 -27.5 -55.167 -54.5 -73.5s-56.833 -27.5 -89.5 -27.5c-33.333 0 -63.166 9 -89.499 27s-44.166 42.667 -53.499 74v0z" />
    <glyph glyph-name="asterisk" unicode="&#xea;" horiz-adv-x="428" 
d="M74 0v434h60v-194l194 194h72l-209 -202l226 -232h-77l-206 217v-217h-60v0z" />
    <glyph glyph-name="asterisk" unicode="&#x43a;" horiz-adv-x="428" 
d="M74 0v434h60v-194l194 194h72l-209 -202l226 -232h-77l-206 217v-217h-60v0z" />
    <glyph glyph-name="edieresis" unicode="&#xeb;" horiz-adv-x="475" 
d="M401 434l0.000976562 -434h-60v386h-186v-259c0 -34.667 -9.83301 -64.5 -29.5 -89.5s-56.167 -37.5 -109.5 -37.5h-1.5h-0.5h-1.5h-1.5v49c37.333 -0.666992 60.666 9.33301 69.999 30s14 48.667 14 84v271h306v0z" />
    <glyph glyph-name="edieresis" unicode="&#x43b;" horiz-adv-x="475" 
d="M401 434l0.000976562 -434h-60v386h-186v-259c0 -34.667 -9.83301 -64.5 -29.5 -89.5s-56.167 -37.5 -109.5 -37.5h-1.5h-0.5h-1.5h-1.5v49c37.333 -0.666992 60.666 9.33301 69.999 30s14 48.667 14 84v271h306v0z" />
    <glyph glyph-name="igrave" unicode="&#xec;" horiz-adv-x="602" 
d="M21 0l103 466l177 -382l177 382l103 -466h-60l-62 308l-158 -336l-158 336l-62 -308h-60v0z" />
    <glyph glyph-name="igrave" unicode="&#x43c;" horiz-adv-x="602" 
d="M21 0l103 466l177 -382l177 382l103 -466h-60l-62 308l-158 -336l-158 336l-62 -308h-60v0z" />
    <glyph glyph-name="ellipsis" unicode="&#xed;" horiz-adv-x="512" 
d="M74 0v434h60v-188h244v188h60v-434h-60v198h-244v-198h-60v0z" />
    <glyph glyph-name="ellipsis" unicode="&#x43d;" horiz-adv-x="512" 
d="M74 0v434h60v-188h244v188h60v-434h-60v198h-244v-198h-60v0z" />
    <glyph glyph-name="percent" unicode="&#xee;" horiz-adv-x="564" 
d="M282 -18c-62.667 0.666992 -117.667 21.499 -165 62.499s-71 98.5 -71 172.5c0 65.333 21.667 120.833 65 166.5s100.333 68.5 171 68.5c71.333 0 128.5 -22.833 171.5 -68.5s64.5 -101.167 64.5 -166.5s-21.5 -120.666 -64.5 -165.999s-100.167 -68 -171.5 -68v-1z
M282 29.999c54.667 0 97 19.5 127 58.5s45 81.833 45 128.5c0 47.333 -15 90.333 -45 129s-72.333 58 -127 58s-97 -19.333 -127 -58s-45 -81.667 -45 -129s15 -90.333 45 -129s72.333 -58 127 -58v0z" />
    <glyph glyph-name="percent" unicode="&#x43e;" horiz-adv-x="564" 
d="M282 -18c-62.667 0.666992 -117.667 21.499 -165 62.499s-71 98.5 -71 172.5c0 65.333 21.667 120.833 65 166.5s100.333 68.5 171 68.5c71.333 0 128.5 -22.833 171.5 -68.5s64.5 -101.167 64.5 -166.5s-21.5 -120.666 -64.5 -165.999s-100.167 -68 -171.5 -68v-1z
M282 29.999c54.667 0 97 19.5 127 58.5s45 81.833 45 128.5c0 47.333 -15 90.333 -45 129s-72.333 58 -127 58s-97 -19.333 -127 -58s-45 -81.667 -45 -129s15 -90.333 45 -129s72.333 -58 127 -58v0z" />
    <glyph glyph-name="C" unicode="&#xef;" 
d="M74 434h350v-434h-60v386h-230v-386h-60v434v0z" />
    <glyph glyph-name="C" unicode="&#x43f;" 
d="M74 434h350v-434h-60v386h-230v-386h-60v434v0z" />
    <glyph glyph-name="eth" unicode="&#xf0;" horiz-adv-x="562" 
d="M74 434l56.001 0.000976562v-77c13.333 25.333 33 47.5 59 66.5s60.333 28.5 103 28.5c68.667 0 123.167 -22.167 163.5 -66.5s60.5 -100.5 60.5 -168.5c0 -76.667 -22.5 -134.834 -67.5 -174.501s-96.5 -59.5 -154.5 -59.5c-34 0 -62.167 5.83301 -84.5 17.5
s-40.166 24.5 -53.499 38.5c-4.66699 5.33301 -8.83398 10.333 -12.501 15s-6.83398 9 -9.50098 13v-277h-60v644v0zM294.001 30.001c51.333 0 90.5 18.498 117.5 55.498s40.5 80.833 40.5 131.5c0 6.66699 -0.333008 13.334 -1 20.001l-2 20
c-6.66699 36.667 -22.667 70.334 -48 101.001s-63.666 46 -114.999 46c-48.667 0 -86.834 -18.833 -114.501 -56.5s-41.5 -81.167 -41.5 -130.5c0 -58.667 16.333 -104.5 49 -137.5s71 -49.5 115 -49.5v0z" />
    <glyph glyph-name="eth" unicode="&#x440;" horiz-adv-x="562" 
d="M74 434l56.001 0.000976562v-77c13.333 25.333 33 47.5 59 66.5s60.333 28.5 103 28.5c68.667 0 123.167 -22.167 163.5 -66.5s60.5 -100.5 60.5 -168.5c0 -76.667 -22.5 -134.834 -67.5 -174.501s-96.5 -59.5 -154.5 -59.5c-34 0 -62.167 5.83301 -84.5 17.5
s-40.166 24.5 -53.499 38.5c-4.66699 5.33301 -8.83398 10.333 -12.501 15s-6.83398 9 -9.50098 13v-277h-60v644v0zM294.001 30.001c51.333 0 90.5 18.498 117.5 55.498s40.5 80.833 40.5 131.5c0 6.66699 -0.333008 13.334 -1 20.001l-2 20
c-6.66699 36.667 -22.667 70.334 -48 101.001s-63.666 46 -114.999 46c-48.667 0 -86.834 -18.833 -114.501 -56.5s-41.5 -81.167 -41.5 -130.5c0 -58.667 16.333 -104.5 49 -137.5s71 -49.5 115 -49.5v0z" />
    <glyph glyph-name="quotedblleft" unicode="&#xf1;" horiz-adv-x="457" 
d="M429 84l-0.000976562 -63.001c-2.66699 -1.33301 -5.5 -2.83301 -8.5 -4.5l-9.5 -5.5c-14 -7.33301 -30.667 -13.833 -50 -19.5s-41.333 -8.5 -66 -8.5c-74 0 -134 22.333 -180 67s-69 100.334 -69 167.001c0 68 23 124.167 69 168.5s105.667 66.5 179 66.5
c28.667 0 52.667 -2.83301 72 -8.5s35 -11.834 47 -18.501l9 -5.5l7 -4.5v-59c-28.667 20.667 -53.167 33.834 -73.5 39.501s-39.5 8.5 -57.5 8.5c-50 0 -93.833 -16.167 -131.5 -48.5s-56.5 -78.5 -56.5 -138.5c0 -58.667 18.167 -104.5 54.5 -137.5
s78.833 -49.5 127.5 -49.5c29.333 0 55.333 5.5 78 16.5s42.334 23.5 59.001 37.5v0z" />
    <glyph glyph-name="quotedblleft" unicode="&#x441;" horiz-adv-x="457" 
d="M429 84l-0.000976562 -63.001c-2.66699 -1.33301 -5.5 -2.83301 -8.5 -4.5l-9.5 -5.5c-14 -7.33301 -30.667 -13.833 -50 -19.5s-41.333 -8.5 -66 -8.5c-74 0 -134 22.333 -180 67s-69 100.334 -69 167.001c0 68 23 124.167 69 168.5s105.667 66.5 179 66.5
c28.667 0 52.667 -2.83301 72 -8.5s35 -11.834 47 -18.501l9 -5.5l7 -4.5v-59c-28.667 20.667 -53.167 33.834 -73.5 39.501s-39.5 8.5 -57.5 8.5c-50 0 -93.833 -16.167 -131.5 -48.5s-56.5 -78.5 -56.5 -138.5c0 -58.667 18.167 -104.5 54.5 -137.5
s78.833 -49.5 127.5 -49.5c29.333 0 55.333 5.5 78 16.5s42.334 23.5 59.001 37.5v0z" />
    <glyph glyph-name="two" unicode="&#xf2;" horiz-adv-x="390" 
d="M165 0v386h-154v48h368v-48h-154v-386h-60v0z" />
    <glyph glyph-name="two" unicode="&#x442;" horiz-adv-x="390" 
d="M165 0v386h-154v48h368v-48h-154v-386h-60v0z" />
    <glyph glyph-name="three" unicode="&#xf3;" horiz-adv-x="453" 
d="M11 434h68l163 -367l139 367h61l-256 -644h-65l90 214l-200 430v0z" />
    <glyph glyph-name="three" unicode="&#x443;" horiz-adv-x="453" 
d="M11 434h68l163 -367l139 367h61l-256 -644h-65l90 214l-200 430v0z" />
    <glyph glyph-name="ocircumflex" unicode="&#xf4;" horiz-adv-x="670" 
d="M305 -210v203c-12 0.666992 -24.667 1.66699 -38 3s-26.666 3 -39.999 5c-45.333 10 -86.833 31.5 -124.5 64.5s-56.5 83.5 -56.5 151.5s18.833 118.5 56.5 151.5s79.167 54.5 124.5 64.5c13.333 2.66699 26.666 4.66699 39.999 6s26 2 38 2v259h60v-259
c68.667 0.666992 129 -17.5 181 -54.5s78 -93.5 78 -169.5s-26 -132.333 -78 -169s-112.333 -54.667 -181 -54v-204h-60v0zM305 41v352.001c-10 0 -22.833 -1 -38.5 -3s-32.167 -6 -49.5 -12c-26.667 -10 -51.167 -27.167 -73.5 -51.5s-33.5 -60.833 -33.5 -109.5
s11.167 -85.334 33.5 -110.001s46.833 -41.667 73.5 -51c17.333 -6 33.833 -10 49.5 -12s28.5 -3 38.5 -3v0zM365 393.001v-351.996c10 0 22.833 1 38.5 3s32.167 6 49.5 12c26.667 9.33301 51.167 26.166 73.5 50.499s33.5 61.166 33.5 110.499
s-11.167 86.166 -33.5 110.499s-46.833 41.166 -73.5 50.499c-17.333 6 -33.833 10 -49.5 12s-28.5 3 -38.5 3v0z" />
    <glyph glyph-name="ocircumflex" unicode="&#x444;" horiz-adv-x="670" 
d="M305 -210v203c-12 0.666992 -24.667 1.66699 -38 3s-26.666 3 -39.999 5c-45.333 10 -86.833 31.5 -124.5 64.5s-56.5 83.5 -56.5 151.5s18.833 118.5 56.5 151.5s79.167 54.5 124.5 64.5c13.333 2.66699 26.666 4.66699 39.999 6s26 2 38 2v259h60v-259
c68.667 0.666992 129 -17.5 181 -54.5s78 -93.5 78 -169.5s-26 -132.333 -78 -169s-112.333 -54.667 -181 -54v-204h-60v0zM305 41v352.001c-10 0 -22.833 -1 -38.5 -3s-32.167 -6 -49.5 -12c-26.667 -10 -51.167 -27.167 -73.5 -51.5s-33.5 -60.833 -33.5 -109.5
s11.167 -85.334 33.5 -110.001s46.833 -41.667 73.5 -51c17.333 -6 33.833 -10 49.5 -12s28.5 -3 38.5 -3v0zM365 393.001v-351.996c10 0 22.833 1 38.5 3s32.167 6 49.5 12c26.667 9.33301 51.167 26.166 73.5 50.499s33.5 61.166 33.5 110.499
s-11.167 86.166 -33.5 110.499s-46.833 41.166 -73.5 50.499c-17.333 6 -33.833 10 -49.5 12s-28.5 3 -38.5 3v0z" />
    <glyph glyph-name="otilde" unicode="&#xf5;" horiz-adv-x="417" 
d="M11 0l161 223l-154 211h77l116 -169l108 169h70l-144 -210l161 -224h-76l-123 182l-119 -182h-77v0z" />
    <glyph glyph-name="otilde" unicode="&#x445;" horiz-adv-x="417" 
d="M11 0l161 223l-154 211h77l116 -169l108 169h70l-144 -210l161 -224h-76l-123 182l-119 -182h-77v0z" />
    <glyph glyph-name="odieresis" unicode="&#xf6;" horiz-adv-x="494" 
d="M74 0v434h60v-386h216v386h60v-386h70v-160h-56v112h-350v0z" />
    <glyph glyph-name="odieresis" unicode="&#x446;" horiz-adv-x="494" 
d="M74 0v434h60v-386h216v386h60v-386h70v-160h-56v112h-350v0z" />
    <glyph glyph-name="divide" unicode="&#xf7;" horiz-adv-x="449" 
d="M315 0l-0.00292969 173.999c-7.33301 -1.33301 -15.5 -2.5 -24.5 -3.5s-18.5 -1.83301 -28.5 -2.5l-33.5 -2c-11 -0.666992 -20.167 -1 -27.5 -1c-55.333 0 -92.666 10.833 -111.999 32.5s-29 56.834 -29 105.501v131h60v-131c0 -41.333 7.66699 -66.833 23 -76.5
s33 -14.167 53 -13.5h10.5h10.5h8h8c8.66699 0 18.834 0.5 30.501 1.5s28.834 2.83301 51.501 5.5v214h60v-434h-60v0z" />
    <glyph glyph-name="divide" unicode="&#x447;" horiz-adv-x="449" 
d="M315 0l-0.00292969 173.999c-7.33301 -1.33301 -15.5 -2.5 -24.5 -3.5s-18.5 -1.83301 -28.5 -2.5l-33.5 -2c-11 -0.666992 -20.167 -1 -27.5 -1c-55.333 0 -92.666 10.833 -111.999 32.5s-29 56.834 -29 105.501v131h60v-131c0 -41.333 7.66699 -66.833 23 -76.5
s33 -14.167 53 -13.5h10.5h10.5h8h8c8.66699 0 18.834 0.5 30.501 1.5s28.834 2.83301 51.501 5.5v214h60v-434h-60v0z" />
    <glyph glyph-name="oslash" unicode="&#xf8;" horiz-adv-x="734" 
d="M74 0v434h60v-386h203v386h60v-386h203v386h60v-434h-586v0z" />
    <glyph glyph-name="oslash" unicode="&#x448;" horiz-adv-x="734" 
d="M74 0v434h60v-386h203v386h60v-386h203v386h60v-434h-586v0z" />
    <glyph glyph-name="question" unicode="&#xf9;" horiz-adv-x="745" 
d="M74 0v434h60v-386h203v386h60v-386h203v386h60v-386h71v-160h-56v112h-601v0z" />
    <glyph glyph-name="question" unicode="&#x449;" horiz-adv-x="745" 
d="M74 0v434h60v-386h203v386h60v-386h203v386h60v-386h71v-160h-56v112h-601v0z" />
    <glyph glyph-name="A" unicode="&#xfa;" horiz-adv-x="462" 
d="M176 258l86 0.00292969c58 0 98.5 -10.5 121.5 -31.5s36.833 -44.167 41.5 -69.5c0.666992 -4.66699 1.16699 -9.33398 1.5 -14.001s0.5 -9.33398 0.5 -14.001c0 -44.667 -14.333 -77.334 -43 -98.001s-69.667 -31 -123 -31h-145v386h-105v48h165v-176v0zM176 48.0029
l80.998 0.000976562c6 0 13 0.166992 21 0.5s16.333 1.5 25 3.5c14.667 3.33301 28.334 10.5 41.001 21.5s19 29.5 19 55.5c0 24.667 -6.16699 42.667 -18.5 54s-25.833 18.666 -40.5 21.999c-8.66699 2.66699 -17.167 4.16699 -25.5 4.5s-15.166 0.5 -20.499 0.5h-82v-162
v0z" />
    <glyph glyph-name="A" unicode="&#x44a;" horiz-adv-x="462" 
d="M176 258l86 0.00292969c58 0 98.5 -10.5 121.5 -31.5s36.833 -44.167 41.5 -69.5c0.666992 -4.66699 1.16699 -9.33398 1.5 -14.001s0.5 -9.33398 0.5 -14.001c0 -44.667 -14.333 -77.334 -43 -98.001s-69.667 -31 -123 -31h-145v386h-105v48h165v-176v0zM176 48.0029
l80.998 0.000976562c6 0 13 0.166992 21 0.5s16.333 1.5 25 3.5c14.667 3.33301 28.334 10.5 41.001 21.5s19 29.5 19 55.5c0 24.667 -6.16699 42.667 -18.5 54s-25.833 18.666 -40.5 21.999c-8.66699 2.66699 -17.167 4.16699 -25.5 4.5s-15.166 0.5 -20.499 0.5h-82v-162
v0z" />
    <glyph glyph-name="slash" unicode="&#xfb;" horiz-adv-x="575" 
d="M134 258l85.998 0.000976562c8.66699 0 17.834 -0.333008 27.501 -1s19.5 -2 29.5 -4c26.667 -4.66699 51.334 -16 74.001 -34s34 -48 34 -90c0 -43.333 -11.833 -73.833 -35.5 -91.5s-49.5 -28.834 -77.5 -33.501c-9.33301 -1.33301 -18.5 -2.33301 -27.5 -3
s-17.5 -1 -25.5 -1h-145v434h60v-176v0zM133.998 48.001l80.999 0.00195312c6 0 12.5 0.166992 19.5 0.5s14.167 1.16602 21.5 2.49902c16 2.66699 30.833 9.5 44.5 20.5s20.5 30.167 20.5 57.5c0 24.667 -6.16699 42.667 -18.5 54s-25.833 18.666 -40.5 21.999
c-8.66699 2.66699 -17.167 4.16699 -25.5 4.5s-15.166 0.5 -20.499 0.5h-82v-162v0zM440.997 0.00292969v434h60v-434h-60v0z" />
    <glyph glyph-name="slash" unicode="&#x44b;" horiz-adv-x="575" 
d="M134 258l85.998 0.000976562c8.66699 0 17.834 -0.333008 27.501 -1s19.5 -2 29.5 -4c26.667 -4.66699 51.334 -16 74.001 -34s34 -48 34 -90c0 -43.333 -11.833 -73.833 -35.5 -91.5s-49.5 -28.834 -77.5 -33.501c-9.33301 -1.33301 -18.5 -2.33301 -27.5 -3
s-17.5 -1 -25.5 -1h-145v434h60v-176v0zM133.998 48.001l80.999 0.00195312c6 0 12.5 0.166992 19.5 0.5s14.167 1.16602 21.5 2.49902c16 2.66699 30.833 9.5 44.5 20.5s20.5 30.167 20.5 57.5c0 24.667 -6.16699 42.667 -18.5 54s-25.833 18.666 -40.5 21.999
c-8.66699 2.66699 -17.167 4.16699 -25.5 4.5s-15.166 0.5 -20.499 0.5h-82v-162v0zM440.997 0.00292969v434h60v-434h-60v0z" />
    <glyph glyph-name="udieresis" unicode="&#xfc;" horiz-adv-x="420" 
d="M134 258l85.998 0.000976562c8.66699 0 17.834 -0.333008 27.501 -1s19.5 -2 29.5 -4c26.667 -4.66699 51.334 -16 74.001 -34s34 -48 34 -90c0 -43.333 -11.833 -73.833 -35.5 -91.5s-49.5 -28.834 -77.5 -33.501c-9.33301 -1.33301 -18.5 -2.33301 -27.5 -3
s-17.5 -1 -25.5 -1h-145v434h60v-176v0zM133.998 48.001l80.999 0.00195312c6 0 12.5 0.166992 19.5 0.5s14.167 1.16602 21.5 2.49902c16 2.66699 30.833 9.5 44.5 20.5s20.5 30.167 20.5 57.5c0 24.667 -6.16699 42.667 -18.5 54s-25.833 18.666 -40.5 21.999
c-8.66699 2.66699 -17.167 4.16699 -25.5 4.5s-15.166 0.5 -20.499 0.5h-82v-162v0z" />
    <glyph glyph-name="udieresis" unicode="&#x44c;" horiz-adv-x="420" 
d="M134 258l85.998 0.000976562c8.66699 0 17.834 -0.333008 27.501 -1s19.5 -2 29.5 -4c26.667 -4.66699 51.334 -16 74.001 -34s34 -48 34 -90c0 -43.333 -11.833 -73.833 -35.5 -91.5s-49.5 -28.834 -77.5 -33.501c-9.33301 -1.33301 -18.5 -2.33301 -27.5 -3
s-17.5 -1 -25.5 -1h-145v434h60v-176v0zM133.998 48.001l80.999 0.00195312c6 0 12.5 0.166992 19.5 0.5s14.167 1.16602 21.5 2.49902c16 2.66699 30.833 9.5 44.5 20.5s20.5 30.167 20.5 57.5c0 24.667 -6.16699 42.667 -18.5 54s-25.833 18.666 -40.5 21.999
c-8.66699 2.66699 -17.167 4.16699 -25.5 4.5s-15.166 0.5 -20.499 0.5h-82v-162v0z" />
    <glyph glyph-name="period" unicode="&#xfd;" horiz-adv-x="421" 
d="M28 4l-0.00390625 56.001c20.667 -13.333 39.167 -21.666 55.5 -24.999s31.833 -5 46.5 -5c54 0 94.333 13 121 39s44.334 54.667 53.001 86c2 7.33301 3.5 14.666 4.5 21.999s1.83301 14.666 2.5 21.999h-234v48h233c-1.33301 8.66699 -3.16602 18 -5.49902 28
s-5.83301 20 -10.5 30c-10.667 24.667 -29.167 47.334 -55.5 68.001s-64.833 31 -115.5 31c-11.333 0 -24.666 -1.5 -39.999 -4.5s-33.666 -9.16699 -54.999 -18.5v53c2.66699 0.666992 5.5 1.66699 8.5 3s6.16699 2.33301 9.5 3c10 3.33301 22.167 6.16602 36.5 8.49902
s31.166 3.5 50.499 3.5c75.333 0 134.5 -21.833 177.5 -65.5s64.5 -100.167 64.5 -169.5c0 -70.667 -19.333 -124.167 -58 -160.5s-81.334 -58.833 -128.001 -67.5c-9.33301 -2 -18.666 -3.5 -27.999 -4.5s-18.333 -1.5 -27 -1.5c-18.667 0 -34.667 1.33301 -48 4
s-24.666 5.33398 -33.999 8.00098c-5.33301 2 -10 3.66699 -14 5s-7.33301 2.66602 -10 3.99902v0z" />
    <glyph glyph-name="period" unicode="&#x44d;" horiz-adv-x="421" 
d="M28 4l-0.00390625 56.001c20.667 -13.333 39.167 -21.666 55.5 -24.999s31.833 -5 46.5 -5c54 0 94.333 13 121 39s44.334 54.667 53.001 86c2 7.33301 3.5 14.666 4.5 21.999s1.83301 14.666 2.5 21.999h-234v48h233c-1.33301 8.66699 -3.16602 18 -5.49902 28
s-5.83301 20 -10.5 30c-10.667 24.667 -29.167 47.334 -55.5 68.001s-64.833 31 -115.5 31c-11.333 0 -24.666 -1.5 -39.999 -4.5s-33.666 -9.16699 -54.999 -18.5v53c2.66699 0.666992 5.5 1.66699 8.5 3s6.16699 2.33301 9.5 3c10 3.33301 22.167 6.16602 36.5 8.49902
s31.166 3.5 50.499 3.5c75.333 0 134.5 -21.833 177.5 -65.5s64.5 -100.167 64.5 -169.5c0 -70.667 -19.333 -124.167 -58 -160.5s-81.334 -58.833 -128.001 -67.5c-9.33301 -2 -18.666 -3.5 -27.999 -4.5s-18.333 -1.5 -27 -1.5c-18.667 0 -34.667 1.33301 -48 4
s-24.666 5.33398 -33.999 8.00098c-5.33301 2 -10 3.66699 -14 5s-7.33301 2.66602 -10 3.99902v0z" />
    <glyph glyph-name="thorn" unicode="&#xfe;" horiz-adv-x="732" 
d="M74 0l-0.00195312 433.998h60v-187h81c8.66699 58 32.834 106.667 72.501 146s93.834 59 162.501 59c71.333 0 128.5 -22.833 171.5 -68.5s64.5 -101.167 64.5 -166.5s-21.5 -120.666 -64.5 -165.999s-100.167 -68 -171.5 -68c-66.667 0 -119.5 18.333 -158.5 55
s-63.167 77.334 -72.5 122.001c-1.33301 6.66699 -2.33301 13.167 -3 19.5s-1 12.833 -1 19.5h-81v-199h-60v0zM449.998 29.998c54.667 0 97 19.5 127 58.5s45 81.833 45 128.5c0 47.333 -15 90.333 -45 129s-72.333 58 -127 58s-96.834 -19.333 -126.501 -58
s-44.5 -81.667 -44.5 -129c0 -46.667 14.833 -89.5 44.5 -128.5s71.834 -58.5 126.501 -58.5v0z" />
    <glyph glyph-name="thorn" unicode="&#x44e;" horiz-adv-x="732" 
d="M74 0l-0.00195312 433.998h60v-187h81c8.66699 58 32.834 106.667 72.501 146s93.834 59 162.501 59c71.333 0 128.5 -22.833 171.5 -68.5s64.5 -101.167 64.5 -166.5s-21.5 -120.666 -64.5 -165.999s-100.167 -68 -171.5 -68c-66.667 0 -119.5 18.333 -158.5 55
s-63.167 77.334 -72.5 122.001c-1.33301 6.66699 -2.33301 13.167 -3 19.5s-1 12.833 -1 19.5h-81v-199h-60v0zM449.998 29.998c54.667 0 97 19.5 127 58.5s45 81.833 45 128.5c0 47.333 -15 90.333 -45 129s-72.333 58 -127 58s-96.834 -19.333 -126.501 -58
s-44.5 -81.667 -44.5 -129c0 -46.667 14.833 -89.5 44.5 -128.5s71.834 -58.5 126.501 -58.5v0z" />
    <glyph glyph-name="ydieresis" unicode="&#xff;" horiz-adv-x="428" 
d="M28 0l125.998 187c-28.667 3.33301 -54 15 -76 35s-33 48.667 -33 86c0 6.66699 0.5 14 1.5 22s3.16699 16 6.5 24c6.66699 20 20.834 38.333 42.501 55s55.834 25 102.501 25h156v-434h-60v182h-84l-115 -182h-67v0zM293.998 230v156h-87
c-5.33301 0 -11.833 -0.333008 -19.5 -1s-15.5 -2 -23.5 -4c-14.667 -3.33301 -28.167 -10.5 -40.5 -21.5s-18.5 -28.167 -18.5 -51.5s6.16699 -40.5 18.5 -51.5s25.833 -18.167 40.5 -21.5c8 -2 15.833 -3.33301 23.5 -4s14.167 -1 19.5 -1h87v0z" />
    <glyph glyph-name="ydieresis" unicode="&#x44f;" horiz-adv-x="428" 
d="M28 0l125.998 187c-28.667 3.33301 -54 15 -76 35s-33 48.667 -33 86c0 6.66699 0.5 14 1.5 22s3.16699 16 6.5 24c6.66699 20 20.834 38.333 42.501 55s55.834 25 102.501 25h156v-434h-60v182h-84l-115 -182h-67v0zM293.998 230v156h-87
c-5.33301 0 -11.833 -0.333008 -19.5 -1s-15.5 -2 -23.5 -4c-14.667 -3.33301 -28.167 -10.5 -40.5 -21.5s-18.5 -28.167 -18.5 -51.5s6.16699 -40.5 18.5 -51.5s25.833 -18.167 40.5 -21.5c8 -2 15.833 -3.33301 23.5 -4s14.167 -1 19.5 -1h87v0z" />
    <glyph glyph-name="amacron" unicode="&#x101;" 
 />
    <glyph glyph-name="OE" unicode="&#x152;" horiz-adv-x="1030" 
d="M88 0l-0.000976562 699.999h68v-294h403v294h68v-294h116c11.333 0 27.333 -0.666992 48 -2s42.334 -5.66602 65.001 -12.999c32 -10.667 61.333 -29.834 88 -57.501s40 -70.5 40 -128.5c0 -61.333 -15.5 -106.166 -46.5 -134.499s-65.167 -47.5 -102.5 -57.5
c-23.333 -6 -45.833 -9.66699 -67.5 -11s-39.5 -2 -53.5 -2h-155v350h-403v-350h-68v0zM626.999 55.999l98 0.000976562c8.66699 0 21.167 0.5 37.5 1.5s33.5 4.16699 51.5 9.5c24.667 8 47.5 22.167 68.5 42.5s31.5 52.166 31.5 95.499c0 42 -9.5 73 -28.5 93
s-39.833 33.667 -62.5 41c-16 5.33301 -31.5 8.5 -46.5 9.5s-26.5 1.5 -34.5 1.5h-115v-294v0z" />
    <glyph glyph-name="glyph258" unicode="&#x153;" horiz-adv-x="724" 
d="M74 0l-0.00195312 434.001h60v-176h244v176h60v-176h86c8.66699 0 17.834 -0.333008 27.501 -1s19.5 -2 29.5 -4c26.667 -4.66699 51.334 -16 74.001 -34s34 -48 34 -90c0 -43.333 -11.833 -73.833 -35.5 -91.5s-49.5 -28.834 -77.5 -33.501
c-9.33301 -1.33301 -18.5 -2.33301 -27.5 -3s-17.5 -1 -25.5 -1h-145v210h-244v-210h-60v0zM437.998 48.001l80.999 0.00195312c6 0 12.5 0.166992 19.5 0.5s14.167 1.16602 21.5 2.49902c16 2.66699 30.833 9.5 44.5 20.5s20.5 30.167 20.5 57.5
c0 24.667 -6.16699 42.667 -18.5 54s-25.833 18.666 -40.5 21.999c-8.66699 2.66699 -17.167 4.16699 -25.5 4.5s-15.166 0.5 -20.499 0.5h-82v-162v0z" />
    <glyph glyph-name="perthousand" unicode="&#x160;" horiz-adv-x="956" 
d="M164 700l388.999 -0.00195312v-294h116c11.333 0 27.333 -0.666992 48 -2s42.334 -5.66602 65.001 -12.999c32 -10.667 61.333 -29.834 88 -57.501s40 -70.5 40 -128.5c0 -61.333 -15.5 -106.166 -46.5 -134.499s-65.167 -47.5 -102.5 -57.5
c-23.333 -6 -45.833 -9.66699 -67.5 -11s-39.5 -2 -53.5 -2h-155v644h-253v-377c0 -82.667 -11 -148.667 -33 -198s-67.667 -74 -137 -74c-2.66699 0 -9.16699 0.166992 -19.5 0.5s-22.166 1.83301 -35.499 4.5v56c1.33301 0 2.66602 -0.166992 3.99902 -0.5
s3 -0.833008 5 -1.5c1.33301 0 3 -0.166992 5 -0.5s4 -0.5 6 -0.5c3.33301 -0.666992 6.5 -1.16699 9.5 -1.5s5.83301 -0.5 8.5 -0.5c51.333 0 84 20.333 98 61s21 91.334 21 152.001v436v0zM552.999 55.998l98 0.000976562c8.66699 0 21.167 0.5 37.5 1.5
s33.5 4.16699 51.5 9.5c24.667 8 47.5 22.167 68.5 42.5s31.5 52.166 31.5 95.499c0 42 -9.5 73 -28.5 93s-39.833 33.667 -62.5 41c-16 5.33301 -31.5 8.5 -46.5 9.5s-26.5 1.5 -34.5 1.5h-115v-294v0z" />
    <glyph glyph-name="eight" unicode="&#x161;" horiz-adv-x="687" 
d="M401 434l-0.00195312 -175.999h86c8.66699 0 17.834 -0.333008 27.501 -1s19.5 -2 29.5 -4c26.667 -4.66699 51.334 -16 74.001 -34s34 -48 34 -90c0 -43.333 -11.833 -73.833 -35.5 -91.5s-49.5 -28.834 -77.5 -33.501c-9.33301 -1.33301 -18.5 -2.33301 -27.5 -3
s-17.5 -1 -25.5 -1h-145v386h-186v-259c0 -34.667 -9.83301 -64.5 -29.5 -89.5s-56.167 -37.5 -109.5 -37.5h-1.5h-0.5h-1.5h-1.5v48h1.5h1.5h0.5h1.5c35.333 0 57.333 11 66 33s13 49.333 13 82v271h306v0zM400.998 48.001l80.999 0.00195312c6 0 12.5 0.166992 19.5 0.5
s14.5 1.16602 22.5 2.49902c16 2.66699 30.667 9.66699 44 21s20 30.333 20 57c0 24.667 -6.16699 42.667 -18.5 54s-25.833 18.666 -40.5 21.999c-8.66699 2.66699 -17.167 4.16699 -25.5 4.5s-15.166 0.5 -20.499 0.5h-82v-162v0z" />
    <glyph glyph-name="greater" unicode="&#x192;" horiz-adv-x="327" 
d="M74 0v434h242v-48h-182v-386h-60v0z" />
    <glyph glyph-name="glyph237" unicode="&#x2c6;" 
 />
    <glyph glyph-name="seven" unicode="&#x2dc;" 
 />
    <glyph glyph-name="dollar" unicode="&#x2013;" horiz-adv-x="600" 
d="M50 322v56h500v-56h-500v0z" />
    <glyph glyph-name="numbersign" unicode="&#x2014;" horiz-adv-x="820" 
d="M39 248h742v-48h-742v48v0z" />
    <glyph glyph-name="four" unicode="&#x2018;" horiz-adv-x="260" 
d="M214 705l-105 -232l-63 31l133 217l35 -16v0z" />
    <glyph glyph-name="quoteright" unicode="&#x2019;" horiz-adv-x="260" 
d="M46 489l105 232l63 -31l-133 -217l-35 16v0z" />
    <glyph glyph-name="parenleft" unicode="&#x201a;" horiz-adv-x="253" 
d="M46 -134l91 246l70 -33l-125 -230l-36 17v0z" />
    <glyph glyph-name="oe" unicode="&#x201c;" horiz-adv-x="379" 
d="M333 698l-105 -232l-63 31l133 217l35 -16v0zM214 705l-105 -232l-63 31l133 217l35 -16v0z" />
    <glyph glyph-name="B" unicode="&#x201d;" horiz-adv-x="379" 
d="M165 482l105 232l63 -31l-133 -217l-35 16v0zM46 489l105 232l63 -31l-133 -217l-35 16v0z" />
    <glyph glyph-name="quotedblbase" unicode="&#x201e;" horiz-adv-x="379" 
d="M165 -134l105 232l63 -31l-133 -218l-35 17v0zM46 -127l105 232l63 -31l-133 -218l-35 17v0z" />
    <glyph glyph-name="glyph233" unicode="&#x2020;" horiz-adv-x="540" 
d="M236 -210v651h-190v56h190v238h68v-238h190v-56h-190v-651h-68v0z" />
    <glyph glyph-name="glyph236" unicode="&#x2021;" horiz-adv-x="567" 
d="M67 -20l-39.0088 42.9971c2.66699 2.66699 5.33398 5.16699 8.00098 7.5s5.33398 4.83301 8.00098 7.5c24 20.667 48.167 35.5 72.5 44.5s50.166 13.5 77.499 13.5c5.33301 9.33301 9.5 19.5 12.5 30.5s4.5 22.833 4.5 35.5c0 10.667 -1.33301 22.5 -4 35.5
s-8 26.833 -16 41.5h-142v48h116c-3.33301 4.66699 -6.33301 8.66699 -9 12l-8 10c-0.666992 0 -1.16699 0.333008 -1.5 1s-0.833008 1.33398 -1.5 2.00098l-6.5 6.5c-2.33301 2.33301 -4.83301 5.16602 -7.5 8.49902c-2.66699 2.66699 -5.16699 5.5 -7.5 8.5
s-4.83301 5.83301 -7.5 8.5c-14 16.667 -26.833 36 -38.5 58s-17.5 49.667 -17.5 83c0 63.333 20.667 118.333 62 165s101 70 179 70c62 0 109.167 -13.833 141.5 -41.5s55.166 -58.167 68.499 -91.5c6 -14.667 10.667 -29 14 -43s5.66602 -27 6.99902 -39l-60 -18
c-0.666992 9.33301 -2.16699 21 -4.5 35s-6.5 28.333 -12.5 43c-10 24.667 -26.667 47.334 -50 68.001s-58 31 -104 31c-53.333 0 -95.5 -17.667 -126.5 -53s-46.5 -77 -46.5 -125c0 -14 1.33301 -26.833 4 -38.5s7 -23.167 13 -34.5c5.33301 -12 12.5 -23.833 21.5 -35.5
s19.833 -24.5 32.5 -38.5c2.66699 -3.33301 5.33398 -6.33301 8.00098 -9s5.33398 -5.66699 8.00098 -9c2 -2 4.16699 -4.5 6.5 -7.5l6.5 -8.5c2 -2.66699 3.83301 -5.5 5.5 -8.5l5.5 -9.5h160v-48h-139c2 -5.33301 3.66699 -10.666 5 -15.999l4 -16
c1.33301 -8.66699 2.33301 -17 3 -25s1 -15.667 1 -23c0 -2.66699 -0.166992 -5.66699 -0.5 -9s-0.5 -6.33301 -0.5 -9c-1.33301 -9.33301 -3.66602 -18.5 -6.99902 -27.5s-7 -17.5 -11 -25.5c8 -2.66699 14.667 -5 20 -7s10 -3.66699 14 -5
c0.666992 -0.666992 1.33398 -1.16699 2.00098 -1.5s1.33398 -0.5 2.00098 -0.5c2.66699 -1.33301 5.5 -2.66602 8.5 -3.99902s6.5 -3 10.5 -5c4.66699 -2 9.33398 -4.16699 14.001 -6.5s9.33398 -4.5 14.001 -6.5c7.33301 -2.66699 14.833 -5 22.5 -7s16.167 -3 25.5 -3
c6.66699 0 16.834 1 30.501 3s28.167 9 43.5 21c5.33301 4.66699 10.666 10 15.999 16s10.666 13 15.999 21l46 -34c-14.667 -23.333 -35.167 -43.833 -61.5 -61.5s-55.166 -26.5 -86.499 -26.5c-17.333 0 -33.166 2.33301 -47.499 7s-27.833 9.33398 -40.5 14.001
l-11.5 5.5c-3.66699 1.66699 -7.5 3.16699 -11.5 4.5c-16.667 7.33301 -33.167 13.166 -49.5 17.499s-32.166 6.5 -47.499 6.5c-6.66699 0 -13.667 -0.666992 -21 -2s-14.666 -3.33301 -21.999 -6c-13.333 -4.66699 -26.5 -11 -39.5 -19s-24.167 -17.333 -33.5 -28v-1z" />
    <glyph glyph-name="glyph257" unicode="&#x2022;" horiz-adv-x="340" 
d="M50 332c0 32.667 11.667 60.834 35 84.501s51.666 35.5 84.999 35.5s61.666 -11.833 84.999 -35.5s35 -51.834 35 -84.501s-11.667 -60.834 -35 -84.501s-51.666 -35.5 -84.999 -35.5s-61.666 11.833 -84.999 35.5s-35 51.834 -35 84.501v0z" />
    <glyph glyph-name="glyph232" unicode="&#x2026;" horiz-adv-x="696" 
d="M70 35c0 13.333 4.5 24.333 13.5 33s19.833 13 32.5 13c13.333 0 24.333 -4.5 33 -13.5s13 -19.833 13 -32.5s-4.33301 -23.334 -13 -32.001s-19.667 -13 -33 -13c-12.667 0 -23.5 4.33301 -32.5 13s-13.5 19.334 -13.5 32.001v0zM302 35c0 13.333 4.5 24.333 13.5 33
s19.833 13 32.5 13s23.5 -4.33301 32.5 -13s13.5 -19.667 13.5 -33c0 -12.667 -4.33301 -23.334 -13 -32.001s-19.667 -13 -33 -13c-12.667 0 -23.5 4.33301 -32.5 13s-13.5 19.334 -13.5 32.001v0zM534 35c0 13.333 4.5 24.333 13.5 33s19.833 13 32.5 13
c13.333 0 24.333 -4.5 33 -13.5s13 -19.833 13 -32.5s-4.33301 -23.334 -13 -32.001s-19.667 -13 -33 -13c-12.667 0 -23.5 4.33301 -32.5 13s-13.5 19.334 -13.5 32.001v0z" />
    <glyph glyph-name="v" unicode="&#x2030;" horiz-adv-x="1174" 
d="M151 -21l413 742h49l-413 -742h-49v0zM445 161c0 45.333 15.667 83.5 47 114.5s69.333 46.5 114 46.5c43.333 0 81 -15.5 113 -46.5s48 -69.167 48 -114.5c0 -42.667 -15.667 -80.167 -47 -112.5s-69.333 -48.5 -114 -48.5s-82.667 15.667 -114 47s-47 69.333 -47 114v0z
M501 161c0 -30 9.99805 -56.333 29.998 -79s45 -34 75 -34c28.667 0 53.334 10.833 74.001 32.5s31 48.5 31 80.5c0 30.667 -10.167 57.167 -30.5 79.5s-45.166 33.5 -74.499 33.5c-30 0 -55 -11.167 -75 -33.5s-30 -48.833 -30 -79.5v0zM826.998 161
c0 45.333 15.667 83.5 47 114.5s69.333 46.5 114 46.5c43.333 0 81 -15.5 113 -46.5s48 -69.167 48 -114.5c0 -42.667 -15.667 -80.167 -47 -112.5s-69.333 -48.5 -114 -48.5s-82.667 15.667 -114 47s-47 69.333 -47 114v0zM882.998 161
c0 -33.333 10.8301 -60.5 32.4971 -81.5s45.834 -31.5 72.501 -31.5c28.667 0 53.334 10.833 74.001 32.5s31 48.5 31 80.5c0 30.667 -10.167 57.167 -30.5 79.5s-45.166 33.5 -74.499 33.5c-30 0 -55 -11.167 -75 -33.5s-30 -48.833 -30 -79.5v0zM24.9951 553
c0 45.333 15.667 83.5 47 114.5s69.333 46.5 114 46.5c43.333 0 81 -15.5 113 -46.5s48 -69.167 48 -114.5c0 -42.667 -15.667 -80.167 -47 -112.5s-69.333 -48.5 -114 -48.5s-82.667 15.667 -114 47s-47 69.333 -47 114v0zM80.9951 553c0 -32 10.333 -58.833 31 -80.5
s45.334 -32.5 74.001 -32.5s53.334 10.833 74.001 32.5s31 48.5 31 80.5s-10.333 58.833 -31 80.5s-45.334 32.5 -74.001 32.5s-53.334 -10.833 -74.001 -32.5s-31 -48.5 -31 -80.5v0z" />
    <glyph glyph-name="glyph243" unicode="&#x2039;" horiz-adv-x="281" 
d="M42 220l150 211l43 -28l-131 -183l131 -184l-43 -28l-150 212v0z" />
    <glyph glyph-name="less" unicode="&#x203a;" horiz-adv-x="281" 
d="M239 219l-150 -211l-43 28l131 183l-131 184l43 28l150 -212v0z" />
    <glyph glyph-name="six" unicode="&#x2122;" horiz-adv-x="652" 
d="M120 420v224h-70v56h200v-56h-70v-224h-60v0zM431 509l61 191h66l44 -280h-62l-28 182l-59 -182h-44l-59 182l-28 -182h-62l44 280h66l61 -191v0z" />
    <glyph glyph-name="periodcentered" unicode="&#x2219;" horiz-adv-x="232" 
d="M70 258c0 13.333 4.5 24.333 13.5 33s19.833 13 32.5 13s23.5 -4.33301 32.5 -13s13.5 -19.667 13.5 -33c0 -12.667 -4.5 -23.5 -13.5 -32.5s-19.833 -13.5 -32.5 -13.5s-23.5 4.5 -32.5 13.5s-13.5 19.833 -13.5 32.5v0z" />
    <glyph glyph-name="glyph1" horiz-adv-x="0" 
 />
    <glyph glyph-name="glyph2" horiz-adv-x="351" 
 />
    <glyph glyph-name="s" 
 />
    <glyph glyph-name="backslash" 
 />
    <glyph glyph-name="nine" 
 />
    <glyph glyph-name="colon" 
 />
    <glyph glyph-name="Y" 
 />
    <glyph glyph-name="X" 
 />
    <glyph glyph-name="asciicircum" 
 />
    <glyph glyph-name="semicolon" 
 />
    <glyph glyph-name="equal" 
 />
    <glyph glyph-name="exclam" 
 />
    <glyph glyph-name="five" 
 />
    <glyph glyph-name="Q" 
 />
    <glyph glyph-name="quotedblright" 
 />
    <glyph glyph-name="hyphen" 
 />
    <glyph glyph-name="space" 
 />
    <glyph glyph-name="E" 
 />
    <glyph glyph-name="M" 
 />
    <glyph glyph-name="plus" 
 />
    <glyph glyph-name="glyph229" 
 />
    <glyph glyph-name="glyph230" 
 />
    <glyph glyph-name="glyph231" 
 />
    <glyph glyph-name="glyph234" 
 />
    <glyph glyph-name="glyph235" 
 />
    <glyph glyph-name="glyph238" 
 />
    <glyph glyph-name="glyph239" 
 />
    <glyph glyph-name="glyph240" 
 />
    <glyph glyph-name="glyph241" 
 />
    <glyph glyph-name="glyph242" 
 />
    <glyph glyph-name="glyph244" 
 />
    <glyph glyph-name="glyph245" 
 />
    <glyph glyph-name="glyph246" 
 />
    <glyph glyph-name="glyph247" 
 />
    <glyph glyph-name="glyph248" 
 />
    <glyph glyph-name="glyph249" 
 />
    <glyph glyph-name="glyph250" 
 />
    <glyph glyph-name="glyph251" 
 />
    <glyph glyph-name="glyph252" 
 />
    <glyph glyph-name="glyph253" 
 />
    <glyph glyph-name="glyph254" 
 />
    <glyph glyph-name="glyph255" 
 />
    <glyph glyph-name="glyph256" 
 />
    <glyph glyph-name="glyph267" 
 />
    <glyph glyph-name="glyph268" 
 />
    <glyph glyph-name="glyph269" 
 />
    <glyph glyph-name="glyph270" 
 />
    <glyph glyph-name="glyph271" 
 />
    <glyph glyph-name="glyph272" 
 />
    <glyph glyph-name="glyph273" 
 />
    <glyph glyph-name="glyph274" 
 />
    <glyph glyph-name="glyph275" 
 />
    <glyph glyph-name="glyph276" 
 />
    <glyph glyph-name="glyph277" 
 />
    <glyph glyph-name="glyph278" 
 />
    <glyph glyph-name="glyph279" 
 />
    <glyph glyph-name="glyph280" 
 />
    <glyph glyph-name="glyph281" 
 />
    <glyph glyph-name="glyph282" 
 />
    <glyph glyph-name="glyph283" 
 />
    <glyph glyph-name="glyph284" 
 />
    <glyph glyph-name="glyph285" 
 />
    <glyph glyph-name="glyph286" 
 />
    <glyph glyph-name="glyph287" 
 />
    <glyph glyph-name="glyph288" 
 />
    <glyph glyph-name="glyph289" 
 />
    <glyph glyph-name="glyph290" 
 />
    <glyph glyph-name="glyph291" 
 />
    <glyph glyph-name="glyph292" 
 />
    <glyph glyph-name="glyph293" 
 />
    <glyph glyph-name="glyph294" 
 />
    <glyph glyph-name="glyph295" 
 />
    <glyph glyph-name="glyph296" 
 />
    <glyph glyph-name="glyph297" 
 />
    <glyph glyph-name="glyph298" 
 />
    <glyph glyph-name="glyph299" 
 />
    <glyph glyph-name="glyph300" 
 />
    <glyph glyph-name="glyph301" 
 />
    <glyph glyph-name="glyph302" 
 />
    <glyph glyph-name="glyph303" 
 />
    <glyph glyph-name="glyph304" 
 />
    <glyph glyph-name="glyph305" 
 />
    <glyph glyph-name="glyph306" 
 />
    <glyph glyph-name="glyph307" 
 />
    <glyph glyph-name="glyph308" 
 />
    <glyph glyph-name="glyph309" 
 />
    <glyph glyph-name="glyph310" 
 />
    <glyph glyph-name="glyph311" 
 />
    <glyph glyph-name="glyph312" 
 />
    <glyph glyph-name="glyph313" 
 />
    <glyph glyph-name="glyph314" 
 />
    <glyph glyph-name="glyph315" 
 />
    <glyph glyph-name="glyph316" 
 />
    <glyph glyph-name="glyph317" 
 />
    <glyph glyph-name="glyph318" 
 />
    <glyph glyph-name="glyph319" 
 />
    <glyph glyph-name="glyph320" 
 />
    <glyph glyph-name="glyph321" 
 />
    <glyph glyph-name="glyph322" 
 />
    <glyph glyph-name="glyph323" 
 />
    <glyph glyph-name="glyph324" 
 />
    <glyph glyph-name="glyph325" 
 />
    <glyph glyph-name="glyph326" 
 />
    <glyph glyph-name="glyph327" 
 />
    <glyph glyph-name="glyph328" 
 />
    <glyph glyph-name="glyph329" 
 />
    <glyph glyph-name="glyph330" 
 />
    <glyph glyph-name="glyph331" 
 />
    <glyph glyph-name="glyph332" 
 />
    <glyph glyph-name="glyph333" 
 />
    <glyph glyph-name="glyph334" 
 />
    <glyph glyph-name="glyph335" 
 />
    <glyph glyph-name="glyph336" 
 />
    <glyph glyph-name="glyph337" 
 />
    <glyph glyph-name="glyph338" 
 />
    <glyph glyph-name="glyph339" 
 />
    <glyph glyph-name="glyph340" 
 />
    <glyph glyph-name="glyph341" 
 />
    <glyph glyph-name="glyph342" 
 />
    <glyph glyph-name="glyph343" 
 />
    <glyph glyph-name="glyph344" 
 />
    <glyph glyph-name="glyph345" 
 />
    <glyph glyph-name="glyph346" 
 />
    <glyph glyph-name="glyph347" 
 />
    <glyph glyph-name="glyph348" 
 />
    <glyph glyph-name="glyph349" 
 />
    <glyph glyph-name="glyph350" 
 />
    <glyph glyph-name="glyph351" 
 />
    <glyph glyph-name="glyph352" 
 />
    <glyph glyph-name="glyph353" 
 />
    <glyph glyph-name="glyph354" 
 />
    <glyph glyph-name="glyph355" 
 />
    <glyph glyph-name="glyph356" 
 />
    <glyph glyph-name="glyph357" 
 />
    <glyph glyph-name="glyph358" 
 />
    <glyph glyph-name="glyph359" 
 />
    <glyph glyph-name="glyph360" 
 />
    <glyph glyph-name="glyph361" 
 />
    <glyph glyph-name="glyph362" 
 />
    <glyph glyph-name="glyph363" 
 />
    <glyph glyph-name="glyph364" 
 />
    <glyph glyph-name="glyph365" 
 />
    <glyph glyph-name="glyph366" 
 />
    <glyph glyph-name="glyph367" 
 />
    <glyph glyph-name="glyph368" 
 />
    <glyph glyph-name="glyph369" 
 />
    <glyph glyph-name="glyph370" 
 />
    <glyph glyph-name="glyph371" 
 />
    <glyph glyph-name="glyph372" 
 />
    <glyph glyph-name="glyph373" 
 />
    <glyph glyph-name="glyph374" 
 />
    <glyph glyph-name="glyph375" 
 />
    <glyph glyph-name="glyph376" 
 />
    <glyph glyph-name="glyph377" 
 />
    <glyph glyph-name="glyph378" 
 />
    <glyph glyph-name="glyph379" 
 />
    <glyph glyph-name="glyph380" 
 />
    <glyph glyph-name="glyph381" 
 />
    <glyph glyph-name="glyph382" 
 />
    <glyph glyph-name="glyph383" 
 />
    <glyph glyph-name="glyph384" 
 />
    <glyph glyph-name="glyph385" 
 />
    <glyph glyph-name="glyph386" 
 />
    <glyph glyph-name="glyph387" 
 />
    <glyph glyph-name="glyph388" 
 />
    <glyph glyph-name="glyph389" 
 />
    <glyph glyph-name="glyph390" 
 />
    <glyph glyph-name="glyph391" 
 />
    <glyph glyph-name="glyph392" 
 />
    <glyph glyph-name="glyph393" 
 />
    <glyph glyph-name="glyph394" 
 />
    <glyph glyph-name="glyph395" 
 />
    <glyph glyph-name="glyph396" 
 />
    <glyph glyph-name="glyph397" 
 />
    <glyph glyph-name="glyph398" 
 />
    <glyph glyph-name="glyph399" 
 />
    <glyph glyph-name="glyph400" 
 />
    <glyph glyph-name="glyph401" 
 />
    <glyph glyph-name="glyph402" 
 />
    <glyph glyph-name="glyph403" 
 />
    <glyph glyph-name="glyph404" 
 />
    <glyph glyph-name="glyph405" 
 />
    <glyph glyph-name="glyph406" 
 />
    <glyph glyph-name="glyph407" 
 />
    <glyph glyph-name="glyph408" 
 />
    <glyph glyph-name="glyph409" 
 />
    <glyph glyph-name="glyph410" 
 />
    <glyph glyph-name="glyph411" 
 />
    <glyph glyph-name="glyph412" 
 />
    <glyph glyph-name="glyph413" 
 />
    <glyph glyph-name="glyph414" 
 />
    <glyph glyph-name="glyph415" 
 />
    <glyph glyph-name="glyph416" 
 />
    <glyph glyph-name="glyph417" 
 />
    <glyph glyph-name="glyph418" 
 />
    <glyph glyph-name="glyph419" 
 />
    <glyph glyph-name="glyph420" 
 />
    <glyph glyph-name="glyph421" 
 />
    <glyph glyph-name="glyph422" 
 />
    <glyph glyph-name="glyph423" 
 />
    <glyph glyph-name="glyph424" 
 />
    <glyph glyph-name="glyph425" 
 />
    <glyph glyph-name="glyph426" 
 />
    <glyph glyph-name="glyph427" 
 />
    <glyph glyph-name="glyph428" 
 />
    <glyph glyph-name="glyph429" 
 />
    <glyph glyph-name="glyph430" 
 />
    <glyph glyph-name="glyph431" 
 />
    <glyph glyph-name="glyph432" 
 />
    <glyph glyph-name="glyph433" 
 />
    <glyph glyph-name="glyph434" 
 />
    <glyph glyph-name="glyph435" 
 />
    <glyph glyph-name="glyph436" 
 />
    <glyph glyph-name="glyph437" 
 />
    <glyph glyph-name="glyph438" 
 />
    <glyph glyph-name="glyph439" 
 />
    <glyph glyph-name="glyph440" 
 />
    <glyph glyph-name="glyph441" 
 />
    </font>
</defs>
</svg>
