<?xml version="1.0" standalone="no"?>
<!DOCTYPE svg PUBLIC "-//W3C//DTD SVG 1.1//EN" "http://www.w3.org/Graphics/SVG/1.1/DTD/svg11.dtd" >
<svg>
<metadata>
Created by FontForge 20090914 at Sun Jan  4 11:19:04 2015
 By www-data
Copyright 1991, Atech Software, Carlsbad CA 
</metadata>
<defs>
<font id="Futuris-Bold" horiz-adv-x="626" >
  <font-face 
    font-family="Futuris"
    font-weight="700"
    font-stretch="normal"
    units-per-em="1000"
    panose-1="0 0 0 0 0 0 0 0 0 0"
    ascent="800"
    descent="-200"
    x-height="483"
    cap-height="700"
    bbox="-28.002 -224.997 1299 900"
    underline-thickness="50"
    underline-position="-55"
    unicode-range="U+0020-U+2219"
  />
<missing-glyph 
d="M570 483v-483h-175v-170h-10h-154v170h-175v483h10h175v-363h144v363h10h175v0z" />
    <glyph glyph-name=".notdef" 
d="M570 483v-483h-175v-170h-10h-154v170h-175v483h10h175v-363h144v363h10h175v0z" />
    <glyph glyph-name="glyph3" unicode=" " horiz-adv-x="361" 
 />
    <glyph glyph-name="glyph4" unicode="!" horiz-adv-x="340" 
d="M63 84c0 28.667 10.167 52.832 30.5 72.499s44.166 29.5 71.499 29.5h10c28.667 0 52.834 -10.167 72.501 -30.5s29.5 -44.166 29.5 -71.499s-9.83301 -51 -29.5 -71s-43.834 -30 -72.501 -30l-10 -1c-27.333 0.666992 -51.166 10.667 -71.499 30s-30.5 43.333 -30.5 72
v0zM71 230.998v469h10h188v-469h-10h-188v0z" />
    <glyph glyph-name="glyph5" unicode="&#x22;" horiz-adv-x="418" 
d="M186 700l-36 -203h-10h-56l-34 203h10h126v0zM368 700l-36 -203h-10h-56l-34 203h10h126v0z" />
    <glyph glyph-name="glyph6" unicode="#" horiz-adv-x="812" 
d="M150 535h124l22 125h10h80l-22 -125h147l22 125h10h80l-22 -125h123l-17 -100h-123l-29 -170h122l-16 -100h-123l-22 -125h-10h-80l22 125h-147l-22 -125h-10h-80l22 125h-123l16 100h124l29 170h-123l16 100v0zM465 265l29 170h-147l-29 -170h147v0z" />
    <glyph glyph-name="glyph7" unicode="$" horiz-adv-x="568" 
d="M331 -17l0.00195312 -98.999h-10h-91v99l-20 4l-20 4c-28 6.66699 -56.5 17.834 -85.5 33.501s-61.5 38.167 -97.5 67.5l92 149h10l6.5 -6.5l6.5 -6.5c21.333 -21.333 45.333 -40.833 72 -58.5s54.667 -27.167 84 -28.5c3.33301 0 7.16602 0.5 11.499 1.5
s8.83301 2.5 13.5 4.5c10 4 19.167 10.667 27.5 20s12.5 22.666 12.5 39.999c0 24.667 -8.16699 42.5 -24.5 53.5s-36.5 20.833 -60.5 29.5c-4 0.666992 -7.66699 1.66699 -11 3s-7 2.66602 -11 3.99902l-32 11c-11.333 4 -22.666 8.66699 -33.999 14
c-32 14.667 -61.167 36.5 -87.5 65.5s-39.5 72.5 -39.5 130.5c0 49.333 10.5 87.5 31.5 114.5s44.167 46.833 69.5 59.5c16.667 8 32.834 13.667 48.501 17s28.167 5.66602 37.5 6.99902v110h10h91v-108c5.33301 0 10.5 -0.333008 15.5 -1s10.167 -1.66699 15.5 -3
c27.333 -4.66699 53.833 -12.5 79.5 -23.5s48.5 -24.167 68.5 -39.5l-70 -147h-10c-18.667 18 -38.167 32.667 -58.5 44s-41.5 17.333 -63.5 18c-20 -0.666992 -36.167 -6 -48.5 -16s-18.5 -24.667 -18.5 -44c0 -13.333 3.5 -23.666 10.5 -30.999s18.167 -14.333 33.5 -21
c5.33301 -2 11.166 -4 17.499 -6s13.166 -4.33301 20.499 -7c88.667 -27.333 147 -59.833 175 -97.5s42 -85.5 42 -143.5c0 -60 -15.333 -105.833 -46 -137.5s-64.334 -53.167 -101.001 -64.5c-10.667 -4 -21.167 -7 -31.5 -9s-20.5 -3.66699 -30.5 -5v-1z" />
    <glyph glyph-name="glyph8" unicode="%" horiz-adv-x="892" 
d="M168 -20l455 740h10h91l-455 -740h-10h-91v0zM477 172c0 52 18.668 97 56.001 135s82.666 57 135.999 57h10c53.333 0 98.666 -19 135.999 -57s56 -83 56 -135s-18.667 -96.833 -56 -134.5s-82.666 -56.5 -135.999 -56.5l-10 -1c-52 0.666992 -97 19.5 -135 56.5
s-57 82.167 -57 135.5v0zM602.001 172c0 -2.66699 0.166016 -5.50391 0.499023 -8.50391s0.833008 -6.16699 1.5 -9.5c4 -14 11.833 -27 23.5 -39s27.167 -18.667 46.5 -20c20.667 1.33301 37.834 9.33301 51.501 24s20.5 32.334 20.5 53.001s-6.16699 37.334 -18.5 50.001
s-25.833 21 -40.5 25c-2 0 -4.16699 0.333008 -6.5 1s-4.5 1 -6.5 1c-20 -1.33301 -37 -9.66602 -51 -24.999s-21 -32.666 -21 -51.999v0zM21 527.996v5.5v5.5c3.33301 45.333 22.166 86.833 56.499 124.5s79.5 56.5 135.5 56.5h10c53.333 0 98.666 -19 135.999 -57
s56 -83 56 -135s-18.667 -97 -56 -135s-82.666 -57 -135.999 -57h-10c-53.333 0 -98.666 19 -135.999 57s-56 83 -56 135v0zM146 527.996c0 -2.66699 0.166016 -5.50391 0.499023 -8.50391s0.833008 -6.16699 1.5 -9.5c4 -14 11.833 -27 23.5 -39s27.167 -18.667 46.5 -20
c20.667 1.33301 37.834 9.33301 51.501 24s20.5 32.334 20.5 53.001s-6.16699 37.334 -18.5 50.001s-25.833 21 -40.5 25c-2 0 -4.16699 0.333008 -6.5 1s-4.5 1 -6.5 1c-20 -1.33301 -37 -9.66602 -51 -24.999s-21 -32.666 -21 -51.999v0z" />
    <glyph glyph-name="glyph9" unicode="&#x26;" horiz-adv-x="752" 
d="M423 347l77.001 -85.0029l94 94h10l99 -104l-98 -92l147 -160h-10h-203l-59 62l-15.5 -13.5c-5 -4.33301 -9.83301 -8.16602 -14.5 -11.499c-25.333 -19.333 -51.333 -33.166 -78 -41.499s-57.667 -12.5 -93 -12.5l-10 -1c-78 0.666992 -136.5 19.834 -175.5 57.501
s-58.5 83.834 -58.5 138.501c0 14 1.83301 30 5.5 48s11.834 36.667 24.501 56c12 17.333 28.667 34.333 50 51s49.666 31.667 84.999 45l-18.5 22.5c-5.66699 7 -10.834 13.833 -15.501 20.5c-9.33301 14 -16.333 28.333 -21 43s-7 32 -7 52
c0 53.333 17.5 100.333 52.5 141s84.167 61 147.5 61h10c64.667 0 114.167 -18.5 148.5 -55.5s51.5 -83.167 51.5 -138.5c0 -37.333 -8.66699 -68 -26 -92s-42 -47 -74 -69l-12 -8c-4 -2.66699 -8.33301 -5.33398 -13 -8.00098v0zM385.001 163.997l-103.003 114.999
c-18.667 -11.333 -33.667 -24.333 -45 -39s-17 -32.667 -17 -54c0 -4 0.333008 -8.66699 1 -14s2 -10.666 4 -15.999c4 -10 11 -19.167 21 -27.5s25 -12.833 45 -13.5c4.66699 0 9.33398 0.333008 14.001 1s9.33398 1.66699 14.001 3c10 3.33301 20.333 8.5 31 15.5
s22.334 16.833 35.001 29.5v0zM340.998 430.996l10.501 8.49902c3.66699 3 7.16699 6.16699 10.5 9.5c10.667 10 20.167 21.667 28.5 35s12.5 28 12.5 44c0 18 -4 31.833 -12 41.5s-17 16.167 -27 19.5c-2.66699 0.666992 -5.16699 1.33398 -7.5 2.00098s-4.83301 1 -7.5 1
c-2 0 -4 -0.166992 -6 -0.5s-4 -0.833008 -6 -1.5c-10.667 -4 -20.334 -11.333 -29.001 -22s-13 -26.334 -13 -47.001c0 -4.66699 0.5 -9.66699 1.5 -15s2.5 -10.666 4.5 -15.999c4 -10.667 9.66699 -21 17 -31s15 -19.333 23 -28v0z" />
    <glyph glyph-name="glyph10" unicode="'" horiz-adv-x="236" 
d="M186 700l-36 -203h-10h-56l-34 203h10h126v0z" />
    <glyph glyph-name="glyph11" unicode="(" horiz-adv-x="298" 
d="M284 -165l-98 -58.9971h-10c-60.667 100 -99.834 190.5 -117.501 271.5s-26.5 153.833 -26.5 218.5s8.83301 137.667 26.5 219s56.834 171.666 117.501 270.999h10l98 -59c-48.667 -86.667 -80.667 -166 -96 -238s-23 -136.333 -23 -193s7.66699 -120.834 23 -192.501
s47.333 -150.834 96 -237.501v-1z" />
    <glyph glyph-name="glyph12" unicode=")" horiz-adv-x="298" 
d="M14 697l98 58.999h10c61.333 -99.333 100.666 -189.666 117.999 -270.999s26 -154.333 26 -219s-8.66699 -137.5 -26 -218.5s-56.666 -171.167 -117.999 -270.5l-10 -1l-98 59c35.333 64 64 131.833 86 203.5s33 147.5 33 227.5s-11 156 -33 228s-50.667 139.667 -86 203
v0z" />
    <glyph glyph-name="glyph13" unicode="*" horiz-adv-x="491" 
d="M201 735h98v-126l105 60h10l49 -85l-115 -66l115 -66l-49 -85h-10l-105 60v-126h-10h-98v126l-104 -60h-10l-49 85l114 66l-114 66l49 85h10l104 -60v126h10v0z" />
    <glyph glyph-name="glyph14" unicode="+" horiz-adv-x="650" 
d="M370 80h-100v220h-220v100h220v220h10h100v-220h220v-100h-220v-220h-10v0z" />
    <glyph glyph-name="glyph15" unicode="," horiz-adv-x="332" 
d="M14 -140l105 308h10h175l-147 -308h-10h-133v0z" />
    <glyph glyph-name="glyph16" unicode="-" horiz-adv-x="430" 
d="M50 350h340v-154h-10h-340v154h10v0z" />
    <glyph glyph-name="glyph17" unicode="." horiz-adv-x="340" 
d="M63 84c0 28.667 10.167 52.834 30.5 72.501s44.166 29.5 71.499 29.5h10c27.333 0 51.166 -9.83301 71.499 -29.5s30.5 -43.834 30.5 -72.501s-10.167 -52.667 -30.5 -72s-44.166 -29 -71.499 -29l-10 -1c-27.333 0.666992 -51.166 10.667 -71.499 30
s-30.5 43.333 -30.5 72v0z" />
    <glyph glyph-name="glyph18" unicode="/" horiz-adv-x="522" 
d="M21 -210l365 945h10h105l-365 -945h-10h-105v0z" />
    <glyph glyph-name="glyph19" unicode="0" horiz-adv-x="606" 
d="M298 -20c-77.333 0.666992 -134.5 22 -171.5 64s-62.167 88.333 -75.5 139c-8.66699 32 -14 63 -16 93s-3 54.667 -3 74s1 44 3 74s7.33301 61 16 93c13.333 50.667 38.5 97.167 75.5 139.5s94.167 63.5 171.5 63.5h10c77.333 0 134.5 -21.167 171.5 -63.5
s62.167 -88.833 75.5 -139.5c8.66699 -32 14 -63 16 -93s3 -54.667 3 -74s-1 -44 -3 -74s-7.33301 -61 -16 -93c-13.333 -50.667 -38.5 -97 -75.5 -139s-94.167 -63 -171.5 -63l-10 -1v0zM303 127c29.333 2 49.5 17.833 60.5 47.5s17.833 62.167 20.5 97.5
c0.666992 13.333 1.16699 26.666 1.5 39.999s0.5 26 0.5 38s-0.166992 24.5 -0.5 37.5s-0.833008 26.5 -1.5 40.5c-2.66699 35.333 -9.5 67.833 -20.5 97.5s-31.167 45.5 -60.5 47.5c-29.333 -2 -49.5 -17.833 -60.5 -47.5s-17.833 -62.167 -20.5 -97.5
c-0.666992 -13.333 -1.16699 -26.666 -1.5 -39.999s-0.5 -26 -0.5 -38s0.166992 -24.5 0.5 -37.5s0.833008 -26.5 1.5 -40.5c2.66699 -35.333 9.5 -67.833 20.5 -97.5s31.167 -45.5 60.5 -47.5v0z" />
    <glyph glyph-name="glyph20" unicode="1" horiz-adv-x="606" 
d="M247 0v539h-107v161h10h288v-700h-10h-181v0z" />
    <glyph glyph-name="glyph21" unicode="2" horiz-adv-x="606" 
d="M556 154v-154h-10h-539l290 338c26 30 45 54 57 72s19.667 34.667 23 50c0.666992 4 1.16699 7.66699 1.5 11s0.5 7 0.5 11c0 23.333 -7 44 -21 62s-33.333 27.667 -58 29c-4 -0.666992 -9.5 -1.83398 -16.5 -3.50098s-14.5 -4.83398 -22.5 -9.50098
c-10.667 -6.66699 -20.667 -18.167 -30 -34.5s-14 -40.166 -14 -71.499h-10h-175c0 12 1 24.667 3 38s4.66699 26.666 8 39.999c12.667 46.667 38.5 89.667 77.5 129s98.5 59 178.5 59h10c84.667 0 148.334 -23.333 191.001 -70s64 -101 64 -163
c0 -15.333 -1.33301 -30.166 -4 -44.499s-6.66699 -28.5 -12 -42.5c-14 -33.333 -36.833 -68.666 -68.5 -105.999s-74.834 -84 -129.501 -140h206v0z" />
    <glyph glyph-name="glyph22" unicode="3" horiz-adv-x="606" 
d="M217 499l-175.004 0.00292969c8 60.667 25.5 106.334 52.5 137.001s55.833 52 86.5 64c21.333 8.66699 42 14.167 62 16.5s37 3.5 51 3.5h10c61.333 0 116.333 -15.333 165 -46s73 -79 73 -145c0 -36.667 -9.16699 -67.834 -27.5 -93.501s-43.5 -42.167 -75.5 -49.5v-3
c1.33301 -0.666992 2.66602 -1.16699 3.99902 -1.5s2.66602 -0.833008 3.99902 -1.5c29.333 -10 56.166 -28.833 80.499 -56.5s36.5 -67.834 36.5 -120.501c0 -58 -14 -102.333 -42 -133s-58.667 -52.667 -92 -66c-30.667 -11.333 -59.167 -18 -85.5 -20
s-42.166 -3 -47.499 -3v0v0l-10 -1c-69.333 0.666992 -122 15 -158 43s-61.333 59 -76 93c-9.33301 20.667 -15.666 40.667 -18.999 60s-5.33301 35.666 -6 48.999h10h175v-4c0 -5.33301 0.333008 -11 1 -17s2 -12.333 4 -19c4.66699 -14 12.834 -26.833 24.501 -38.5
s29.5 -18.167 53.5 -19.5c24.667 0.666992 42.834 6.83398 54.501 18.501s19.5 24.5 23.5 38.5c2 7.33301 3.33301 14.5 4 21.5s1 13.167 1 18.5c0 27.333 -7.66699 47 -23 59s-36.333 18.333 -63 19h-12c-4 0 -8 -0.333008 -12 -1h-10v120h22
c3.33301 0 8.5 0.333008 15.5 1s14.5 3 22.5 7c10.667 4 20.334 11.5 29.001 22.5s13 26.833 13 47.5c0 22.667 -4.5 39.167 -13.5 49.5s-19.167 17.166 -30.5 20.499c-3.33301 1.33301 -6.66602 2.33301 -9.99902 3s-6.66602 1 -9.99902 1
c-18.667 -0.666992 -35 -7.83398 -49 -21.501s-21 -30.167 -21 -49.5v-3h-10v0z" />
    <glyph glyph-name="glyph23" unicode="4" horiz-adv-x="606" 
d="M329 0v168h-315v144l252 388h10h231v-385h78v-147h-78v-168h-10h-168v0zM329 315v229l-144 -228l144 -1v0z" />
    <glyph glyph-name="glyph24" unicode="5" horiz-adv-x="606" 
d="M536 546l-258.999 0.000976562l-16 -89c9.33301 2 19.833 3.5 31.5 4.5s24.5 1.5 38.5 1.5h10c72 0 127.167 -20.667 165.5 -62s57.5 -92.666 57.5 -153.999c0 -71.333 -26.5 -133.5 -79.5 -186.5s-127.167 -79.5 -222.5 -79.5l-10 -1c-42 0.666992 -80.5 6 -115.5 16
s-68.833 25.333 -101.5 46l15 168h10h21c24 -25.333 46.167 -44 66.5 -56s40.5 -19.667 60.5 -23c6 -1.33301 12.167 -2.33301 18.5 -3s12.5 -1 18.5 -1c38.667 1.33301 70.667 12.166 96 32.499s38 50.833 38 91.5c0 36.667 -14.167 63.667 -42.5 81
s-64.166 26.333 -107.499 27c-2.66699 0 -5.33398 -0.166992 -8.00098 -0.5s-5.33398 -0.5 -8.00098 -0.5c-16 -1.33301 -32 -4.33301 -48 -9s-33 -11.334 -51 -20.001h-10h-33l77 371h10h378v-154v0z" />
    <glyph glyph-name="glyph25" unicode="6" horiz-adv-x="606" 
d="M275 700l207.001 -0.000976562l-168 -241c6.66699 1.33301 13.667 2.5 21 3.5s15.333 1.5 24 1.5h10c64.667 0 115.667 -22 153 -66s56 -98.667 56 -164c0 -70 -23.5 -129.667 -70.5 -179s-114.167 -74 -201.5 -74l-10 -1c-82 0.666992 -147.167 24.334 -195.5 71.001
s-72.5 107.667 -72.5 183c0 28.667 2.5 55.5 7.5 80.5s13.167 49.833 24.5 74.5c6 12.667 12.667 25.5 20 38.5s15.666 26.167 24.999 39.5l160 233h10v0zM299.001 126.999c29.333 1.33301 52.333 12.167 69 32.5s25 44.5 25 72.5c0 27.333 -8.33301 51.166 -25 71.499
s-39.667 31.166 -69 32.499c-30 -1.33301 -53 -12.166 -69 -32.499s-24 -44.166 -24 -71.499s8 -51.333 24 -72s39 -31.667 69 -33v0z" />
    <glyph glyph-name="glyph26" unicode="7" horiz-adv-x="606" 
d="M64 0l264 539h-286v161h10h554l-322 -700h-10h-210v0z" />
    <glyph glyph-name="glyph27" unicode="8" horiz-adv-x="606" 
d="M445 372v-2c7.33301 -2 15.833 -5 25.5 -9s19.167 -9.33301 28.5 -16c20 -12.667 38.167 -31 54.5 -55s24.5 -56.667 24.5 -98c0 -11.333 -1 -24 -3 -38s-6 -28.333 -12 -43c-13.333 -32.667 -39 -62.5 -77 -89.5s-97.333 -40.5 -178 -40.5l-10 -1
c-80.667 0.666992 -140 14.5 -178 41.5s-63.667 56.833 -77 89.5c-6 14.667 -10 29 -12 43s-3 26.667 -3 38c0 41.333 8.16699 74 24.5 98s34.5 42.333 54.5 55c9.33301 6.66699 18.833 12 28.5 16s18.167 7 25.5 9v2c-26.667 10 -50.167 27.667 -70.5 53
s-30.5 59.333 -30.5 102c0 54.667 20.167 100.5 60.5 137.5s99.5 55.5 177.5 55.5h10c78 0 137.167 -18.5 177.5 -55.5s60.5 -82.833 60.5 -137.5c0 -42.667 -10.167 -76.667 -30.5 -102s-43.833 -43 -70.5 -53v0zM303 127c26.667 1.33301 47.167 10.835 61.5 28.502
s21.5 38.167 21.5 61.5c0 24.667 -6.16699 43.667 -18.5 57s-25.833 22.333 -40.5 27c-4 1.33301 -8 2.33301 -12 3s-8 1 -12 1c-21.333 -0.666992 -40.333 -8.83398 -57 -24.501s-25 -36.834 -25 -63.501c0 -22.667 7.16699 -43 21.5 -61s34.5 -27.667 60.5 -29v0z
M303 431.002h2.5c1 0 1.83301 0.333008 2.5 1c16 1.33301 30.5 8 43.5 20s19.5 30 19.5 54c0 22 -5 38.5 -15 49.5s-20.667 18.5 -32 22.5c-4 1.33301 -7.66699 2.33301 -11 3s-6.66602 1 -9.99902 1s-7.16602 -0.5 -11.499 -1.5s-8.5 -2.5 -12.5 -4.5
c-10.667 -4 -20.5 -11.333 -29.5 -22s-13.5 -26.667 -13.5 -48c0 -24 6.16699 -41.833 18.5 -53.5s25.833 -18.5 40.5 -20.5c1.33301 0 2.66602 -0.166992 3.99902 -0.5s2.66602 -0.5 3.99902 -0.5v0z" />
    <glyph glyph-name="glyph28" unicode="9" horiz-adv-x="606" 
d="M331 0h-207.001l168 241c-6.66699 -1.33301 -13.667 -2.5 -21 -3.5s-15.333 -1.5 -24 -1.5h-10c-64.667 0 -115.667 22.167 -153 66.5s-56 98.833 -56 163.5c0 70 23.667 129.833 71 179.5s114.333 74.5 201 74.5h10c82 0 147.167 -23.5 195.5 -70.5
s72.5 -108.167 72.5 -183.5c0 -28.667 -2.5 -55.5 -7.5 -80.5s-13.167 -49.833 -24.5 -74.5c-6 -12.667 -12.667 -25.5 -20 -38.5s-15.666 -26.167 -24.999 -39.5l-160 -233h-10v0zM306.999 573c-29.333 -1.33301 -52.333 -12.167 -69 -32.5s-25 -44.5 -25 -72.5
c0 -27.333 8.33301 -51.166 25 -71.499s39.667 -31.166 69 -32.499c30 1.33301 53 12.166 69 32.499s24 44.166 24 71.499s-8 51.333 -24 72s-39 31.667 -69 33v0z" />
    <glyph glyph-name="glyph29" unicode=":" horiz-adv-x="340" 
d="M63 84c0 28.667 10.167 52.834 30.5 72.501s44.166 29.5 71.499 29.5h10c27.333 0 51.166 -9.83301 71.499 -29.5s30.5 -43.834 30.5 -72.501s-10.167 -52.667 -30.5 -72s-44.166 -29 -71.499 -29l-10 -1c-27.333 0.666992 -51.166 10.667 -71.499 30
s-30.5 43.333 -30.5 72v0zM63 399c0 27.333 9.83105 51.168 29.498 71.501s43.834 30.5 72.501 30.5h10c27.333 0 51.166 -9.83301 71.499 -29.5s30.5 -43.834 30.5 -72.501s-10.167 -52.834 -30.5 -72.501s-44.166 -29.5 -71.499 -29.5h-10
c-27.333 0 -51.166 9.83301 -71.499 29.5s-30.5 43.834 -30.5 72.501v0z" />
    <glyph glyph-name="glyph30" unicode=";" horiz-adv-x="332" 
d="M14 -140l105 308h10h175l-147 -308h-10h-133v0zM90 399c0 28.667 10.167 52.8301 30.5 72.4971s44.166 29.5 71.499 29.5h10c28.667 0 52.834 -10.167 72.501 -30.5s29.5 -44.166 29.5 -71.499s-9.83301 -51.166 -29.5 -71.499s-43.834 -30.5 -72.501 -30.5h-10
c-27.333 0 -51.166 9.83301 -71.499 29.5s-30.5 43.834 -30.5 72.501v0z" />
    <glyph glyph-name="glyph31" unicode="&#x3c;" horiz-adv-x="510" 
d="M168 350l292 -140v-100h-10l-400 200v80l400 200h10v-100l-292 -140v0z" />
    <glyph glyph-name="glyph32" unicode="=" horiz-adv-x="650" 
d="M50 210v100h10h540v-100h-10h-540v0zM50 390v100h10h540v-100h-10h-540v0z" />
    <glyph glyph-name="glyph33" unicode="&#x3e;" horiz-adv-x="510" 
d="M342 350l-292 140v100h10l400 -200v-80l-400 -200h-10v100l292 140v0z" />
    <glyph glyph-name="glyph34" unicode="?" horiz-adv-x="535" 
d="M157 84c0 27.333 9.83301 51.166 29.5 71.499s43.834 30.5 72.501 30.5h10c28.667 0 52.834 -10.167 72.501 -30.5s29.5 -44.166 29.5 -71.499s-9.83301 -51 -29.5 -71s-43.834 -30 -72.501 -30l-10 -1c-28.667 0.666992 -52.834 11 -72.501 31s-29.5 43.667 -29.5 71v0z
M196 496l-168.002 0.00195312v8v8c2.66699 52 22.834 99.667 60.501 143s95.834 65 174.501 65h10c76.667 0 133.167 -19 169.5 -57s57.166 -79.667 62.499 -125c0.666992 -4.66699 1.16699 -9.16699 1.5 -13.5s0.5 -8.83301 0.5 -13.5
c0 -54.667 -14.167 -99.834 -42.5 -135.501s-65.5 -54.167 -111.5 -55.5v-89h-10h-168v181h48c4.66699 0 11.667 0.333008 21 1s19.333 3 30 7c13.333 5.33301 25.833 14.166 37.5 26.499s17.5 30.833 17.5 55.5c0 2 -0.333008 6.5 -1 13.5s-2.66699 14.167 -6 21.5
c-3.33301 8.66699 -9.16602 16.667 -17.499 24s-20.5 11.333 -36.5 12c-15.333 -0.666992 -27.333 -5 -36 -13s-15 -16.333 -19 -25c-2.66699 -6 -4.5 -11.667 -5.5 -17s-1.5 -10 -1.5 -14v-8h-10v0z" />
    <glyph glyph-name="glyph35" unicode="@" horiz-adv-x="888" 
d="M648 530l-55.998 -258.999c-0.666992 -3.33301 -1.16699 -6.5 -1.5 -9.5s-0.5 -6.16699 -0.5 -9.5c0 -10.667 3 -18.834 9 -24.501s15 -8.83398 27 -9.50098c5.33301 0 10.666 0.5 15.999 1.5s10.666 2.16699 15.999 3.5c24 6 46 20.167 66 42.5s30 57.166 30 104.499
c0 98 -32 171.333 -96 220s-137 73.334 -219 74.001c-80.667 -0.666992 -151.5 -28.667 -212.5 -84s-91.5 -132 -91.5 -230c0 -104.667 31.5 -183.667 94.5 -237s132.5 -81.666 208.5 -84.999h5h6c32 0.666992 60.5 5.5 85.5 14.5s46.833 19.5 65.5 31.5h10l29 -44
c-12 -7.33301 -24 -13.833 -36 -19.5s-23.667 -10.167 -35 -13.5c-18 -6 -36.333 -10.167 -55 -12.5s-38.334 -3.5 -59.001 -3.5l-10 -1c-124.667 0.666992 -219.167 37.334 -283.5 110.001s-96.5 159.334 -96.5 260.001c0 113.333 36.833 203.333 110.5 270
s160.167 100 259.5 100h10c109.333 0 192.5 -25.333 249.5 -76s95.167 -106.334 114.5 -167.001c5.33301 -18.667 9.33301 -37 12 -55s4 -35.333 4 -52c0 -69.333 -21.167 -122.333 -63.5 -159s-88.833 -56.334 -139.5 -59.001h-5.5h-5.5h-10c-21.333 0 -38.833 4 -52.5 12
s-24.5 17 -32.5 27l-6.5 8.5c-2.33301 3 -4.16602 5.83301 -5.49902 8.5c-7.33301 -8 -15 -15 -23 -21s-16 -11.333 -24 -16c-11.333 -6.66699 -22.5 -11.5 -33.5 -14.5s-21.5 -4.5 -31.5 -4.5h-10c-6.66699 0 -13.334 0.333008 -20.001 1s-13.334 1.66699 -20.001 3
c-29.333 6.66699 -56.166 21.5 -80.499 44.5s-36.5 58.167 -36.5 105.5c0 64 22.667 118.833 68 164.5s96.666 68.5 153.999 68.5h10c20.667 0 36.834 -3.5 48.501 -10.5s20.834 -15.833 27.501 -26.5l6 28h10h100v0zM407.002 250.001
c22 1.33301 39.834 8.66797 53.501 22.001s23.834 28 30.501 44c5.33301 10.667 9 21 11 31s3 18 3 24v0v1c0 2.66699 -0.166992 7.33398 -0.5 14.001s-2.16602 13.667 -5.49902 21c-2.66699 9.33301 -7.83398 17.666 -15.501 24.999s-19.167 11.666 -34.5 12.999
c-24.667 -1.33301 -43.834 -11 -57.501 -29s-22.834 -38 -27.501 -60c-2 -6 -3.33301 -12.333 -4 -19s-1 -13 -1 -19c0 -3.33301 0.166992 -7 0.5 -11s0.833008 -8 1.5 -12c2 -10.667 6.33301 -20.5 13 -29.5s17.667 -14.167 33 -15.5v0z" />
    <glyph glyph-name="glyph36" unicode="A" horiz-adv-x="731" 
d="M-7 0l249 700h10h238l248 -700h-10h-210l-38 121h-228l-39 -121h-10h-210v0zM366 522l-75 -247h150l-75 247v0z" />
    <glyph glyph-name="glyph37" unicode="B" horiz-adv-x="688" 
d="M73 700l339 0.000976562c63.333 0 109.666 -11.333 138.999 -34s48.666 -47.667 57.999 -75c4.66699 -12.667 7.83398 -24.834 9.50098 -36.501s2.5 -22.5 2.5 -32.5c0 -36 -10.833 -66.667 -32.5 -92s-47.167 -43.333 -76.5 -54v-2c8 -2 17.667 -5 29 -9
s23 -9.66699 35 -17c20.667 -12.667 39.834 -31 57.501 -55s26.5 -56.667 26.5 -98c0 -4 -0.166992 -7.83301 -0.5 -11.5s-0.5 -7.5 -0.5 -11.5c-4.66699 -42.667 -24.667 -82 -60 -118s-91.333 -54 -168 -54h-10h-358v700h10v0zM269 140.001l79.999 0.00195312
c5.33301 0 12.333 0.166992 21 0.5s17.334 1.5 26.001 3.5c14.667 3.33301 28 10.166 40 20.499s18 26.833 18 49.5c0 22 -6.16699 37.833 -18.5 47.5s-25.5 16.167 -39.5 19.5c-8 1.33301 -15.833 2.16602 -23.5 2.49902s-14.167 0.5 -19.5 0.5h-84v-144v0z
M268.999 424.003h72c28.667 0 49.334 4.5 62.001 13.5s21 19.167 25 30.5c1.33301 4 2.16602 7.83301 2.49902 11.5s0.5 7.16699 0.5 10.5c0 18 -6.5 34.167 -19.5 48.5s-36.5 21.5 -70.5 21.5h-72v-136v0z" />
    <glyph glyph-name="glyph38" unicode="C" horiz-adv-x="624" 
d="M589 32c-14 -9.33301 -27.9961 -17.0039 -41.9961 -23.0039s-28 -11 -42 -15c-18 -5.33301 -35.833 -8.83301 -53.5 -10.5s-34.834 -2.5 -51.501 -2.5l-10 -1c-98.667 0.666992 -183 33.334 -253 98.001s-105 155.334 -105 272.001c0 122 36.667 214.167 110 276.5
s155 93.5 245 93.5h10c12 0 24.333 -0.666992 37 -2s25.667 -3.33301 39 -6c20 -4 39.833 -10 59.5 -18s38.5 -18 56.5 -30v-203h-10c-4 4.66699 -8.66699 9.66699 -14 15s-11.333 11 -18 17c-14.667 12.667 -32.834 24.334 -54.501 35.001s-46.5 16.334 -74.5 17.001
c-54.667 -1.33301 -97.334 -21.833 -128.001 -61.5s-46 -86.167 -46 -139.5c0 -60 17.167 -106.167 51.5 -138.5s75.166 -49.166 122.499 -50.499c35.333 1.33301 66.5 9.66602 93.5 24.999s49.5 32.333 67.5 51h10v-199v0z" />
    <glyph glyph-name="glyph39" unicode="D" horiz-adv-x="721" 
d="M63 0l-0.00195312 700h10h256c98.667 0 172.834 -18.833 222.501 -56.5s84.5 -79.167 104.5 -124.5c16 -35.333 25.5 -68.833 28.5 -100.5s4.5 -54.5 4.5 -68.5c0 -90 -27.667 -170.833 -83 -242.5s-147.666 -107.5 -276.999 -107.5h-10h-256v0zM268.998 168
l11.999 0.000976562c10.667 0 23.334 0.666992 38.001 2s29.667 4.66602 45 9.99902c28.667 8.66699 54.667 25.667 78 51s35 65 35 119c0 66 -18.5 112.833 -55.5 140.5s-83.833 41.5 -140.5 41.5h-12v-364v0z" />
    <glyph glyph-name="glyph40" unicode="E" horiz-adv-x="535" 
d="M63 0v700h10h420v-168h-224v-98h203v-154h-203v-112h224v-168h-10h-420v0z" />
    <glyph glyph-name="glyph41" unicode="F" horiz-adv-x="521" 
d="M63 0v700h10h420v-168h-224v-105h203v-161h-203v-266h-10h-196v0z" />
    <glyph glyph-name="glyph42" unicode="G" horiz-adv-x="809" 
d="M399 406l376.002 0.00195312c0.666992 -6.66699 1.16699 -14.334 1.5 -23.001s0.5 -17.667 0.5 -27c0 -20 -1.16699 -42 -3.5 -66s-6.83301 -48.333 -13.5 -73c-16.667 -59.333 -49.667 -113.5 -99 -162.5s-127.333 -73.5 -234 -73.5l-10 -1
c-103.333 0.666992 -193.333 31.5 -270 92.5s-115 151.833 -115 272.5c0 111.333 33.167 201.666 99.5 270.999s156.833 104 271.5 104h10c72 0 136.5 -14 193.5 -42s100.833 -70.667 131.5 -128l-173 -81h-10c-12.667 25.333 -31.334 45.333 -56.001 60
s-53.334 22.334 -86.001 23.001c-46.667 -0.666992 -87.5 -18.167 -122.5 -52.5s-52.5 -84.5 -52.5 -150.5c0 -66.667 17.5 -118.834 52.5 -156.501s78.167 -57.167 129.5 -58.5c38 1.33301 70.667 12.5 98 33.5s45 49.167 53 84.5h-182v154h10v0z" />
    <glyph glyph-name="glyph43" unicode="H" horiz-adv-x="766" 
d="M63 0v700h10h196v-252h228v252h10h196v-700h-10h-196v280h-228v-280h-10h-196v0z" />
    <glyph glyph-name="glyph44" unicode="I" horiz-adv-x="332" 
d="M63 0v700h10h196v-700h-10h-196v0z" />
    <glyph glyph-name="glyph45" unicode="J" horiz-adv-x="500" 
d="M0 102l125.999 101.004h10c0.666992 -2.66699 1.5 -5.33398 2.5 -8.00098s2.16699 -5.33398 3.5 -8.00098c4.66699 -9.33301 11.167 -17.833 19.5 -25.5s19.5 -12.167 33.5 -13.5c20 1.33301 32.167 9.16602 36.5 23.499s6.5 31.166 6.5 50.499v478h10h196v-458
c0 -14.667 -0.833008 -31.834 -2.5 -51.501s-5.5 -40.167 -11.5 -61.5c-10 -37.333 -30.167 -71.333 -60.5 -102s-78.166 -46 -143.499 -46l-10 -1v1v0c-6 0 -22.167 1.5 -48.5 4.5s-54.833 13.833 -85.5 32.5c-14.667 8.66699 -29 19.834 -43 33.501s-27 30.5 -39 50.5v0z
" />
    <glyph glyph-name="glyph46" unicode="K" horiz-adv-x="710" 
d="M63 0v700h10h196v-280l201 280h10h230l-266 -339l273 -361h-10h-245l-193 286v-286h-10h-196v0z" />
    <glyph glyph-name="glyph47" unicode="L" horiz-adv-x="493" 
d="M63 0v700h10h196v-532h210v-168h-10h-406v0z" />
    <glyph glyph-name="glyph48" unicode="M" horiz-adv-x="880" 
d="M14 0l102 700h10h196l118 -410l118 410h10h196l102 -700h-10h-188l-49 382l-111 -382h-10h-126l-111 382l-49 -382h-10h-188v0z" />
    <glyph glyph-name="glyph49" unicode="N" horiz-adv-x="787" 
d="M63 0v700h10h206l246 -397v397h10h189v-700h-10h-203l-249 404v-404h-10h-189v0z" />
    <glyph glyph-name="glyph50" unicode="O" horiz-adv-x="826" 
d="M408 -20c-122.667 0 -216 37 -280 111s-96 160.333 -96 259c0 98 31.5 184.167 94.5 258.5s156.833 111.5 281.5 111.5h10c124.667 0 218.5 -37.167 281.5 -111.5s94.5 -160.5 94.5 -258.5c0 -98.667 -31.5 -184.667 -94.5 -258s-156.833 -110.333 -281.5 -111l-10 -1v0z
M412 148c6.66699 0 13.668 0.496094 21.001 1.49609s14.666 2.83301 21.999 5.5c32 8.66699 61.167 28.167 87.5 58.5s39.5 75.833 39.5 136.5s-13.333 106.167 -40 136.5s-55.667 49.833 -87 58.5c-7.33301 2 -14.5 3.66699 -21.5 5s-13.833 2 -20.5 2
c-7.33301 0 -15 -0.666992 -23 -2s-15.667 -3.33301 -23 -6c-30.667 -9.33301 -58.834 -29.166 -84.501 -59.499s-38.5 -75.166 -38.5 -134.499s12.833 -104.166 38.5 -134.499s53.834 -50.166 84.501 -59.499c7.33301 -2.66699 14.833 -4.66699 22.5 -6s15.167 -2 22.5 -2
v0z" />
    <glyph glyph-name="glyph51" unicode="P" horiz-adv-x="651" 
d="M63 0v700h10h295c74.667 0 130.5 -16 167.5 -48s61.833 -67.333 74.5 -106c4.66699 -14 8 -27.833 10 -41.5s3 -26.5 3 -38.5s-1 -24.833 -3 -38.5s-5.33301 -27.5 -10 -41.5c-12 -38.667 -36.667 -74.167 -74 -106.5s-93.333 -48.5 -168 -48.5h-99v-231h-10h-196v0z
M269 546l-0.00195312 -161h46c28.667 0 49.667 4.66699 63 14s22.333 19.333 27 30c2.66699 7.33301 4.33398 14.333 5.00098 21s1 12 1 16s-0.166992 8 -0.5 12s-0.833008 8 -1.5 12c-3.33301 14 -11.666 26.833 -24.999 38.5s-36.333 17.5 -69 17.5h-46v0z" />
    <glyph glyph-name="glyph52" unicode="Q" horiz-adv-x="828" 
d="M807 0l-126.001 -60.001h-10l-67 82c-26.667 -13.333 -55 -23.5 -85 -30.5s-63.667 -10.5 -101 -10.5l-10 -1c-104.667 0.666992 -193.5 32.834 -266.5 96.501s-109.5 154.834 -109.5 273.501s36.5 210 109.5 274s161.833 96 266.5 96h10
c124.667 0 218.5 -37.167 281.5 -111.5s94.5 -160.5 94.5 -258.5c0 -10.667 -1.5 -31.5 -4.5 -62.5s-11.833 -63.833 -26.5 -98.5c-6 -14 -13.167 -27.833 -21.5 -41.5s-18.166 -26.834 -29.499 -39.501l95 -108v0zM513.999 305.999l48 -57.002
c6.66699 13.333 11.667 28.166 15 44.499s5 35.166 5 56.499c0 60.667 -13.333 106.167 -40 136.5s-55.667 49.833 -87 58.5c-7.33301 2 -14.5 3.66699 -21.5 5s-13.833 2 -20.5 2c-7.33301 0 -15 -0.666992 -23 -2s-15.667 -3.33301 -23 -6
c-30.667 -9.33301 -58.834 -29.166 -84.501 -59.499s-38.5 -75.166 -38.5 -134.499s12.833 -104.166 38.5 -134.499s53.834 -50.166 84.501 -59.499c7.33301 -2.66699 15 -4.66699 23 -6s15.667 -2 23 -2c12.667 0.666992 23.5 2 32.5 4s16.5 4.33301 22.5 7l-84 93l120 54
h10v0z" />
    <glyph glyph-name="glyph53" unicode="R" horiz-adv-x="654" 
d="M63 0l-0.00292969 700.002h10h290c6.66699 0 21.667 -0.833008 45 -2.5s48 -7.83398 74 -18.501c30.667 -12.667 58.834 -33.334 84.501 -62.001s38.5 -71 38.5 -127c0 -61.333 -14.5 -107.833 -43.5 -139.5s-60.833 -54.167 -95.5 -67.5
c-1.33301 -0.666992 -2.66602 -1.16699 -3.99902 -1.5s-2.66602 -0.833008 -3.99902 -1.5l196 -280h-10h-237l-138 215v-215h-10h-196v0zM268.997 385.002h38.002c33.333 0 56.666 7.66699 69.999 23s20.666 32 21.999 50v4v4v4.5v5.5c-2 17.333 -9.66699 33.333 -23 48
s-36.333 22 -69 22h-38v-161v0z" />
    <glyph glyph-name="glyph54" unicode="S" horiz-adv-x="570" 
d="M511 651l-69.999 -146.999h-10c-3.33301 2.66699 -6.66602 5.5 -9.99902 8.5s-6.66602 5.83301 -9.99902 8.5c-16.667 12.667 -33.334 23.167 -50.001 31.5s-34.334 12.833 -53.001 13.5c-18 -0.666992 -31.667 -4.33398 -41 -11.001s-16 -14.334 -20 -23.001
c-2.66699 -4.66699 -4.33398 -9.33398 -5.00098 -14.001s-1 -8.66699 -1 -12c0 -14.667 5 -26.167 15 -34.5s21.333 -14.5 34 -18.5c6 -2 12 -3.66699 18 -5s11.333 -2.66602 16 -3.99902c12 -2.66699 25.833 -6.16699 41.5 -10.5s31.834 -10.5 48.501 -18.5
c32 -14.667 61.333 -37.5 88 -68.5s40 -76.5 40 -136.5c0 -80.667 -26.5 -139 -79.5 -175s-114.167 -54 -183.5 -54l-10 -1c-18.667 0.666992 -36.334 2.33398 -53.001 5.00098s-33.334 6.66699 -50.001 12c-24.667 8 -49.834 19.667 -75.501 35s-53.5 35.333 -83.5 60
l93 149h10c3.33301 -3.33301 6.66602 -6.5 9.99902 -9.5s6.66602 -6.16699 9.99902 -9.5c18.667 -16 39.5 -31 62.5 -45s46.5 -23 70.5 -27c2.66699 -0.666992 5.33398 -1.16699 8.00098 -1.5s5.33398 -0.5 8.00098 -0.5c18.667 0.666992 32.334 4.33398 41.001 11.001
s14.667 14 18 22c2 4.66699 3.33301 9.33398 4 14.001s1 8.66699 1 12c0 26 -9 44.333 -27 55s-40.333 19.667 -67 27c-1.33301 0.666992 -3 1.16699 -5 1.5s-4 0.833008 -6 1.5c-10.667 2.66699 -22.167 6 -34.5 10s-24.833 8.66699 -37.5 14c-30.667 14 -59 35.5 -85 64.5
s-39 71.833 -39 128.5c0 59.333 21.167 109.333 63.5 150s103.166 61 182.499 61h10c18.667 0 47.334 -3.5 86.001 -10.5s79.334 -25.167 122.001 -54.5c0.666992 -0.666992 1.5 -1.33398 2.5 -2.00098s1.83301 -1.33398 2.5 -2.00098v0z" />
    <glyph glyph-name="glyph55" unicode="T" horiz-adv-x="528" 
d="M161 0v532h-154v168h10h504v-168h-154v-532h-10h-196v0z" />
    <glyph glyph-name="glyph56" unicode="U" horiz-adv-x="738" 
d="M66 700h195.999v-413c0 -7.33301 0.5 -16.5 1.5 -27.5s3.16699 -22.5 6.5 -34.5c6 -18.667 16.333 -36 31 -52s37.334 -24.333 68.001 -25c31.333 0.666992 54.333 9 69 25s24.667 33.333 30 52c3.33301 12 5.5 23.5 6.5 34.5s1.5 20.167 1.5 27.5v413h10h196v-417
c0 -104.667 -28.5 -181.167 -85.5 -229.5s-131.167 -72.5 -222.5 -72.5l-10 -1c-90.667 0.666992 -164.667 25.167 -222 73.5s-86 124.833 -86 229.5v417h10v0z" />
    <glyph glyph-name="glyph57" unicode="V" horiz-adv-x="728" 
d="M270 0l-277 700h10h231l140 -446l137 446h10h214l-266 -700h-10h-189v0z" />
    <glyph glyph-name="W" unicode="W" horiz-adv-x="1102" 
d="M551 429l-110 -429h-10h-192l-246 700h10h214l119 -409l105 409h10h210l105 -409l119 409h10h214l-246 -700h-10h-192l-110 429v0z" />
    <glyph glyph-name="glyph59" unicode="X" horiz-adv-x="723" 
d="M362 223l-135 -223h-10h-224l256 368l-231 332h10h235l99 -180l99 180h10h222l-219 -322l256 -378h-10h-231l-127 223v0z" />
    <glyph glyph-name="glyph60" unicode="Y" horiz-adv-x="676" 
d="M235 0v272l-242 428h10h231l114 -236l111 236h10h214l-242 -428v-272h-10h-196v0z" />
    <glyph glyph-name="glyph61" unicode="Z" horiz-adv-x="619" 
d="M-7 0l322 532h-266v168h10h567l-315 -532h287v-168h-10h-595v0z" />
    <glyph glyph-name="glyph62" unicode="[" horiz-adv-x="325" 
d="M301 -210h-245v945h10h245v-84h-105v-777h105v-84h-10v0z" />
    <glyph glyph-name="glyph63" unicode="\" horiz-adv-x="522" 
d="M491 -210h-105l-365 945h10h105l365 -945h-10v0z" />
    <glyph glyph-name="glyph64" unicode="]" horiz-adv-x="325" 
d="M24 735h245v-945h-10h-245v84h105v777h-105v84h10v0z" />
    <glyph glyph-name="glyph65" unicode="^" horiz-adv-x="590" 
d="M295 640l-115 -140h-10h-130l156 200h10h188l156 -200h-10h-130l-115 140v0z" />
    <glyph glyph-name="glyph66" unicode="_" horiz-adv-x="510" 
d="M10 -110h500v-100h-10h-500v100h10v0z" />
    <glyph glyph-name="glyph67" unicode="`" horiz-adv-x="370" 
d="M-18 700h223l109 -161h-10h-132l-200 161h10v0z" />
    <glyph glyph-name="glyph68" unicode="a" horiz-adv-x="647" 
d="M413 436l0.00195312 46.999h10h168v-483h-10h-168v45c-17.333 -18.667 -38.333 -33.667 -63 -45s-53 -17 -85 -17l-10 -1c-72.667 0.666992 -128.334 27 -167.001 79s-58 112.333 -58 181c0 8 0.333008 16.333 1 25s1.66699 17.334 3 26.001
c7.33301 52 28.5 99.667 63.5 143s87.5 65 157.5 65h10c27.333 0 53.166 -4.33301 77.499 -13s47.833 -26 70.5 -52v0zM320.002 125.999c29.333 1.33301 53.333 12.1621 72 32.4951s28 48.166 28 83.499c0 34.667 -9.33301 62.334 -28 83.001s-42.667 31.334 -72 32.001
c-32 -1.33301 -56 -12.666 -72 -33.999s-25 -44.666 -27 -69.999v-5.5v-5.5c0 -29.333 8 -55.666 24 -78.999s41 -35.666 75 -36.999v0z" />
    <glyph glyph-name="glyph69" unicode="b" horiz-adv-x="648" 
d="M234 46l-0.00195312 -46.0029h-10h-168v735h10h175v-291c2.66699 2.66699 5.5 5.33398 8.5 8.00098s5.83301 5.33398 8.5 8.00098c18.667 14.667 37.834 25.167 57.501 31.5s42.167 9.5 67.5 9.5h10c69.333 0 124.166 -24.333 164.499 -73s60.5 -110.667 60.5 -186
c0 -68.667 -19.667 -129 -59 -181s-94.666 -78 -165.999 -78l-10 -1c-11.333 0.666992 -22.666 1.83398 -33.999 3.50098s-23 4.5 -35 8.5c-14 4 -27.667 10.333 -41 19s-26.333 19.667 -39 33v0zM326.998 125.997c28.667 1.33301 52.4971 12.165 71.4971 32.498
s28.5 48.166 28.5 83.499c0 34.667 -9.33301 62.334 -28 83.001s-42.667 31.334 -72 32.001c-28.667 -1.33301 -50.167 -9.5 -64.5 -24.5s-24.166 -31.5 -29.499 -49.5c-2 -7.33301 -3.5 -14.5 -4.5 -21.5s-1.5 -13.5 -1.5 -19.5s0.5 -12.5 1.5 -19.5s2.5 -13.833 4.5 -20.5
c4.66699 -18.667 14.334 -35.667 29.001 -51s36.334 -23.666 65.001 -24.999v0z" />
    <glyph glyph-name="glyph70" unicode="c" horiz-adv-x="469" 
d="M439 172l0.00195312 -153c-2 -0.666992 -6.83301 -2.83398 -14.5 -6.50098s-17.834 -7.5 -30.501 -11.5c-14 -4 -30.167 -8 -48.5 -12s-38.166 -6 -59.499 -6l-10 -1c-82 0.666992 -143.5 27.167 -184.5 79.5s-61.5 112.5 -61.5 180.5c0 70.667 21.167 131.5 63.5 182.5
s103.166 76.5 182.499 76.5h10c12 0 23.5 -0.666992 34.5 -2s22.167 -3 33.5 -5c13.333 -3.33301 27 -7.5 41 -12.5s28.667 -11.167 44 -18.5v-152h-10c-16 15.333 -33.5 27.333 -52.5 36s-38.167 13.334 -57.5 14.001c-33.333 -1.33301 -58 -13.833 -74 -37.5
s-24 -51.167 -24 -82.5c0 -32.667 9 -60 27 -82s44 -33.667 78 -35c13.333 0.666992 28.666 4.16699 45.999 10.5s36.333 18.833 57 37.5h10v0z" />
    <glyph glyph-name="glyph71" unicode="d" horiz-adv-x="648" 
d="M407 444l-0.000976562 290.997h10h175v-735h-10h-168v46l-8.5 -8.5l-9.5 -9.5c-13.333 -11.333 -30.666 -21.666 -51.999 -30.999s-47.333 -14 -78 -14l-10 -1c-60.667 0.666992 -113.5 23.334 -158.5 68.001s-67.5 108.667 -67.5 192c0 75.333 20.167 137.333 60.5 186
s95.5 73 165.5 73h10c28.667 0 54.167 -4.16699 76.5 -12.5s43.833 -23.166 64.5 -44.499v0zM320.999 125.997c28.667 1.33301 52.4971 12.165 71.4971 32.498s28.5 48.166 28.5 83.499c0 34.667 -9.33301 62.334 -28 83.001s-42.667 31.334 -72 32.001
c-28.667 -1.33301 -50.167 -9.5 -64.5 -24.5s-24.166 -31.5 -29.499 -49.5c-2 -7.33301 -3.5 -14.5 -4.5 -21.5s-1.5 -13.5 -1.5 -19.5s0.5 -12.5 1.5 -19.5s2.5 -13.833 4.5 -20.5c4.66699 -18.667 14.334 -35.667 29.001 -51s36.334 -23.666 65.001 -24.999v0z" />
    <glyph glyph-name="glyph72" unicode="e" horiz-adv-x="602" 
d="M568 147c-13.333 -39.333 -31.833 -70.167 -55.5 -92.5s-48.167 -38.833 -73.5 -49.5c-26 -10 -51 -16.167 -75 -18.5s-42.667 -3.5 -56 -3.5l-10 -1c-72.667 0.666992 -135.5 22.667 -188.5 66s-79.5 108 -79.5 194c0 74.667 23.167 136.5 69.5 185.5
s111.833 73.5 196.5 73.5h10c78.667 0 137 -18.667 175 -56s63.667 -78.333 77 -123c5.33301 -18.667 9 -37 11 -55s3 -34.667 3 -50v-7.5v-6.5h-368v-5c0 -4 0.166992 -8 0.5 -12s0.833008 -8 1.5 -12c4 -21.333 13.667 -41 29 -59s38 -27.333 68 -28
c22.667 1.33301 41.667 7 57 17s25.333 24.333 30 43h10h168v0zM208 297.999h186c-1.33301 24 -9.5 46 -24.5 66s-37.833 30.667 -68.5 32c-27.333 -1.33301 -49.333 -11.5 -66 -30.5s-25.667 -41.5 -27 -67.5v0z" />
    <glyph glyph-name="glyph73" unicode="f" horiz-adv-x="367" 
d="M70 0v357h-63v126h63v95c0 6.66699 0.666992 17.667 2 33s5.66602 31.333 12.999 48c10 21.333 27.833 41.166 53.5 59.499s64.834 27.5 117.501 27.5h10c7.33301 0 16 -0.5 26 -1.5s20 -2.16699 30 -3.5c6.66699 -0.666992 13.167 -1.5 19.5 -2.5
s12.5 -2.16699 18.5 -3.5v-128h-10c-3.33301 1.33301 -6.83301 2.83301 -10.5 4.5s-7.5 2.83398 -11.5 3.50098c-4 1.33301 -8 2.5 -12 3.5s-7.66699 1.5 -11 1.5c-14 -1.33301 -24.5 -6 -31.5 -14s-11.833 -16.667 -14.5 -26c-2 -6.66699 -3.16699 -13 -3.5 -19
s-0.5 -11 -0.5 -15v-63h105v-126h-105v-357h-10h-175v0z" />
    <glyph glyph-name="glyph74" unicode="g" horiz-adv-x="655" 
d="M599 483l0.000976562 -469.002c0 -67.333 -22.167 -123.666 -66.5 -168.999s-111.5 -68 -201.5 -68l-10 -1c-80.667 0.666992 -142.834 18.334 -186.501 53.001s-69.5 79 -77.5 133l10 -1h189c0.666992 -18 8.16699 -32 22.5 -42s30.5 -15.333 48.5 -16h7.5
c2.33301 0 4.5 0.333008 6.5 1c20 2 38.333 10 55 24s25 42.667 25 86v29c-22.667 -18 -44.5 -29.667 -65.5 -35s-42.167 -8 -63.5 -8h-10c-72 0 -132 23.167 -180 69.5s-72 110.166 -72 191.499c0 78 23 137.5 69 178.5s98.333 61.5 157 61.5h10
c10.667 0 22.5 -0.666992 35.5 -2s25.833 -3.66602 38.5 -6.99902c14.667 -4 29 -9.66699 43 -17s26.667 -17 38 -29v37h10h168v0zM324.001 139.998c26.667 1.33301 50.668 11.166 72.001 29.499s32 45.833 32 82.5c0 31.333 -7.33301 55 -22 71s-31 26.667 -49 32
c-5.33301 2 -10.833 3.5 -16.5 4.5s-11.167 1.5 -16.5 1.5s-11.5 -0.666992 -18.5 -2s-13.833 -3.66602 -20.5 -6.99902c-16 -6 -30.667 -16.833 -44 -32.5s-20 -38.167 -20 -67.5c0 -36 9.83301 -63 29.5 -81s41.5 -28 65.5 -30c1.33301 -0.666992 2.66602 -1 3.99902 -1h4
v0z" />
    <glyph glyph-name="glyph75" unicode="h" horiz-adv-x="619" 
d="M56 0l-0.00195312 735h10h175v-296c17.333 19.333 38.5 34.5 63.5 45.5s52.833 16.5 83.5 16.5h10c53.333 0 92 -13.667 116 -41s39.667 -57.333 47 -90c4 -16 6.5 -31.667 7.5 -47s1.5 -29 1.5 -41v-282h-10h-175v266c0 4.66699 -0.166992 10.667 -0.5 18
s-1.16602 14.666 -2.49902 21.999c-2.66699 12 -8 23.167 -16 33.5s-20.667 16.166 -38 17.499c-25.333 -1.33301 -46.166 -12.666 -62.499 -33.999s-24.5 -49.666 -24.5 -84.999v-238h-10h-175v0z" />
    <glyph glyph-name="glyph76" unicode="i" horiz-adv-x="298" 
d="M67 483h175v-483h-10h-175v483h10v0zM53 623c0 25.333 9.00098 46.832 27.001 64.499s39.333 26.5 64 26.5h10c25.333 0 46.833 -8.66699 64.5 -26s26.5 -39 26.5 -65c0 -24.667 -8.66699 -46 -26 -64s-39 -27 -65 -27h-10c-23.333 0 -42.333 6.66699 -57 20
s-24.334 28 -29.001 44c-2 4.66699 -3.33301 9.33398 -4 14.001s-1 9 -1 13v0z" />
    <glyph glyph-name="glyph77" unicode="j" horiz-adv-x="298" 
d="M67 483h175v-693h-10h-175v693h10v0zM53 623c0 25.333 9.00098 46.832 27.001 64.499s39.333 26.5 64 26.5h10c25.333 0 46.833 -8.66699 64.5 -26s26.5 -39 26.5 -65c0 -24.667 -8.66699 -46 -26 -64s-39 -27 -65 -27h-10c-23.333 0 -42.333 6.66699 -57 20
s-24.334 28 -29.001 44c-2 4.66699 -3.33301 9.33398 -4 14.001s-1 9 -1 13v0z" />
    <glyph glyph-name="glyph78" unicode="k" horiz-adv-x="636" 
d="M56 0v735h10h175v-426l154 174h10h217l-220 -227l245 -256h-10h-228l-168 189v-189h-10h-175v0z" />
    <glyph glyph-name="glyph79" unicode="l" horiz-adv-x="297" 
d="M56 0v735h10h175v-735h-10h-175v0z" />
    <glyph glyph-name="glyph80" unicode="m" horiz-adv-x="906" 
d="M241 442c20 19.333 41.9961 34 65.9961 44s49.333 15 76 15h10h3.5h3.5c26 -0.666992 51 -6 75 -16s43.667 -27 59 -51c18.667 22 39.5 38.667 62.5 50s51.167 17 84.5 17h10c50.667 0 88 -12.5 112 -37.5s40 -52.5 48 -82.5c2 -9.33301 3.5 -18.5 4.5 -27.5
s1.5 -17.833 1.5 -26.5v-327h-10h-175v282c0 4 -0.166992 9 -0.5 15s-1.5 12.667 -3.5 20c-2.66699 9.33301 -7.5 18 -14.5 26s-17.5 12.667 -31.5 14c-1.33301 0 -2.66602 -0.166992 -3.99902 -0.5s-2.66602 -0.5 -3.99902 -0.5c-16 -3.33301 -30.833 -12.5 -44.5 -27.5
s-20.5 -38.167 -20.5 -69.5v-259h-10h-175v282c0 4 -0.166992 9 -0.5 15s-1.5 12.667 -3.5 20c-2.66699 9.33301 -7.5 18 -14.5 26s-17.5 12.667 -31.5 14c-1.33301 0 -2.66602 -0.166992 -3.99902 -0.5s-2.66602 -0.5 -3.99902 -0.5
c-16 -3.33301 -30.833 -12.5 -44.5 -27.5s-20.5 -38.167 -20.5 -69.5v-259h-10h-175v483h10h175v-41v0z" />
    <glyph glyph-name="glyph81" unicode="n" horiz-adv-x="619" 
d="M241 439c17.333 19.333 38.498 34.5 63.498 45.5s52.833 16.5 83.5 16.5h10c53.333 0 92 -13.667 116 -41s39.667 -57.333 47 -90c4 -16 6.5 -31.667 7.5 -47s1.5 -29 1.5 -41v-282h-10h-175v266c0 4.66699 -0.166992 10.667 -0.5 18s-1.16602 14.666 -2.49902 21.999
c-2.66699 12 -8 23.167 -16 33.5s-20.667 16.166 -38 17.499c-25.333 -1.33301 -46.166 -12.666 -62.499 -33.999s-24.5 -49.666 -24.5 -84.999v-238h-10h-175v483h10h175v-44v0z" />
    <glyph glyph-name="glyph82" unicode="o" horiz-adv-x="648" 
d="M319 -18c-96 0.666992 -168.167 25.833 -216.5 75.5s-72.5 111.167 -72.5 184.5c0 71.333 23.833 132.333 71.5 183s120.167 76 217.5 76h10c97.333 0 169.833 -25.333 217.5 -76s71.5 -111.667 71.5 -183s-23.833 -132.333 -71.5 -183s-120.167 -76 -217.5 -76l-10 -1v0
zM324 107.999c27.333 0.666992 48 8 62 22s24 29.333 30 46c5.33301 14.667 8.5 28.167 9.5 40.5s1.5 20.833 1.5 25.5c0 37.333 -8.66699 68.5 -26 93.5s-43 38.167 -77 39.5c-34.667 -1.33301 -60.5 -14.5 -77.5 -39.5s-25.5 -56.167 -25.5 -93.5
c0 -4.66699 0.5 -13.167 1.5 -25.5s4.16699 -25.833 9.5 -40.5c6 -16 16 -31 30 -45s34.667 -21.667 62 -23v0z" />
    <glyph glyph-name="glyph83" unicode="p" horiz-adv-x="648" 
d="M234 483l-0.000976562 -47c20.667 22.667 42.667 39.167 66 49.5s51 15.5 83 15.5h10c69.333 0 124.166 -24.333 164.499 -73s60.5 -110.667 60.5 -186c0 -68.667 -19.667 -129 -59 -181s-94.666 -78 -165.999 -78l-10 -1c-26.667 0.666992 -51.667 5.16699 -75 13.5
s-45.666 22.833 -66.999 43.5v-249h-10h-175v693h10h168v0zM326.999 126c28.667 1.33301 52.4971 12.165 71.4971 32.498s28.5 48.166 28.5 83.499c0 34.667 -9.33301 62.334 -28 83.001s-42.667 31.334 -72 32.001c-28.667 -1.33301 -50.167 -9.5 -64.5 -24.5
s-24.166 -31.5 -29.499 -49.5c-2 -7.33301 -3.5 -14.5 -4.5 -21.5s-1.5 -13.5 -1.5 -19.5s0.5 -12.5 1.5 -19.5s2.5 -13.833 4.5 -20.5c4.66699 -18.667 14.334 -35.667 29.001 -51s36.334 -23.666 65.001 -24.999v0z" />
    <glyph glyph-name="glyph84" unicode="q" horiz-adv-x="648" 
d="M582 -210l-175 -0.000976562v248c-17.333 -17.333 -37.833 -30.833 -61.5 -40.5s-50.167 -14.5 -79.5 -14.5l-10 -1c-60.667 0.666992 -113.5 23.334 -158.5 68.001s-67.5 108.667 -67.5 192c0 75.333 20.167 137.333 60.5 186s95.5 73 165.5 73h10
c31.333 0 58.833 -5 82.5 -15s45.5 -26.333 65.5 -49v46h10h168v-693h-10v0zM321 125.999c28.667 1.33301 52.4971 12.165 71.4971 32.498s28.5 48.166 28.5 83.499c0 34.667 -9.33301 62.334 -28 83.001s-42.667 31.334 -72 32.001
c-28.667 -1.33301 -50.167 -9.5 -64.5 -24.5s-24.166 -31.5 -29.499 -49.5c-2 -7.33301 -3.5 -14.5 -4.5 -21.5s-1.5 -13.5 -1.5 -19.5s0.5 -12.5 1.5 -19.5s2.5 -13.833 4.5 -20.5c4.66699 -18.667 14.334 -35.667 29.001 -51s36.334 -23.666 65.001 -24.999v0z" />
    <glyph glyph-name="glyph85" unicode="r" horiz-adv-x="423" 
d="M234 433c9.33301 11.333 19.499 20.9971 30.499 28.9971s22.167 14.333 33.5 19c10.667 4.66699 21.5 8 32.5 10s21.167 3 30.5 3h10c2.66699 0 5.83398 -0.166992 9.50098 -0.5s7.5 -0.5 11.5 -0.5c1.33301 -0.666992 2.66602 -1 3.99902 -1h4
c3.33301 -0.666992 6.5 -1.16699 9.5 -1.5s5.16699 -0.5 6.5 -0.5v-154h-10c-2 1.33301 -4 2.33301 -6 3s-4.33301 1.33398 -7 2.00098c-4 1.33301 -8 2.16602 -12 2.49902s-8.66699 0.5 -14 0.5c-32.667 -0.666992 -57.667 -8.16699 -75 -22.5
s-29.666 -30.166 -36.999 -47.499c-7.33301 -15.333 -11.5 -29.666 -12.5 -42.999s-1.5 -21.666 -1.5 -24.999v-206h-10h-175v483h10h168v-50v0z" />
    <glyph glyph-name="glyph86" unicode="s" horiz-adv-x="476" 
d="M21 30l48.999 121.002h10c4 -2.66699 8.5 -5.33398 13.5 -8.00098l16.5 -9c13.333 -6.66699 28.5 -12.834 45.5 -18.501s34.833 -8.83398 53.5 -9.50098c12 0.666992 21.333 2.83398 28 6.50098s11.334 7.5 14.001 11.5c2 3.33301 3.33301 6.33301 4 9s1 5 1 7
c0 10.667 -3.66699 18.667 -11 24s-15.333 9.33301 -24 12l-10.5 2l-10.5 2c-48 7.33301 -87.167 21.333 -117.5 42s-45.5 57 -45.5 109c0 6.66699 0.333008 13.667 1 21s2 14.666 4 21.999c7.33301 32 25.5 61.167 54.5 87.5s75.167 39.5 138.5 39.5h10
c27.333 0 57.166 -3 89.499 -9s65.5 -17 99.5 -33l-55 -112h-10c-2 1.33301 -3.83301 2.5 -5.5 3.5s-3.16699 2.16699 -4.5 3.5c-17.333 10.667 -34.333 18.5 -51 23.5s-31.667 7.83301 -45 8.5c-14 -0.666992 -24.333 -3.33398 -31 -8.00098s-11 -9.66699 -13 -15
c-2 -3.33301 -3.16699 -6.66602 -3.5 -9.99902s-0.5 -6 -0.5 -8v-4v-4c1.33301 -7.33301 6.5 -14.333 15.5 -21s28.167 -11.667 57.5 -15c8 -0.666992 18 -2 30 -4s24.333 -5.33301 37 -10c21.333 -8.66699 41 -23 59 -43s27 -50 27 -90c0 -43.333 -15.333 -83 -46 -119
s-86.667 -54 -168 -54l-10 -1c-40.667 0.666992 -76.667 4.83398 -108 12.501s-60.666 20.167 -87.999 37.5v0z" />
    <glyph glyph-name="glyph87" unicode="t" horiz-adv-x="360" 
d="M70 0v357h-63v126h63v133h10h175v-133h98v-126h-98v-357h-10h-175v0z" />
    <glyph glyph-name="glyph88" unicode="u" horiz-adv-x="612" 
d="M59 483l175.001 -0.000976562v-264c0 -5.33301 0.166992 -11.5 0.5 -18.5s1.5 -14.167 3.5 -21.5c3.33301 -12.667 9.83301 -24.5 19.5 -35.5s25.834 -16.833 48.501 -17.5c22.667 0.666992 38.834 6.5 48.501 17.5s16.167 22.833 19.5 35.5
c2 7.33301 3.16699 14.5 3.5 21.5s0.5 13.167 0.5 18.5v264h10h175v-260c0 -13.333 -0.833008 -29.333 -2.5 -48s-6.16699 -37.667 -13.5 -57c-12.667 -34 -36.334 -65 -71.001 -93s-89.667 -42 -165 -42l-10 -1c-74.667 0.666992 -129.334 14.834 -164.001 42.501
s-58.334 58.5 -71.001 92.5c-7.33301 20 -12 39.5 -14 58.5s-3 34.833 -3 47.5v260h10v0z" />
    <glyph glyph-name="glyph89" unicode="v" horiz-adv-x="548" 
d="M213 0l-224 483h10h189l100 -246l83 246h10h178l-199 -483h-10h-137v0z" />
    <glyph glyph-name="glyph90" unicode="w" horiz-adv-x="794" 
d="M397 237l-77 -237h-10h-125l-196 483h10h172l86 -244l75 244h10h120l75 -244l86 244h10h172l-196 -483h-10h-125l-77 237v0z" />
    <glyph glyph-name="glyph91" unicode="x" horiz-adv-x="612" 
d="M-7 0l212 258l-177 225h10h214l72 -121l74 121h10h204l-182 -227l189 -256h-10h-203l-93 150l-98 -150h-10h-212v0z" />
    <glyph glyph-name="glyph92" unicode="y" horiz-adv-x="618" 
d="M-1 483h203l128 -248l108 248h10h181l-350 -693h-10h-189l147 280l-238 413h10v0z" />
    <glyph glyph-name="glyph93" unicode="z" horiz-adv-x="528" 
d="M38 483h483l-248 -357h227v-126h-10h-490l245 357h-217v126h10v0z" />
    <glyph glyph-name="glyph94" unicode="{" horiz-adv-x="493" 
d="M100 196l-0.000976562 99.998c4.66699 0.666992 9.83398 1.5 15.501 2.5s11.5 2.83301 17.5 5.5c15.333 6.66699 29.333 19.5 42 38.5s19 48.5 19 88.5c0 23.333 -0.166992 38.333 -0.5 45s-0.833008 11.667 -1.5 15c-0.666992 2.66699 -1.16699 7.16699 -1.5 13.5
s-0.5 20.5 -0.5 42.5c0 52 11.667 89.833 35 113.5s49 39.167 77 46.5c12 3.33301 23.667 5.66602 35 6.99902s22 2 32 2h10h7.5h6.5v-80c-4 -0.666992 -8.16699 -1.5 -12.5 -2.5s-8.5 -2.16699 -12.5 -3.5c-15.333 -5.33301 -29.333 -15 -42 -29s-19 -34 -19 -60
c0 -8.66699 0.166992 -17.334 0.5 -26.001s0.833008 -17.334 1.5 -26.001c0.666992 -4.66699 1.16699 -9 1.5 -13s0.5 -8.33301 0.5 -13c1.33301 -14.667 2.16602 -29.167 2.49902 -43.5s0.5 -28.833 0.5 -43.5c0 -7.33301 -0.666992 -15.5 -2 -24.5s-4 -18.167 -8 -27.5
c-6 -14 -16.667 -27.833 -32 -41.5s-38.333 -24.5 -69 -32.5v-8c52.667 -16.667 84.334 -35.667 95.001 -57s16 -43.666 16 -66.999c0 -14.667 -0.166992 -29.5 -0.5 -44.5s-1.16602 -29.833 -2.49902 -44.5c-0.666992 -12.667 -1.5 -25.667 -2.5 -39
s-1.5 -26.666 -1.5 -39.999c0 -4 0.5 -10.167 1.5 -18.5s3.83301 -17.166 8.5 -26.499c5.33301 -10.667 13.833 -20.5 25.5 -29.5s28.5 -15.167 50.5 -18.5v-81h-10c-2.66699 0.666992 -5.33398 1 -8.00098 1h-9c-7.33301 0 -14.833 0.333008 -22.5 1s-15.5 1.66699 -23.5 3
c-32.667 6 -62.5 20.833 -89.5 44.5s-40.5 63.834 -40.5 120.501c0 9.33301 0.166992 18.833 0.5 28.5s0.833008 18.834 1.5 27.501c0 5.33301 0.166992 10.333 0.5 15s0.5 9.66699 0.5 15c0.666992 4.66699 1 9.5 1 14.5v14.5c0 7.33301 -0.5 16.333 -1.5 27
s-3.16699 22 -6.5 34c-5.33301 17.333 -14.5 33.5 -27.5 48.5s-32.5 23.5 -58.5 25.5v0z" />
    <glyph glyph-name="glyph95" unicode="|" horiz-adv-x="210" 
d="M50 -224v1053h10h100v-1053h-10h-100v0z" />
    <glyph glyph-name="glyph96" unicode="}" horiz-adv-x="493" 
d="M393 296v-99.998c-4.66699 -0.666992 -9.83398 -1.5 -15.501 -2.5s-11.5 -2.83301 -17.5 -5.5c-15.333 -6.66699 -29.333 -19.5 -42 -38.5s-19 -48.5 -19 -88.5c0 -23.333 0.166992 -38.333 0.5 -45s0.833008 -11.667 1.5 -15c0.666992 -2 1.16699 -6.16699 1.5 -12.5
s0.5 -20.5 0.5 -42.5c0 -51.333 -11.5 -89 -34.5 -113s-48.5 -40 -76.5 -48c-11.333 -3.33301 -22.666 -5.66602 -33.999 -6.99902s-21.666 -2 -30.999 -2l-10 -1c-1.33301 0.666992 -2.83301 1 -4.5 1h-4.5c-1.33301 0.666992 -2.66602 1 -3.99902 1h-4v79
c4 1.33301 8.16699 2.5 12.5 3.5s8.5 2.16699 12.5 3.5c15.333 5.33301 29.333 15 42 29s19 34 19 60c0 8.66699 -0.166992 17.334 -0.5 26.001s-0.833008 17 -1.5 25c-0.666992 4.66699 -1 9.16699 -1 13.5s-0.333008 8.5 -1 12.5l-2 43.5
c-0.666992 14.333 -1 28.833 -1 43.5c0 7.33301 0.666992 15.5 2 24.5s4 18.167 8 27.5c6 14 16.667 27.833 32 41.5s38.333 24.5 69 32.5v8c-52.667 17.333 -84.334 36.666 -95.001 57.999s-16 43.333 -16 66c0 15.333 0.333008 30.333 1 45l2 44
c1.33301 13.333 2.33301 26.666 3 39.999s1 26.666 1 39.999c0 4 -0.5 10.167 -1.5 18.5s-3.83301 17.166 -8.5 26.499c-5.33301 10.667 -13.833 20.5 -25.5 29.5s-28.5 15.167 -50.5 18.5v80h4.5c1.66699 0 3.5 0.333008 5.5 1h4.5h5.5h10
c7.33301 0 14.666 -0.333008 21.999 -1s14.666 -1.66699 21.999 -3c32.667 -6 62.334 -21.167 89.001 -45.5s40 -64.5 40 -120.5c0 -9.33301 -0.166992 -18.833 -0.5 -28.5s-0.833008 -19.167 -1.5 -28.5c0 -4.66699 -0.166992 -9.5 -0.5 -14.5s-0.5 -9.83301 -0.5 -14.5
c-0.666992 -5.33301 -1 -10.333 -1 -15v-15c0 -7.33301 0.5 -16.333 1.5 -27s3.16699 -22 6.5 -34c5.33301 -17.333 14.5 -33.5 27.5 -48.5s32.5 -23.5 58.5 -25.5v0z" />
    <glyph glyph-name="glyph97" unicode="~" horiz-adv-x="610" 
d="M50 290l-0.000976562 99.999c12 12.667 25.667 23.167 41 31.5s31 13.833 47 16.5c3.33301 0.666992 7 1.16699 11 1.5s7.66699 0.5 11 0.5h10c16.667 0 34 -2.66699 52 -8s37.333 -11.666 58 -18.999l98.5 -36.5c25.667 -9.66699 47.834 -15.167 66.501 -16.5
c14.667 0.666992 30.667 4.16699 48 10.5s36.333 19.5 57 39.5h10v-100c-12 -12.667 -25.667 -23.167 -41 -31.5s-31 -13.833 -47 -16.5c-3.33301 -0.666992 -7 -1.16699 -11 -1.5s-7.66699 -0.5 -11 -0.5h-10c-22.667 0 -48.167 5.16699 -76.5 15.5l-103.5 37.5l-54 18.5
c-15.333 5 -29.333 7.83301 -42 8.5c-14 -0.666992 -29.5 -4.16699 -46.5 -10.5s-36.167 -19.5 -57.5 -39.5h-10v0z" />
    <glyph glyph-name="uni007F" horiz-adv-x="10" 
 />
    <glyph glyph-name="F" horiz-adv-x="786" 
d="M605 700l0.000976562 -161h-238v-156c5.33301 4 10.833 7.66699 16.5 11l16.5 10c22 12.667 44 22 66 28s44.667 9 68 9h10c11.333 0 23.666 -0.833008 36.999 -2.5s27 -4.5 41 -8.5c34 -10 65.167 -30.333 93.5 -61s42.5 -79 42.5 -145
c0 -77.333 -18.333 -132.166 -55 -164.499s-77 -51.833 -121 -58.5l-28 -2c-9.33301 -0.666992 -18.666 -1 -27.999 -1l-10 -1c-9.33301 0.666992 -18.5 1.16699 -27.5 1.5s-17.5 0.833008 -25.5 1.5v126h10c0.666992 0 1.5 -0.166992 2.5 -0.5s1.83301 -0.5 2.5 -0.5h2.5
h2.5h4c1.33301 0 2.66602 0.333008 3.99902 1c15.333 1.33301 29.333 7.16602 42 17.499s19 27.833 19 52.5c0 23.333 -7.83301 41.833 -23.5 55.5s-35.167 20.834 -58.5 21.501c-5.33301 0 -10.833 -0.666992 -16.5 -2s-11.167 -3 -16.5 -5
c-13.333 -4.66699 -26 -10.834 -38 -18.501s-22.667 -16.167 -32 -25.5v-222h-10h-196v539h-154v161h10h588v0z" />
    <glyph glyph-name="uni0081" horiz-adv-x="507" 
d="M63 0v700h10h420v-168h-224v-532h-10h-196v0z" />
    <glyph glyph-name="D" horiz-adv-x="710" 
d="M63 0v700h10h196v-280l201 280h10h230l-266 -339l273 -361h-10h-245l-193 286v-286h-10h-196v0z" />
    <glyph glyph-name="N" horiz-adv-x="787" 
d="M161 0l0.00195312 539.001h-154v161h10h588v-161h-238v-156c25.333 18 53.166 33.333 83.499 46s61.833 19 94.5 19h10c10 0 20.667 -0.666992 32 -2s23 -3.66602 35 -6.99902c29.333 -9.33301 56 -29 80 -59s36 -79.667 36 -149v-231h-10h-196v195
c0 34 -6.33301 56.5 -19 67.5s-28.334 16.833 -47.001 17.5c-14 -0.666992 -29.5 -5.33398 -46.5 -14.001s-34.5 -23.334 -52.5 -44.001v-222h-10h-196v0z" />
    <glyph glyph-name="bullet" horiz-adv-x="760" 
d="M697 700v-700h-228v-160h-10h-168v160h-228v700h10h196v-532h222v532h10h196v0z" />
    <glyph glyph-name="guilsinglleft" horiz-adv-x="651" 
d="M56 0l0.000976562 566.999h-84v98h84v70h10h175v-70h210v-98h-210v-126c8 9.33301 16.667 17.333 26 24s18.666 12 27.999 16c20.667 10 40 15.833 58 17.5s30 2.5 36 2.5h10c71.333 0 124.666 -23.667 159.999 -71s53 -104 53 -170c0 -73.333 -16 -140.5 -48 -201.5
s-67 -114.167 -105 -159.5l-25.5 -27.5l-24.5 -25.5l-10 -1l-110 86c42.667 49.333 76.334 99.833 101.001 151.5s37 107.167 37 166.5c0 4 -0.166992 8.16699 -0.5 12.5s-0.5 8.5 -0.5 12.5c-3.33301 24.667 -11.5 47.334 -24.5 68.001s-34.5 31.667 -64.5 33
c-30.667 -1.33301 -54 -14.5 -70 -39.5s-24.667 -52.167 -26 -81.5v-5v-4v-245h-10h-175v0z" />
    <glyph glyph-name="O" horiz-adv-x="608" 
d="M56 0v483h10h175v-184l136 184h10h214l-199 -227l217 -256h-10h-221l-147 200v-200h-10h-175v0z" />
    <glyph glyph-name="tilde" horiz-adv-x="619" 
d="M56 0l-0.00195312 567h-84v98h84v70h10h175v-70h210v-98h-210v-128c17.333 19.333 38.5 34.5 63.5 45.5s52.833 16.5 83.5 16.5h10c53.333 0 92 -13.667 116 -41s39.667 -57.333 47 -90c4 -16 6.5 -31.667 7.5 -47s1.5 -29 1.5 -41v-282h-10h-175v266
c0 4.66699 -0.166992 10.667 -0.5 18s-1.16602 14.666 -2.49902 21.999c-2.66699 12 -8 23.167 -16 33.5s-20.667 16.166 -38 17.499c-25.333 -1.33301 -46.166 -12.666 -62.499 -33.999s-24.5 -49.666 -24.5 -84.999v-238h-10h-175v0z" />
    <glyph glyph-name="uni00A0" unicode="&#xa0;" horiz-adv-x="10" 
 />
    <glyph glyph-name="Z" unicode="&#xa1;" horiz-adv-x="829" 
d="M231 0l95 193l-263 507h10h231l131 -282l108 282h10h213l-315 -700h-10h-210v0zM218 858l113.998 42h10c4 -15.333 10 -27 18 -35s16.667 -13.667 26 -17c6 -2.66699 12 -4.5 18 -5.5s11.333 -1.5 16 -1.5s10 0.5 16 1.5s12 2.83301 18 5.5c9.33301 3.33301 18 9 26 17
s14 19.667 18 35h10l114 -42c-17.333 -40 -44.166 -68.667 -80.499 -86s-75.166 -26 -116.499 -26h-10c-46 0 -86.667 9.83301 -122 29.5s-60.333 47.167 -75 82.5v0z" />
    <glyph glyph-name="cent" unicode="&#xa2;" horiz-adv-x="618" 
d="M-1 483h203l128 -248l108 248h10h181l-350 -693h-10h-189l147 280l-238 413h10v0zM116 658l114.001 42h10c4.66699 -15.333 11.167 -27.166 19.5 -35.499s17.166 -14.166 26.499 -17.499c6 -2 12 -3.5 18 -4.5s11.333 -1.5 16 -1.5s10 0.5 16 1.5s12 2.83301 18 5.5
c9.33301 3.33301 18 9 26 17s14 19.667 18 35h10l114 -42c-16 -36.667 -40.667 -63.834 -74 -81.501s-68.333 -27.5 -105 -29.5c-2.66699 -0.666992 -5.5 -1 -8.5 -1h-9.5h-10h-4.5h-5.5c-38.667 1.33301 -75.667 10.666 -111 27.999s-61.333 45.333 -78 84v0z" />
    <glyph glyph-name="endash" unicode="&#xa3;" horiz-adv-x="500" 
d="M0 102l125.999 101.004h10c0.666992 -2.66699 1.5 -5.33398 2.5 -8.00098s2.16699 -5.33398 3.5 -8.00098c4.66699 -9.33301 11.167 -17.833 19.5 -25.5s19.5 -12.167 33.5 -13.5c20 1.33301 32.167 9.16602 36.5 23.499s6.5 31.166 6.5 50.499v478h10h196v-458
c0 -14.667 -0.833008 -31.834 -2.5 -51.501s-5.5 -40.167 -11.5 -61.5c-10 -37.333 -30.167 -71.333 -60.5 -102s-78.166 -46 -143.499 -46l-10 -1v1v0c-6 0 -22.167 1.5 -48.5 4.5s-54.833 13.833 -85.5 32.5c-14.667 8.66699 -29 19.834 -43 33.501s-27 30.5 -39 50.5v0z
" />
    <glyph glyph-name="currency" unicode="&#xa4;" horiz-adv-x="702" 
d="M50 124l73 74c-12.667 19.333 -23.667 41.333 -33 66s-14 53.334 -14 86.001c0 32 4.66699 60.667 14 86s20.333 47.333 33 66l-73 74l70 70h10l70 -69c18.667 12 40 22.167 64 30.5s51.333 12.5 82 12.5h10c31.333 0 58.833 -4.16699 82.5 -12.5
s44.834 -18.5 63.501 -30.5l70 69h10l70 -70l-73 -74c13.333 -18.667 24.5 -40.667 33.5 -66s13.5 -54 13.5 -86c0 -32.667 -4.5 -61.334 -13.5 -86.001s-20.167 -46.667 -33.5 -66l73 -74l-70 -70h-10l-70 69c-18.667 -12 -39.834 -22.167 -63.501 -30.5
s-51.167 -12.5 -82.5 -12.5h-10c-30.667 0 -58 4.16699 -82 12.5s-45.333 18.5 -64 30.5l-70 -69h-10l-70 70v0zM166 350c0 -52.667 18.167 -97.168 54.5 -133.501s79.833 -55.166 130.5 -56.499c52 1.33301 95.833 20.666 131.5 57.999s53.5 81.333 53.5 132
c0 51.333 -17.833 95.5 -53.5 132.5s-79.5 56.167 -131.5 57.5c-50.667 -1.33301 -94.167 -20.166 -130.5 -56.499s-54.5 -80.833 -54.5 -133.5v0z" />
    <glyph glyph-name="emdash" unicode="&#xa5;" horiz-adv-x="521" 
d="M63 0v700h280v140h10h154v-308h-238v-532h-10h-196v0z" />
    <glyph glyph-name="circumflex" unicode="&#xa6;" horiz-adv-x="340" 
d="M63 84c0 28.667 10.167 52.834 30.5 72.501s44.166 29.5 71.499 29.5h10c27.333 0 51.166 -9.83301 71.499 -29.5s30.5 -43.834 30.5 -72.501s-10.167 -52.667 -30.5 -72s-44.166 -29 -71.499 -29l-10 -1c-27.333 0.666992 -51.166 10.667 -71.499 30
s-30.5 43.333 -30.5 72v0zM63 399c0 27.333 9.83105 51.168 29.498 71.501s43.834 30.5 72.501 30.5h10c27.333 0 51.166 -9.83301 71.499 -29.5s30.5 -43.834 30.5 -72.501s-10.167 -52.834 -30.5 -72.501s-44.166 -29.5 -71.499 -29.5h-10
c-27.333 0 -51.166 9.83301 -71.499 29.5s-30.5 43.834 -30.5 72.501v0z" />
    <glyph glyph-name="scaron" unicode="&#xa7;" horiz-adv-x="606" 
d="M65 6l176.004 0.00585938c0 -0.666992 -0.166992 -1.66699 -0.5 -3s-0.5 -2.33301 -0.5 -3v-3v-3v-4v-4c2 -14 8 -26.833 18 -38.5s25.333 -17.834 46 -18.501c17.333 0.666992 30.5 6.5 39.5 17.5s13.5 24.167 13.5 39.5c0 23.333 -9.83301 38.666 -29.5 45.999
s-43.834 13 -72.501 17l-42 7c-16 2.66699 -32.333 7 -49 13c-32 10.667 -61.5 29 -88.5 55s-40.5 65 -40.5 117c0 34 8.66699 65.5 26 94.5s42.666 49.833 75.999 62.5l-13.5 9c-5 3.33301 -10.167 7.33301 -15.5 12c-12 10.667 -23 24.667 -33 42s-15 38.666 -15 63.999
c0 6 0.333008 12.167 1 18.5s1.66699 12.833 3 19.5c8.66699 39.333 31.334 75.333 68.001 108s91 49 163 49h10c81.333 0 139.666 -17.667 174.999 -53s57.333 -74 66 -116c1.33301 -6 2.5 -12.333 3.5 -19s1.83301 -13 2.5 -19h-10h-168v11
c0 2.66699 -0.333008 6.33398 -1 11.001s-2.33398 9.33398 -5.00098 14.001c-4 7.33301 -10.333 14.166 -19 20.499s-21.334 9.83301 -38.001 10.5c-16 -0.666992 -29.667 -6.16699 -41 -16.5s-17 -25.166 -17 -44.499c0 -16.667 6.16699 -29 18.5 -37
s25.833 -13.667 40.5 -17c6 -0.666992 11.833 -1.5 17.5 -2.5s10.834 -1.83301 15.501 -2.5c11.333 -1.33301 26.5 -3.83301 45.5 -7.5s38.5 -9.83398 58.5 -18.501c30.667 -12.667 58.667 -32.834 84 -60.501s38 -67.5 38 -119.5v-8
c0 -2.66699 -0.333008 -5.33398 -1 -8.00098c-2.66699 -26.667 -11.667 -52.167 -27 -76.5s-36.333 -43.5 -63 -57.5c17.333 -8 30.666 -18 39.999 -30s16.333 -24.333 21 -37c3.33301 -10 5.5 -19.667 6.5 -29s1.5 -18 1.5 -26c0 -46.667 -21.5 -88 -64.5 -124
s-105.5 -54 -187.5 -54l-10 -1c-72 0.666992 -126 18.167 -162 52.5s-58 72.166 -66 113.499c-1.33301 6.66699 -2.33301 13.167 -3 19.5s-1 12.166 -1 17.499h10v0zM303.004 174.006c22 1.33301 40.667 9.5 56 24.5s23 34.833 23 59.5c0 25.333 -7.5 45.5 -22.5 60.5
s-33.833 22.833 -56.5 23.5c-22 -0.666992 -40.667 -8.5 -56 -23.5s-23 -35.167 -23 -60.5c0 -24.667 7.5 -44.5 22.5 -59.5s33.833 -23.167 56.5 -24.5v0z" />
    <glyph glyph-name="H" unicode="&#xa8;" horiz-adv-x="535" 
d="M63 0v700h10h420v-168h-224v-98h203v-154h-203v-112h224v-168h-10h-420v0zM90 823c0 22.667 7.66699 41.167 23 55.5s33.333 21.5 54 21.5h10c21.333 0 39.5 -7.33301 54.5 -22s22.5 -33 22.5 -55c0 -20.667 -7.16699 -38.667 -21.5 -54s-32.833 -23 -55.5 -23h-10
c-21.333 0 -39.5 7.66699 -54.5 23s-22.5 33.333 -22.5 54v0zM300 823c0 22.667 7.66699 41.167 23 55.5s33.333 21.5 54 21.5h10c21.333 0 39.5 -7.33301 54.5 -22s22.5 -33 22.5 -55c0 -20.667 -7.16699 -38.667 -21.5 -54s-32.833 -23 -55.5 -23h-10
c-20.667 0 -38.667 7.5 -54 22.5s-23 33.167 -23 54.5v0z" />
    <glyph glyph-name="I" unicode="&#xa9;" horiz-adv-x="850" 
d="M50 350c0 100 35.833 186.668 107.5 260.001s159.167 110 262.5 110h10c101.333 0 188.333 -35.833 261 -107.5s109 -159.167 109 -262.5c0 -102.667 -36.333 -189.834 -109 -261.501s-159.667 -107.5 -261 -107.5l-10 -1c-103.333 0.666992 -190.833 37.5 -262.5 110.5
s-107.5 159.5 -107.5 259.5v0zM122 350.001c0 -85.333 29.833 -157.669 89.5 -217.002s130.834 -89.666 213.501 -90.999c85.333 1.33301 157.166 32.333 215.499 93s87.5 132.334 87.5 215.001c0 83.333 -29.167 155.166 -87.5 215.499s-130.166 91.166 -215.499 92.499
c-82.667 -1.33301 -153.834 -31.666 -213.501 -90.999s-89.5 -131.666 -89.5 -216.999v0zM575 160.998l-22.498 -11.001c-7 -3.33301 -13.833 -6.33301 -20.5 -9c-14 -5.33301 -28 -9.16602 -42 -11.499s-30.333 -3.5 -49 -3.5h-10c-66.667 0 -119.834 22.167 -159.501 66.5
s-59.5 96.833 -59.5 157.5v6.5v7.5c3.33301 52 24 99.833 62 143.5s90.333 65.5 157 65.5h10c25.333 0 49.166 -3.16699 71.499 -9.5s43.166 -15.5 62.499 -27.5v-117h-10c-2 2 -4.33301 3.83301 -7 5.5s-5.33398 3.16699 -8.00098 4.5
c-10 7.33301 -21.833 13.833 -35.5 19.5s-28.5 8.83398 -44.5 9.50098c-3.33301 0 -6.66602 -0.166992 -9.99902 -0.5s-6.66602 -0.833008 -9.99902 -1.5c-22 -4 -42.333 -14.167 -61 -30.5s-28 -41.5 -28 -75.5c0 -33.333 9.5 -59.5 28.5 -78.5s45.5 -29.167 79.5 -30.5
c10.667 0.666992 21.334 2.16699 32.001 4.5s21.334 6.16602 32.001 11.499c5.33301 2.66699 10.666 5.66699 15.999 9s10.666 7 15.999 11h10v-116v0z" />
    <glyph glyph-name="J" unicode="&#xaa;" horiz-adv-x="630" 
d="M462 427l0.00292969 -140.001h-231c3.33301 -41.333 19.666 -76.833 48.999 -106.5s70 -45.167 122 -46.5c32.667 0.666992 64 6.83398 94 18.501s57.333 28.5 82 50.5h10v-175c-14 -8 -28.333 -14.667 -43 -20s-29.334 -10 -44.001 -14
c-19.333 -4.66699 -38.333 -8 -57 -10s-36.334 -3 -53.001 -3l-10 -1c-94 0.666992 -175.667 34 -245 100s-104 159.333 -104 280c0 109.333 34 196.666 102 261.999s150 98 246 98h10c15.333 0 31.333 -1 48 -3s33.667 -5 51 -9s34.333 -9.16699 51 -15.5
s32.667 -13.5 48 -21.5v-172h-10c-22 20 -46.167 35.5 -72.5 46.5s-53.166 17.5 -80.499 19.5c-2.66699 0.666992 -5.16699 1 -7.5 1h-6.5c-45.333 -0.666992 -83.833 -14.167 -115.5 -40.5s-50.834 -59.166 -57.501 -98.499h224v0z" />
    <glyph glyph-name="ampersand" unicode="&#xab;" horiz-adv-x="549" 
d="M198 21l-170 231l170 231h10l96 -59l-126 -172l126 -171l-96 -60h-10v0zM415 21l-170 231l170 231h10l96 -59l-126 -172l126 -171l-96 -60h-10v0z" />
    <glyph glyph-name="quotesingle" unicode="&#xac;" horiz-adv-x="650" 
d="M50 350v100h10h540v-250h-10h-120v150h-420v0z" />
    <glyph glyph-name="daggerdbl" unicode="&#xad;" horiz-adv-x="430" 
d="M50 350h340v-154h-10h-340v154h10v0z" />
    <glyph glyph-name="dagger" unicode="&#xae;" horiz-adv-x="856" 
d="M53 350c0 103.333 36.667 190.833 110 262.5s160 107.5 260 107.5h10c100 0 186.667 -35.833 260 -107.5s110 -159.167 110 -262.5s-36.667 -190.666 -110 -261.999s-160 -107 -260 -107l-10 -1c-100 0.666992 -186.667 36.667 -260 108s-110 158.666 -110 261.999v0z
M125 350c0 -85.333 29.833 -157.669 89.5 -217.002s130.834 -89.666 213.501 -90.999c85.333 1.33301 157.166 32.333 215.499 93s87.5 132.334 87.5 215.001c0 85.333 -29.667 157.666 -89 216.999s-130.666 89.666 -213.999 90.999
c-82.667 -1.33301 -153.834 -31.666 -213.501 -90.999s-89.5 -131.666 -89.5 -216.999v0zM250 142.997l0.000976562 413.001h10h194c45.333 0 80.666 -12.333 105.999 -37s38 -55.667 38 -93c0 -30.667 -6.33301 -54 -19 -70s-26.667 -27.333 -42 -34
c-4.66699 -2 -9.16699 -3.83301 -13.5 -5.5s-8.5 -2.83398 -12.5 -3.50098l101 -170h-10h-135l-81 154v-154h-10h-126v0zM386.001 387.998l41 -0.000976562h3.5c1 0 1.83301 0.333008 2.5 1c6.66699 0.666992 12.5 3.83398 17.5 9.50098s7.5 14.167 7.5 25.5v4v4
c-1.33301 6.66699 -4.5 12.667 -9.5 18s-15.5 8 -31.5 8h-31v-70v0z" />
    <glyph glyph-name="macron" unicode="&#xaf;" horiz-adv-x="398" 
d="M96 0v700h10h196v-700h-10h-196v0zM20 823c0 22.667 7.66699 41.167 23 55.5s33.333 21.5 54 21.5h10c21.333 0 39.5 -7.33301 54.5 -22s22.5 -33 22.5 -55c0 -20.667 -7.16699 -38.667 -21.5 -54s-32.833 -23 -55.5 -23h-10c-21.333 0 -39.5 7.66699 -54.5 23
s-22.5 33.333 -22.5 54v0zM214 823c0 22.667 7.66699 41.167 23 55.5s33.333 21.5 54 21.5h10c22 0 40.333 -7.5 55 -22.5s22 -33.167 22 -54.5c0 -20.667 -7.16699 -38.667 -21.5 -54s-32.833 -23 -55.5 -23h-10c-21.333 0 -39.5 7.66699 -54.5 23s-22.5 33.333 -22.5 54v0
z" />
    <glyph glyph-name="degree" unicode="&#xb0;" horiz-adv-x="346" 
d="M56 609c0 31.333 11 57.833 33 79.5s48.333 32.5 79 32.5h10c30.667 0 57 -10.833 79 -32.5s33 -48.167 33 -79.5s-11 -57.833 -33 -79.5s-48.333 -32.5 -79 -32.5h-10c-30.667 0 -57 10.833 -79 32.5s-33 48.167 -33 79.5v0zM115 609
c0 -2.66699 0.168945 -5.33301 0.501953 -8s1.16602 -5.66699 2.49902 -9c2.66699 -10.667 8.66699 -20.667 18 -30s21.666 -14.666 36.999 -15.999c17.333 1.33301 31.333 8.16602 42 20.499s16 26.5 16 42.5c0 17.333 -5.5 31.833 -16.5 43.5s-24.833 18.167 -41.5 19.5
c-16 -1.33301 -28.667 -7 -38 -17s-15.333 -20.667 -18 -32c-0.666992 -2.66699 -1.16699 -5.16699 -1.5 -7.5s-0.5 -4.5 -0.5 -6.5v0z" />
    <glyph glyph-name="at" unicode="&#xb1;" horiz-adv-x="650" 
d="M50 50v100h10h540v-100h-10h-540v0zM370 210h-100v180h-220v100h220v190h10h100v-190h220v-100h-220v-180h-10v0z" />
    <glyph glyph-name="P" unicode="&#xb2;" horiz-adv-x="332" 
d="M63 0v700h10h196v-700h-10h-196v0z" />
    <glyph glyph-name="S" unicode="&#xb3;" horiz-adv-x="298" 
d="M67 483h175v-483h-10h-175v483h10v0zM53 623c0 25.333 9.00098 46.832 27.001 64.499s39.333 26.5 64 26.5h10c25.333 0 46.833 -8.66699 64.5 -26s26.5 -39 26.5 -65c0 -24.667 -8.66699 -46 -26 -64s-39 -27 -65 -27h-10c-23.333 0 -42.333 6.66699 -57 20
s-24.334 28 -29.001 44c-2 4.66699 -3.33301 9.33398 -4 14.001s-1 9 -1 13v0z" />
    <glyph glyph-name="T" unicode="&#xb4;" horiz-adv-x="409" 
d="M56 0v483h231v127h10h105v-253h-161v-357h-10h-175v0z" />
    <glyph glyph-name="U" unicode="&#xb5;" 
d="M570 483l0.00195312 -483h-10h-175v35c-4 -6.66699 -8 -12.334 -12 -17.001s-8.33301 -8.66699 -13 -12c-8 -6 -15.833 -10 -23.5 -12s-13.834 -3 -18.501 -3l-10 -1c-4.66699 0.666992 -10.834 2 -18.501 4s-15.5 6 -23.5 12c-4.66699 3.33301 -9 7.33301 -13 12
s-8 10.334 -12 17.001v-245h-10h-175v693h10h175v-230v-1.5v-1.5c0.666992 -28 6.5 -53.833 17.5 -77.5s29.167 -36.5 54.5 -38.5c25.333 2 43.5 14.833 54.5 38.5s16.833 49.5 17.5 77.5v1.5v1.5v230h10h175v0z" />
    <glyph glyph-name="V" unicode="&#xb6;" horiz-adv-x="592" 
d="M203 -210l-0.00292969 595c-51.333 1.33301 -91.666 17.5 -120.999 48.5s-46.666 64.833 -51.999 101.5c-0.666992 4 -1.16699 8.16699 -1.5 12.5s-0.5 8.5 -0.5 12.5v7c0 2.66699 0.333008 5 1 7c2.66699 39.333 18.834 75.5 48.501 108.5s71.5 50.5 125.5 52.5h10h126
v-945h-10h-126v0zM412.997 -210v945h10h126v-945h-10h-126v0z" />
    <glyph glyph-name="quoteleft" unicode="&#xb8;" horiz-adv-x="602" 
d="M568 147c-13.333 -39.333 -31.833 -70.167 -55.5 -92.5s-48.167 -38.833 -73.5 -49.5c-26 -10 -51 -16.167 -75 -18.5s-42.667 -3.5 -56 -3.5l-10 -1c-72.667 0.666992 -135.5 22.667 -188.5 66s-79.5 108 -79.5 194c0 74.667 23.167 136.5 69.5 185.5
s111.833 73.5 196.5 73.5h10c78.667 0 137 -18.667 175 -56s63.667 -78.333 77 -123c5.33301 -18.667 9 -37 11 -55s3 -34.667 3 -50v-7.5v-6.5h-368v-5c0 -4 0.166992 -8 0.5 -12s0.833008 -8 1.5 -12c4 -21.333 13.667 -41 29 -59s38 -27.333 68 -28
c22.667 1.33301 41.667 7 57 17s25.333 24.333 30 43h10h168v0zM208 297.999h186c-1.33301 24 -9.5 46 -24.5 66s-37.833 30.667 -68.5 32c-27.333 -1.33301 -49.333 -11.5 -66 -30.5s-25.667 -41.5 -27 -67.5v0zM114 615.999c0 22 7.5 40.333 22.5 55s33.167 22 54.5 22h10
c21.333 0 39.5 -7.16699 54.5 -21.5s22.5 -32.833 22.5 -55.5c0 -21.333 -7.5 -39.5 -22.5 -54.5s-33.167 -22.5 -54.5 -22.5h-10c-22.667 0 -41.167 7.66699 -55.5 23s-21.5 33.333 -21.5 54v0zM324 615.999c0 22 7.5 40.333 22.5 55s33.167 22 54.5 22h10
c21.333 0 39.5 -7.16699 54.5 -21.5s22.5 -32.833 22.5 -55.5c0 -21.333 -7.5 -39.5 -22.5 -54.5s-33.167 -22.5 -54.5 -22.5h-10c-22.667 0 -41.167 7.66699 -55.5 23s-21.5 33.333 -21.5 54v0z" />
    <glyph glyph-name="one" unicode="&#xb9;" horiz-adv-x="1207" 
d="M63 0v700h10h206l246 -397v397h10h189v-700h-10h-203l-249 404v-404h-10h-189v0zM812 0v91h10h322v-91h-10h-322v0zM973 147c-51.333 0 -96.833 16.667 -136.5 50s-59.5 82 -59.5 146s19.833 112.667 59.5 146s85.167 50 136.5 50h10c51.333 0 96.833 -16.5 136.5 -49.5
s59.5 -81.833 59.5 -146.5s-19.833 -113.5 -59.5 -146.5s-85.167 -49.5 -136.5 -49.5h-10v0zM978 259c18.667 1.33301 33 10 43 26s15 35.333 15 58c0 27.333 -5.83301 47.833 -17.5 61.5s-25.167 21.167 -40.5 22.5c-15.333 -1.33301 -28.833 -8.83301 -40.5 -22.5
s-17.5 -34.167 -17.5 -61.5c0 -22.667 5 -42 15 -58s24.333 -24.667 43 -26v0z" />
    <glyph glyph-name="G" unicode="&#xba;" horiz-adv-x="502" 
d="M460 7c-3.33301 -1.33301 -7.83789 -2.83203 -13.5049 -4.49902s-12.167 -3.83398 -19.5 -6.50098c-13.333 -3.33301 -29.666 -6.66602 -48.999 -9.99902s-42 -5 -68 -5l-10 -1c-87.333 0.666992 -154.166 27.334 -200.499 80.001s-69.5 114.334 -69.5 185.001
c0 69.333 23.833 129.333 71.5 180s113.834 76 198.501 76h10c19.333 0 40.166 -1.83301 62.499 -5.5s44.833 -9.83398 67.5 -18.501c2.66699 -1.33301 5.5 -2.5 8.5 -3.5s5.83301 -2.16699 8.5 -3.5v-133h-10l-11 8.5c-4 3 -8.33301 5.83301 -13 8.5
c-12.667 8.66699 -27.667 16.5 -45 23.5s-36.666 10.833 -57.999 11.5c-29.333 -0.666992 -55.666 -8.83398 -78.999 -24.501s-37.666 -37.834 -42.999 -66.501h199v-105h-203c3.33301 -25.333 15.333 -46.833 36 -64.5s49.667 -27.167 87 -28.5c18 0.666992 38.333 4 61 10
s46.667 18.333 72 37h10v-140v0z" />
    <glyph glyph-name="bracketleft" unicode="&#xbb;" horiz-adv-x="549" 
d="M133 483l171 -231l-171 -231h-10l-95 60l126 171l-126 172l95 59h10v0zM350 483l171 -231l-171 -231h-10l-95 60l126 171l-126 172l95 59h10v0z" />
    <glyph glyph-name="w" unicode="&#xbc;" horiz-adv-x="298" 
d="M67 483h175v-693h-10h-175v693h10v0zM53 623c0 25.333 9.00098 46.832 27.001 64.499s39.333 26.5 64 26.5h10c25.333 0 46.833 -8.66699 64.5 -26s26.5 -39 26.5 -65c0 -24.667 -8.66699 -46 -26 -64s-39 -27 -65 -27h-10c-23.333 0 -42.333 6.66699 -57 20
s-24.334 28 -29.001 44c-2 4.66699 -3.33301 9.33398 -4 14.001s-1 9 -1 13v0z" />
    <glyph glyph-name="bracketright" unicode="&#xbd;" horiz-adv-x="570" 
d="M511 651l-69.999 -146.999h-10c-3.33301 2.66699 -6.66602 5.5 -9.99902 8.5s-6.66602 5.83301 -9.99902 8.5c-16.667 12.667 -33.334 23.167 -50.001 31.5s-34.334 12.833 -53.001 13.5c-18 -0.666992 -31.667 -4.33398 -41 -11.001s-16 -14.334 -20 -23.001
c-2.66699 -4.66699 -4.33398 -9.33398 -5.00098 -14.001s-1 -8.66699 -1 -12c0 -14.667 5 -26.167 15 -34.5s21.333 -14.5 34 -18.5c6 -2 12 -3.66699 18 -5s11.333 -2.66602 16 -3.99902c12 -2.66699 25.833 -6.16699 41.5 -10.5s31.834 -10.5 48.501 -18.5
c32 -14.667 61.333 -37.5 88 -68.5s40 -76.5 40 -136.5c0 -80.667 -26.5 -139 -79.5 -175s-114.167 -54 -183.5 -54l-10 -1c-18.667 0.666992 -36.334 2.33398 -53.001 5.00098s-33.334 6.66699 -50.001 12c-24.667 8 -49.834 19.667 -75.501 35s-53.5 35.333 -83.5 60
l93 149h10c3.33301 -3.33301 6.66602 -6.5 9.99902 -9.5s6.66602 -6.16699 9.99902 -9.5c18.667 -16 39.5 -31 62.5 -45s46.5 -23 70.5 -27c2.66699 -0.666992 5.33398 -1.16699 8.00098 -1.5s5.33398 -0.5 8.00098 -0.5c18.667 0.666992 32.334 4.33398 41.001 11.001
s14.667 14 18 22c2 4.66699 3.33301 9.33398 4 14.001s1 8.66699 1 12c0 26 -9 44.333 -27 55s-40.333 19.667 -67 27c-1.33301 0.666992 -3 1.16699 -5 1.5s-4 0.833008 -6 1.5c-10.667 2.66699 -22.167 6 -34.5 10s-24.833 8.66699 -37.5 14c-30.667 14 -59 35.5 -85 64.5
s-39 71.833 -39 128.5c0 59.333 21.167 109.333 63.5 150s103.166 61 182.499 61h10c18.667 0 47.334 -3.5 86.001 -10.5s79.334 -25.167 122.001 -54.5c0.666992 -0.666992 1.5 -1.33398 2.5 -2.00098s1.83301 -1.33398 2.5 -2.00098v0z" />
    <glyph glyph-name="R" unicode="&#xbe;" horiz-adv-x="476" 
d="M21 30l48.999 121.002h10c4 -2.66699 8.5 -5.33398 13.5 -8.00098l16.5 -9c13.333 -6.66699 28.5 -12.834 45.5 -18.501s34.833 -8.83398 53.5 -9.50098c12 0.666992 21.333 2.83398 28 6.50098s11.334 7.5 14.001 11.5c2 3.33301 3.33301 6.33301 4 9s1 5 1 7
c0 10.667 -3.66699 18.667 -11 24s-15.333 9.33301 -24 12l-10.5 2l-10.5 2c-48 7.33301 -87.167 21.333 -117.5 42s-45.5 57 -45.5 109c0 6.66699 0.333008 13.667 1 21s2 14.666 4 21.999c7.33301 32 25.5 61.167 54.5 87.5s75.167 39.5 138.5 39.5h10
c27.333 0 57.166 -3 89.499 -9s65.5 -17 99.5 -33l-55 -112h-10c-2 1.33301 -3.83301 2.5 -5.5 3.5s-3.16699 2.16699 -4.5 3.5c-17.333 10.667 -34.333 18.5 -51 23.5s-31.667 7.83301 -45 8.5c-14 -0.666992 -24.333 -3.33398 -31 -8.00098s-11 -9.66699 -13 -15
c-2 -3.33301 -3.16699 -6.66602 -3.5 -9.99902s-0.5 -6 -0.5 -8v-4v-4c1.33301 -7.33301 6.5 -14.333 15.5 -21s28.167 -11.667 57.5 -15c8 -0.666992 18 -2 30 -4s24.333 -5.33301 37 -10c21.333 -8.66699 41 -23 59 -43s27 -50 27 -90c0 -43.333 -15.333 -83 -46 -119
s-86.667 -54 -168 -54l-10 -1c-40.667 0.666992 -76.667 4.83398 -108 12.501s-60.666 20.167 -87.999 37.5v0z" />
    <glyph glyph-name="underscore" unicode="&#xbf;" horiz-adv-x="358" 
d="M96 483h175v-483h-10h-175v483h10v0zM20 616c0 24 6.83203 42.835 20.499 56.502s28.834 20.5 45.501 20.5h10c18.667 0 34.667 -7.33301 48 -22s20 -33 20 -55c0 -20.667 -6.5 -38.667 -19.5 -54s-29.167 -23 -48.5 -23h-10h-2.5h-2.5
c-15.333 1.33301 -29.333 8.66602 -42 21.999s-19 31.666 -19 54.999v0zM193.999 616.002c0 22.667 5.83301 40.332 17.5 52.999s24.5 20.334 38.5 23.001c1.33301 0 3 0.166992 5 0.5s4 0.5 6 0.5h10c18 0 33.667 -7.33301 47 -22s20 -33 20 -55
c0 -20.667 -6.33301 -38.667 -19 -54s-28.667 -23 -48 -23h-10h-1.5h-1.5c-16 0.666992 -30.667 7.66699 -44 21s-20 32 -20 56v0z" />
    <glyph glyph-name="grave" unicode="&#xc0;" horiz-adv-x="731" 
d="M-7 0l249 700h10h238l248 -700h-10h-210l-38 121h-228l-39 -121h-10h-210v0zM366 522l-75 -247h150l-75 247v0z" />
    <glyph glyph-name="grave" unicode="&#x410;" horiz-adv-x="731" 
d="M-7 0l249 700h10h238l248 -700h-10h-210l-38 121h-228l-39 -121h-10h-210v0zM366 522l-75 -247h150l-75 247v0z" />
    <glyph glyph-name="a" unicode="&#xc1;" horiz-adv-x="675" 
d="M63 0l-0.00195312 699.999h10h517v-168h-321v-105h103c14 0 32.333 -0.666992 55 -2s46.334 -5.66602 71.001 -12.999c37.333 -10.667 71.5 -30.5 102.5 -59.5s46.5 -74.167 46.5 -135.5c0 -63.333 -15.5 -110 -46.5 -140s-64.833 -50.333 -101.5 -61
c-24.667 -8 -48.667 -12.667 -72 -14s-41.666 -2 -54.999 -2h-10h-299v0zM268.998 139.999h74c29.333 0 53 5.16699 71 15.5s27 29.833 27 58.5c0 28 -8.83301 47.167 -26.5 57.5s-41.5 15.5 -71.5 15.5h-74v-147v0z" />
    <glyph glyph-name="a" unicode="&#x411;" horiz-adv-x="675" 
d="M63 0l-0.00195312 699.999h10h517v-168h-321v-105h103c14 0 32.333 -0.666992 55 -2s46.334 -5.66602 71.001 -12.999c37.333 -10.667 71.5 -30.5 102.5 -59.5s46.5 -74.167 46.5 -135.5c0 -63.333 -15.5 -110 -46.5 -140s-64.833 -50.333 -101.5 -61
c-24.667 -8 -48.667 -12.667 -72 -14s-41.666 -2 -54.999 -2h-10h-299v0zM268.998 139.999h74c29.333 0 53 5.16699 71 15.5s27 29.833 27 58.5c0 28 -8.83301 47.167 -26.5 57.5s-41.5 15.5 -71.5 15.5h-74v-147v0z" />
    <glyph glyph-name="b" unicode="&#xc2;" horiz-adv-x="688" 
d="M73 700l339 0.000976562c63.333 0 109.666 -11.333 138.999 -34s48.666 -47.667 57.999 -75c4.66699 -12.667 7.83398 -24.834 9.50098 -36.501s2.5 -22.5 2.5 -32.5c0 -36 -10.833 -66.667 -32.5 -92s-47.167 -43.333 -76.5 -54v-2c8 -2 17.667 -5 29 -9
s23 -9.66699 35 -17c20.667 -12.667 39.834 -31 57.501 -55s26.5 -56.667 26.5 -98c0 -4 -0.166992 -7.83301 -0.5 -11.5s-0.5 -7.5 -0.5 -11.5c-4.66699 -42.667 -24.667 -82 -60 -118s-91.333 -54 -168 -54h-10h-358v700h10v0zM269 140.001l79.999 0.00195312
c5.33301 0 12.333 0.166992 21 0.5s17.334 1.5 26.001 3.5c14.667 3.33301 28 10.166 40 20.499s18 26.833 18 49.5c0 22 -6.16699 37.833 -18.5 47.5s-25.5 16.167 -39.5 19.5c-8 1.33301 -15.833 2.16602 -23.5 2.49902s-14.167 0.5 -19.5 0.5h-84v-144v0z
M268.999 424.003h72c28.667 0 49.334 4.5 62.001 13.5s21 19.167 25 30.5c1.33301 4 2.16602 7.83301 2.49902 11.5s0.5 7.16699 0.5 10.5c0 18 -6.5 34.167 -19.5 48.5s-36.5 21.5 -70.5 21.5h-72v-136v0z" />
    <glyph glyph-name="b" unicode="&#x412;" horiz-adv-x="688" 
d="M73 700l339 0.000976562c63.333 0 109.666 -11.333 138.999 -34s48.666 -47.667 57.999 -75c4.66699 -12.667 7.83398 -24.834 9.50098 -36.501s2.5 -22.5 2.5 -32.5c0 -36 -10.833 -66.667 -32.5 -92s-47.167 -43.333 -76.5 -54v-2c8 -2 17.667 -5 29 -9
s23 -9.66699 35 -17c20.667 -12.667 39.834 -31 57.501 -55s26.5 -56.667 26.5 -98c0 -4 -0.166992 -7.83301 -0.5 -11.5s-0.5 -7.5 -0.5 -11.5c-4.66699 -42.667 -24.667 -82 -60 -118s-91.333 -54 -168 -54h-10h-358v700h10v0zM269 140.001l79.999 0.00195312
c5.33301 0 12.333 0.166992 21 0.5s17.334 1.5 26.001 3.5c14.667 3.33301 28 10.166 40 20.499s18 26.833 18 49.5c0 22 -6.16699 37.833 -18.5 47.5s-25.5 16.167 -39.5 19.5c-8 1.33301 -15.833 2.16602 -23.5 2.49902s-14.167 0.5 -19.5 0.5h-84v-144v0z
M268.999 424.003h72c28.667 0 49.334 4.5 62.001 13.5s21 19.167 25 30.5c1.33301 4 2.16602 7.83301 2.49902 11.5s0.5 7.16699 0.5 10.5c0 18 -6.5 34.167 -19.5 48.5s-36.5 21.5 -70.5 21.5h-72v-136v0z" />
    <glyph glyph-name="c" unicode="&#xc3;" horiz-adv-x="507" 
d="M63 0v700h10h420v-168h-224v-532h-10h-196v0z" />
    <glyph glyph-name="c" unicode="&#x413;" horiz-adv-x="507" 
d="M63 0v700h10h420v-168h-224v-532h-10h-196v0z" />
    <glyph glyph-name="d" unicode="&#xc4;" horiz-adv-x="757" 
d="M150 700h516.001v-532h84v-308h-10h-168v140h-394v-140h-10h-168v308c3.33301 0 6.5 0.166992 9.5 0.5s6.16699 0.833008 9.5 1.5c28 5.33301 54.167 20.5 78.5 45.5s38.166 62.5 41.499 112.5c0.666992 8 1 16.167 1 24.5v25.5v8v8v306h10v0zM330.001 532v-165.999
c0 -44 -4.16699 -82.833 -12.5 -116.5s-28.833 -60.834 -61.5 -81.501h204v364h-130v0z" />
    <glyph glyph-name="d" unicode="&#x414;" horiz-adv-x="757" 
d="M150 700h516.001v-532h84v-308h-10h-168v140h-394v-140h-10h-168v308c3.33301 0 6.5 0.166992 9.5 0.5s6.16699 0.833008 9.5 1.5c28 5.33301 54.167 20.5 78.5 45.5s38.166 62.5 41.499 112.5c0.666992 8 1 16.167 1 24.5v25.5v8v8v306h10v0zM330.001 532v-165.999
c0 -44 -4.16699 -82.833 -12.5 -116.5s-28.833 -60.834 -61.5 -81.501h204v364h-130v0z" />
    <glyph glyph-name="e" unicode="&#xc5;" horiz-adv-x="535" 
d="M63 0v700h10h420v-168h-224v-98h203v-154h-203v-112h224v-168h-10h-420v0z" />
    <glyph glyph-name="e" unicode="&#x415;" horiz-adv-x="535" 
d="M63 0v700h10h420v-168h-224v-98h203v-154h-203v-112h224v-168h-10h-420v0z" />
    <glyph glyph-name="f" unicode="&#xc6;" horiz-adv-x="1052" 
d="M423 0v292l-179 -292h-10h-241l255 357l-234 343h10h223l176 -288v288h10h196v-288l176 288h10h223l-234 -343l255 -357h-10h-241l-179 292v-292h-10h-196v0z" />
    <glyph glyph-name="f" unicode="&#x416;" horiz-adv-x="1052" 
d="M423 0v292l-179 -292h-10h-241l255 357l-234 343h10h223l176 -288v288h10h196v-288l176 288h10h223l-234 -343l255 -357h-10h-241l-179 292v-292h-10h-196v0z" />
    <glyph glyph-name="g" unicode="&#xc7;" horiz-adv-x="601" 
d="M137 424h110.999c34 0 58.333 5.16699 73 15.5s24 21.5 28 33.5c1.33301 4 2.16602 8 2.49902 12s0.5 7.66699 0.5 11c0 21.333 -8.5 38.166 -25.5 50.499s-40.167 18.833 -69.5 19.5c-19.333 -0.666992 -37.166 -3.5 -53.499 -8.5s-32.166 -11.5 -47.499 -19.5
c-6 -2.66699 -11.833 -5.66699 -17.5 -9s-11.5 -7 -17.5 -11h-10l-68 137l23.5 12.5c9.66699 5 20.834 10.167 33.501 15.5c22 9.33301 48 17.833 78 25.5s63.667 11.5 101 11.5h10c81.333 0 146.5 -18.833 195.5 -56.5s73.5 -84.834 73.5 -141.501
c0 -36 -10.5 -68.333 -31.5 -97s-48.833 -49 -83.5 -61v-3c3.33301 -0.666992 6.5 -1.66699 9.5 -3s6.16699 -2.66602 9.5 -3.99902c28 -10.667 53.5 -28.5 76.5 -53.5s34.5 -60.5 34.5 -106.5c0 -68.667 -27.667 -121.334 -83 -158.001s-121.333 -55 -198 -55l-10 -1
c-20.667 0.666992 -40.167 2 -58.5 4s-36.5 5.33301 -54.5 10c-24 6.66699 -48.833 17.167 -74.5 31.5s-54.834 33.833 -87.501 58.5l81 130h10c14 -13.333 29.167 -25.333 45.5 -36s32.833 -19.667 49.5 -27c12 -4.66699 24 -8.5 36 -11.5s23.667 -4.83301 35 -5.5
c28.667 0.666992 50 6.33398 64 17.001s23.333 22.334 28 35.001c2 4 3.33301 8.16699 4 12.5s1 8.5 1 12.5c0 20 -8 37.167 -24 51.5s-45.667 21.5 -89 21.5h-111v140v0z" />
    <glyph glyph-name="g" unicode="&#x417;" horiz-adv-x="601" 
d="M137 424h110.999c34 0 58.333 5.16699 73 15.5s24 21.5 28 33.5c1.33301 4 2.16602 8 2.49902 12s0.5 7.66699 0.5 11c0 21.333 -8.5 38.166 -25.5 50.499s-40.167 18.833 -69.5 19.5c-19.333 -0.666992 -37.166 -3.5 -53.499 -8.5s-32.166 -11.5 -47.499 -19.5
c-6 -2.66699 -11.833 -5.66699 -17.5 -9s-11.5 -7 -17.5 -11h-10l-68 137l23.5 12.5c9.66699 5 20.834 10.167 33.501 15.5c22 9.33301 48 17.833 78 25.5s63.667 11.5 101 11.5h10c81.333 0 146.5 -18.833 195.5 -56.5s73.5 -84.834 73.5 -141.501
c0 -36 -10.5 -68.333 -31.5 -97s-48.833 -49 -83.5 -61v-3c3.33301 -0.666992 6.5 -1.66699 9.5 -3s6.16699 -2.66602 9.5 -3.99902c28 -10.667 53.5 -28.5 76.5 -53.5s34.5 -60.5 34.5 -106.5c0 -68.667 -27.667 -121.334 -83 -158.001s-121.333 -55 -198 -55l-10 -1
c-20.667 0.666992 -40.167 2 -58.5 4s-36.5 5.33301 -54.5 10c-24 6.66699 -48.833 17.167 -74.5 31.5s-54.834 33.833 -87.501 58.5l81 130h10c14 -13.333 29.167 -25.333 45.5 -36s32.833 -19.667 49.5 -27c12 -4.66699 24 -8.5 36 -11.5s23.667 -4.83301 35 -5.5
c28.667 0.666992 50 6.33398 64 17.001s23.333 22.334 28 35.001c2 4 3.33301 8.16699 4 12.5s1 8.5 1 12.5c0 20 -8 37.167 -24 51.5s-45.667 21.5 -89 21.5h-111v140v0z" />
    <glyph glyph-name="h" unicode="&#xc8;" horiz-adv-x="788" 
d="M73 700h189v-405l261 405h10h192v-700h-10h-189v404l-257 -404h-10h-196v700h10v0z" />
    <glyph glyph-name="h" unicode="&#x418;" horiz-adv-x="788" 
d="M73 700h189v-405l261 405h10h192v-700h-10h-189v404l-257 -404h-10h-196v700h10v0z" />
    <glyph glyph-name="i" unicode="&#xc9;" horiz-adv-x="788" 
d="M73 700h189v-405l261 405h10h192v-700h-10h-189v404l-257 -404h-10h-196v700h10v0zM199 850l113.998 42h10c4 -15.333 10 -27 18 -35s16.667 -13.667 26 -17c6 -2.66699 12 -4.5 18 -5.5s11.333 -1.5 16 -1.5s10 0.5 16 1.5s12 2.83301 18 5.5
c9.33301 3.33301 18 9 26 17s14 19.667 18 35h10l114 -42c-17.333 -40 -44.166 -68.667 -80.499 -86s-75.166 -26 -116.499 -26h-10c-46 0 -86.667 9.83301 -122 29.5s-60.333 47.167 -75 82.5v0z" />
    <glyph glyph-name="i" unicode="&#x419;" horiz-adv-x="788" 
d="M73 700h189v-405l261 405h10h192v-700h-10h-189v404l-257 -404h-10h-196v700h10v0zM199 850l113.998 42h10c4 -15.333 10 -27 18 -35s16.667 -13.667 26 -17c6 -2.66699 12 -4.5 18 -5.5s11.333 -1.5 16 -1.5s10 0.5 16 1.5s12 2.83301 18 5.5
c9.33301 3.33301 18 9 26 17s14 19.667 18 35h10l114 -42c-17.333 -40 -44.166 -68.667 -80.499 -86s-75.166 -26 -116.499 -26h-10c-46 0 -86.667 9.83301 -122 29.5s-60.333 47.167 -75 82.5v0z" />
    <glyph glyph-name="j" unicode="&#xca;" horiz-adv-x="710" 
d="M63 0v700h10h196v-280l201 280h10h230l-266 -339l273 -361h-10h-245l-193 286v-286h-10h-196v0z" />
    <glyph glyph-name="j" unicode="&#x41a;" horiz-adv-x="710" 
d="M63 0v700h10h196v-280l201 280h10h230l-266 -339l273 -361h-10h-245l-193 286v-286h-10h-196v0z" />
    <glyph glyph-name="k" unicode="&#xcb;" horiz-adv-x="745" 
d="M150 700l532.001 0.000976562v-700h-10h-196v532h-130v-276c0 -14.667 -0.5 -30.667 -1.5 -48s-3.5 -35 -7.5 -53c-8.66699 -41.333 -30.167 -78.833 -64.5 -112.5s-94.5 -50.5 -180.5 -50.5l-10 -1c-10.667 0.666992 -20.167 1.16699 -28.5 1.5
s-16.5 1.16602 -24.5 2.49902c-4.66699 0.666992 -9.33398 1.5 -14.001 2.5s-9.66699 1.83301 -15 2.5v168h10c6.66699 -2 13.167 -3.5 19.5 -4.5s12.833 -1.83301 19.5 -2.5c43.333 1.33301 69.333 16.833 78 46.5s13 65.167 13 106.5v386h10v0z" />
    <glyph glyph-name="k" unicode="&#x41b;" horiz-adv-x="745" 
d="M150 700l532.001 0.000976562v-700h-10h-196v532h-130v-276c0 -14.667 -0.5 -30.667 -1.5 -48s-3.5 -35 -7.5 -53c-8.66699 -41.333 -30.167 -78.833 -64.5 -112.5s-94.5 -50.5 -180.5 -50.5l-10 -1c-10.667 0.666992 -20.167 1.16699 -28.5 1.5
s-16.5 1.16602 -24.5 2.49902c-4.66699 0.666992 -9.33398 1.5 -14.001 2.5s-9.66699 1.83301 -15 2.5v168h10c6.66699 -2 13.167 -3.5 19.5 -4.5s12.833 -1.83301 19.5 -2.5c43.333 1.33301 69.333 16.833 78 46.5s13 65.167 13 106.5v386h10v0z" />
    <glyph glyph-name="l" unicode="&#xcc;" horiz-adv-x="880" 
d="M14 0l102 700h10h196l118 -410l118 410h10h196l102 -700h-10h-188l-49 382l-111 -382h-10h-126l-111 382l-49 -382h-10h-188v0z" />
    <glyph glyph-name="l" unicode="&#x41c;" horiz-adv-x="880" 
d="M14 0l102 700h10h196l118 -410l118 410h10h196l102 -700h-10h-188l-49 382l-111 -382h-10h-126l-111 382l-49 -382h-10h-188v0z" />
    <glyph glyph-name="m" unicode="&#xcd;" horiz-adv-x="766" 
d="M63 0v700h10h196v-252h228v252h10h196v-700h-10h-196v280h-228v-280h-10h-196v0z" />
    <glyph glyph-name="m" unicode="&#x41d;" horiz-adv-x="766" 
d="M63 0v700h10h196v-252h228v252h10h196v-700h-10h-196v280h-228v-280h-10h-196v0z" />
    <glyph glyph-name="n" unicode="&#xce;" horiz-adv-x="826" 
d="M408 -20c-122.667 0 -216 37 -280 111s-96 160.333 -96 259c0 98 31.5 184.167 94.5 258.5s156.833 111.5 281.5 111.5h10c124.667 0 218.5 -37.167 281.5 -111.5s94.5 -160.5 94.5 -258.5c0 -98.667 -31.5 -184.667 -94.5 -258s-156.833 -110.333 -281.5 -111l-10 -1v0z
M412 148c6.66699 0 13.668 0.496094 21.001 1.49609s14.666 2.83301 21.999 5.5c32 8.66699 61.167 28.167 87.5 58.5s39.5 75.833 39.5 136.5s-13.333 106.167 -40 136.5s-55.667 49.833 -87 58.5c-7.33301 2 -14.5 3.66699 -21.5 5s-13.833 2 -20.5 2
c-7.33301 0 -15 -0.666992 -23 -2s-15.667 -3.33301 -23 -6c-30.667 -9.33301 -58.834 -29.166 -84.501 -59.499s-38.5 -75.166 -38.5 -134.499s12.833 -104.166 38.5 -134.499s53.834 -50.166 84.501 -59.499c7.33301 -2.66699 14.833 -4.66699 22.5 -6s15.167 -2 22.5 -2
v0z" />
    <glyph glyph-name="n" unicode="&#x41e;" horiz-adv-x="826" 
d="M408 -20c-122.667 0 -216 37 -280 111s-96 160.333 -96 259c0 98 31.5 184.167 94.5 258.5s156.833 111.5 281.5 111.5h10c124.667 0 218.5 -37.167 281.5 -111.5s94.5 -160.5 94.5 -258.5c0 -98.667 -31.5 -184.667 -94.5 -258s-156.833 -110.333 -281.5 -111l-10 -1v0z
M412 148c6.66699 0 13.668 0.496094 21.001 1.49609s14.666 2.83301 21.999 5.5c32 8.66699 61.167 28.167 87.5 58.5s39.5 75.833 39.5 136.5s-13.333 106.167 -40 136.5s-55.667 49.833 -87 58.5c-7.33301 2 -14.5 3.66699 -21.5 5s-13.833 2 -20.5 2
c-7.33301 0 -15 -0.666992 -23 -2s-15.667 -3.33301 -23 -6c-30.667 -9.33301 -58.834 -29.166 -84.501 -59.499s-38.5 -75.166 -38.5 -134.499s12.833 -104.166 38.5 -134.499s53.834 -50.166 84.501 -59.499c7.33301 -2.66699 14.833 -4.66699 22.5 -6s15.167 -2 22.5 -2
v0z" />
    <glyph glyph-name="o" unicode="&#xcf;" horiz-adv-x="760" 
d="M63 0v700h10h624v-700h-10h-196v532h-222v-532h-10h-196v0z" />
    <glyph glyph-name="o" unicode="&#x41f;" horiz-adv-x="760" 
d="M63 0v700h10h624v-700h-10h-196v532h-222v-532h-10h-196v0z" />
    <glyph glyph-name="p" unicode="&#xd0;" horiz-adv-x="651" 
d="M63 0v700h10h295c74.667 0 130.5 -16 167.5 -48s61.833 -67.333 74.5 -106c4.66699 -14 8 -27.833 10 -41.5s3 -26.5 3 -38.5s-1 -24.833 -3 -38.5s-5.33301 -27.5 -10 -41.5c-12 -38.667 -36.667 -74.167 -74 -106.5s-93.333 -48.5 -168 -48.5h-99v-231h-10h-196v0z
M269 546l-0.00195312 -161h46c28.667 0 49.667 4.66699 63 14s22.333 19.333 27 30c2.66699 7.33301 4.33398 14.333 5.00098 21s1 12 1 16s-0.166992 8 -0.5 12s-0.833008 8 -1.5 12c-3.33301 14 -11.666 26.833 -24.999 38.5s-36.333 17.5 -69 17.5h-46v0z" />
    <glyph glyph-name="p" unicode="&#x420;" horiz-adv-x="651" 
d="M63 0v700h10h295c74.667 0 130.5 -16 167.5 -48s61.833 -67.333 74.5 -106c4.66699 -14 8 -27.833 10 -41.5s3 -26.5 3 -38.5s-1 -24.833 -3 -38.5s-5.33301 -27.5 -10 -41.5c-12 -38.667 -36.667 -74.167 -74 -106.5s-93.333 -48.5 -168 -48.5h-99v-231h-10h-196v0z
M269 546l-0.00195312 -161h46c28.667 0 49.667 4.66699 63 14s22.333 19.333 27 30c2.66699 7.33301 4.33398 14.333 5.00098 21s1 12 1 16s-0.166992 8 -0.5 12s-0.833008 8 -1.5 12c-3.33301 14 -11.666 26.833 -24.999 38.5s-36.333 17.5 -69 17.5h-46v0z" />
    <glyph glyph-name="q" unicode="&#xd1;" horiz-adv-x="624" 
d="M589 32c-14 -9.33301 -27.9961 -17.0039 -41.9961 -23.0039s-28 -11 -42 -15c-18 -5.33301 -35.833 -8.83301 -53.5 -10.5s-34.834 -2.5 -51.501 -2.5l-10 -1c-98.667 0.666992 -183 33.334 -253 98.001s-105 155.334 -105 272.001c0 122 36.667 214.167 110 276.5
s155 93.5 245 93.5h10c12 0 24.333 -0.666992 37 -2s25.667 -3.33301 39 -6c20 -4 39.833 -10 59.5 -18s38.5 -18 56.5 -30v-203h-10c-4 4.66699 -8.66699 9.66699 -14 15s-11.333 11 -18 17c-14.667 12.667 -32.834 24.334 -54.501 35.001s-46.5 16.334 -74.5 17.001
c-54.667 -1.33301 -97.334 -21.833 -128.001 -61.5s-46 -86.167 -46 -139.5c0 -60 17.167 -106.167 51.5 -138.5s75.166 -49.166 122.499 -50.499c35.333 1.33301 66.5 9.66602 93.5 24.999s49.5 32.333 67.5 51h10v-199v0z" />
    <glyph glyph-name="q" unicode="&#x421;" horiz-adv-x="624" 
d="M589 32c-14 -9.33301 -27.9961 -17.0039 -41.9961 -23.0039s-28 -11 -42 -15c-18 -5.33301 -35.833 -8.83301 -53.5 -10.5s-34.834 -2.5 -51.501 -2.5l-10 -1c-98.667 0.666992 -183 33.334 -253 98.001s-105 155.334 -105 272.001c0 122 36.667 214.167 110 276.5
s155 93.5 245 93.5h10c12 0 24.333 -0.666992 37 -2s25.667 -3.33301 39 -6c20 -4 39.833 -10 59.5 -18s38.5 -18 56.5 -30v-203h-10c-4 4.66699 -8.66699 9.66699 -14 15s-11.333 11 -18 17c-14.667 12.667 -32.834 24.334 -54.501 35.001s-46.5 16.334 -74.5 17.001
c-54.667 -1.33301 -97.334 -21.833 -128.001 -61.5s-46 -86.167 -46 -139.5c0 -60 17.167 -106.167 51.5 -138.5s75.166 -49.166 122.499 -50.499c35.333 1.33301 66.5 9.66602 93.5 24.999s49.5 32.333 67.5 51h10v-199v0z" />
    <glyph glyph-name="Scaron" unicode="&#xd2;" horiz-adv-x="528" 
d="M161 0v532h-154v168h10h504v-168h-154v-532h-10h-196v0z" />
    <glyph glyph-name="Scaron" unicode="&#x422;" horiz-adv-x="528" 
d="M161 0v532h-154v168h10h504v-168h-154v-532h-10h-196v0z" />
    <glyph glyph-name="r" unicode="&#xd3;" horiz-adv-x="696" 
d="M168 0l95 193l-263 507h10h231l131 -282l108 282h10h213l-315 -700h-10h-210v0z" />
    <glyph glyph-name="r" unicode="&#x423;" horiz-adv-x="696" 
d="M168 0l95 193l-263 507h10h231l131 -282l108 282h10h213l-315 -700h-10h-210v0z" />
    <glyph glyph-name="t" unicode="&#xd4;" horiz-adv-x="930" 
d="M362 0l-0.000976562 98.001c-16.667 0 -34 0.666992 -52 2s-36.333 4 -55 8c-56 11.333 -107.167 37 -153.5 77s-69.5 104.333 -69.5 193c0 88 23.333 152.167 70 192.5s98 66.5 154 78.5c16 3.33301 31.833 5.66602 47.5 6.99902s30.834 2 45.501 2h3.5h3.5h3h3v77h10
h196v-77h8h8c17.333 0 37.833 -1.33301 61.5 -4s48.167 -8.33398 73.5 -17.001c44.667 -14.667 85.667 -41.5 123 -80.5s56 -98.5 56 -178.5c0 -90 -23.5 -154.833 -70.5 -194.5s-98.833 -65.167 -155.5 -76.5c-18 -3.33301 -35.833 -5.66602 -53.5 -6.99902
s-34.5 -2 -50.5 -2v-98h-10h-196v0zM375.999 238.001v280c-38 -0.666992 -66.5 -8.66699 -85.5 -24s-32.5 -32.333 -40.5 -51c-5.33301 -12.667 -8.66602 -25 -9.99902 -37s-2 -21.333 -2 -28s0.666992 -16 2 -28s4.66602 -24.333 9.99902 -37
c8 -18.667 21.5 -35.667 40.5 -51s47.5 -23.333 85.5 -24v0zM553.999 518.001v-279.998c7.33301 0 16.333 0.833008 27 2.5s21.334 4.5 32.001 8.5c20 7.33301 38.167 20.666 54.5 39.999s24.5 49 24.5 89s-8.16699 69.667 -24.5 89s-34.5 32.666 -54.5 39.999
c-10.667 4 -21.334 6.83301 -32.001 8.5s-19.667 2.5 -27 2.5v0z" />
    <glyph glyph-name="t" unicode="&#x424;" horiz-adv-x="930" 
d="M362 0l-0.000976562 98.001c-16.667 0 -34 0.666992 -52 2s-36.333 4 -55 8c-56 11.333 -107.167 37 -153.5 77s-69.5 104.333 -69.5 193c0 88 23.333 152.167 70 192.5s98 66.5 154 78.5c16 3.33301 31.833 5.66602 47.5 6.99902s30.834 2 45.501 2h3.5h3.5h3h3v77h10
h196v-77h8h8c17.333 0 37.833 -1.33301 61.5 -4s48.167 -8.33398 73.5 -17.001c44.667 -14.667 85.667 -41.5 123 -80.5s56 -98.5 56 -178.5c0 -90 -23.5 -154.833 -70.5 -194.5s-98.833 -65.167 -155.5 -76.5c-18 -3.33301 -35.833 -5.66602 -53.5 -6.99902
s-34.5 -2 -50.5 -2v-98h-10h-196v0zM375.999 238.001v280c-38 -0.666992 -66.5 -8.66699 -85.5 -24s-32.5 -32.333 -40.5 -51c-5.33301 -12.667 -8.66602 -25 -9.99902 -37s-2 -21.333 -2 -28s0.666992 -16 2 -28s4.66602 -24.333 9.99902 -37
c8 -18.667 21.5 -35.667 40.5 -51s47.5 -23.333 85.5 -24v0zM553.999 518.001v-279.998c7.33301 0 16.333 0.833008 27 2.5s21.334 4.5 32.001 8.5c20 7.33301 38.167 20.666 54.5 39.999s24.5 49 24.5 89s-8.16699 69.667 -24.5 89s-34.5 32.666 -54.5 39.999
c-10.667 4 -21.334 6.83301 -32.001 8.5s-19.667 2.5 -27 2.5v0z" />
    <glyph glyph-name="u" unicode="&#xd5;" horiz-adv-x="723" 
d="M362 223l-135 -223h-10h-224l256 368l-231 332h10h235l99 -180l99 180h10h222l-219 -322l256 -378h-10h-231l-127 223v0z" />
    <glyph glyph-name="u" unicode="&#x425;" horiz-adv-x="723" 
d="M362 223l-135 -223h-10h-224l256 368l-231 332h10h235l99 -180l99 180h10h222l-219 -322l256 -378h-10h-231l-127 223v0z" />
    <glyph glyph-name="zero" unicode="&#xd6;" horiz-adv-x="787" 
d="M63 0v700h10h196v-532h221v532h10h196v-532h84v-308h-10h-168v140h-539v0z" />
    <glyph glyph-name="zero" unicode="&#x426;" horiz-adv-x="787" 
d="M63 0v700h10h196v-532h221v532h10h196v-532h84v-308h-10h-168v140h-539v0z" />
    <glyph glyph-name="parenright" unicode="&#xd7;" horiz-adv-x="689" 
d="M420 0v271.999c-23.333 -3.33301 -41.833 -5.5 -55.5 -6.5s-26.167 -1.83301 -37.5 -2.5h-13h-15h-10c-111.333 0 -180 21.667 -206 65s-39.667 91 -41 143v13.5v12.5v203h10h196v-175c0 -28 4.5 -52.167 13.5 -72.5s38.833 -31.166 89.5 -32.499c6 0 13.333 0.5 22 1.5
l47 5.5v273h10h196v-700h-10h-196v0z" />
    <glyph glyph-name="parenright" unicode="&#x427;" horiz-adv-x="689" 
d="M420 0v271.999c-23.333 -3.33301 -41.833 -5.5 -55.5 -6.5s-26.167 -1.83301 -37.5 -2.5h-13h-15h-10c-111.333 0 -180 21.667 -206 65s-39.667 91 -41 143v13.5v12.5v203h10h196v-175c0 -28 4.5 -52.167 13.5 -72.5s38.833 -31.166 89.5 -32.499c6 0 13.333 0.5 22 1.5
l47 5.5v273h10h196v-700h-10h-196v0z" />
    <glyph glyph-name="x" unicode="&#xd8;" horiz-adv-x="1060" 
d="M63 0v700h10h196v-532h158v532h10h196v-532h158v532h10h196v-700h-10h-924v0z" />
    <glyph glyph-name="x" unicode="&#x428;" horiz-adv-x="1060" 
d="M63 0v700h10h196v-532h158v532h10h196v-532h158v532h10h196v-700h-10h-924v0z" />
    <glyph glyph-name="y" unicode="&#xd9;" horiz-adv-x="1088" 
d="M63 0v700h10h196v-532h158v532h10h196v-532h158v532h10h196v-532h84v-308h-10h-168v140h-840v0z" />
    <glyph glyph-name="y" unicode="&#x429;" horiz-adv-x="1088" 
d="M63 0v700h10h196v-532h158v532h10h196v-532h158v532h10h196v-532h84v-308h-10h-168v140h-840v0z" />
    <glyph glyph-name="z" unicode="&#xda;" horiz-adv-x="759" 
d="M147 0l-0.00195312 532h-140v168h10h336v-273h103c14 0 32.333 -0.666992 55 -2s46.334 -5.66602 71.001 -12.999c37.333 -10.667 71.5 -30.667 102.5 -60s46.5 -75.333 46.5 -138s-15.5 -108.834 -46.5 -138.501s-64.833 -49.834 -101.5 -60.501
c-24.667 -7.33301 -48.667 -11.666 -72 -12.999s-41.666 -2 -54.999 -2h-10h-299v0zM352.998 140h74c29.333 0 53 5.16699 71 15.5s27 29.833 27 58.5c0 28 -8.83301 47.167 -26.5 57.5s-41.5 15.5 -71.5 15.5h-74v-147v0z" />
    <glyph glyph-name="z" unicode="&#x42a;" horiz-adv-x="759" 
d="M147 0l-0.00195312 532h-140v168h10h336v-273h103c14 0 32.333 -0.666992 55 -2s46.334 -5.66602 71.001 -12.999c37.333 -10.667 71.5 -30.667 102.5 -60s46.5 -75.333 46.5 -138s-15.5 -108.834 -46.5 -138.501s-64.833 -49.834 -101.5 -60.501
c-24.667 -7.33301 -48.667 -11.666 -72 -12.999s-41.666 -2 -54.999 -2h-10h-299v0zM352.998 140h74c29.333 0 53 5.16699 71 15.5s27 29.833 27 58.5c0 28 -8.83301 47.167 -26.5 57.5s-41.5 15.5 -71.5 15.5h-74v-147v0z" />
    <glyph glyph-name="braceleft" unicode="&#xdb;" horiz-adv-x="948" 
d="M63 0l-0.00195312 700h10h196v-273h103c14 0 32.333 -0.666992 55 -2s46.334 -5.66602 71.001 -12.999c37.333 -10.667 71.5 -30.667 102.5 -60s46.5 -75.333 46.5 -138s-15.5 -108.834 -46.5 -138.501s-64.833 -49.834 -101.5 -60.501
c-24.667 -7.33301 -48.667 -11.666 -72 -12.999s-41.666 -2 -54.999 -2h-10h-299v0zM268.998 140h74c29.333 0 53 5.16699 71 15.5s27 29.833 27 58.5c0 28 -8.83301 47.167 -26.5 57.5s-41.5 15.5 -71.5 15.5h-74v-147v0zM678.998 0v700h10h196v-700h-10h-196v0z" />
    <glyph glyph-name="braceleft" unicode="&#x42b;" horiz-adv-x="948" 
d="M63 0l-0.00195312 700h10h196v-273h103c14 0 32.333 -0.666992 55 -2s46.334 -5.66602 71.001 -12.999c37.333 -10.667 71.5 -30.667 102.5 -60s46.5 -75.333 46.5 -138s-15.5 -108.834 -46.5 -138.501s-64.833 -49.834 -101.5 -60.501
c-24.667 -7.33301 -48.667 -11.666 -72 -12.999s-41.666 -2 -54.999 -2h-10h-299v0zM268.998 140h74c29.333 0 53 5.16699 71 15.5s27 29.833 27 58.5c0 28 -8.83301 47.167 -26.5 57.5s-41.5 15.5 -71.5 15.5h-74v-147v0zM678.998 0v700h10h196v-700h-10h-196v0z" />
    <glyph glyph-name="bar" unicode="&#xdc;" horiz-adv-x="675" 
d="M63 0l-0.00195312 700h10h196v-273h103c14 0 32.333 -0.666992 55 -2s46.334 -5.66602 71.001 -12.999c37.333 -10.667 71.5 -30.667 102.5 -60s46.5 -75.333 46.5 -138s-15.5 -108.834 -46.5 -138.501s-64.833 -49.834 -101.5 -60.501
c-24.667 -7.33301 -48.667 -11.666 -72 -12.999s-41.666 -2 -54.999 -2h-10h-299v0zM268.998 140h74c29.333 0 53 5.16699 71 15.5s27 29.833 27 58.5c0 28 -8.83301 47.167 -26.5 57.5s-41.5 15.5 -71.5 15.5h-74v-147v0z" />
    <glyph glyph-name="bar" unicode="&#x42c;" horiz-adv-x="675" 
d="M63 0l-0.00195312 700h10h196v-273h103c14 0 32.333 -0.666992 55 -2s46.334 -5.66602 71.001 -12.999c37.333 -10.667 71.5 -30.667 102.5 -60s46.5 -75.333 46.5 -138s-15.5 -108.834 -46.5 -138.501s-64.833 -49.834 -101.5 -60.501
c-24.667 -7.33301 -48.667 -11.666 -72 -12.999s-41.666 -2 -54.999 -2h-10h-299v0zM268.998 140h74c29.333 0 53 5.16699 71 15.5s27 29.833 27 58.5c0 28 -8.83301 47.167 -26.5 57.5s-41.5 15.5 -71.5 15.5h-74v-147v0z" />
    <glyph glyph-name="braceright" unicode="&#xdd;" horiz-adv-x="630" 
d="M168 427l224.002 0.000976562c-6.66699 39.333 -25.834 72.166 -57.501 98.499s-70.167 39.833 -115.5 40.5h-6.5c-2.33301 0 -4.83301 -0.333008 -7.5 -1c-27.333 -2 -54.166 -8.5 -80.499 -19.5s-50.5 -26.5 -72.5 -46.5h-10v172c15.333 8 31.333 15.167 48 21.5
s33.667 11.5 51 15.5s34.333 7 51 9s32.667 3 48 3h10c96 0 178 -32.667 246 -98s102 -152.666 102 -261.999c0 -120.667 -34.667 -214 -104 -280s-151 -99 -245 -99l-10 -1c-16.667 0.666992 -34.334 2 -53.001 4s-37.667 5.33301 -57 10
c-14.667 4 -29.334 8.66699 -44.001 14s-29 12 -43 20v175h10c24.667 -22 52 -38.833 82 -50.5s61.333 -17.834 94 -18.501c52.667 1.33301 93.5 16.833 122.5 46.5s45.167 65.167 48.5 106.5h-231v140v0z" />
    <glyph glyph-name="braceright" unicode="&#x42d;" horiz-adv-x="630" 
d="M168 427l224.002 0.000976562c-6.66699 39.333 -25.834 72.166 -57.501 98.499s-70.167 39.833 -115.5 40.5h-6.5c-2.33301 0 -4.83301 -0.333008 -7.5 -1c-27.333 -2 -54.166 -8.5 -80.499 -19.5s-50.5 -26.5 -72.5 -46.5h-10v172c15.333 8 31.333 15.167 48 21.5
s33.667 11.5 51 15.5s34.333 7 51 9s32.667 3 48 3h10c96 0 178 -32.667 246 -98s102 -152.666 102 -261.999c0 -120.667 -34.667 -214 -104 -280s-151 -99 -245 -99l-10 -1c-16.667 0.666992 -34.334 2 -53.001 4s-37.667 5.33301 -57 10
c-14.667 4 -29.334 8.66699 -44.001 14s-29 12 -43 20v175h10c24.667 -22 52 -38.833 82 -50.5s61.333 -17.834 94 -18.501c52.667 1.33301 93.5 16.833 122.5 46.5s45.167 65.167 48.5 106.5h-231v140v0z" />
    <glyph glyph-name="asciitilde" unicode="&#xde;" horiz-adv-x="1122" 
d="M269 432l65.999 -0.000976562c1.33301 11.333 3.5 23 6.5 35s6.83301 24 11.5 36c20 54 57.5 103.667 112.5 149s134.5 68 238.5 68h10c124.667 0 218.5 -37.333 281.5 -112s94.5 -160.667 94.5 -258c0 -98.667 -31.5 -184.834 -94.5 -258.501
s-156.833 -110.5 -281.5 -110.5l-10 -1c-100.667 0.666992 -185.667 28.834 -255 84.501s-107.666 126.834 -114.999 213.501h-65v-278h-10h-196v700h10h196v-268v0zM707.999 147.999c6.66699 0 13.668 0.496094 21.001 1.49609s14.666 2.83301 21.999 5.5
c32 8.66699 61.167 28.167 87.5 58.5s39.5 75.833 39.5 136.5s-13.333 106.167 -40 136.5s-55.667 49.833 -87 58.5c-7.33301 2 -14.5 3.66699 -21.5 5s-13.833 2 -20.5 2c-7.33301 0 -15 -0.666992 -23 -2s-15.667 -3.33301 -23 -6
c-30.667 -9.33301 -58.834 -29.166 -84.501 -59.499s-38.5 -75.166 -38.5 -134.499s12.833 -104.166 38.5 -134.499s53.834 -50.166 84.501 -59.499c7.33301 -2.66699 14.833 -4.66699 22.5 -6s15.167 -2 22.5 -2v0z" />
    <glyph glyph-name="asciitilde" unicode="&#x42e;" horiz-adv-x="1122" 
d="M269 432l65.999 -0.000976562c1.33301 11.333 3.5 23 6.5 35s6.83301 24 11.5 36c20 54 57.5 103.667 112.5 149s134.5 68 238.5 68h10c124.667 0 218.5 -37.333 281.5 -112s94.5 -160.667 94.5 -258c0 -98.667 -31.5 -184.834 -94.5 -258.501
s-156.833 -110.5 -281.5 -110.5l-10 -1c-100.667 0.666992 -185.667 28.834 -255 84.501s-107.666 126.834 -114.999 213.501h-65v-278h-10h-196v700h10h196v-268v0zM707.999 147.999c6.66699 0 13.668 0.496094 21.001 1.49609s14.666 2.83301 21.999 5.5
c32 8.66699 61.167 28.167 87.5 58.5s39.5 75.833 39.5 136.5s-13.333 106.167 -40 136.5s-55.667 49.833 -87 58.5c-7.33301 2 -14.5 3.66699 -21.5 5s-13.833 2 -20.5 2c-7.33301 0 -15 -0.666992 -23 -2s-15.667 -3.33301 -23 -6
c-30.667 -9.33301 -58.834 -29.166 -84.501 -59.499s-38.5 -75.166 -38.5 -134.499s12.833 -104.166 38.5 -134.499s53.834 -50.166 84.501 -59.499c7.33301 -2.66699 14.833 -4.66699 22.5 -6s15.167 -2 22.5 -2v0z" />
    <glyph glyph-name="germandbls" unicode="&#xdf;" horiz-adv-x="654" 
d="M14 0l189.001 263.001c-6.66699 1.33301 -13.334 2.83301 -20.001 4.5s-13.667 4.16699 -21 7.5c-30 12 -57.5 33.167 -82.5 63.5s-37.5 73.166 -37.5 128.499c0 80 24 138.833 72 176.5s108 56.5 180 56.5h10h287v-700h-10h-196v238h-8l-143 -238h-10h-210v0z
M385.001 378.001v168.001h-44c-4.66699 0 -11.334 -0.333008 -20.001 -1s-17.667 -2.33398 -27 -5.00098c-13.333 -4.66699 -25.5 -12.834 -36.5 -24.501s-16.5 -29.5 -16.5 -53.5c0 -28.667 6.83301 -48.667 20.5 -60s28.834 -18.666 45.501 -21.999
c6 -0.666992 11.833 -1.16699 17.5 -1.5s11.167 -0.5 16.5 -0.5h44v0z" />
    <glyph glyph-name="germandbls" unicode="&#x42f;" horiz-adv-x="654" 
d="M14 0l189.001 263.001c-6.66699 1.33301 -13.334 2.83301 -20.001 4.5s-13.667 4.16699 -21 7.5c-30 12 -57.5 33.167 -82.5 63.5s-37.5 73.166 -37.5 128.499c0 80 24 138.833 72 176.5s108 56.5 180 56.5h10h287v-700h-10h-196v238h-8l-143 -238h-10h-210v0z
M385.001 378.001v168.001h-44c-4.66699 0 -11.334 -0.333008 -20.001 -1s-17.667 -2.33398 -27 -5.00098c-13.333 -4.66699 -25.5 -12.834 -36.5 -24.501s-16.5 -29.5 -16.5 -53.5c0 -28.667 6.83301 -48.667 20.5 -60s28.834 -18.666 45.501 -21.999
c6 -0.666992 11.833 -1.16699 17.5 -1.5s11.167 -0.5 16.5 -0.5h44v0z" />
    <glyph glyph-name="agrave" unicode="&#xe0;" horiz-adv-x="647" 
d="M413 436l0.00195312 46.999h10h168v-483h-10h-168v45c-17.333 -18.667 -38.333 -33.667 -63 -45s-53 -17 -85 -17l-10 -1c-72.667 0.666992 -128.334 27 -167.001 79s-58 112.333 -58 181c0 8 0.333008 16.333 1 25s1.66699 17.334 3 26.001
c7.33301 52 28.5 99.667 63.5 143s87.5 65 157.5 65h10c27.333 0 53.166 -4.33301 77.499 -13s47.833 -26 70.5 -52v0zM320.002 125.999c29.333 1.33301 53.333 12.1621 72 32.4951s28 48.166 28 83.499c0 34.667 -9.33301 62.334 -28 83.001s-42.667 31.334 -72 32.001
c-32 -1.33301 -56 -12.666 -72 -33.999s-25 -44.666 -27 -69.999v-5.5v-5.5c0 -29.333 8 -55.666 24 -78.999s41 -35.666 75 -36.999v0z" />
    <glyph glyph-name="agrave" unicode="&#x430;" horiz-adv-x="647" 
d="M413 436l0.00195312 46.999h10h168v-483h-10h-168v45c-17.333 -18.667 -38.333 -33.667 -63 -45s-53 -17 -85 -17l-10 -1c-72.667 0.666992 -128.334 27 -167.001 79s-58 112.333 -58 181c0 8 0.333008 16.333 1 25s1.66699 17.334 3 26.001
c7.33301 52 28.5 99.667 63.5 143s87.5 65 157.5 65h10c27.333 0 53.166 -4.33301 77.499 -13s47.833 -26 70.5 -52v0zM320.002 125.999c29.333 1.33301 53.333 12.1621 72 32.4951s28 48.166 28 83.499c0 34.667 -9.33301 62.334 -28 83.001s-42.667 31.334 -72 32.001
c-32 -1.33301 -56 -12.666 -72 -33.999s-25 -44.666 -27 -69.999v-5.5v-5.5c0 -29.333 8 -55.666 24 -78.999s41 -35.666 75 -36.999v0z" />
    <glyph glyph-name="K" unicode="&#xe1;" horiz-adv-x="640" 
d="M193 399c10 12.667 20.8291 23.168 32.4961 31.501s23.5 15.5 35.5 21.5c20.667 8.66699 40.334 14.167 59.001 16.5s32.667 3.5 42 3.5h10c73.333 0 131.333 -23 174 -69s64 -100.333 64 -163v-2.5v-3.5c-1.33301 -62.667 -23.166 -120.167 -65.499 -172.5
s-113.166 -78.5 -212.499 -78.5l-10 -1c-0.666992 0.666992 -1.16699 1 -1.5 1h-1.5c-10 0 -28.167 1.16699 -54.5 3.5s-54.166 9.83301 -83.499 22.5c-36.667 17.333 -70.167 47.166 -100.5 89.499s-45.5 106.5 -45.5 192.5c0 121.333 21.5 209 64.5 263
s90.167 91 141.5 111c15.333 5.33301 30.5 10 45.5 14s29.5 7.33301 43.5 10l23.5 4c7.66699 1.33301 14.834 2.66602 21.501 3.99902c18.667 2.66699 34.167 6.5 46.5 11.5s19.5 13.833 21.5 26.5h10h140c-1.33301 -40 -12.333 -71.167 -33 -93.5s-43 -39.166 -67 -50.499
c-14.667 -6.66699 -28.834 -12 -42.501 -16s-25.167 -7 -34.5 -9c-4.66699 -1.33301 -9 -2.33301 -13 -3s-8.33301 -1.66699 -13 -3c-55.333 -13.333 -99.5 -30 -132.5 -50s-54.5 -57 -64.5 -111v0zM322.996 108.001c34 1.33301 58.499 14 73.499 38s22.5 51 22.5 81
c0 36 -8.66699 64.5 -26 85.5s-40.666 32.167 -69.999 33.5c-33.333 -1.33301 -57.833 -14 -73.5 -38s-23.5 -51 -23.5 -81s7.83301 -57 23.5 -81s40.167 -36.667 73.5 -38v0z" />
    <glyph glyph-name="K" unicode="&#x431;" horiz-adv-x="640" 
d="M193 399c10 12.667 20.8291 23.168 32.4961 31.501s23.5 15.5 35.5 21.5c20.667 8.66699 40.334 14.167 59.001 16.5s32.667 3.5 42 3.5h10c73.333 0 131.333 -23 174 -69s64 -100.333 64 -163v-2.5v-3.5c-1.33301 -62.667 -23.166 -120.167 -65.499 -172.5
s-113.166 -78.5 -212.499 -78.5l-10 -1c-0.666992 0.666992 -1.16699 1 -1.5 1h-1.5c-10 0 -28.167 1.16699 -54.5 3.5s-54.166 9.83301 -83.499 22.5c-36.667 17.333 -70.167 47.166 -100.5 89.499s-45.5 106.5 -45.5 192.5c0 121.333 21.5 209 64.5 263
s90.167 91 141.5 111c15.333 5.33301 30.5 10 45.5 14s29.5 7.33301 43.5 10l23.5 4c7.66699 1.33301 14.834 2.66602 21.501 3.99902c18.667 2.66699 34.167 6.5 46.5 11.5s19.5 13.833 21.5 26.5h10h140c-1.33301 -40 -12.333 -71.167 -33 -93.5s-43 -39.166 -67 -50.499
c-14.667 -6.66699 -28.834 -12 -42.501 -16s-25.167 -7 -34.5 -9c-4.66699 -1.33301 -9 -2.33301 -13 -3s-8.33301 -1.66699 -13 -3c-55.333 -13.333 -99.5 -30 -132.5 -50s-54.5 -57 -64.5 -111v0zM322.996 108.001c34 1.33301 58.499 14 73.499 38s22.5 51 22.5 81
c0 36 -8.66699 64.5 -26 85.5s-40.666 32.167 -69.999 33.5c-33.333 -1.33301 -57.833 -14 -73.5 -38s-23.5 -51 -23.5 -81s7.83301 -57 23.5 -81s40.167 -36.667 73.5 -38v0z" />
    <glyph glyph-name="quotedbl" unicode="&#xe2;" horiz-adv-x="570" 
d="M56 0v483h10h316c6 0 15.167 -0.5 27.5 -1.5s25.166 -3.83301 38.499 -8.5c18.667 -6 35.5 -16.667 50.5 -32s22.5 -38.666 22.5 -69.999c0 -6.66699 -0.666992 -15 -2 -25s-4 -20.333 -8 -31c-5.33301 -12.667 -13.666 -24.834 -24.999 -36.501s-27.333 -20.5 -48 -26.5
v-2c6 -1.33301 12.5 -3 19.5 -5s14.167 -5 21.5 -9c16 -8 30.5 -20.833 43.5 -38.5s19.5 -42.5 19.5 -74.5c0 -33.333 -8.16699 -58.333 -24.5 -75s-34.166 -28.667 -53.499 -36c-16 -6 -31.333 -9.5 -46 -10.5s-24.334 -1.5 -29.001 -1.5h-10h-323v0zM234 105h67
c15.333 0 26.833 2.5 34.5 7.5s13.167 10.5 16.5 16.5c2 4.66699 3.33301 9 4 13s1 7 1 9c0 14 -4.83301 25.5 -14.5 34.5s-23.5 13.5 -41.5 13.5h-67v-94v0zM234 294l62.001 -0.000976562c2.66699 0 5.66699 0.166992 9 0.5s6.66602 0.833008 9.99902 1.5
c8 1.33301 15.333 5 22 11s10 16 10 30c0 12.667 -3.16699 21.834 -9.5 27.501s-13.5 9.5 -21.5 11.5c-4 0.666992 -7.66699 1.16699 -11 1.5s-6.33301 0.5 -9 0.5h-62v-84v0z" />
    <glyph glyph-name="quotedbl" unicode="&#x432;" horiz-adv-x="570" 
d="M56 0v483h10h316c6 0 15.167 -0.5 27.5 -1.5s25.166 -3.83301 38.499 -8.5c18.667 -6 35.5 -16.667 50.5 -32s22.5 -38.666 22.5 -69.999c0 -6.66699 -0.666992 -15 -2 -25s-4 -20.333 -8 -31c-5.33301 -12.667 -13.666 -24.834 -24.999 -36.501s-27.333 -20.5 -48 -26.5
v-2c6 -1.33301 12.5 -3 19.5 -5s14.167 -5 21.5 -9c16 -8 30.5 -20.833 43.5 -38.5s19.5 -42.5 19.5 -74.5c0 -33.333 -8.16699 -58.333 -24.5 -75s-34.166 -28.667 -53.499 -36c-16 -6 -31.333 -9.5 -46 -10.5s-24.334 -1.5 -29.001 -1.5h-10h-323v0zM234 105h67
c15.333 0 26.833 2.5 34.5 7.5s13.167 10.5 16.5 16.5c2 4.66699 3.33301 9 4 13s1 7 1 9c0 14 -4.83301 25.5 -14.5 34.5s-23.5 13.5 -41.5 13.5h-67v-94v0zM234 294l62.001 -0.000976562c2.66699 0 5.66699 0.166992 9 0.5s6.66602 0.833008 9.99902 1.5
c8 1.33301 15.333 5 22 11s10 16 10 30c0 12.667 -3.16699 21.834 -9.5 27.501s-13.5 9.5 -21.5 11.5c-4 0.666992 -7.66699 1.16699 -11 1.5s-6.33301 0.5 -9 0.5h-62v-84v0z" />
    <glyph glyph-name="atilde" unicode="&#xe3;" horiz-adv-x="409" 
d="M56 0v483h10h336v-126h-161v-357h-10h-175v0z" />
    <glyph glyph-name="atilde" unicode="&#x433;" horiz-adv-x="409" 
d="M56 0v483h10h336v-126h-161v-357h-10h-175v0z" />
    <glyph glyph-name="adieresis" unicode="&#xe4;" horiz-adv-x="654" 
d="M129 483h440.999v-363h70v-260h-10h-154v140h-298v-140h-10h-154v260c31.333 0 54.333 10.667 69 32s24.334 44.666 29.001 69.999c3.33301 14.667 5.33301 28.834 6 42.501s1 25.5 1 35.5v183h10v0zM391.999 120v243h-106v-87c0 -35.333 -3.5 -64.833 -10.5 -88.5
s-21.5 -46.167 -43.5 -67.5h160v0z" />
    <glyph glyph-name="adieresis" unicode="&#x434;" horiz-adv-x="654" 
d="M129 483h440.999v-363h70v-260h-10h-154v140h-298v-140h-10h-154v260c31.333 0 54.333 10.667 69 32s24.334 44.666 29.001 69.999c3.33301 14.667 5.33301 28.834 6 42.501s1 25.5 1 35.5v183h10v0zM391.999 120v243h-106v-87c0 -35.333 -3.5 -64.833 -10.5 -88.5
s-21.5 -46.167 -43.5 -67.5h160v0z" />
    <glyph glyph-name="yright" unicode="&#xe5;" horiz-adv-x="602" 
d="M568 147c-13.333 -39.333 -31.833 -70.167 -55.5 -92.5s-48.167 -38.833 -73.5 -49.5c-26 -10 -51 -16.167 -75 -18.5s-42.667 -3.5 -56 -3.5l-10 -1c-72.667 0.666992 -135.5 22.667 -188.5 66s-79.5 108 -79.5 194c0 74.667 23.167 136.5 69.5 185.5
s111.833 73.5 196.5 73.5h10c78.667 0 137 -18.667 175 -56s63.667 -78.333 77 -123c5.33301 -18.667 9 -37 11 -55s3 -34.667 3 -50v-7.5v-6.5h-368v-5c0 -4 0.166992 -8 0.5 -12s0.833008 -8 1.5 -12c4 -21.333 13.667 -41 29 -59s38 -27.333 68 -28
c22.667 1.33301 41.667 7 57 17s25.333 24.333 30 43h10h168v0zM208 297.999h186c-1.33301 24 -9.5 46 -24.5 66s-37.833 30.667 -68.5 32c-27.333 -1.33301 -49.333 -11.5 -66 -30.5s-25.667 -41.5 -27 -67.5v0z" />
    <glyph glyph-name="yright" unicode="&#x435;" horiz-adv-x="602" 
d="M568 147c-13.333 -39.333 -31.833 -70.167 -55.5 -92.5s-48.167 -38.833 -73.5 -49.5c-26 -10 -51 -16.167 -75 -18.5s-42.667 -3.5 -56 -3.5l-10 -1c-72.667 0.666992 -135.5 22.667 -188.5 66s-79.5 108 -79.5 194c0 74.667 23.167 136.5 69.5 185.5
s111.833 73.5 196.5 73.5h10c78.667 0 137 -18.667 175 -56s63.667 -78.333 77 -123c5.33301 -18.667 9 -37 11 -55s3 -34.667 3 -50v-7.5v-6.5h-368v-5c0 -4 0.166992 -8 0.5 -12s0.833008 -8 1.5 -12c4 -21.333 13.667 -41 29 -59s38 -27.333 68 -28
c22.667 1.33301 41.667 7 57 17s25.333 24.333 30 43h10h168v0zM208 297.999h186c-1.33301 24 -9.5 46 -24.5 66s-37.833 30.667 -68.5 32c-27.333 -1.33301 -49.333 -11.5 -66 -30.5s-25.667 -41.5 -27 -67.5v0z" />
    <glyph glyph-name="guilsinglright" unicode="&#xe6;" horiz-adv-x="870" 
d="M346 0v195l-130 -195h-10h-217l196 252l-168 231h10h203l116 -187v187h10h168v-187l116 187h10h203l-168 -231l196 -252h-10h-217l-130 195v-195h-10h-168v0z" />
    <glyph glyph-name="guilsinglright" unicode="&#x436;" horiz-adv-x="870" 
d="M346 0v195l-130 -195h-10h-217l196 252l-168 231h10h203l116 -187v187h10h168v-187l116 187h10h203l-168 -231l196 -252h-10h-217l-130 195v-195h-10h-168v0z" />
    <glyph glyph-name="florin" unicode="&#xe7;" horiz-adv-x="507" 
d="M85 345l-46.9971 108.003c14.667 8 30.334 14.833 47.001 20.5s33.667 10.5 51 14.5c18.667 4.66699 37.167 8 55.5 10s35.166 3 50.499 3h10c63.333 0 112.166 -12.333 146.499 -37s51.5 -57.667 51.5 -99c0 -24.667 -6.33301 -47.167 -19 -67.5
s-30.334 -35.5 -53.001 -45.5v-2c27.333 -6 48.333 -16.333 63 -31s25 -30 31 -46c2.66699 -7.33301 4.5 -14.5 5.5 -21.5s1.5 -13.833 1.5 -20.5c0 -3.33301 -1.33301 -12.333 -4 -27s-10 -30.334 -22 -47.001c-13.333 -18.667 -35.333 -35.667 -66 -51s-75 -23 -133 -23
l-10 -1c-19.333 0.666992 -49.333 3.83398 -90 9.50098s-85 21.834 -133 48.501l45 114h10l23 -13c7.33301 -4 14.333 -7.33301 21 -10c15.333 -7.33301 31 -12.833 47 -16.5s34 -5.83398 54 -6.50098c17.333 0.666992 30.666 3.5 39.999 8.5s16 10.5 20 16.5
c3.33301 4 5.33301 8.16699 6 12.5s1 7.5 1 9.5c0 14 -5 23.833 -15 29.5s-20.667 9.16699 -32 10.5c-4.66699 0.666992 -9 1 -13 1h-12h-76v105h86c3.33301 0 7.33301 0.166992 12 0.5s9.66699 1.16602 15 2.49902c8 2 15.333 5.83301 22 11.5s10 14.5 10 26.5
c0 13.333 -4.33301 23 -13 29s-18.334 10.333 -29.001 13c-4 0.666992 -8 1.16699 -12 1.5s-7.66699 0.5 -11 0.5c-5.33301 0 -10.666 -0.333008 -15.999 -1s-11 -1.66699 -17 -3c-16 -2.66699 -32 -7.33398 -48 -14.001s-30.667 -14.334 -44 -23.001h-10v0z" />
    <glyph glyph-name="florin" unicode="&#x437;" horiz-adv-x="507" 
d="M85 345l-46.9971 108.003c14.667 8 30.334 14.833 47.001 20.5s33.667 10.5 51 14.5c18.667 4.66699 37.167 8 55.5 10s35.166 3 50.499 3h10c63.333 0 112.166 -12.333 146.499 -37s51.5 -57.667 51.5 -99c0 -24.667 -6.33301 -47.167 -19 -67.5
s-30.334 -35.5 -53.001 -45.5v-2c27.333 -6 48.333 -16.333 63 -31s25 -30 31 -46c2.66699 -7.33301 4.5 -14.5 5.5 -21.5s1.5 -13.833 1.5 -20.5c0 -3.33301 -1.33301 -12.333 -4 -27s-10 -30.334 -22 -47.001c-13.333 -18.667 -35.333 -35.667 -66 -51s-75 -23 -133 -23
l-10 -1c-19.333 0.666992 -49.333 3.83398 -90 9.50098s-85 21.834 -133 48.501l45 114h10l23 -13c7.33301 -4 14.333 -7.33301 21 -10c15.333 -7.33301 31 -12.833 47 -16.5s34 -5.83398 54 -6.50098c17.333 0.666992 30.666 3.5 39.999 8.5s16 10.5 20 16.5
c3.33301 4 5.33301 8.16699 6 12.5s1 7.5 1 9.5c0 14 -5 23.833 -15 29.5s-20.667 9.16699 -32 10.5c-4.66699 0.666992 -9 1 -13 1h-12h-76v105h86c3.33301 0 7.33301 0.166992 12 0.5s9.66699 1.16602 15 2.49902c8 2 15.333 5.83301 22 11.5s10 14.5 10 26.5
c0 13.333 -4.33301 23 -13 29s-18.334 10.333 -29.001 13c-4 0.666992 -8 1.16699 -12 1.5s-7.66699 0.5 -11 0.5c-5.33301 0 -10.666 -0.333008 -15.999 -1s-11 -1.66699 -17 -3c-16 -2.66699 -32 -7.33398 -48 -14.001s-30.667 -14.334 -44 -23.001h-10v0z" />
    <glyph glyph-name="comma" unicode="&#xe8;" horiz-adv-x="640" 
d="M66 483h175v-244l165 244h10h168v-483h-10h-175v251l-163 -251h-10h-170v483h10v0z" />
    <glyph glyph-name="comma" unicode="&#x438;" horiz-adv-x="640" 
d="M66 483h175v-244l165 244h10h168v-483h-10h-175v251l-163 -251h-10h-170v483h10v0z" />
    <glyph glyph-name="L" unicode="&#xe9;" horiz-adv-x="634" 
d="M63 483h175v-244l165 244h10h168v-483h-10h-175v251l-163 -251h-10h-170v483h10v0zM128 658l113.999 42.002h10c4.66699 -15.333 11 -27 19 -35s16.333 -13.667 25 -17c6 -2.66699 12 -4.5 18 -5.5s11.333 -1.5 16 -1.5s10 0.5 16 1.5s12 2.5 18 4.5
c9.33301 3.33301 18.166 9.16602 26.499 17.499s14.5 20.166 18.5 35.499h10l114 -42c-17.333 -40 -44.166 -68.667 -80.499 -86s-75.166 -26 -116.499 -26h-10h-7.5h-6.5c-38 2 -74 11.833 -108 29.5s-59.333 45.167 -76 82.5v0z" />
    <glyph glyph-name="L" unicode="&#x439;" horiz-adv-x="634" 
d="M63 483h175v-244l165 244h10h168v-483h-10h-175v251l-163 -251h-10h-170v483h10v0zM128 658l113.999 42.002h10c4.66699 -15.333 11 -27 19 -35s16.333 -13.667 25 -17c6 -2.66699 12 -4.5 18 -5.5s11.333 -1.5 16 -1.5s10 0.5 16 1.5s12 2.5 18 4.5
c9.33301 3.33301 18.166 9.16602 26.499 17.499s14.5 20.166 18.5 35.499h10l114 -42c-17.333 -40 -44.166 -68.667 -80.499 -86s-75.166 -26 -116.499 -26h-10h-7.5h-6.5c-38 2 -74 11.833 -108 29.5s-59.333 45.167 -76 82.5v0z" />
    <glyph glyph-name="asterisk" unicode="&#xea;" horiz-adv-x="608" 
d="M56 0v483h10h175v-184l136 184h10h214l-199 -227l217 -256h-10h-221l-147 200v-200h-10h-175v0z" />
    <glyph glyph-name="asterisk" unicode="&#x43a;" horiz-adv-x="608" 
d="M56 0v483h10h175v-184l136 184h10h214l-199 -227l217 -256h-10h-221l-147 200v-200h-10h-175v0z" />
    <glyph glyph-name="edieresis" unicode="&#xeb;" horiz-adv-x="633" 
d="M577 483l0.00195312 -483.001h-10h-175v363h-102v-202c0 -9.33301 -0.5 -20 -1.5 -32s-3.16699 -24.333 -6.5 -37c-7.33301 -25.333 -22.833 -48.666 -46.5 -69.999s-63.5 -32 -119.5 -32l-10 -1c-6.66699 0.666992 -14.334 1.33398 -23.001 2.00098
s-17.334 1.66699 -26.001 3c-5.33301 0.666992 -10.5 1.5 -15.5 2.5s-10.167 1.83301 -15.5 2.5c-2 0 -4 0.166992 -6 0.5s-4 0.5 -6 0.5v126h10c2.66699 -0.666992 5.5 -1.33398 8.5 -2.00098s6.16699 -1.33398 9.5 -2.00098c1.33301 0 2.83301 -0.166992 4.5 -0.5
s3.16699 -0.5 4.5 -0.5c15.333 1.33301 29.333 7.83301 42 19.5s19 33.834 19 66.501v276h10h455v0z" />
    <glyph glyph-name="edieresis" unicode="&#x43b;" horiz-adv-x="633" 
d="M577 483l0.00195312 -483.001h-10h-175v363h-102v-202c0 -9.33301 -0.5 -20 -1.5 -32s-3.16699 -24.333 -6.5 -37c-7.33301 -25.333 -22.833 -48.666 -46.5 -69.999s-63.5 -32 -119.5 -32l-10 -1c-6.66699 0.666992 -14.334 1.33398 -23.001 2.00098
s-17.334 1.66699 -26.001 3c-5.33301 0.666992 -10.5 1.5 -15.5 2.5s-10.167 1.83301 -15.5 2.5c-2 0 -4 0.166992 -6 0.5s-4 0.5 -6 0.5v126h10c2.66699 -0.666992 5.5 -1.33398 8.5 -2.00098s6.16699 -1.33398 9.5 -2.00098c1.33301 0 2.83301 -0.166992 4.5 -0.5
s3.16699 -0.5 4.5 -0.5c15.333 1.33301 29.333 7.83301 42 19.5s19 33.834 19 66.501v276h10h455v0z" />
    <glyph glyph-name="igrave" unicode="&#xec;" horiz-adv-x="772" 
d="M14 0l77 483h10h189l96 -273l96 273h10h189l77 -483h-10h-166l-38 247l-90 -247h-10h-126l-90 247l-38 -247h-10h-166v0z" />
    <glyph glyph-name="igrave" unicode="&#x43c;" horiz-adv-x="772" 
d="M14 0l77 483h10h189l96 -273l96 273h10h189l77 -483h-10h-166l-38 247l-90 -247h-10h-126l-90 247l-38 -247h-10h-166v0z" />
    <glyph glyph-name="ellipsis" unicode="&#xed;" horiz-adv-x="633" 
d="M56 0v483h10h175v-170h151v170h10h175v-483h-10h-175v193h-151v-193h-10h-175v0z" />
    <glyph glyph-name="ellipsis" unicode="&#x43d;" horiz-adv-x="633" 
d="M56 0v483h10h175v-170h151v170h10h175v-483h-10h-175v193h-151v-193h-10h-175v0z" />
    <glyph glyph-name="percent" unicode="&#xee;" horiz-adv-x="648" 
d="M319 -18c-96 0.666992 -168.167 25.833 -216.5 75.5s-72.5 111.167 -72.5 184.5c0 71.333 23.833 132.333 71.5 183s120.167 76 217.5 76h10c97.333 0 169.833 -25.333 217.5 -76s71.5 -111.667 71.5 -183s-23.833 -132.333 -71.5 -183s-120.167 -76 -217.5 -76l-10 -1v0
zM324 107.999c27.333 0.666992 48 8 62 22s24 29.333 30 46c5.33301 14.667 8.5 28.167 9.5 40.5s1.5 20.833 1.5 25.5c0 37.333 -8.66699 68.5 -26 93.5s-43 38.167 -77 39.5c-34.667 -1.33301 -60.5 -14.5 -77.5 -39.5s-25.5 -56.167 -25.5 -93.5
c0 -4.66699 0.5 -13.167 1.5 -25.5s4.16699 -25.833 9.5 -40.5c6 -16 16 -31 30 -45s34.667 -21.667 62 -23v0z" />
    <glyph glyph-name="percent" unicode="&#x43e;" horiz-adv-x="648" 
d="M319 -18c-96 0.666992 -168.167 25.833 -216.5 75.5s-72.5 111.167 -72.5 184.5c0 71.333 23.833 132.333 71.5 183s120.167 76 217.5 76h10c97.333 0 169.833 -25.333 217.5 -76s71.5 -111.667 71.5 -183s-23.833 -132.333 -71.5 -183s-120.167 -76 -217.5 -76l-10 -1v0
zM324 107.999c27.333 0.666992 48 8 62 22s24 29.333 30 46c5.33301 14.667 8.5 28.167 9.5 40.5s1.5 20.833 1.5 25.5c0 37.333 -8.66699 68.5 -26 93.5s-43 38.167 -77 39.5c-34.667 -1.33301 -60.5 -14.5 -77.5 -39.5s-25.5 -56.167 -25.5 -93.5
c0 -4.66699 0.5 -13.167 1.5 -25.5s4.16699 -25.833 9.5 -40.5c6 -16 16 -31 30 -45s34.667 -21.667 62 -23v0z" />
    <glyph glyph-name="C" unicode="&#xef;" 
d="M66 483h504v-483h-10h-175v363h-144v-363h-10h-175v483h10v0z" />
    <glyph glyph-name="C" unicode="&#x43f;" 
d="M66 483h504v-483h-10h-175v363h-144v-363h-10h-175v483h10v0z" />
    <glyph glyph-name="eth" unicode="&#xf0;" horiz-adv-x="648" 
d="M234 483l-0.000976562 -47c20.667 22.667 42.667 39.167 66 49.5s51 15.5 83 15.5h10c69.333 0 124.166 -24.333 164.499 -73s60.5 -110.667 60.5 -186c0 -68.667 -19.667 -129 -59 -181s-94.666 -78 -165.999 -78l-10 -1c-26.667 0.666992 -51.667 5.16699 -75 13.5
s-45.666 22.833 -66.999 43.5v-249h-10h-175v693h10h168v0zM326.999 126c28.667 1.33301 52.4971 12.165 71.4971 32.498s28.5 48.166 28.5 83.499c0 34.667 -9.33301 62.334 -28 83.001s-42.667 31.334 -72 32.001c-28.667 -1.33301 -50.167 -9.5 -64.5 -24.5
s-24.166 -31.5 -29.499 -49.5c-2 -7.33301 -3.5 -14.5 -4.5 -21.5s-1.5 -13.5 -1.5 -19.5s0.5 -12.5 1.5 -19.5s2.5 -13.833 4.5 -20.5c4.66699 -18.667 14.334 -35.667 29.001 -51s36.334 -23.666 65.001 -24.999v0z" />
    <glyph glyph-name="eth" unicode="&#x440;" horiz-adv-x="648" 
d="M234 483l-0.000976562 -47c20.667 22.667 42.667 39.167 66 49.5s51 15.5 83 15.5h10c69.333 0 124.166 -24.333 164.499 -73s60.5 -110.667 60.5 -186c0 -68.667 -19.667 -129 -59 -181s-94.666 -78 -165.999 -78l-10 -1c-26.667 0.666992 -51.667 5.16699 -75 13.5
s-45.666 22.833 -66.999 43.5v-249h-10h-175v693h10h168v0zM326.999 126c28.667 1.33301 52.4971 12.165 71.4971 32.498s28.5 48.166 28.5 83.499c0 34.667 -9.33301 62.334 -28 83.001s-42.667 31.334 -72 32.001c-28.667 -1.33301 -50.167 -9.5 -64.5 -24.5
s-24.166 -31.5 -29.499 -49.5c-2 -7.33301 -3.5 -14.5 -4.5 -21.5s-1.5 -13.5 -1.5 -19.5s0.5 -12.5 1.5 -19.5s2.5 -13.833 4.5 -20.5c4.66699 -18.667 14.334 -35.667 29.001 -51s36.334 -23.666 65.001 -24.999v0z" />
    <glyph glyph-name="quotedblleft" unicode="&#xf1;" horiz-adv-x="469" 
d="M439 172l0.00195312 -153c-2 -0.666992 -6.83301 -2.83398 -14.5 -6.50098s-17.834 -7.5 -30.501 -11.5c-14 -4 -30.167 -8 -48.5 -12s-38.166 -6 -59.499 -6l-10 -1c-82 0.666992 -143.5 27.167 -184.5 79.5s-61.5 112.5 -61.5 180.5c0 70.667 21.167 131.5 63.5 182.5
s103.166 76.5 182.499 76.5h10c12 0 23.5 -0.666992 34.5 -2s22.167 -3 33.5 -5c13.333 -3.33301 27 -7.5 41 -12.5s28.667 -11.167 44 -18.5v-152h-10c-16 15.333 -33.5 27.333 -52.5 36s-38.167 13.334 -57.5 14.001c-33.333 -1.33301 -58 -13.833 -74 -37.5
s-24 -51.167 -24 -82.5c0 -32.667 9 -60 27 -82s44 -33.667 78 -35c13.333 0.666992 28.666 4.16699 45.999 10.5s36.333 18.833 57 37.5h10v0z" />
    <glyph glyph-name="quotedblleft" unicode="&#x441;" horiz-adv-x="469" 
d="M439 172l0.00195312 -153c-2 -0.666992 -6.83301 -2.83398 -14.5 -6.50098s-17.834 -7.5 -30.501 -11.5c-14 -4 -30.167 -8 -48.5 -12s-38.166 -6 -59.499 -6l-10 -1c-82 0.666992 -143.5 27.167 -184.5 79.5s-61.5 112.5 -61.5 180.5c0 70.667 21.167 131.5 63.5 182.5
s103.166 76.5 182.499 76.5h10c12 0 23.5 -0.666992 34.5 -2s22.167 -3 33.5 -5c13.333 -3.33301 27 -7.5 41 -12.5s28.667 -11.167 44 -18.5v-152h-10c-16 15.333 -33.5 27.333 -52.5 36s-38.167 13.334 -57.5 14.001c-33.333 -1.33301 -58 -13.833 -74 -37.5
s-24 -51.167 -24 -82.5c0 -32.667 9 -60 27 -82s44 -33.667 78 -35c13.333 0.666992 28.666 4.16699 45.999 10.5s36.333 18.833 57 37.5h10v0z" />
    <glyph glyph-name="two" unicode="&#xf2;" horiz-adv-x="451" 
d="M133 0v357h-126v126h10h427v-126h-126v-357h-10h-175v0z" />
    <glyph glyph-name="two" unicode="&#x442;" horiz-adv-x="451" 
d="M133 0v357h-126v126h10h427v-126h-126v-357h-10h-175v0z" />
    <glyph glyph-name="three" unicode="&#xf3;" horiz-adv-x="618" 
d="M-1 483h203l128 -248l108 248h10h181l-350 -693h-10h-189l147 280l-238 413h10v0z" />
    <glyph glyph-name="three" unicode="&#x443;" horiz-adv-x="618" 
d="M-1 483h203l128 -248l108 248h10h181l-350 -693h-10h-189l147 280l-238 413h10v0z" />
    <glyph glyph-name="ocircumflex" unicode="&#xf4;" horiz-adv-x="797" 
d="M306 -210l-0.000976562 203c-14.667 0.666992 -33 2 -55 4s-45 7.33301 -69 16c-38 13.333 -72.833 37.333 -104.5 72s-47.5 87 -47.5 157s15.833 122.167 47.5 156.5s66.5 58.5 104.5 72.5c24 8 47 13.167 69 15.5s40.333 3.5 55 3.5v210h10h175v-210
c14.667 0 33 -1.16699 55 -3.5s45 -7.5 69 -15.5c38 -14 72.833 -38.167 104.5 -72.5s47.5 -86.5 47.5 -156.5c0 -78.667 -20.5 -136.167 -61.5 -172.5s-86.167 -59.5 -135.5 -69.5c-13.333 -2 -26.666 -3.5 -39.999 -4.5s-26.333 -1.5 -39 -1.5v-204h-10h-175v0z
M316.999 104v268.002c-30 -2.66699 -55.667 -15.334 -77 -38.001s-32 -54.667 -32 -96s10.667 -73.333 32 -96s47 -35.334 77 -38.001v0zM479.999 372.002v-268c32.667 2 59 15.333 79 40s30 56 30 94c0 37.333 -10 68.5 -30 93.5s-46.333 38.5 -79 40.5v0z" />
    <glyph glyph-name="ocircumflex" unicode="&#x444;" horiz-adv-x="797" 
d="M306 -210l-0.000976562 203c-14.667 0.666992 -33 2 -55 4s-45 7.33301 -69 16c-38 13.333 -72.833 37.333 -104.5 72s-47.5 87 -47.5 157s15.833 122.167 47.5 156.5s66.5 58.5 104.5 72.5c24 8 47 13.167 69 15.5s40.333 3.5 55 3.5v210h10h175v-210
c14.667 0 33 -1.16699 55 -3.5s45 -7.5 69 -15.5c38 -14 72.833 -38.167 104.5 -72.5s47.5 -86.5 47.5 -156.5c0 -78.667 -20.5 -136.167 -61.5 -172.5s-86.167 -59.5 -135.5 -69.5c-13.333 -2 -26.666 -3.5 -39.999 -4.5s-26.333 -1.5 -39 -1.5v-204h-10h-175v0z
M316.999 104v268.002c-30 -2.66699 -55.667 -15.334 -77 -38.001s-32 -54.667 -32 -96s10.667 -73.333 32 -96s47 -35.334 77 -38.001v0zM479.999 372.002v-268c32.667 2 59 15.333 79 40s30 56 30 94c0 37.333 -10 68.5 -30 93.5s-46.333 38.5 -79 40.5v0z" />
    <glyph glyph-name="otilde" unicode="&#xf5;" horiz-adv-x="612" 
d="M-7 0l212 258l-177 225h10h214l72 -121l74 121h10h204l-182 -227l189 -256h-10h-203l-93 150l-98 -150h-10h-212v0z" />
    <glyph glyph-name="otilde" unicode="&#x445;" horiz-adv-x="612" 
d="M-7 0l212 258l-177 225h10h214l72 -121l74 121h10h204l-182 -227l189 -256h-10h-203l-93 150l-98 -150h-10h-212v0z" />
    <glyph glyph-name="odieresis" unicode="&#xf6;" horiz-adv-x="647" 
d="M56 0v483h10h175v-363h137v363h10h175v-363h70v-260h-10h-154v140h-413v0z" />
    <glyph glyph-name="odieresis" unicode="&#x446;" horiz-adv-x="647" 
d="M56 0v483h10h175v-363h137v363h10h175v-363h70v-260h-10h-154v140h-413v0z" />
    <glyph glyph-name="divide" unicode="&#xf7;" horiz-adv-x="577" 
d="M336 0l0.000976562 156.002l-18 -2c-6 -0.666992 -12.333 -1.33398 -19 -2.00098c-12.667 -0.666992 -24.834 -1.16699 -36.501 -1.5s-22.167 -0.5 -31.5 -0.5h-10c-60 0 -104.833 11.167 -134.5 33.5s-44.5 58.166 -44.5 107.499v192h10h168v-153
c0 -23.333 5.16699 -38.833 15.5 -46.5s21.833 -12.167 34.5 -13.5h5.5h5.5c8 0 16.333 0.5 25 1.5s18.667 2.83301 30 5.5v206h10h175v-483h-10h-175v0z" />
    <glyph glyph-name="divide" unicode="&#x447;" horiz-adv-x="577" 
d="M336 0l0.000976562 156.002l-18 -2c-6 -0.666992 -12.333 -1.33398 -19 -2.00098c-12.667 -0.666992 -24.834 -1.16699 -36.501 -1.5s-22.167 -0.5 -31.5 -0.5h-10c-60 0 -104.833 11.167 -134.5 33.5s-44.5 58.166 -44.5 107.499v192h10h168v-153
c0 -23.333 5.16699 -38.833 15.5 -46.5s21.833 -12.167 34.5 -13.5h5.5h5.5c8 0 16.333 0.5 25 1.5s18.667 2.83301 30 5.5v206h10h175v-483h-10h-175v0z" />
    <glyph glyph-name="oslash" unicode="&#xf8;" horiz-adv-x="923" 
d="M56 0v483h10h175v-363h128v363h10h175v-363h128v363h10h175v-483h-10h-801v0z" />
    <glyph glyph-name="oslash" unicode="&#x448;" horiz-adv-x="923" 
d="M56 0v483h10h175v-363h128v363h10h175v-363h128v363h10h175v-483h-10h-801v0z" />
    <glyph glyph-name="question" unicode="&#xf9;" horiz-adv-x="951" 
d="M56 0v483h10h175v-363h128v363h10h175v-363h128v363h10h175v-363h70v-260h-10h-154v140h-717v0z" />
    <glyph glyph-name="question" unicode="&#x449;" horiz-adv-x="951" 
d="M56 0v483h10h175v-363h128v363h10h175v-363h128v363h10h175v-363h70v-260h-10h-154v140h-717v0z" />
    <glyph glyph-name="A" unicode="&#xfa;" horiz-adv-x="616" 
d="M311 322l106 0.000976562c52 0 90.5 -11.333 115.5 -34s41.833 -47.334 50.5 -74.001c2.66699 -10 4.66699 -19.667 6 -29s2 -18.333 2 -27c0 -46 -16 -83.833 -48 -113.5s-74 -44.5 -126 -44.5h-10h-281v357h-119v126h10h294v-161v0zM311 112.001h48
c16 0 27.833 3.33301 35.5 10s12.834 14 15.501 22c1.33301 3.33301 2.16602 6.5 2.49902 9.5s0.5 5.83301 0.5 8.5c0 16 -5.5 28 -16.5 36s-23.5 12 -37.5 12h-48v-98v0z" />
    <glyph glyph-name="A" unicode="&#x44a;" horiz-adv-x="616" 
d="M311 322l106 0.000976562c52 0 90.5 -11.333 115.5 -34s41.833 -47.334 50.5 -74.001c2.66699 -10 4.66699 -19.667 6 -29s2 -18.333 2 -27c0 -46 -16 -83.833 -48 -113.5s-74 -44.5 -126 -44.5h-10h-281v357h-119v126h10h294v-161v0zM311 112.001h48
c16 0 27.833 3.33301 35.5 10s12.834 14 15.501 22c1.33301 3.33301 2.16602 6.5 2.49902 9.5s0.5 5.83301 0.5 8.5c0 16 -5.5 28 -16.5 36s-23.5 12 -37.5 12h-48v-98v0z" />
    <glyph glyph-name="slash" unicode="&#xfb;" horiz-adv-x="797" 
d="M241 322l106 0.000976562c52 0 90.5 -11.333 115.5 -34s41.833 -47.334 50.5 -74.001c2.66699 -10 4.66699 -19.667 6 -29s2 -18.333 2 -27c0 -46 -16 -83.833 -48 -113.5s-74 -44.5 -126 -44.5h-10h-281v483h10h175v-161v0zM241 112.001h48c16 0 27.833 3.33301 35.5 10
s12.834 14 15.501 22c1.33301 3.33301 2.16602 6.5 2.49902 9.5s0.5 5.83301 0.5 8.5c0 16 -5.5 28 -16.5 36s-23.5 12 -37.5 12h-48v-98v0zM556 0.000976562v483h10h175v-483h-10h-175v0z" />
    <glyph glyph-name="slash" unicode="&#x44b;" horiz-adv-x="797" 
d="M241 322l106 0.000976562c52 0 90.5 -11.333 115.5 -34s41.833 -47.334 50.5 -74.001c2.66699 -10 4.66699 -19.667 6 -29s2 -18.333 2 -27c0 -46 -16 -83.833 -48 -113.5s-74 -44.5 -126 -44.5h-10h-281v483h10h175v-161v0zM241 112.001h48c16 0 27.833 3.33301 35.5 10
s12.834 14 15.501 22c1.33301 3.33301 2.16602 6.5 2.49902 9.5s0.5 5.83301 0.5 8.5c0 16 -5.5 28 -16.5 36s-23.5 12 -37.5 12h-48v-98v0zM556 0.000976562v483h10h175v-483h-10h-175v0z" />
    <glyph glyph-name="udieresis" unicode="&#xfc;" horiz-adv-x="546" 
d="M241 322l106 0.000976562c52 0 90.5 -11.333 115.5 -34s41.833 -47.334 50.5 -74.001c2.66699 -10 4.66699 -19.667 6 -29s2 -18.333 2 -27c0 -46 -16 -83.833 -48 -113.5s-74 -44.5 -126 -44.5h-10h-281v483h10h175v-161v0zM241 112.001h48c16 0 27.833 3.33301 35.5 10
s12.834 14 15.501 22c1.33301 3.33301 2.16602 6.5 2.49902 9.5s0.5 5.83301 0.5 8.5c0 16 -5.5 28 -16.5 36s-23.5 12 -37.5 12h-48v-98v0z" />
    <glyph glyph-name="udieresis" unicode="&#x44c;" horiz-adv-x="546" 
d="M241 322l106 0.000976562c52 0 90.5 -11.333 115.5 -34s41.833 -47.334 50.5 -74.001c2.66699 -10 4.66699 -19.667 6 -29s2 -18.333 2 -27c0 -46 -16 -83.833 -48 -113.5s-74 -44.5 -126 -44.5h-10h-281v483h10h175v-161v0zM241 112.001h48c16 0 27.833 3.33301 35.5 10
s12.834 14 15.501 22c1.33301 3.33301 2.16602 6.5 2.49902 9.5s0.5 5.83301 0.5 8.5c0 16 -5.5 28 -16.5 36s-23.5 12 -37.5 12h-48v-98v0z" />
    <glyph glyph-name="period" unicode="&#xfd;" horiz-adv-x="502" 
d="M42 7l-0.00195312 139.998h10c25.333 -18.667 49.333 -31 72 -37s43 -9.33301 61 -10c37.333 1.33301 66.5 10.833 87.5 28.5s32.833 39.167 35.5 64.5h-203v105h199c-5.33301 28.667 -19.666 50.834 -42.999 66.501s-49.666 23.834 -78.999 24.501
c-20.667 -0.666992 -39.834 -4.5 -57.501 -11.5s-32.834 -14.833 -45.501 -23.5c-4.66699 -2.66699 -9 -5.5 -13 -8.5l-11 -8.5h-10v133c2.66699 1.33301 5.5 2.5 8.5 3.5s5.83301 2.16699 8.5 3.5c22.667 8.66699 45.167 14.834 67.5 18.501s43.166 5.5 62.499 5.5h10
c84.667 0 150.834 -25.333 198.501 -76s71.5 -110.667 71.5 -180c0 -70.667 -23.167 -132.334 -69.5 -185.001s-113.166 -79 -200.499 -79l-10 -1c-26 0.666992 -48.667 2.66699 -68 6s-35.666 6.66602 -48.999 9.99902c-7.33301 2.66699 -13.833 4.83398 -19.5 6.50098
s-10.167 3.16699 -13.5 4.5v0z" />
    <glyph glyph-name="period" unicode="&#x44d;" horiz-adv-x="502" 
d="M42 7l-0.00195312 139.998h10c25.333 -18.667 49.333 -31 72 -37s43 -9.33301 61 -10c37.333 1.33301 66.5 10.833 87.5 28.5s32.833 39.167 35.5 64.5h-203v105h199c-5.33301 28.667 -19.666 50.834 -42.999 66.501s-49.666 23.834 -78.999 24.501
c-20.667 -0.666992 -39.834 -4.5 -57.501 -11.5s-32.834 -14.833 -45.501 -23.5c-4.66699 -2.66699 -9 -5.5 -13 -8.5l-11 -8.5h-10v133c2.66699 1.33301 5.5 2.5 8.5 3.5s5.83301 2.16699 8.5 3.5c22.667 8.66699 45.167 14.834 67.5 18.501s43.166 5.5 62.499 5.5h10
c84.667 0 150.834 -25.333 198.501 -76s71.5 -110.667 71.5 -180c0 -70.667 -23.167 -132.334 -69.5 -185.001s-113.166 -79 -200.499 -79l-10 -1c-26 0.666992 -48.667 2.66699 -68 6s-35.666 6.66602 -48.999 9.99902c-7.33301 2.66699 -13.833 4.83398 -19.5 6.50098
s-10.167 3.16699 -13.5 4.5v0z" />
    <glyph glyph-name="thorn" unicode="&#xfe;" horiz-adv-x="894" 
d="M241 193l0.00292969 -192.996h-10h-175v483h10h175v-178h45c2 8.66699 4.5 17.667 7.5 27s6.83301 18.666 11.5 27.999c17.333 35.333 46.166 67.666 86.499 96.999s98.833 44 175.5 44h10c97.333 0 169.5 -25.5 216.5 -76.5s70.5 -111.833 70.5 -182.5
c0 -71.333 -23.5 -132.333 -70.5 -183s-119.833 -76 -218.5 -76l-10 -1c-82.667 0.666992 -144.834 18.167 -186.501 52.5s-69.5 72.166 -83.5 113.499c-2.66699 8 -4.83398 15.667 -6.50098 23s-3.16699 14.666 -4.5 21.999h-43v0zM572.003 108.004
c34 1.33301 59.333 14.5 76 39.5s25 56.5 25 94.5c0 37.333 -8.16699 68.5 -24.5 93.5s-41.833 38.167 -76.5 39.5c-34.667 -1.33301 -60.167 -14.5 -76.5 -39.5s-24.5 -56.167 -24.5 -93.5c0 -38 8.33301 -69.5 25 -94.5s42 -38.167 76 -39.5v0z" />
    <glyph glyph-name="thorn" unicode="&#x44e;" horiz-adv-x="894" 
d="M241 193l0.00292969 -192.996h-10h-175v483h10h175v-178h45c2 8.66699 4.5 17.667 7.5 27s6.83301 18.666 11.5 27.999c17.333 35.333 46.166 67.666 86.499 96.999s98.833 44 175.5 44h10c97.333 0 169.5 -25.5 216.5 -76.5s70.5 -111.833 70.5 -182.5
c0 -71.333 -23.5 -132.333 -70.5 -183s-119.833 -76 -218.5 -76l-10 -1c-82.667 0.666992 -144.834 18.167 -186.501 52.5s-69.5 72.166 -83.5 113.499c-2.66699 8 -4.83398 15.667 -6.50098 23s-3.16699 14.666 -4.5 21.999h-43v0zM572.003 108.004
c34 1.33301 59.333 14.5 76 39.5s25 56.5 25 94.5c0 37.333 -8.16699 68.5 -24.5 93.5s-41.833 38.167 -76.5 39.5c-34.667 -1.33301 -60.167 -14.5 -76.5 -39.5s-24.5 -56.167 -24.5 -93.5c0 -38 8.33301 -69.5 25 -94.5s42 -38.167 76 -39.5v0z" />
    <glyph glyph-name="ydieresis" unicode="&#xff;" horiz-adv-x="563" 
d="M28 0l126 168c-36 5.33301 -65.333 21.833 -88 49.5s-34 63.5 -34 107.5c0 50.667 16.5 89.667 49.5 117s78.167 41 135.5 41h10h280v-483h-10h-175v154h-4l-98 -154h-10h-182v0zM322 259l0.000976562 112h-49c-3.33301 0 -7.5 -0.166992 -12.5 -0.5
s-10.167 -1.5 -15.5 -3.5c-8.66699 -2.66699 -16.667 -8 -24 -16s-11 -20.333 -11 -37c0 -20 5.66699 -34.167 17 -42.5s26.666 -12.5 45.999 -12.5h49v0z" />
    <glyph glyph-name="ydieresis" unicode="&#x44f;" horiz-adv-x="563" 
d="M28 0l126 168c-36 5.33301 -65.333 21.833 -88 49.5s-34 63.5 -34 107.5c0 50.667 16.5 89.667 49.5 117s78.167 41 135.5 41h10h280v-483h-10h-175v154h-4l-98 -154h-10h-182v0zM322 259l0.000976562 112h-49c-3.33301 0 -7.5 -0.166992 -12.5 -0.5
s-10.167 -1.5 -15.5 -3.5c-8.66699 -2.66699 -16.667 -8 -24 -16s-11 -20.333 -11 -37c0 -20 5.66699 -34.167 17 -42.5s26.666 -12.5 45.999 -12.5h49v0z" />
    <glyph glyph-name="amacron" unicode="&#x101;" 
 />
    <glyph glyph-name="OE" unicode="&#x152;" horiz-adv-x="1109" 
d="M63 0l-0.00195312 700h10h196v-273h228v273h10h196v-273h103c14 0 32.333 -0.666992 55 -2s46.334 -5.66602 71.001 -12.999c37.333 -10.667 71.5 -30.667 102.5 -60s46.5 -75.333 46.5 -138s-15.5 -108.834 -46.5 -138.501s-64.833 -49.834 -101.5 -60.501
c-24.667 -7.33301 -48.667 -11.666 -72 -12.999s-41.666 -2 -54.999 -2h-10h-299v287h-228v-287h-10h-196v0zM702.998 140h74c29.333 0 53 5.16699 71 15.5s27 29.833 27 58.5c0 28 -8.83301 47.167 -26.5 57.5s-41.5 15.5 -71.5 15.5h-74v-147v0z" />
    <glyph glyph-name="glyph258" unicode="&#x153;" horiz-adv-x="882" 
d="M56 0v483.001h10h175v-161h151v161h10h175v-161h106c52 0 90.5 -11.333 115.5 -34s41.833 -47.334 50.5 -74.001c2.66699 -10 4.66699 -19.667 6 -29s2 -18.333 2 -27c0 -46 -16 -83.833 -48 -113.5s-74 -44.5 -126 -44.5h-10h-281v202h-151v-202h-10h-175v0z
M577 112.001h48c16 0 27.833 3.33301 35.5 10s12.834 14 15.501 22c1.33301 3.33301 2.16602 6.5 2.49902 9.5s0.5 5.83301 0.5 8.5c0 16 -5.5 28 -16.5 36s-23.5 12 -37.5 12h-48v-98v0z" />
    <glyph glyph-name="perthousand" unicode="&#x160;" horiz-adv-x="1088" 
d="M150 700l531.999 0.000976562v-273h103c14 0 32.333 -0.666992 55 -2s46.334 -5.66602 71.001 -12.999c37.333 -10.667 71.5 -30.667 102.5 -60s46.5 -75.333 46.5 -138s-15.5 -108.834 -46.5 -138.501s-64.833 -49.834 -101.5 -60.501
c-24.667 -7.33301 -48.667 -11.666 -72 -12.999s-41.666 -2 -54.999 -2h-10h-299v532h-130v-276c0 -14.667 -0.5 -30.667 -1.5 -48s-3.5 -35 -7.5 -53c-8.66699 -41.333 -30.167 -78.833 -64.5 -112.5s-94.5 -50.5 -180.5 -50.5l-10 -1
c-10.667 0.666992 -20.167 1.16699 -28.5 1.5s-16.5 1.16602 -24.5 2.49902c-4.66699 0.666992 -9.33398 1.5 -14.001 2.5s-9.66699 1.83301 -15 2.5v168h10c6.66699 -2 13.167 -3.5 19.5 -4.5s12.833 -1.83301 19.5 -2.5c43.333 1.33301 69.333 16.833 78 46.5
s13 65.167 13 106.5v386h10v0zM681.999 140.001h74c29.333 0 53 5.16699 71 15.5s27 29.833 27 58.5c0 28 -8.83301 47.167 -26.5 57.5s-41.5 15.5 -71.5 15.5h-74v-147v0z" />
    <glyph glyph-name="eight" unicode="&#x161;" horiz-adv-x="882" 
d="M577 483l0.00195312 -161h106c52 0 90.5 -11.333 115.5 -34s41.833 -47.334 50.5 -74.001c2.66699 -10 4.66699 -19.667 6 -29s2 -18.333 2 -27c0 -46 -16 -83.833 -48 -113.5s-74 -44.5 -126 -44.5h-10h-281v363h-102v-202c0 -9.33301 -0.5 -20 -1.5 -32
s-3.16699 -24.333 -6.5 -37c-7.33301 -25.333 -22.833 -48.666 -46.5 -69.999s-63.5 -32 -119.5 -32l-10 -1c-6.66699 0.666992 -14.334 1.33398 -23.001 2.00098s-17.334 1.66699 -26.001 3c-5.33301 0.666992 -10.5 1.5 -15.5 2.5s-10.167 1.83301 -15.5 2.5
c-2 0 -4 0.166992 -6 0.5s-4 0.5 -6 0.5v126h10c2.66699 -0.666992 5.5 -1.33398 8.5 -2.00098s6.16699 -1.33398 9.5 -2.00098c1.33301 0 2.83301 -0.166992 4.5 -0.5s3.16699 -0.5 4.5 -0.5c15.333 1.33301 29.333 7.83301 42 19.5s19 33.834 19 66.501v276h10h455v0z
M577.002 112h48c16 0 27.833 3.33301 35.5 10s12.834 14 15.501 22c1.33301 3.33301 2.16602 6.5 2.49902 9.5s0.5 5.83301 0.5 8.5c0 16 -5.5 28 -16.5 36s-23.5 12 -37.5 12h-48v-98v0z" />
    <glyph glyph-name="greater" unicode="&#x192;" horiz-adv-x="409" 
d="M56 0v483h10h336v-126h-161v-357h-10h-175v0z" />
    <glyph glyph-name="glyph237" unicode="&#x2c6;" horiz-adv-x="10" 
 />
    <glyph glyph-name="seven" unicode="&#x2dc;" horiz-adv-x="10" 
 />
    <glyph glyph-name="dollar" unicode="&#x2013;" horiz-adv-x="650" 
d="M50 300v100h10h540v-100h-10h-540v0z" />
    <glyph glyph-name="numbersign" unicode="&#x2014;" horiz-adv-x="834" 
d="M42 323h760v-100h-10h-760v100h10v0z" />
    <glyph glyph-name="four" unicode="&#x2018;" horiz-adv-x="346" 
d="M318 700l-105 -308h-10h-175l147 308h10h133v0z" />
    <glyph glyph-name="quoteright" unicode="&#x2019;" horiz-adv-x="346" 
d="M28 392l105 308h10h175l-147 -308h-10h-133v0z" />
    <glyph glyph-name="parenleft" unicode="&#x201a;" horiz-adv-x="332" 
d="M14 -140l105 308h10h175l-147 -308h-10h-133v0z" />
    <glyph glyph-name="oe" unicode="&#x201c;" horiz-adv-x="577" 
d="M318 700l-105 -308h-10h-175l147 308h10h133v0zM549 700l-105 -308h-10h-175l147 308h10h133v0z" />
    <glyph glyph-name="B" unicode="&#x201d;" horiz-adv-x="577" 
d="M28 392l105 308h10h175l-147 -308h-10h-133v0zM259 392l105 308h10h175l-147 -308h-10h-133v0z" />
    <glyph glyph-name="quotedblbase" unicode="&#x201e;" horiz-adv-x="577" 
d="M28 -140l105 308h10h175l-147 -308h-10h-133v0zM259 -140l105 308h10h175l-147 -308h-10h-133v0z" />
    <glyph glyph-name="glyph233" unicode="&#x2020;" horiz-adv-x="598" 
d="M203 -210v560h-175v161h175v224h10h182v-224h175v-161h-175v-560h-10h-182v0z" />
    <glyph glyph-name="glyph236" unicode="&#x2021;" horiz-adv-x="682" 
d="M135 392c-10.667 18.667 -18.335 37.499 -23.002 56.499s-7 38.833 -7 59.5c0 55.333 21.833 104.5 65.5 147.5s107.834 64.5 192.501 64.5h10c78.667 0 137 -14.833 175 -44.5s64 -62.167 78 -97.5c6.66699 -17.333 11.167 -34.166 13.5 -50.499
s3.5 -31.166 3.5 -44.499h-10h-181c0.666992 3.33301 1 6.66602 1 9.99902v9c0 24.667 -6.66699 42.834 -20 54.501s-28 18.834 -44 21.501c-2 0.666992 -4.33301 1.16699 -7 1.5s-5.33398 0.5 -8.00098 0.5c-22.667 -0.666992 -41.167 -8.5 -55.5 -23.5
s-21.5 -35.167 -21.5 -60.5c0 -11.333 1 -22 3 -32s4.33301 -19 7 -27c1.33301 -5.33301 2.83301 -10.166 4.5 -14.499s2.83398 -7.5 3.50098 -9.5s1.33398 -3.66699 2.00098 -5l2 -4c0 -0.666992 0.166992 -1.16699 0.5 -1.5s0.5 -0.833008 0.5 -1.5
c0.666992 -1.33301 1.16699 -2.66602 1.5 -3.99902s0.833008 -3 1.5 -5h142v-91h-120c1.33301 -8 2.5 -16 3.5 -24s1.5 -16 1.5 -24c0 -16 -1.66699 -32 -5 -48s-8.33301 -31.667 -15 -47c28 -8.66699 49.167 -14.834 63.5 -18.501s26.166 -5.83398 35.499 -6.50098
c14 0.666992 24.667 4.83398 32 12.501s12 16.167 14 25.5c0 2 0.166992 3.83301 0.5 5.5s0.5 3.5 0.5 5.5h10h168c-18 -82.667 -43.5 -136.834 -76.5 -162.501s-67.5 -38.5 -103.5 -38.5l-10 -1c-3.33301 0.666992 -6.83301 1 -10.5 1s-7.5 0.333008 -11.5 1
c-16.667 1.33301 -33 3.66602 -49 6.99902s-30.667 7 -44 11l-12 4l-12 4c-12.667 4.66699 -25.5 9 -38.5 13s-26.167 6.33301 -39.5 7c-2 0 -3.83301 -0.166992 -5.5 -0.5s-3.5 -0.5 -5.5 -0.5c-6 -1.33301 -11.667 -4 -17 -8s-9.66602 -10.333 -12.999 -19h-10h-175
c2.66699 55.333 19.167 98.333 49.5 129s66.833 46 109.5 46h2h2h1h2c2.66699 5.33301 5 11.666 7 18.999s3 16 3 26c-0.666992 10.667 -2.5 22.667 -5.5 36s-9.16699 28.333 -18.5 45h-138v91h100v0z" />
    <glyph glyph-name="glyph257" unicode="&#x2022;" horiz-adv-x="470" 
d="M50 350c0 50.667 17.833 93.334 53.5 128.001s77.834 52 126.501 52h10c49.333 0 91.666 -17.333 126.999 -52s53 -77.334 53 -128.001s-17.667 -93.334 -53 -128.001s-77.666 -52 -126.999 -52h-10c-48.667 0 -90.834 17.333 -126.501 52s-53.5 77.334 -53.5 128.001v0z
" />
    <glyph glyph-name="glyph232" unicode="&#x2026;" horiz-adv-x="1000" 
d="M63 84c0 28.667 10.167 52.834 30.5 72.501s44.166 29.5 71.499 29.5h10c27.333 0 51.166 -9.83301 71.499 -29.5s30.5 -43.834 30.5 -72.501s-10.167 -52.667 -30.5 -72s-44.166 -29 -71.499 -29l-10 -1c-27.333 0.666992 -51.166 10.667 -71.499 30
s-30.5 43.333 -30.5 72v0zM393 84c0 28.667 10.167 52.832 30.5 72.499s44.166 29.5 71.499 29.5h10c28.667 0 52.834 -10.167 72.501 -30.5s29.5 -44.166 29.5 -71.499s-9.83301 -51 -29.5 -71s-43.834 -30 -72.501 -30l-10 -1c-27.333 0.666992 -51.166 10.667 -71.499 30
s-30.5 43.333 -30.5 72v0zM723 83.998c0 27.333 9.83301 51.168 29.5 71.501s43.834 30.5 72.501 30.5h10c27.333 0 51.166 -9.83301 71.499 -29.5s30.5 -43.834 30.5 -72.501s-10.167 -52.667 -30.5 -72s-44.166 -29 -71.499 -29l-10 -1
c-28.667 0.666992 -52.834 11 -72.501 31s-29.5 43.667 -29.5 71v0z" />
    <glyph glyph-name="v" unicode="&#x2030;" horiz-adv-x="1320" 
d="M168 -20l455 740h10h91l-455 -740h-10h-91v0zM477 172c0 52 18.668 97 56.001 135s82.666 57 135.999 57h10c53.333 0 98.666 -19 135.999 -57s56 -83 56 -135s-18.667 -96.833 -56 -134.5s-82.666 -56.5 -135.999 -56.5l-10 -1c-52 0.666992 -97 19.5 -135 56.5
s-57 82.167 -57 135.5v0zM602.001 172c0 -2.66699 0.166016 -5.50391 0.499023 -8.50391s0.833008 -6.16699 1.5 -9.5c4 -14 11.833 -27 23.5 -39s27.167 -18.667 46.5 -20c20.667 1.33301 37.834 9.33301 51.501 24s20.5 32.334 20.5 53.001s-6.16699 37.334 -18.5 50.001
s-25.833 21 -40.5 25c-2 0 -4.16699 0.333008 -6.5 1s-4.5 1 -6.5 1c-20 -1.33301 -37 -9.66602 -51 -24.999s-21 -32.666 -21 -51.999v0zM905 171.996c0 52 18.667 96.999 56 134.999s82.666 57 135.999 57h10c53.333 0 98.666 -19 135.999 -57s56 -83 56 -135
s-18.667 -96.833 -56 -134.5s-82.666 -56.5 -135.999 -56.5l-10 -1c-53.333 0.666992 -98.666 19.834 -135.999 57.501s-56 82.5 -56 134.5v0zM1030 171.995c0 -2.66699 0.166016 -5.50391 0.499023 -8.50391s0.833008 -6.16699 1.5 -9.5c4 -14 11.833 -27 23.5 -39
s27.167 -18.667 46.5 -20c20.667 1.33301 37.834 9.33301 51.501 24s20.5 32.334 20.5 53.001s-6.16699 37.334 -18.5 50.001s-25.833 21 -40.5 25c-2 0 -4.16699 0.333008 -6.5 1s-4.5 1 -6.5 1c-20 -1.33301 -37 -9.66602 -51 -24.999s-21 -32.666 -21 -51.999v0z
M20.999 527.991c0 52 18.667 97 56 135s82.666 57 135.999 57h10c53.333 0 98.666 -19 135.999 -57s56 -83 56 -135s-18.667 -97 -56 -135s-82.666 -57 -135.999 -57h-10c-53.333 0 -98.666 19 -135.999 57s-56 83 -56 135v0zM145.999 527.991
c0 -2.66699 0.166016 -5.50391 0.499023 -8.50391s0.833008 -6.16699 1.5 -9.5c4 -14 11.833 -27 23.5 -39s27.167 -18.667 46.5 -20c20.667 1.33301 37.834 9.33301 51.501 24s20.5 32.334 20.5 53.001s-6.16699 37.334 -18.5 50.001s-25.833 21 -40.5 25
c-2 0 -4.16699 0.333008 -6.5 1s-4.5 1 -6.5 1c-20 -1.33301 -37 -9.66602 -51 -24.999s-21 -32.666 -21 -51.999v0z" />
    <glyph glyph-name="glyph243" unicode="&#x2039;" horiz-adv-x="332" 
d="M198 21l-170 231l170 231h10l96 -59l-126 -172l126 -171l-96 -60h-10v0z" />
    <glyph glyph-name="less" unicode="&#x203a;" horiz-adv-x="332" 
d="M133 483l171 -231l-171 -231h-10l-95 60l126 171l-126 172l95 59h10v0z" />
    <glyph glyph-name="six" unicode="&#x2122;" horiz-adv-x="802" 
d="M120 420v190h-70v90h10h260v-90h-70v-190h-10h-120v0zM536 567l36 133h10h126l44 -280h-10h-102l-20 129l-37 -129h-10h-84l-37 129l-20 -129h-10h-102l44 280h10h126l36 -133v0z" />
    <glyph glyph-name="periodcentered" unicode="&#x2219;" horiz-adv-x="340" 
d="M63 273c0 28.667 10.167 52.834 30.5 72.501s44.166 29.5 71.499 29.5h10c27.333 0 51.166 -9.83301 71.499 -29.5s30.5 -43.834 30.5 -72.501s-10.167 -52.834 -30.5 -72.501s-44.166 -29.5 -71.499 -29.5h-10c-27.333 0 -51.166 9.83301 -71.499 29.5
s-30.5 43.834 -30.5 72.501v0z" />
    <glyph glyph-name="glyph1" horiz-adv-x="0" 
 />
    <glyph glyph-name="glyph2" horiz-adv-x="351" 
 />
    <glyph glyph-name="s" 
 />
    <glyph glyph-name="backslash" 
 />
    <glyph glyph-name="nine" 
 />
    <glyph glyph-name="colon" 
 />
    <glyph glyph-name="Y" 
 />
    <glyph glyph-name="X" 
 />
    <glyph glyph-name="asciicircum" 
 />
    <glyph glyph-name="semicolon" 
 />
    <glyph glyph-name="equal" 
 />
    <glyph glyph-name="exclam" 
 />
    <glyph glyph-name="five" 
 />
    <glyph glyph-name="Q" 
 />
    <glyph glyph-name="quotedblright" 
 />
    <glyph glyph-name="hyphen" 
 />
    <glyph glyph-name="space" 
 />
    <glyph glyph-name="E" 
 />
    <glyph glyph-name="M" 
 />
    <glyph glyph-name="plus" 
 />
    <glyph glyph-name="glyph229" 
 />
    <glyph glyph-name="glyph230" 
 />
    <glyph glyph-name="glyph231" 
 />
    <glyph glyph-name="glyph234" 
 />
    <glyph glyph-name="glyph235" 
 />
    <glyph glyph-name="glyph238" 
 />
    <glyph glyph-name="glyph239" 
 />
    <glyph glyph-name="glyph240" 
 />
    <glyph glyph-name="glyph241" 
 />
    <glyph glyph-name="glyph242" 
 />
    <glyph glyph-name="glyph244" 
 />
    <glyph glyph-name="glyph245" 
 />
    <glyph glyph-name="glyph246" 
 />
    <glyph glyph-name="glyph247" 
 />
    <glyph glyph-name="glyph248" 
 />
    <glyph glyph-name="glyph249" 
 />
    <glyph glyph-name="glyph250" 
 />
    <glyph glyph-name="glyph251" 
 />
    <glyph glyph-name="glyph252" 
 />
    <glyph glyph-name="glyph253" 
 />
    <glyph glyph-name="glyph254" 
 />
    <glyph glyph-name="glyph255" 
 />
    <glyph glyph-name="glyph256" 
 />
    <glyph glyph-name="glyph267" 
 />
    <glyph glyph-name="glyph268" 
 />
    <glyph glyph-name="glyph269" 
 />
    <glyph glyph-name="glyph270" 
 />
    <glyph glyph-name="glyph271" 
 />
    <glyph glyph-name="glyph272" 
 />
    <glyph glyph-name="glyph273" 
 />
    <glyph glyph-name="glyph274" 
 />
    <glyph glyph-name="glyph275" 
 />
    <glyph glyph-name="glyph276" 
 />
    <glyph glyph-name="glyph277" 
 />
    <glyph glyph-name="glyph278" 
 />
    <glyph glyph-name="glyph279" 
 />
    <glyph glyph-name="glyph280" 
 />
    <glyph glyph-name="glyph281" 
 />
    <glyph glyph-name="glyph282" 
 />
    <glyph glyph-name="glyph283" 
 />
    <glyph glyph-name="glyph284" 
 />
    <glyph glyph-name="glyph285" 
 />
    <glyph glyph-name="glyph286" 
 />
    <glyph glyph-name="glyph287" 
 />
    <glyph glyph-name="glyph288" 
 />
    <glyph glyph-name="glyph289" 
 />
    <glyph glyph-name="glyph290" 
 />
    <glyph glyph-name="glyph291" 
 />
    <glyph glyph-name="glyph292" 
 />
    <glyph glyph-name="glyph293" 
 />
    <glyph glyph-name="glyph294" 
 />
    <glyph glyph-name="glyph295" 
 />
    <glyph glyph-name="glyph296" 
 />
    <glyph glyph-name="glyph297" 
 />
    <glyph glyph-name="glyph298" 
 />
    <glyph glyph-name="glyph299" 
 />
    <glyph glyph-name="glyph300" 
 />
    <glyph glyph-name="glyph301" 
 />
    <glyph glyph-name="glyph302" 
 />
    <glyph glyph-name="glyph303" 
 />
    <glyph glyph-name="glyph304" 
 />
    <glyph glyph-name="glyph305" 
 />
    <glyph glyph-name="glyph306" 
 />
    <glyph glyph-name="glyph307" 
 />
    <glyph glyph-name="glyph308" 
 />
    <glyph glyph-name="glyph309" 
 />
    <glyph glyph-name="glyph310" 
 />
    <glyph glyph-name="glyph311" 
 />
    <glyph glyph-name="glyph312" 
 />
    <glyph glyph-name="glyph313" 
 />
    <glyph glyph-name="glyph314" 
 />
    <glyph glyph-name="glyph315" 
 />
    <glyph glyph-name="glyph316" 
 />
    <glyph glyph-name="glyph317" 
 />
    <glyph glyph-name="glyph318" 
 />
    <glyph glyph-name="glyph319" 
 />
    <glyph glyph-name="glyph320" 
 />
    <glyph glyph-name="glyph321" 
 />
    <glyph glyph-name="glyph322" 
 />
    <glyph glyph-name="glyph323" 
 />
    <glyph glyph-name="glyph324" 
 />
    <glyph glyph-name="glyph325" 
 />
    <glyph glyph-name="glyph326" 
 />
    <glyph glyph-name="glyph327" 
 />
    <glyph glyph-name="glyph328" 
 />
    <glyph glyph-name="glyph329" 
 />
    <glyph glyph-name="glyph330" 
 />
    <glyph glyph-name="glyph331" 
 />
    <glyph glyph-name="glyph332" 
 />
    <glyph glyph-name="glyph333" 
 />
    <glyph glyph-name="glyph334" 
 />
    <glyph glyph-name="glyph335" 
 />
    <glyph glyph-name="glyph336" 
 />
    <glyph glyph-name="glyph337" 
 />
    <glyph glyph-name="glyph338" 
 />
    <glyph glyph-name="glyph339" 
 />
    <glyph glyph-name="glyph340" 
 />
    <glyph glyph-name="glyph341" 
 />
    <glyph glyph-name="glyph342" 
 />
    <glyph glyph-name="glyph343" 
 />
    <glyph glyph-name="glyph344" 
 />
    <glyph glyph-name="glyph345" 
 />
    <glyph glyph-name="glyph346" 
 />
    <glyph glyph-name="glyph347" 
 />
    <glyph glyph-name="glyph348" 
 />
    <glyph glyph-name="glyph349" 
 />
    <glyph glyph-name="glyph350" 
 />
    <glyph glyph-name="glyph351" 
 />
    <glyph glyph-name="glyph352" 
 />
    <glyph glyph-name="glyph353" 
 />
    <glyph glyph-name="glyph354" 
 />
    <glyph glyph-name="glyph355" 
 />
    <glyph glyph-name="glyph356" 
 />
    <glyph glyph-name="glyph357" 
 />
    <glyph glyph-name="glyph358" 
 />
    <glyph glyph-name="glyph359" 
 />
    <glyph glyph-name="glyph360" 
 />
    <glyph glyph-name="glyph361" 
 />
    <glyph glyph-name="glyph362" 
 />
    <glyph glyph-name="glyph363" 
 />
    <glyph glyph-name="glyph364" 
 />
    <glyph glyph-name="glyph365" 
 />
    <glyph glyph-name="glyph366" 
 />
    <glyph glyph-name="glyph367" 
 />
    <glyph glyph-name="glyph368" 
 />
    <glyph glyph-name="glyph369" 
 />
    <glyph glyph-name="glyph370" 
 />
    <glyph glyph-name="glyph371" 
 />
    <glyph glyph-name="glyph372" 
 />
    <glyph glyph-name="glyph373" 
 />
    <glyph glyph-name="glyph374" 
 />
    <glyph glyph-name="glyph375" 
 />
    <glyph glyph-name="glyph376" 
 />
    <glyph glyph-name="glyph377" 
 />
    <glyph glyph-name="glyph378" 
 />
    <glyph glyph-name="glyph379" 
 />
    <glyph glyph-name="glyph380" 
 />
    <glyph glyph-name="glyph381" 
 />
    <glyph glyph-name="glyph382" 
 />
    <glyph glyph-name="glyph383" 
 />
    <glyph glyph-name="glyph384" 
 />
    <glyph glyph-name="glyph385" 
 />
    <glyph glyph-name="glyph386" 
 />
    <glyph glyph-name="glyph387" 
 />
    <glyph glyph-name="glyph388" 
 />
    <glyph glyph-name="glyph389" 
 />
    <glyph glyph-name="glyph390" 
 />
    <glyph glyph-name="glyph391" 
 />
    <glyph glyph-name="glyph392" 
 />
    <glyph glyph-name="glyph393" 
 />
    <glyph glyph-name="glyph394" 
 />
    <glyph glyph-name="glyph395" 
 />
    <glyph glyph-name="glyph396" 
 />
    <glyph glyph-name="glyph397" 
 />
    <glyph glyph-name="glyph398" 
 />
    <glyph glyph-name="glyph399" 
 />
    <glyph glyph-name="glyph400" 
 />
    <glyph glyph-name="glyph401" 
 />
    <glyph glyph-name="glyph402" 
 />
    <glyph glyph-name="glyph403" 
 />
    <glyph glyph-name="glyph404" 
 />
    <glyph glyph-name="glyph405" 
 />
    <glyph glyph-name="glyph406" 
 />
    <glyph glyph-name="glyph407" 
 />
    <glyph glyph-name="glyph408" 
 />
    <glyph glyph-name="glyph409" 
 />
    <glyph glyph-name="glyph410" 
 />
    <glyph glyph-name="glyph411" 
 />
    <glyph glyph-name="glyph412" 
 />
    <glyph glyph-name="glyph413" 
 />
    <glyph glyph-name="glyph414" 
 />
    <glyph glyph-name="glyph415" 
 />
    <glyph glyph-name="glyph416" 
 />
    <glyph glyph-name="glyph417" 
 />
    <glyph glyph-name="glyph418" 
 />
    <glyph glyph-name="glyph419" 
 />
    <glyph glyph-name="glyph420" 
 />
    <glyph glyph-name="glyph421" 
 />
    <glyph glyph-name="glyph422" 
 />
    <glyph glyph-name="glyph423" 
 />
    <glyph glyph-name="glyph424" 
 />
    <glyph glyph-name="glyph425" 
 />
    <glyph glyph-name="glyph426" 
 />
    <glyph glyph-name="glyph427" 
 />
    <glyph glyph-name="glyph428" 
 />
    <glyph glyph-name="glyph429" 
 />
    <glyph glyph-name="glyph430" 
 />
    <glyph glyph-name="glyph431" 
 />
    <glyph glyph-name="glyph432" 
 />
    <glyph glyph-name="glyph433" 
 />
    <glyph glyph-name="glyph434" 
 />
    <glyph glyph-name="glyph435" 
 />
    <glyph glyph-name="glyph436" 
 />
    <glyph glyph-name="glyph437" 
 />
    <glyph glyph-name="glyph438" 
 />
    <glyph glyph-name="glyph439" 
 />
    <glyph glyph-name="glyph440" 
 />
    <glyph glyph-name="glyph441" 
 />
  </font>
</defs>
</svg>
